<?xml version="1.0" encoding="UTF-8"?>
<svg id="Calque_2" data-name="Calque 2" xmlns="http://www.w3.org/2000/svg" xmlns:xlink="http://www.w3.org/1999/xlink" viewBox="0 0 541.02 203.59">
  <defs>
    <style>
      .cls-1 {
        fill: none;
      }

      .cls-2 {
        filter: url(#drop-shadow-1);
      }

      .cls-3 {
        filter: url(#drop-shadow-2);
      }

      .cls-4 {
        opacity: .2;
      }

      .cls-4, .cls-5 {
        fill: #36594d;
      }

      .cls-6 {
        fill: #c9a089;
      }

      .cls-7 {
        fill: #d98a6e;
      }

      .cls-8 {
        fill: #6a4435;
      }

      .cls-9 {
        opacity: .5;
      }

      .cls-9, .cls-10, .cls-11, .cls-12 {
        fill: #fff;
      }

      .cls-10, .cls-13 {
        opacity: .3;
      }

      .cls-11 {
        opacity: .4;
      }

      .cls-14 {
        fill: #08a4da;
      }

      .cls-15 {
        fill: #e0f2fd;
      }

      .cls-16 {
        fill: #e7441a;
      }

      .cls-17 {
        fill: #33483d;
      }

      .cls-18 {
        fill: #3c5347;
      }

      .cls-19 {
        fill: #f9c3a6;
      }

      .cls-20 {
        fill: #c57d64;
      }

      .cls-21 {
        fill: #01759a;
      }

      .cls-22 {
        fill: #61493f;
      }

      .cls-23 {
        fill: #b6927d;
      }

      .cls-24 {
        fill: #dadada;
      }

      .cls-25 {
        fill: #8d2c13;
      }

      .cls-26 {
        fill: #90b3ca;
      }

      .cls-27 {
        fill: #785c50;
      }

      .cls-28 {
        fill: #e29202;
      }

      .cls-29 {
        fill: #ea9376;
      }

      .cls-30 {
        fill: #56685b;
      }

      .cls-31 {
        fill: #35594d;
      }

      .cls-32 {
        fill: #b13518;
      }

      .cls-33 {
        fill: #48352d;
      }

      .cls-34 {
        fill: #0090be;
      }

      .cls-35 {
        fill: #bce3fa;
      }

      .cls-36 {
        fill: #5dc5f1;
      }

      .cls-37 {
        fill: #fdc420;
      }

      .cls-38 {
        fill: #cb4f1b;
      }

      .cls-39 {
        fill: #597b6a;
      }

      .cls-40 {
        fill: #f9b004;
      }

      .cls-41 {
        fill: #94604d;
      }

      .cls-42 {
        fill: #ededed;
      }

      .cls-43 {
        fill: #a3a09f;
      }

      .cls-44 {
        fill: #f7a707;
      }

      .cls-45 {
        fill: #f6b09e;
      }

      .cls-46 {
        fill: #b5b3b2;
      }

      .cls-47 {
        fill: #d53d16;
      }

      .cls-48 {
        fill: #009dd1;
      }

      .cls-49 {
        fill: #cc7512;
      }
    </style>
    <filter id="drop-shadow-1" x="267.33" y="101.27" width="275.1" height="103.59" filterUnits="userSpaceOnUse">
      <feOffset dx="1.42" dy="1.42"/>
      <feGaussianBlur result="blur" stdDeviation="0"/>
      <feFlood flood-color="#1d1d1b" flood-opacity=".45"/>
      <feComposite in2="blur" operator="in"/>
      <feComposite in="SourceGraphic"/>
    </filter>
    <filter id="drop-shadow-2" x="0" y="100.85" width="161.37" height="104.15" filterUnits="userSpaceOnUse">
      <feOffset dx="1.42" dy="1.42"/>
      <feGaussianBlur result="blur-2" stdDeviation="0"/>
      <feFlood flood-color="#1d1d1b" flood-opacity=".45"/>
      <feComposite in2="blur-2" operator="in"/>
      <feComposite in="SourceGraphic"/>
    </filter>
  </defs>
  <g id="Calque_1-2" data-name="Calque 1">
    <g>
      <path class="cls-12" d="M192.19,113c0-6.66,3.51-10.47,9.93-10.47s9.93,3.81,9.93,10.47v21.64c0,6.66-3.51,10.47-9.93,10.47s-9.93-3.81-9.93-10.47v-21.64ZM198.73,135.06c0,2.97,1.31,4.1,3.39,4.1s3.39-1.13,3.39-4.1v-22.48c0-2.97-1.31-4.1-3.39-4.1s-3.39,1.13-3.39,4.1v22.48Z"/>
      <path class="cls-12" d="M222.81,121.5h8.44v5.95h-8.44v17.18h-6.54v-41.62h17.3v5.95h-10.76v12.55Z"/>
      <path class="cls-12" d="M178.6,160.08h20.22v5.95h-6.84v35.68h-6.54v-35.68h-6.84v-5.95Z"/>
      <path class="cls-12" d="M208.21,201.71h-6.54v-41.62h6.54v17.84h7.43v-17.84h6.66v41.62h-6.66v-17.84h-7.43v17.84Z"/>
      <path class="cls-12" d="M233.6,177.62h8.98v5.95h-8.98v12.19h11.3v5.95h-17.84v-41.62h17.84v5.95h-11.3v11.59Z"/>
    </g>
    <g class="cls-2">
      <path class="cls-12" d="M314.28,125.39v3.57c0,10.27-3.14,16.84-10.13,20.12,8.42,3.28,11.7,10.85,11.7,21.41v8.13c0,15.41-8.13,23.69-23.83,23.69h-24.69v-99.89h23.69c16.27,0,23.26,7.56,23.26,22.98ZM283.03,116.68v26.4h6.14c5.85,0,9.42-2.57,9.42-10.56v-5.57c0-7.13-2.43-10.27-7.99-10.27h-7.56ZM283.03,157.35v30.68h8.99c5.28,0,8.13-2.43,8.13-9.85v-8.71c0-9.28-3-12.13-10.13-12.13h-6.99Z"/>
      <path class="cls-12" d="M323.98,126.39c0-15.98,8.42-25.12,23.83-25.12s23.83,9.13,23.83,25.12v51.94c0,15.98-8.42,25.12-23.83,25.12s-23.83-9.13-23.83-25.12v-51.94ZM339.67,179.33c0,7.13,3.14,9.85,8.13,9.85s8.13-2.71,8.13-9.85v-53.94c0-7.14-3.14-9.85-8.13-9.85s-8.13,2.71-8.13,9.85v53.94Z"/>
      <path class="cls-12" d="M380.48,126.39c0-15.98,8.42-25.12,23.83-25.12s23.83,9.13,23.83,25.12v51.94c0,15.98-8.42,25.12-23.83,25.12s-23.83-9.13-23.83-25.12v-51.94ZM396.18,179.33c0,7.13,3.14,9.85,8.13,9.85s8.13-2.71,8.13-9.85v-53.94c0-7.14-3.14-9.85-8.13-9.85s-8.13,2.71-8.13,9.85v53.94Z"/>
      <path class="cls-12" d="M458.82,162.49l-4.85,9.13v30.68h-15.7v-99.89h15.7v43.52l20.55-43.52h15.7l-21.83,44.52,21.83,55.37h-16.12l-15.27-39.81Z"/>
      <path class="cls-12" d="M517.76,101.27c15.27,0,23.12,9.13,23.12,25.12v3.14h-14.84v-4.14c0-7.14-2.85-9.85-7.85-9.85s-7.85,2.71-7.85,9.85c0,20.55,30.68,24.4,30.68,52.94,0,15.98-7.99,25.12-23.4,25.12s-23.4-9.13-23.4-25.12v-6.14h14.84v7.13c0,7.13,3.14,9.7,8.13,9.7s8.13-2.57,8.13-9.7c0-20.55-30.68-24.4-30.68-52.94,0-15.98,7.85-25.12,23.12-25.12Z"/>
    </g>
    <path class="cls-31" d="M480.86,102.42s-2.48,5.98,1.74,7.67c.51.21,3,1.44,5.01.37,2.02-1.07,3.57-4.46,3.72-6.02,0,0-10.13-2.03-10.47-2.02Z"/>
    <path class="cls-5" d="M501.87,103.89l-3.55,6.85c3.15.05,4.96-5.95,4.96-5.95l-1.42-.9Z"/>
    <path class="cls-31" d="M502.72,102.96s-.71,6.23,5.55,5.19c2.43-.41,4.12-6.44,4.12-6.44l-9.66,1.25Z"/>
    <g>
      <g id="fulard_personnage_2" data-name="fulard personnage 2">
        <path class="cls-30" d="M505.61,54.73c5.85,2.62,7.9,5.37,7.9,5.37-4.68,2.46-8.48.63-8.48.63-10.18-3.57-10.65-11.25-10.65-11.25"/>
        <path class="cls-18" d="M511.33,57.56c-4.06.24-12.98,1.15-17.21-7.18l4.2-1.29,11.59,6.58,1.43,1.89Z"/>
        <path class="cls-30" d="M496.29,49.17s5.5-.69,9.11,1.97c3.61,2.66,9.67,4.05,11.12,3.57,0,0-4.61,5.78-12.93,1.25-8.33-4.53-7.85-6.18-7.85-6.18l.55-.62Z"/>
        <path class="cls-39" d="M503.36,55.46s6.05,3.57,11.29-.12c0,0-4.95,1.35-11.29.12Z"/>
      </g>
      <g id="bras_gauche" data-name="bras gauche">
        <path class="cls-19" d="M458.6,38.03c1.27.28,2.61.63,3.9.11,1.14-.46,1.26-1.89,2-2.75.66-.78,1.52-.25,2.31-.16,1.2.13,2.62-.26,3.37-1.3.56-.78,1.18-2.39.09-2.95-.89-.46-1.83.02-2.49.66-.8.78-1.34.78-2.34.21-.6-.34-1.18-.74-1.88-.81-.93-.1-1.72.31-2.54.66-.44.19-3.46.24-3.57.5"/>
        <path class="cls-19" d="M449.18,27.47s-6.68,26.82-1.85,27.92c4.83,1.1,11.12-.2,11.12-.2l3.77-7.81-8.7,1.17s-6.39-1.49,2.74-17.97l-7.06-3.1Z"/>
        <path class="cls-40" d="M461.86,28.05l6.56,1.54s.71,1.2.34,2.36c-.42,1.31-1.09,1.76-1.09,1.76l-6.65-1.75.73-3.69"/>
        <path class="cls-19" d="M450.92,21.86s6.06-5.08,7.59-.72c0,0,1.57-1.55,3.37-.26,1.4,1,1.26,1.9,1.26,1.9,0,0,3.74-2.26,5.7.14,0,0,1.28,1.91.11,2.77,0,0-1.32.92-2.43-.18,0,0-.98-.41-2.06.61-1.09,1.01-7.08,1.23-7.3,1.15-.22-.08-3.1-.93-3.1-.93,0,0-2.84-4.21-3.01-4.06"/>
        <path class="cls-6" d="M463.14,22.78s.34,1.11-.21,2.74l1.31.75s1.58-1.63,2.71-.55c0,0-1.46-.9-.45-2.32,0,0-1.97,1.89-3.36-.63Z"/>
        <path class="cls-42" d="M460.12,46.65l-3.49,9.52,4.04-.82,3.11-9.41s-2.11-.26-3.65.71Z"/>
        <path class="cls-42" d="M463.4,46.69s10.97-1.91,11.7-.41c.73,1.49-3.09,6.12-3.09,6.12l-4.06,2.97-7.36-1.66,2.8-7.02Z"/>
        <path class="cls-11" d="M452.81,20.72s4.99-3.01,5.59.76c0,0-1.55-2.2-5.59-.76Z"/>
        <polygon class="cls-24" points="463.4 46.69 461.27 52.01 469.64 48.33 463.19 49.66 463.4 46.69"/>
        <path class="cls-12" d="M463.46,47.14l7.45-.37.24-.88s-5.99.93-7.7,1.25Z"/>
        <polygon class="cls-12" points="458.89 51.25 460.44 47.23 462.84 46.41 462.03 48.03 460.55 48.34 458.89 51.25"/>
        <path class="cls-40" d="M424.29,12.83l25.57,6.96s4.98,5.51-3.93,14.01l-27.11-5.85s-5.37-2.99-2.21-9.58c3.16-6.59,7.68-5.54,7.68-5.54Z"/>
        <path class="cls-40" d="M464.94,26.08l-15.88-4.4c.56.06-2.55,9.67-2.55,9.67l14.61,3.73s1.78-.49,3.36-3.77c1.58-3.28.46-5.22.46-5.22Z"/>
        <path class="cls-28" d="M452.93,22.79s.17,3.96,1.49,4.29c1.32.33,2.43-2.44,2.43-2.44,0,0,1.73,3.21,2.98,3.69,1.25.49.86-2.81.79-3.11-.07-.3-.78-1.13-.78-1.13l-3.24-.72-3.67-.59Z"/>
        <path class="cls-19" d="M454.37,22.64c-.59,1.53-1.95,2.43-3.04,2.01-1.09-.42-1.5-2-.92-3.53.59-1.53,1.95-2.43,3.04-2.01,1.09.42,1.5,2,.92,3.53Z"/>
        <path class="cls-28" d="M461.25,36.03c-.13-.06-.24-.16-.34-.28-.31-.42-.22-1.01.2-1.31,4.46-3.28,2.3-8.28,2.21-8.49-.21-.47,0-1.03.47-1.24.47-.21,1.03,0,1.24.47,1.02,2.26,1.76,7.42-2.81,10.78-.29.22-.67.24-.98.08Z"/>
        <path class="cls-28" d="M444.42,34.34c-.39-.19-.65-.61-.62-1.07.03-.62.57-1.1,1.19-1.07.07,0,2.47-.05,4.38-4.54,2-4.69-.17-7.07-.19-7.09-.43-.45-.41-1.17.04-1.59.45-.43,1.17-.41,1.59.04.13.14,3.21,3.49.63,9.53-2.58,6.06-6.42,5.92-6.58,5.91-.16,0-.31-.05-.44-.12Z"/>
        <path class="cls-28" d="M428.16,22.82c-1.88,4.84-6.33,7.63-9.96,6.23-3.62-1.4-5.04-6.47-3.16-11.31,1.88-4.84,6.33-7.63,9.96-6.23,3.62,1.4,5.04,6.47,3.16,11.31Z"/>
        <path class="cls-28" d="M432.33,23.93c-1.88,4.84-6.33,7.63-9.96,6.23-3.62-1.4-5.04-6.47-3.16-11.31,1.88-4.84,6.33-7.63,9.96-6.23,3.62,1.4,5.04,6.47,3.16,11.31Z"/>
        <polygon class="cls-28" points="423.62 11.18 429.16 12.62 422.94 30.35 418.74 29.2 423.62 11.18"/>
        <path class="cls-35" d="M425.71,22.29c-1.3,3.37-4.41,5.31-6.93,4.33-2.52-.98-3.51-4.5-2.2-7.87,1.31-3.37,4.41-5.31,6.93-4.33,2.52.98,3.51,4.5,2.2,7.87Z"/>
        <path class="cls-49" d="M417.68,20.11c1.15-4.6,5.83-5.69,5.83-5.69-2.52-.98-5.62.96-6.93,4.33-1.31,3.37-.32,6.89,2.2,7.87.2.08.41.13.61.17-.17-.13-2.82-2.23-1.71-6.68Z"/>
        <path class="cls-15" d="M419.64,26.02s-2.77-2.81-1.08-6.79c0,0,1.84-3.68,5.48-3.82,0,0-5.49,3.87-4.25,5.99,0,0,1.03-3.09,2.23-2.61,1.2.48,2.5,2.69,1.16,4.74-2.15,3.26-3.53,2.5-3.53,2.5Z"/>
        <path class="cls-36" d="M424.95,15.7s3.61,4.86-2.22,10.07c0,0,3.42-4.29,2.22-10.07Z"/>
        <path class="cls-36" d="M422.96,18.29s2.78,1.13,1.66,4.45l1.08-2.59s.37-2.38-2.74-1.86Z"/>
        <path class="cls-40" d="M426.85,13.23s4.65,3.4.81,10.51c0,0,5.72-6.51-.81-10.51Z"/>
        <path class="cls-40" d="M426.01,12.39l3.76.94s.98.91,1.02,1.65l-3-1.07-1.78-1.52Z"/>
        <polygon class="cls-40" points="429.36 17.54 428.21 18.52 429.18 18.42 429.36 17.54"/>
        <path class="cls-49" d="M419.91,29.52s3.85.44,6.23-3.27c0,0-.91,2.36-2.06,3.23l2.54.6s-1.4,1.12-6.71-.56Z"/>
        <path class="cls-49" d="M423.96,30.41s3.14,1,7.34-4.42c0,0-3.71,3.77-6.94,3.63"/>
        <path class="cls-49" d="M429.34,25.84s-2.8,4.38-5.77,4.53"/>
        <path class="cls-40" d="M415.19,24.58s.07.13.19.34c.12.21.31.5.56.83.49.65,1.28,1.46,2.28,1.85.25.09.5.17.76.21.26.04.52.06.77.05.25,0,.5-.03.72-.08.23-.04.45-.09.64-.15.39-.12.72-.24.94-.34.22-.1.35-.15.35-.15,0,0-.11.08-.32.22-.1.07-.23.14-.38.23-.15.09-.33.17-.52.25-.2.08-.42.16-.66.22-.24.06-.5.11-.77.13-.27.02-.56.02-.84-.02-.29-.04-.57-.12-.84-.22-.27-.11-.53-.24-.77-.4-.24-.16-.46-.34-.65-.53-.39-.37-.68-.78-.9-1.15-.43-.74-.57-1.29-.57-1.29Z"/>
        <path class="cls-37" d="M432.65,15.74l15.53,4.25s2.08,1.74,1.17,5.01c0,0-.36-3.29-1.78-4.43l-1.41-.37s1.51,1.62,1.14,3.47c0,0-1.2-2.4-3.75-3.84l-10.89-4.08Z"/>
        <path class="cls-28" d="M447.55,19.19s1.9-2.49,3.56.3l-1.24,2.24s-.99-2.2-2.32-2.54Z"/>
        <path class="cls-40" d="M449.15,18.97s2.77,1.58,1.57,8c0,0,2.65-8.1-1.57-8Z"/>
        <path class="cls-44" d="M429.32,29.95l15.51,3.23s3.95-3.91,4.67-6.82l-3.76,2.68-13.46-3.46s-1.54,3.86-3.27,4.34"/>
        <path class="cls-44" d="M451.31,29.59c.23-.06,9.81,3.19,9.81,3.19,0,0,1.73-1.07,2.15-2.08,0,0-.45,4.13-3.01,3.79l-.52-.07-9.55-2.61,1.11-2.22Z"/>
        <path class="cls-19" d="M454.79,22.64s-1.89,4.14-.18,4.5c1.71.36,3.72-1.42,4.1-3.33,0,0-.66,4.14,1.58,4.68,2.23.54,2.69-3.42,2.93-4.19.23-.78-8.42-1.66-8.42-1.66Z"/>
        <path class="cls-28" d="M468.05,29.49s.89.77.35,2.34c0,0-.34,1.37-1.08,1.73l-.81-.21s-.22.71.59,1.06c.81.35,1.68-.17,2.41-2.17.73-2,.33-3.58-1.15-3.77,0,0-1.16.11-1.04.85l.73.17Z"/>
        <path class="cls-6" d="M458.41,21.36s.73,1.63.2,2.82c0,0,1.82-2.41-.2-2.82Z"/>
        <path class="cls-11" d="M463.74,22.72s4.41-2.17,5.45,1.41c0,0-.68-1.54-1.66-.98,0,0-1.4.08-.82,1.99,0,0-1.2-1.6.63-2.54,0,0-1.18-.36-3.6.13Z"/>
        <path class="cls-49" d="M463.13,25.64s2.13,3.68-.46,7.55c0,0,3.61-3.24.46-7.55Z"/>
        <path class="cls-49" d="M449.87,24.66s-.32,4.9-3.14,6.74c0,0,2.52.67,3.14-6.74Z"/>
        <path class="cls-49" d="M468.05,29.49s1.67,1.68-1.02,3.99l.29.08s2.64-1.53.73-4.07Z"/>
        <path class="cls-44" d="M464.94,32.62c.21.15,2.06.61,2.06.61l1.18-1.44-2.54-.56-.7,1.39Z"/>
        <path class="cls-28" d="M437.95,32.08s6.59-3.72,10.31-2.26l-.7,1.41-7.24,1.36-2.36-.51Z"/>
        <polygon class="cls-49" points="448.62 30.01 450.48 30.68 449.63 31.44 447.27 31.28 448.62 30.01"/>
        <path class="cls-6" d="M454.62,20.91s-.1,1.56-.41,2.08l.34.05s.51-.9.07-2.13Z"/>
        <path class="cls-11" d="M451.92,19.86s1.36-1.42,2.29.47c0,0-1.23-.85-2.29-.47Z"/>
        <path class="cls-11" d="M458.82,21.24s2.62-1.94,4.19,1.4c0,0-1.59-1.99-3.56-.84,0,0,0-.57-.63-.56Z"/>
        <polyline class="cls-6" points="459.71 47.79 456.77 55.47 455.54 55.63 459.33 48.06"/>
      </g>
      <g id="corps_personnage" data-name="corps personnage">
        <path class="cls-25" d="M459.49,57.5s2.26-.9,1.15,4.47c-1.12,5.37,1.08,2.16,1.08,2.16l6.31-4.67,3.93-4.12s3.22-3.81,3.56-4.54c.34-.74.26-1.41-.2-2.16-.46-.76-2.86.32-3.33.16-.47-.16-11.48,6.9-11.48,6.9"/>
        <path class="cls-42" d="M472.91,49.03l-22.1,22.79s-.95,8.45,23.12,13.2l18.51-25.78-15.78-11.42-3.75,1.21Z"/>
        <polygon class="cls-24" points="482.55 61.6 472.77 78.31 477.53 77.73 471.2 84.28 473.94 85.02 481.22 75.41 482.55 61.6"/>
        <path class="cls-47" d="M483.45,59.81l-7.96,15.9s-.75,1.32.57,1.28l11.66-2.92,11.06-20.3s2.22-3.54-4.41-4.3c-6.62-.75-10.92,10.33-10.92,10.33Z"/>
        <path class="cls-47" d="M477.22,44.84s-11.73,4.1-17.82,8.1l-1.33,6.29s-.38,1.47,1.25.19c1.63-1.28,13.98-9.54,13.98-9.54l3.92-5.04Z"/>
        <path class="cls-25" d="M481.54,63.62s7.08-2.24,10.12-5.31l-8.73,2.53-1.39,2.78Z"/>
        <path class="cls-32" d="M471.45,47.04s-2.34,3.78-1.93,5.37l1.08-.72s.66-3.56.85-4.65Z"/>
        <path class="cls-32" d="M487.54,67.88s-3.04,1.13-3.22,2.38c0,0-.43,1.8.18,2.83l-.53,1.92.64-.16,1.14-2.6,1.78-4.37Z"/>
        <path class="cls-25" d="M482.71,65.1l1.09-2.17,4.9.48-.99,1.98-4.99-.29ZM484.02,63.33l-.72,1.43,4.18.24.63-1.27-4.09-.41Z"/>
        <polygon class="cls-22" points="478.79 67.16 481.77 67.41 480.28 69.29 477.87 69 478.79 67.16"/>
        <polygon class="cls-22" points="476.68 71.36 479.51 71.92 478.45 74.03 475.55 73.63 476.68 71.36"/>
        <path class="cls-38" d="M458.77,59.14l.88-6.37s8.57-4.12,10.85-4.72l-9.67,5.2-2.06,5.9Z"/>
        <path class="cls-38" d="M481.77,64.31c-.07.22-.16.44-.24.65-.08.22-.17.43-.26.64-.18.43-.38.85-.57,1.26l-.13-.26c.62.09,1.25.19,1.87.31l.28.05-.17.22c-.25.32-.5.63-.77.94-.26.31-.53.61-.82.9.2-.35.41-.7.63-1.04.22-.34.44-.68.68-1.01l.11.27c-.63-.08-1.25-.19-1.87-.3l-.25-.04.11-.21c.22-.41.44-.81.67-1.22.12-.2.23-.4.36-.6.12-.2.24-.39.38-.59Z"/>
        <path class="cls-46" d="M470.56,57.93l.82,2.06s-3.14,7.23,2.18,17.63l-1.47-1.33-4.37-12.68,1.6-6.31,1.25.63Z"/>
        <path class="cls-38" d="M479.11,69.62c-.05.15-.1.3-.16.45-.05.15-.11.3-.17.44-.12.29-.24.58-.37.87l-.13-.24c.64.05,1.27.14,1.9.23l.25.04-.12.22c-.18.34-.36.67-.56,1-.1.16-.2.33-.3.49-.1.16-.21.32-.32.48.06-.18.13-.36.19-.54.06-.18.14-.36.21-.53.15-.35.3-.7.46-1.04l.14.26c-.63-.07-1.27-.15-1.9-.26l-.23-.04.11-.19c.15-.27.31-.55.47-.81.08-.14.17-.27.25-.4.08-.13.17-.27.26-.39Z"/>
        <polygon class="cls-38" points="460.44 57.69 468.71 52.88 469.15 51.59 460.44 57.69"/>
        <path class="cls-38" d="M482.8,64.25c-.06.21-.15.42-.22.62-.08.21-.16.41-.24.61l-.11-.19c.79,0,1.59.04,2.38.11.4.04.79.08,1.18.13.2.03.39.05.59.09.2.04.39.07.59.11-.2.02-.4.02-.6.03-.2.01-.4.01-.6.01-.4,0-.79,0-1.19-.02-.79-.04-1.58-.1-2.37-.2l-.21-.03.1-.17c.11-.19.22-.38.34-.56.12-.18.23-.37.36-.55Z"/>
        <path class="cls-24" d="M467.74,70.41s1.28,8.15,6.42,12.2l3.63-2.95,1.05-2.09-3.44-.35-2.78.23-4.88-7.04Z"/>
        <path class="cls-38" d="M476.79,74.26c-.12.34-.26.67-.4,1-.14.33-.28.66-.43.98h0s-.02.04-.02.04c-.03.04-.06.09-.08.13-.01.02-.02.04-.02.04,0,.01,0-.02-.02-.05-.05-.04,0-.01.04-.02.05,0,.1-.01.16-.03.12-.03.21-.07.35-.1l.36-.1c.24-.06.49-.13.73-.19.25-.05.5-.1.75-.15.5-.09,1-.18,1.5-.24.5-.07,1-.12,1.51-.16-.24.08-.49.14-.73.2-.24.07-.49.13-.73.19l-1.46.35c-.24.06-.49.1-.73.16-.24.07-.49.13-.73.18l-.37.09c-.11.02-.24.07-.37.09-.06.02-.14.02-.21.03-.04,0-.07,0-.13,0-.04,0-.12-.03-.18-.1-.07-.08-.06-.18-.04-.23.01-.06.04-.09.06-.13.04-.07.09-.12.14-.18l-.03.04c.17-.31.35-.63.53-.93.19-.31.37-.62.57-.92Z"/>
        <path class="cls-46" d="M469.31,53.18s2.51,12.24,6.84,15.73c0,0-.41-3.99,5.39-5.29l1.39-2.78-10.14-9.96-1.2-.6-2.29,2.9Z"/>
        <polygon class="cls-12" points="453.6 70.39 469.11 53.91 469.74 56.03 460.74 67.65 464.92 59.92 453.6 70.39"/>
        <path class="cls-20" d="M471.41,48.51s-11.15,16.53,1.3,30.77l1.02-1.35s-8.39-12.93-.72-24.7"/>
        <path class="cls-41" d="M469.99,51.05s-.1,4.56.69,7.35l1.28-3.06.24-2.52-1.16-3.1-.18-.42-.88,1.75Z"/>
        <path class="cls-7" d="M469.36,53.42s-.04.08-.1.24c-.07.15-.15.38-.26.67-.1.29-.23.65-.35,1.06-.12.41-.25.88-.38,1.4-.14.51-.23,1.08-.36,1.67-.04.3-.09.61-.14.92-.05.31-.1.64-.12.97-.03.33-.06.66-.1,1-.03.34-.03.68-.04,1.03-.04.69,0,1.4.02,2.1,0,.18,0,.35.01.53l.05.52c.03.35.07.7.1,1.04.02.35.1.68.15,1.02.06.33.12.67.17.99.04.33.15.64.22.95.07.31.15.61.22.91.12.6.34,1.13.5,1.64.08.25.16.49.24.72.04.12.07.23.11.34.04.11.09.21.13.31.17.4.31.75.43,1.03.23.58.37.9.37.9,0,0-.16-.32-.43-.87-.14-.28-.3-.62-.49-1.01-.21-.38-.35-.85-.54-1.35-.18-.5-.42-1.03-.56-1.63-.16-.59-.37-1.21-.49-1.86-.06-.33-.12-.66-.18-1-.06-.34-.14-.68-.17-1.03-.04-.35-.07-.7-.11-1.06l-.06-.53c-.01-.18-.01-.36-.02-.53-.02-.71-.05-1.43,0-2.13.02-.35.02-.7.06-1.04.04-.34.07-.68.11-1.01.03-.33.08-.66.14-.97.06-.32.11-.63.17-.93.15-.6.26-1.16.42-1.67.08-.26.14-.5.22-.73.08-.23.16-.45.23-.65.15-.41.29-.76.41-1.04.25-.57.42-.88.42-.88Z"/>
        <polyline class="cls-41" points="496.87 61.69 501.48 75.07 499.42 75.72 495.72 67.95"/>
        <path class="cls-21" d="M458.94,78.94c4.15,2.57,0,0,0,0l-3.19-.17-2.02-1.83-2.22-3.51.32-3.06"/>
        <path class="cls-20" d="M472.72,79.28s1.33.66,1.83,2.47c.5,1.81.31,12.42,13.29,16.3,0,0,8.07,3.6,10.66,1.08,2.59-2.52,10.25-8.87,10.25-8.87,0,0-.32-.41-.51-1.32,0,0,2.66-.98-2.69-3.89l2.16-1.48s-2.99-.14-4.72-1.85c-1.72-1.71,2.72-5.68-1.15-7.37-3.88-1.69-7.72,2.8-13.81,2.68-6.1-.12-10.94,2.64-14.29.89l-1.02,1.35Z"/>
        <path class="cls-41" d="M475.09,79.75s.08.04.23.12c.15.09.36.22.61.42.49.4,1.15,1.11,1.57,2.18.19.53.36,1.14.38,1.8.03.33,0,.66,0,1.01-.02.17-.05.34-.07.52l-.04.26v.02s0,0,0,0c0,.04,0-.04,0-.03v.03s-.01.06-.01.06v.12c-.05.19-.02.3-.02.42,0,.12.05.27.07.41.09.28.19.56.35.83.31.55.75,1.06,1.24,1.53.48.48,1.02.92,1.57,1.32.56.4,1.11.79,1.68,1.14.56.34,1.11.67,1.64.97.53.29,1.04.56,1.52.81.95.48,1.76.85,2.34,1.09.29.12.52.2.68.26.16.05.25.07.25.07,0,0-.09,0-.26-.01-.17-.02-.42-.04-.73-.1-.63-.11-1.51-.34-2.54-.71-1.03-.36-2.2-.86-3.41-1.52-.6-.33-1.22-.69-1.81-1.11-.59-.42-1.18-.88-1.73-1.4-.53-.53-1.03-1.13-1.4-1.82-.19-.34-.32-.73-.42-1.11-.03-.21-.07-.39-.07-.61,0-.22,0-.45.04-.59l.05-.28.05-.23c.03-.15.07-.3.1-.45.03-.3.09-.6.09-.88,0-.14,0-.29,0-.43,0-.14-.03-.28-.03-.41,0-.27-.08-.53-.12-.78-.13-.49-.3-.93-.5-1.3-.21-.36-.41-.68-.61-.92-.2-.24-.36-.42-.49-.53-.12-.12-.19-.17-.19-.17Z"/>
        <polygon class="cls-41" points="505.55 85.05 495.86 90.15 493.69 91.33 494.35 93.42 505.55 85.05"/>
        <polyline class="cls-41" points="508.24 88.94 504.16 92.36 508.38 89.6"/>
        <path class="cls-29" d="M475.38,79.17s.13,0,.34.03c.22.03.52.11.87.26.35.15.74.38,1.1.69.1.07.18.17.27.26.09.09.18.18.26.29.16.21.31.42.43.67.06.12.12.24.17.36.04.13.08.25.12.38l.05.19c.01.06.02.13.03.19.02.13.03.25.04.38.03.25-.02.48-.03.71-.01.22-.09.42-.14.6-.06.18-.11.35-.19.48-.07.14-.14.25-.2.34-.11.19-.19.28-.19.28,0,0-.02-.13-.03-.34,0-.11-.01-.23,0-.38.01-.14-.03-.3-.04-.47-.02-.17,0-.35-.06-.53-.04-.18-.05-.38-.11-.56-.07-.19-.09-.39-.18-.57-.04-.09-.08-.19-.11-.28-.03-.09-.09-.18-.14-.27-.08-.19-.2-.36-.3-.53-.11-.17-.24-.34-.36-.49-.13-.15-.25-.31-.38-.45-.12-.15-.25-.27-.37-.4-.24-.25-.45-.45-.61-.6-.16-.15-.25-.23-.25-.23Z"/>
        <path class="cls-7" d="M499.84,74.92s.2-.07.58-.11c.19-.02.42-.04.7,0,.27.03.6.09.93.29.16.1.33.25.45.44.06.1.12.2.15.31.04.11.07.23.08.34.06.48-.05.89-.13,1.28-.19.78-.43,1.56-.53,2.32-.05.38-.07.75-.03,1.1.04.35.13.67.27.97.15.29.34.56.57.79.22.23.48.42.72.6.25.16.49.31.71.43.22.12.42.22.58.3.33.15.53.25.53.25,0,0-.21,0-.59-.04-.18-.03-.42-.05-.67-.11-.13-.03-.27-.07-.41-.1-.14-.05-.29-.1-.45-.16-.31-.13-.65-.28-.96-.53-.32-.24-.65-.54-.89-.93-.25-.39-.42-.85-.49-1.32-.08-.47-.06-.94,0-1.4.12-.9.43-1.73.69-2.45.12-.36.25-.7.25-.94,0-.25-.06-.46-.24-.64-.18-.17-.41-.3-.63-.39-.22-.09-.44-.15-.61-.19-.35-.08-.57-.11-.57-.11Z"/>
        <path class="cls-7" d="M502.6,82.81s2.28,1.17,3.97,1.11l-8.56,4.62,6.45-4.59-1.86-1.14Z"/>
        <polygon class="cls-43" points="498.49 86.86 498.56 87.45 501.87 90.47 503.48 89.18 498.49 86.86"/>
        <polygon class="cls-46" points="500.17 85.97 503.68 88.79 502.08 90.04 498.49 86.86 500.17 85.97"/>
        <rect class="cls-43" x="500.65" y="88.28" width="2.05" height=".38" transform="translate(65.29 351.28) rotate(-41.06)"/>
        <path class="cls-24" d="M500.21,86.2c.16-.07,1.8,1.38,1.8,1.38l-1.19,1,.62-1.08-1.23-1.31Z"/>
        <polygon class="cls-24" points="502.46 88.35 503.04 88.97 503.39 88.82 502.59 88.08 502.46 88.35"/>
        <polyline class="cls-41" points="498.56 87.45 498.63 87.55 499.2 88.4 501.87 90.47"/>
      </g>
      <g id="shoes_arrière" data-name="shoes arrière">
        <path class="cls-12" d="M454.31,99.82s-3.51,1.58-2.04,2.53c0,0,1.52.14,3.05.65.65.22,4.05-3.29,2.16-4.73-1.14-.87-3.33,1.23-3.33,1.23l-.59-1.09"/>
      </g>
      <g id="Jeans_personnage" data-name="Jeans personnage">
        <g>
          <path class="cls-12" d="M454.19,100.43s-1.29,1.18-.22,2.04v1.29c2.64-1.57,5.05-3.26,3.71-4.54-.81-.77-2.69.68-2.69.68"/>
          <path class="cls-24" d="M452.81,102.42l1.15.21v.27c.33.08,1.32-.26,2.58-1.88"/>
        </g>
        <path class="cls-34" d="M437.61,100.9s-1.12,1.7,1.71,1.05c.55-.13,3.37.53,3.64.48.37-.08,3.32,0,3.32,0,0,0,4.61.06,5.27.05,3.43-.05,5.97-.78,4.61-3.1"/>
        <path class="cls-34" d="M408.38,62.96s19.38-32.61,41.54-31.72c0,0,9.09.32,9.49,7.1,0,0,.17,4.83-5.14,18.87,0,0-7.41,18.78,4.52,22.36,0,0,9.9,5.14,14.33,5.84,0,0-16.03,18.56-34.85,17.01,0,0-7.95-1.53,15.17-14.36,0,0-11.45-3.49-14.29-10.66,0,0-3.59,10.82-18.96,22.19l-11.81-36.62Z"/>
        <path class="cls-21" d="M439.09,76.78s5.46-11.39,7-15.09c0,0,3.54-6.23,4.12-4.44,0,0-14.1,22.69,4.41,27.3,0,0-1.56,1.43-1.24,2.89,0,0-10.76-2.97-14.29-10.66Z"/>
        <path class="cls-21" d="M462.64,83.49s6.95,3.11,9.1,2.96l-7.32-3.16-1.66-.65-.45.14"/>
        <path class="cls-22" d="M458.12,78.77s.09,3.93,13.81,7.72l1.23-1.44s-7.45-1.08-13.6-5.83l-1.44-.45Z"/>
        <path class="cls-14" d="M415.76,52.96c-.19.2,19.85-23.68,36.04-21.37,0,0,6.84,1.4,6.76,6.29,0,0-5.54-8.31-18.16,2.61,0,0,2.48-4.54,7.41-7.44,0,0-16.4,3.56-32.05,19.91Z"/>
        <g>
          <polyline class="cls-34" points="465.2 82.32 464.07 84.58 465.27 85.18 466.74 83.09"/>
          <path class="cls-48" d="M465.2,82.32c-.06.2-.14.4-.22.6-.07.2-.16.39-.24.59-.16.39-.34.77-.52,1.15l-.08-.24c.4.19.8.39,1.2.6l-.23.06c.25-.34.51-.68.78-1.02.14-.16.27-.33.41-.49.14-.16.28-.32.43-.48-.1.19-.2.38-.31.57-.1.19-.22.37-.32.55-.22.36-.46.72-.69,1.08l-.09.13-.14-.07c-.4-.19-.8-.39-1.2-.6l-.16-.09.08-.16c.2-.37.4-.74.61-1.11.11-.18.21-.36.33-.54.12-.18.23-.36.35-.53Z"/>
        </g>
        <path class="cls-21" d="M457.71,78.41l-1.25,1.51,4.41,2.8s0-1.81-.36-2.08c-.37-.28-2.79-2.23-2.79-2.23Z"/>
        <path class="cls-48" d="M442.8,94.9s6.07-5.41,11.01-7.17l5.12,2.01-4.72-1.21,1.47,4.94-2.4-4.15s-8.01,3.35-10.48,5.58Z"/>
        <path class="cls-21" d="M461.74,84.33c.08.14.59,1.77.59,1.77l.09.47,1.79-.58s.03-.48-.05-.45c-.08.03-.27-.05-.27-.05l-.61-1.86s-.42-1.06-.47-1.03"/>
        <g>
          <polygon class="cls-21" points="451.02 55.57 451.07 55.94 450.7 56.01 450.65 55.64 451.02 55.57"/>
          <polygon class="cls-21" points="451.05 56.76 450.95 57.52 450.6 57.48 450.69 56.72 451.05 56.76"/>
          <polygon class="cls-21" points="450.78 58.29 450.56 59.03 450.24 58.94 450.45 58.2 450.78 58.29"/>
          <polygon class="cls-21" points="450.3 59.77 450.01 60.47 449.71 60.35 449.99 59.64 450.3 59.77"/>
          <polygon class="cls-21" points="449.68 61.18 449.34 61.87 449.07 61.73 449.4 61.04 449.68 61.18"/>
          <polygon class="cls-21" points="449.01 62.55 448.7 63.25 448.43 63.13 448.75 62.43 449.01 62.55"/>
          <polygon class="cls-21" points="448.39 63.94 448.1 64.65 447.85 64.55 448.14 63.84 448.39 63.94"/>
          <polygon class="cls-21" points="447.83 65.36 447.57 66.08 447.34 66 447.58 65.28 447.83 65.36"/>
          <polygon class="cls-21" points="447.34 66.8 447.12 67.54 446.89 67.47 447.1 66.74 447.34 66.8"/>
          <polygon class="cls-21" points="446.92 68.27 446.75 69.01 446.54 68.97 446.7 68.22 446.92 68.27"/>
          <polygon class="cls-21" points="446.6 69.76 446.48 70.51 446.28 70.48 446.39 69.73 446.6 69.76"/>
          <polygon class="cls-21" points="446.39 71.26 446.33 72.03 446.14 72.01 446.19 71.25 446.39 71.26"/>
          <polygon class="cls-21" points="446.3 72.78 446.31 73.55 446.15 73.55 446.13 72.79 446.3 72.78"/>
          <polygon class="cls-21" points="446.37 74.3 446.47 75.06 446.32 75.08 446.21 74.32 446.37 74.3"/>
          <polygon class="cls-21" points="446.62 75.8 446.81 76.54 446.69 76.58 446.48 75.84 446.62 75.8"/>
          <polygon class="cls-21" points="447.06 77.26 447.37 77.96 447.26 78.01 446.95 77.31 447.06 77.26"/>
          <polygon class="cls-21" points="447.72 78.63 448.13 79.28 448.05 79.33 447.63 78.69 447.72 78.63"/>
          <polygon class="cls-21" points="448.58 79.88 449.09 80.46 449.03 80.51 448.52 79.94 448.58 79.88"/>
          <polygon class="cls-21" points="449.63 80.99 450.21 81.49 450.17 81.54 449.58 81.05 449.63 80.99"/>
          <polygon class="cls-21" points="450.82 81.95 451.46 82.37 451.43 82.41 450.79 82 450.82 81.95"/>
          <polygon class="cls-21" points="452.12 82.76 452.8 83.11 452.78 83.13 452.1 82.79 452.12 82.76"/>
          <polygon class="cls-21" points="453.49 83.42 454.2 83.71 454.2 83.72 453.48 83.44 453.49 83.42"/>
          <polygon class="cls-21" points="454.96 83.98 455.32 84.1 454.96 83.98 454.96 83.98"/>
        </g>
        <path class="cls-21" d="M429.21,87.16c.52-.77,1.02-1.53,1.52-2.32.5-.78.99-1.56,1.47-2.35l.73-1.18.71-1.2c.47-.8.95-1.59,1.4-2.4l1.36-2.42c.22-.41.43-.82.65-1.23l.65-1.23.65-1.23.6-1.25,1.21-2.5v-.02s.01,0,.01,0c1.43-2.51,2.91-4.97,4.51-7.37.8-1.2,1.63-2.38,2.53-3.51.46-.56.93-1.11,1.48-1.61.28-.24.56-.49.94-.65.18-.08.41-.14.65-.07.25.07.41.28.49.46l-.34.16c-.13-.29-.35-.32-.65-.18-.29.13-.56.36-.81.59-.51.48-.96,1.03-1.39,1.59-.87,1.13-1.66,2.32-2.43,3.53-1.53,2.42-2.96,4.91-4.32,7.42v-.03s-1.14,2.55-1.14,2.55l-.58,1.27-.62,1.25-.62,1.25c-.21.42-.41.84-.63,1.25l-1.31,2.47c-.43.83-.9,1.63-1.35,2.45l-.68,1.22-.71,1.21c-.47.81-.94,1.61-1.43,2.4-.48.8-.98,1.6-1.48,2.38l-1.05-.69Z"/>
        <g>
          <polygon class="cls-21" points="443.71 102.27 444.07 102.16 444.07 102.17 443.71 102.27"/>
          <polygon class="cls-21" points="444.79 101.91 445.51 101.66 445.53 101.72 444.8 101.95 444.79 101.91"/>
          <polygon class="cls-21" points="446.22 101.39 446.94 101.12 446.98 101.23 446.25 101.47 446.22 101.39"/>
          <polygon class="cls-21" points="447.65 100.84 448.36 100.56 448.41 100.7 447.7 100.97 447.65 100.84"/>
          <polygon class="cls-21" points="449.07 100.27 449.77 99.98 449.84 100.15 449.13 100.43 449.07 100.27"/>
          <polygon class="cls-21" points="450.47 99.68 451.17 99.37 451.25 99.56 450.55 99.86 450.47 99.68"/>
          <polygon class="cls-21" points="451.86 99.06 452.56 98.74 452.66 98.95 451.96 99.26 451.86 99.06"/>
          <polygon class="cls-21" points="453.25 98.41 453.94 98.08 454.04 98.31 453.35 98.63 453.25 98.41"/>
          <polygon class="cls-21" points="454.62 97.75 455.3 97.4 455.42 97.63 454.73 97.97 454.62 97.75"/>
          <polygon class="cls-21" points="455.98 97.05 456.65 96.69 456.78 96.92 456.1 97.28 455.98 97.05"/>
          <polygon class="cls-21" points="457.32 96.32 457.98 95.95 458.12 96.19 457.45 96.56 457.32 96.32"/>
          <rect class="cls-21" x="458.66" y="95.35" width=".76" height=".28" transform="translate(15.41 247.25) rotate(-30.64)"/>
          <rect class="cls-21" x="459.97" y="94.56" width=".76" height=".27" transform="translate(19.58 257.82) rotate(-31.93)"/>
          <polygon class="cls-21" points="461.24 93.97 461.88 93.55 462.03 93.77 461.39 94.19 461.24 93.97"/>
          <polygon class="cls-21" points="462.51 93.12 463.13 92.68 463.28 92.89 462.66 93.33 462.51 93.12"/>
          <polygon class="cls-21" points="463.75 92.23 464.36 91.77 464.51 91.96 463.9 92.43 463.75 92.23"/>
          <polygon class="cls-21" points="464.96 91.3 465.56 90.83 465.7 91 465.11 91.49 464.96 91.3"/>
          <polygon class="cls-21" points="466.15 90.34 466.73 89.84 466.86 89.99 466.29 90.5 466.15 90.34"/>
          <polygon class="cls-21" points="467.29 89.34 467.85 88.81 467.97 88.93 467.42 89.47 467.29 89.34"/>
          <polygon class="cls-21" points="468.4 88.28 468.94 87.74 469.03 87.83 468.51 88.39 468.4 88.28"/>
          <polygon class="cls-21" points="469.46 87.18 469.97 86.62 470.04 86.67 469.54 87.26 469.46 87.18"/>
          <polygon class="cls-21" points="470.47 86.04 470.95 85.44 470.98 85.46 470.52 86.07 470.47 86.04"/>
          <polygon class="cls-21" points="471.43 84.81 471.65 84.51 471.44 84.82 471.43 84.81"/>
        </g>
        <g>
          <polyline class="cls-34" points="470.45 84.15 468.68 86.51 470.11 86.75 471.85 84.53"/>
          <path class="cls-48" d="M470.45,84.15c-.12.22-.25.42-.38.64-.13.21-.27.42-.4.62-.27.41-.56.81-.85,1.21l-.11-.29c.48.07.96.15,1.43.24l-.17.07c.3-.36.6-.72.91-1.08.16-.17.31-.35.48-.52.16-.17.32-.34.5-.51-.12.21-.25.4-.38.6-.12.2-.26.39-.39.59-.27.39-.55.77-.83,1.14l-.06.08-.11-.02c-.48-.07-.96-.15-1.43-.24l-.29-.05.18-.23c.3-.39.61-.77.93-1.15.16-.19.32-.38.49-.56.17-.18.33-.37.5-.55Z"/>
        </g>
        <path class="cls-22" d="M460.96,82.65s.78,1.94.76,3.36l1.78-.28s-.52-3.14-1.2-4.13-1.33,1.05-1.33,1.05Z"/>
        <path class="cls-46" d="M457.18,79.7s1.91-1.92,1.95-1.77c.04.15,3.87,3.11,3.87,3.11l-2.34,1.84-3.49-3.18Z"/>
        <path class="cls-43" d="M460.24,82.29s.43.41.43.33c0-.08,2.29-1.8,2.29-1.8l-4.27-2.58,3.06,2.72-1.51,1.33Z"/>
        <path class="cls-42" d="M458.47,78.38c.34-1.01,1.01-3.51,1.01-3.51l1.78.89s4.23,2.98,4.41,3.18c.18.2.05,3.33-1.81,2.53-1.86-.8-5.4-3.09-5.4-3.09"/>
        <polygon class="cls-46" points="461.45 85.87 463.62 85.48 463.64 85.96 461.52 86.39 461.45 85.87"/>
        <polygon class="cls-33" points="462.29 81.6 462.92 83.15 464.18 83.76 462.29 81.6"/>
        <path class="cls-48" d="M407.96,62.14s24.79,3.63,22.83,30.1c0,0-.26,6.63-5.98,9.06l-2.91.76-7.76-17.84-6.18-22.09Z"/>
        <path class="cls-21" d="M418.47,66.19s12.14,5.41,12.33,23.2l2.78-3.31s-1.21-13.81-15.1-19.88Z"/>
        <path class="cls-21" d="M455.9,98.26s-5.95,3.24-12.37,4.16c0,0,9.76-.33,11.99-2.47,0,0,1.47-.7.38-1.69Z"/>
        <path class="cls-14" d="M409.39,63.61s19.57,3.34,20.33,26.95c0,0-3.47-20.33-20.16-22.73l-.16-4.23Z"/>
        <path class="cls-34" d="M428.62,72.42l6.19,8.07,2.22-3.18-1.75-.88,1.67-3.33,1.75.88,1.18-2.36-1.75-.86,1.75-3.49,1.25.62,1.03-.81-1.39-1.59,1.19-2.38,1.25.62,1.03-.8-1.51-1.35,1.78-2.63,2.13,1.07.35-.7-2.07-2.1,1.59-.98,1.22,1.61.4-.8-2.17-5.55,1.46.73,1.46,3.92.81-.51-.78-1.73,1.25-.31-.22,1.54,1.31-1.26s-.58-1.54-.7-1.67c-.12-.13-2.73-1.37-2.73-1.37l-3.05-.21-2.17,3.64"/>
        <path class="cls-21" d="M454.44,84.95s-.2-.06,1.29-1.39l-3.43-3.75,1.64,3.6-2.75-1.38,2.86,2.72"/>
        <path class="cls-48" d="M458.04,82.06c-.45.31-.88.64-1.28,1-.1.09-.2.17-.3.27-.1.09-.2.18-.29.28l-.27.28-.26.3c-.09.1-.16.21-.24.31-.08.1-.15.21-.22.32-.06.11-.15.21-.2.33l-.17.34-.13.35c-.05.11-.07.24-.1.35-.03.12-.06.24-.06.36l-.03.36-.21-.34c.35.17.7.36,1.05.54l-.47.13c.14-.21.27-.4.42-.59.15-.19.3-.37.46-.55.31-.36.66-.69,1.02-1,.37-.3.76-.58,1.17-.81l.32-.16c.1-.06.22-.09.33-.14.11-.04.22-.09.33-.12l.34-.09c-.2.13-.4.23-.59.37-.19.13-.37.27-.55.41-.09.07-.17.15-.26.22-.09.07-.17.15-.25.23-.17.15-.32.32-.48.48-.31.33-.6.68-.88,1.03-.14.18-.27.36-.4.55-.13.18-.26.37-.37.55l-.17.28-.3-.15c-.35-.17-.71-.34-1.06-.52l-.23-.12.02-.22.04-.45c0-.15.05-.3.09-.44.04-.14.07-.29.13-.43.06-.14.11-.28.17-.41l.22-.38c.07-.13.17-.24.25-.36.08-.12.17-.23.27-.33.1-.1.19-.21.29-.31l.31-.29c.11-.09.22-.18.33-.26.11-.09.23-.16.34-.24.11-.08.23-.16.35-.23.48-.28.97-.54,1.5-.7Z"/>
        <path class="cls-21" d="M465.98,84.62c-.11-.03-.67.79-.67.79l1.06-.59-.4-.2Z"/>
        <polygon class="cls-21" points="470.75 86.28 470.26 86.85 471.18 86.28 470.75 86.28"/>
        <path class="cls-48" d="M439.13,102.22s7.34-.43,15.65-5.61c0,0-13.79,5.68-15.54,3.42,0,0-.76-1.09.94-2.82,0,0-4.58,4.76-1.04,5.01Z"/>
        <path class="cls-48" d="M439.02,67.85s8.96-16.78,11.73-13c0,0,.63-12.83-11.73,13Z"/>
        <path class="cls-48" d="M452.83,74.87s1.97,3.37,3.66,3.97c.16.06-.15,0,0,0l-.56,1.4,2.37,1.45s-2.89.3-5.83-3.75c0,0,2.21,1.99,3.25,1.63,0,0-2.66-2.68-2.89-4.69Z"/>
        <path class="cls-48" d="M466.36,85.93s-3.27,1.56-2.16,4.31c0,0-2.33-3.48,2.16-4.31Z"/>
        <path class="cls-21" d="M465.45,91.06c-1.24-1.94.46-4.1,1.14-4.83-.75.43-4.06,2.55-1.21,5.09l.07-.26Z"/>
        <polygon class="cls-33" points="465.98 84.62 466.75 83.3 467.09 83.4 465.98 84.62"/>
        <polygon class="cls-33" points="471.73 84.77 470.8 86.2 472.16 84.99 471.73 84.77"/>
        <path class="cls-48" d="M455.2,98.58s2.26.77.39,3.23l1.01-.84s2.18-1.79-.16-2.87c-2.34-1.08-.1-.05-.1-.05l-1.14.53Z"/>
        <path class="cls-21" d="M455.42,98.67s1.73.89.37,2.97c0,0,.56-1.36-.67-2.38l.3-.59Z"/>
        <path class="cls-34" d="M455.2,98.58l1.24-.48.82.59-1.12.77s.58-.18-.95-.88Z"/>
        <polygon class="cls-24" points="458.53 78.82 457.53 79.68 460.11 82.05 458.12 79.66 458.53 78.82"/>
        <polygon class="cls-33" points="462.29 81.6 462.38 81.97 461.15 82.87 460.96 82.65 462.29 81.6"/>
        <polygon class="cls-24" points="461.74 86.1 461.7 85.91 463.39 85.56 463.43 85.74 461.74 86.1"/>
      </g>
      <g id="bras_droit_personnage" data-name="bras droit personnage">
        <path class="cls-19" d="M491.91,58.16l-19.44,44.3,21.91.07,5.45-45.56s-1.73-7.96-6.24-4.45c-4.51,3.51-1.26,5.39-1.26,5.39"/>
        <path class="cls-42" d="M487.27,68.62l11.95-.09,1.11-11.16s.38-9.01-6.94-4.85c-5.23,2.97-1.24,5.64-1.24,5.64l-.46.25-4.42,10.21Z"/>
        <path class="cls-42" d="M485.56,72.99s8.44-7.3,12.69-2.77l-.29,2.45s4.77-3.98,2.34-6.11c-2.44-2.13-10.8-.75-13.99,2.46l-1.18,1.32s-.75,2.2.44,2.66Z"/>
        <path class="cls-24" d="M488.73,67.34s5.72-3.11,10.5-1.31c0,0,.97-7.11.61-9.05l-2.37,7.48s-2.39-1.72-8.74,2.88Z"/>
        <path class="cls-12" d="M496.31,51.52s3.57-.33,3.58,4.67c0,0-.8-3.3-3.58-4.67Z"/>
        <path class="cls-12" d="M486.19,70.58s8.92-5.25,12.18-1.17c0,0-1.33-5.18-12.18,1.17Z"/>
        <path class="cls-24" d="M485.56,72.99s7.9-6.73,12.69-2.77c0,0-4.21-5.29-12.69,2.77Z"/>
        <path class="cls-24" d="M495.72,51.64s1.45,6.29-3.81,6.52c-5.26.23,0,0,0,0l1.77-4.27,1.01-2.01,1.03-.25Z"/>
        <path class="cls-6" d="M485.51,73.49s7.98-7.37,12.7-2.95l-1.98,16.56.15-15.47s-3.33-2.88-10.87,1.86Z"/>
        <path class="cls-10" d="M496.11,72.17l-.29,14.72-1.38,15.15-14.61.35s12.13-27.04,11.78-26.9c-.35.14-2.34,23.01-2.34,23.01l6.84-26.33Z"/>
      </g>
      <g id="foulard_personnage" data-name="foulard personnage">
        <path class="cls-30" d="M478.87,42.74l-.61-.31s-8.64-.59-7.68,11.93c.54,7.02,3.16,14.67,3.16,14.67,0,0,2.08-5.29,5.01-6.07,9.84-2.6,13.16-4.81,13.16-4.81,0,0,4.57-2.15,3.26-8.09-1.31-5.94-15.94-7.15-15.94-7.15"/>
        <path class="cls-23" d="M481.28,46.47s-.7,2.44,3.11,3.95c3.81,1.52,4.79.2,4.79.2,0,0-6.5-2.03-7.9-4.15Z"/>
        <path class="cls-18" d="M495.33,51s-5.92,7.27-16.34,1.26c0,0,7.71.28,10.02-1.48"/>
        <path class="cls-17" d="M478.59,43.66s-1.13,3.32,2.87,6.79c0,0-2.03-3.96-.41-5.23"/>
        <path class="cls-39" d="M477.46,43.09s-9.9.51-4.48,21.16c0,0-2.78-13.98,2.12-17.98,0,0,1.39,4.62,6.89,5.12,0,0-6.05-3.25-4.53-8.3Z"/>
        <path class="cls-39" d="M475.21,50.41s6.11,8.65,16.87,4.04c0,0-16.3,10.28-16.87-4.04Z"/>
        <path class="cls-18" d="M478.04,57.76s9.64,3.54,16.65-5.88c0,0,.29,3.12-3.23,5.59-3.3,2.32-7.8,2.97-13.42.28Z"/>
        <path class="cls-39" d="M474.17,53.48s.49,7.52,6.84,6.46c0,0-10.31,4.78-6.84-6.46Z"/>
      </g>
      <path class="cls-19" d="M475.52,24.28s-3.87,18.18,9.29,24.77c15.4,7.71,28.71-9.03,28.71-9.03,0,0,18.72-11.2-2.46-19.77-10.63-4.3-19.83-8.17-26.47-8.51-1.54-.08-.81,5.14-2.05,5.48-1.55.42-4.99-3.91-6.04-2.71-1.72,1.97-.81,5.16-.98,9.76Z"/>
      <path class="cls-19" d="M475.52,24.28s-3.87,18.18,9.29,24.77c15.4,7.71,28.71-9.03,28.71-9.03,0,0,18.72-11.2-2.46-19.77-10.63-4.3-19.83-8.17-26.47-8.51-1.54-.08-.81,5.14-2.05,5.48-1.55.42-4.99-3.91-6.04-2.71-1.72,1.97-.81,5.16-.98,9.76Z"/>
      <path class="cls-6" d="M476.96,18.13s.65,1.67,1.3,6.35c.72,5.18,6.54,24.58,32.36,13.06"/>
      <path class="cls-45" d="M501.46,49.26c-.31-1.07-1.04-2.02-2.12-2.56-2.04-1.02-4.52-.2-5.55,1.85-.41.82-.52,1.71-.37,2.54,2.89-.04,5.6-.77,8.04-1.83Z"/>
      <path class="cls-19" d="M470.28,28.33c.31,2.38,2.13,4.1,4.05,3.85,1.93-.25,3.24-2.38,2.93-4.76-.31-2.38-2.13-4.1-4.05-3.85-1.93.25-3.24,2.38-2.93,4.76Z"/>
      <path class="cls-19" d="M510.63,49.03c2.25-.82,3.54-2.97,2.87-4.8-.67-1.83-3.03-2.64-5.29-1.82-2.25.82-3.54,2.97-2.87,4.8.67,1.83,3.03,2.64,5.29,1.82Z"/>
      <path class="cls-23" d="M511.12,46.2s.02-.03.05-.08c.04-.05.08-.14.11-.24.03-.1.05-.23,0-.34-.04-.11-.14-.19-.28-.23-.14-.03-.31-.02-.47.04-.09.04-.14.07-.25.14-.08.06-.13.1-.16.16-.03.05-.03.06-.02.13.01.07.05.18.08.3.08.24.17.6.08.96-.09.39-.36.67-.65.84-.29.17-.6.24-.9.24-.3,0-.59-.07-.85-.23-.07-.05-.24-.16-.32-.3-.09-.13-.13-.33-.08-.48.09-.31.32-.41.49-.48.17-.07.34-.08.46-.07.13,0,.22.04.28.07.06.03.09.04.09.04,0,0-.03,0-.1,0-.06,0-.15,0-.26.04-.1.03-.23.08-.34.17-.1.08-.21.22-.2.31,0,.04.02.07.06.1.05.04.07.05.19.11.15.06.34.08.54.06.2-.02.39-.1.55-.2.16-.1.27-.25.3-.38.04-.16.01-.34-.05-.6-.03-.13-.07-.27-.08-.45-.01-.19.06-.43.19-.58.12-.15.27-.25.4-.31.1-.04.26-.11.39-.14.28-.06.57-.02.79.1.23.12.38.36.39.57.01.21-.09.36-.16.46-.08.1-.16.16-.21.19-.05.04-.08.06-.08.06Z"/>
      <path class="cls-23" d="M473.92,29.4s.02.03.06.08c.04.05.1.14.13.27.04.12.06.3-.02.5-.08.19-.26.39-.53.45-.26.07-.56.03-.82-.11-.05-.03-.11-.06-.17-.09-.06-.04-.13-.09-.19-.14-.12-.1-.23-.24-.31-.4-.16-.36-.08-.78.08-1.06.15-.29.35-.52.57-.73.24-.21.44-.36.61-.53.17-.16.27-.31.28-.43,0-.06,0-.13-.04-.22v-.03s-.02-.02-.02-.02h0c.04.05.01.01.02.02h0s0-.01,0-.01l-.05-.08-.02-.04h-.01s-.01-.02-.02-.03c-.08-.07-.25-.1-.41-.06-.33.08-.59.3-.7.49-.06.09-.09.18-.1.24,0,.06-.01.1-.01.1,0,0-.01-.03-.03-.1-.02-.06-.03-.17,0-.3.03-.13.08-.29.2-.43.11-.15.27-.3.49-.41.21-.1.54-.18.86,0,.04.03.08.06.12.09l.06.05.03.03.06.07h0s0,.01,0,.01l.02.03.02.03.03.05c.09.13.14.31.16.5,0,.2-.05.39-.13.55-.08.16-.19.28-.29.4-.21.22-.44.4-.61.55-.18.17-.35.36-.45.54-.11.19-.14.33-.11.46.02.07.07.14.12.21.03.03.06.06.09.1.04.03.09.07.13.1.15.11.3.17.45.16.14,0,.27-.07.36-.17.08-.1.12-.23.12-.34,0-.11,0-.2-.02-.27-.01-.06-.02-.1-.02-.1Z"/>
      <path class="cls-41" d="M477.69,28.42s2.3-1.56,3.91.34c1.61,1.9-5.98.26-3.91-.34Z"/>
      <path class="cls-41" d="M504.01,39.24s2.17.59,1.7,2.41c-.46,1.82-3.12-3.33-1.7-2.41Z"/>
      <path class="cls-1" d="M475.31,53.36l-.06-.03"/>
      <path class="cls-45" d="M478.59,36.72c-.96-.48-2.02-.56-2.99-.31.56,2.65,1.58,5.37,3.35,7.76.64-.4,1.18-.97,1.55-1.7,1.06-2.11.2-4.69-1.91-5.75Z"/>
      <path class="cls-20" d="M482.84,38.6c-.09.18-.31.26-.49.17s-.25-.31-.15-.49.31-.26.49-.17.25.31.15.49Z"/>
      <path class="cls-8" d="M479.08,27.87l.6,1.69c1.37.21,2.69.1,1.92-.8-.79-.93-1.75-1.03-2.52-.89Z"/>
      <path class="cls-25" d="M473.58,23.18s-8.81-3.18-6.75-7.31c0,0,.48-4.32,5.18-2.16,4.7,2.16,6.52,3.43,6.52,3.43l-4.96,6.04Z"/>
      <path class="cls-20" d="M485.05,37.92c-.06.12-.23.15-.39.08s-.23-.24-.17-.36.23-.15.39-.08.23.24.17.36Z"/>
      <path class="cls-20" d="M484.47,39.82c-.09.18-.26.27-.39.21s-.16-.26-.07-.44.26-.27.39-.21.16.26.07.44Z"/>
      <path class="cls-8" d="M504.94,39.69c-.45-.32-.92-.45-.92-.45-.52-.33-.49.14-.23.79l1.15-.33Z"/>
      <path class="cls-20" d="M496.69,41.83c-.09.19-.31.27-.48.18s-.24-.31-.14-.5.31-.27.48-.18.24.31.14.5Z"/>
      <path class="cls-20" d="M494.07,42.84c-.12.24-.42.34-.66.22s-.34-.42-.22-.66.42-.34.66-.22.34.42.22.66Z"/>
      <path class="cls-20" d="M495.94,44.26c-.11.21-.35.31-.54.22s-.26-.35-.15-.56.35-.31.54-.22.26.35.15.56Z"/>
      <path class="cls-41" d="M477.15,17.97s-7.79,6.06-3.22,10.67c0,0,1.87.67,2.94-5.97,0,0,.62,3.75,1.38,4.73,0,0,1.8-3.44,2.21-4.4.41-.97-.15-5.09-.15-5.09,0,0-1.81-.59-2-1-.19-.41-1.16,1.06-1.16,1.06Z"/>
      <path class="cls-41" d="M511.47,37.38c-1.84-.25-4.16,1.47-4.97,2.98-1.22,2.28,2.54.94,3.51.93-.54.88-1.92,1.35-2.59,2.27-1.23,1.69.87,1.71,2.14,1.39,1.9-.47,5.18-1.51,5.34-4.41-1.37-1.05-2.22-2.02-3.82-2.83"/>
      <path class="cls-32" d="M478.98,15.86s.28-6.17.12-9.3c-.16-3.13-1.77-6.04,5.05-6.51,5.6-.39,16.38,1.37,21.64,4.84,0,0,17.02,3.9,21.51,16.97,0,0,1.28,6.18-1.69,8.49-6.99,5.45-8.88,8.43-10.71,10.8,0,0-.31-.43-4.32-3.54-4-3.11-15.81-6.19-15.81-6.19l-5.09-3.91-4.48-3.1-6.93-9.03"/>
      <path class="cls-42" d="M479.92,15.59s.69-7.95.77-10.65c.08-2.7.87-8.71,23.15,1.49,24.47,11.2,12.96,18.89,11.76,20.29-2.65,3.09-6.6,9.89-6.6,9.89,0,0-23.87-11.72-23.79-12.3.08-.57-5.28-8.73-5.28-8.73Z"/>
      <path class="cls-46" d="M491.52,13.01s2.58.61,2.37,2.24l-1.87,3.74,3.88,1.67-1.85,3.69s-2.72-2.04-3.32-2.16c-.59-.11-1.37,1.36-1.37,1.36l-3.22-2.33,5.38-8.22Z"/>
      <path class="cls-22" d="M491.08,12.79s1.82,1.47,1.92,2.57c.06.59-3.84,8.36-5.66,7.31-1.82-1.04,3.74-9.88,3.74-9.88Z"/>
      <path class="cls-12" d="M480.89,13.66l.51-9.21s.29-10.55,32.49,8.22c0,0-23.02-9.7-28.58-8.34,0,0,15.12,4.21,19.51,8.98,0,0-15.19-5.84-19.88-5.5l-1.7,8.04-2.35-2.2Z"/>
      <g>
        <polygon class="cls-24" points="480.94 16.4 481.05 15.28 481.06 15.28 480.94 16.4"/>
        <polygon class="cls-24" points="481.14 14.15 481.24 13.03 481.29 13.03 481.17 14.16 481.14 14.15"/>
        <polygon class="cls-24" points="481.34 11.9 481.43 10.78 481.5 10.79 481.4 11.91 481.34 11.9"/>
        <polygon class="cls-24" points="481.51 9.66 481.6 8.53 481.7 8.54 481.61 9.66 481.51 9.66"/>
        <polygon class="cls-24" points="481.67 7.41 481.73 6.28 481.87 6.29 481.79 7.41 481.67 7.41"/>
        <path class="cls-24" d="M481.84,5.14s.07-.27.14-.54c.11-.27.23-.54.23-.54l.15.08s-.11.25-.22.5c-.08.27-.15.54-.15.54l-.15-.04Z"/>
        <path class="cls-24" d="M482.93,3.15s.06-.04.14-.1c.04-.03.09-.07.15-.11.05-.04.11-.08.17-.12.26-.13.52-.26.52-.26l.07.18s-.24.12-.49.24c-.06.03-.12.08-.17.12-.05.04-.1.07-.15.1-.09.06-.14.1-.14.1l-.11-.15Z"/>
        <polygon class="cls-24" points="485.02 2.24 486.14 2.13 486.16 2.33 485.04 2.44 485.02 2.24"/>
        <rect class="cls-24" x="487.74" y="1.74" width=".21" height="1.13" transform="translate(438.94 487.69) rotate(-84.52)"/>
        <polygon class="cls-24" points="489.54 2.43 490.64 2.65 490.6 2.87 489.49 2.64 489.54 2.43"/>
        <polygon class="cls-24" points="491.74 2.92 492.83 3.23 492.77 3.45 491.68 3.14 491.74 2.92"/>
        <rect class="cls-24" x="494.29" y="3.29" width=".24" height="1.13" transform="translate(336.17 472.27) rotate(-71.78)"/>
        <rect class="cls-24" x="496.41" y="4.03" width=".25" height="1.13" transform="translate(320.23 468.8) rotate(-69.73)"/>
        <rect class="cls-24" x="498.51" y="4.85" width=".26" height="1.13" transform="translate(308.18 466.28) rotate(-68.17)"/>
        <rect class="cls-24" x="500.58" y="5.72" width=".27" height="1.13" transform="translate(298.36 464.33) rotate(-66.88)"/>
        <rect class="cls-24" x="502.65" y="6.62" width=".28" height="1.13" transform="translate(290.27 462.91) rotate(-65.82)"/>
        <polygon class="cls-24" points="504.39 7.77 505.41 8.26 505.28 8.53 504.26 8.03 504.39 7.77"/>
        <polygon class="cls-24" points="506.42 8.77 507.42 9.29 507.28 9.56 506.28 9.03 506.42 8.77"/>
        <rect class="cls-24" x="508.67" y="9.69" width=".32" height="1.13" transform="translate(244.3 445.04) rotate(-59.84)"/>
        <rect class="cls-24" x="510.58" y="10.88" width=".33" height="1.13" transform="translate(220.39 431.79) rotate(-56.65)"/>
        <polygon class="cls-24" points="512.24 12.28 513.13 12.97 512.93 13.24 512.03 12.55 512.24 12.28"/>
        <polygon class="cls-24" points="514.01 13.72 514.83 14.49 514.58 14.75 513.77 13.96 514.01 13.72"/>
        <polygon class="cls-24" points="515.61 15.35 516.29 16.24 516.01 16.46 515.32 15.56 515.61 15.35"/>
        <path class="cls-24" d="M516.9,17.24s.12.25.24.51c.11.27.22.54.22.54l-.35.12s-.1-.25-.2-.51c-.12-.25-.24-.51-.24-.51l.33-.16Z"/>
        <path class="cls-24" d="M517.64,19.43s.03.28.06.56c0,.3,0,.59,0,.59l-.37-.02s0-.27,0-.54c-.03-.28-.06-.56-.06-.56l.37-.04Z"/>
        <path class="cls-24" d="M517.52,21.74s-.08.27-.17.54c-.11.27-.22.54-.22.54l-.33-.15s.1-.25.2-.5c.08-.27.16-.54.16-.54l.35.11Z"/>
        <rect class="cls-24" x="515.53" y="24.01" width="1.13" height=".35" transform="translate(188.79 423.96) rotate(-53.38)"/>
        <polygon class="cls-24" points="515.12 25.6 514.31 26.39 514.07 26.15 514.88 25.36 515.12 25.6"/>
        <rect class="cls-24" x="512.56" y="27.41" width="1.13" height=".33" transform="translate(181.47 420.09) rotate(-52.88)"/>
        <rect class="cls-24" x="511.25" y="29.25" width="1.13" height=".32" transform="translate(198.3 435.03) rotate(-55.59)"/>
        <rect class="cls-24" x="510" y="31.14" width="1.13" height=".31" transform="translate(206.97 442.98) rotate(-57.1)"/>
        <polygon class="cls-24" points="509.79 32.8 509.19 33.76 508.94 33.6 509.53 32.64 509.79 32.8"/>
        <polygon class="cls-24" points="508.6 34.72 508.02 35.69 507.78 35.54 508.35 34.57 508.6 34.72"/>
        <polygon class="cls-24" points="506.99 35.77 505.98 35.27 506.1 35.03 507.11 35.52 506.99 35.77"/>
        <rect class="cls-24" x="504.39" y="33.83" width=".27" height="1.13" transform="translate(248.9 470.72) rotate(-63.54)"/>
        <rect class="cls-24" x="502.37" y="32.83" width=".26" height="1.13" transform="translate(247.86 467.88) rotate(-63.43)"/>
        <polygon class="cls-24" points="500.92 32.75 499.92 32.25 500.02 32.03 501.04 32.53 500.92 32.75"/>
        <rect class="cls-24" x="498.34" y="30.81" width=".24" height="1.13" transform="translate(246.02 462.33) rotate(-63.24)"/>
        <polygon class="cls-24" points="496.89 30.72 495.88 30.21 495.98 30.01 496.99 30.52 496.89 30.72"/>
        <polygon class="cls-24" points="494.88 29.7 493.87 29.18 493.97 28.99 494.98 29.5 494.88 29.7"/>
        <rect class="cls-24" x="492.31" y="27.75" width=".2" height="1.13" transform="translate(241.25 452.8) rotate(-62.68)"/>
        <rect class="cls-24" x="490.31" y="26.71" width=".19" height="1.13" transform="translate(238.29 448.8) rotate(-62.3)"/>
        <polygon class="cls-24" points="488.87 26.57 487.88 26.03 487.96 25.88 488.95 26.41 488.87 26.57"/>
        <polygon class="cls-24" points="486.89 25.47 485.93 24.87 486 24.76 486.97 25.34 486.89 25.47"/>
        <polygon class="cls-24" points="485.38 23.88 484.85 22.89 484.94 22.84 485.49 23.83 485.38 23.88"/>
        <polygon class="cls-24" points="484.29 21.91 483.72 20.94 483.78 20.9 484.37 21.87 484.29 21.91"/>
        <polygon class="cls-24" points="483.14 19.97 482.55 19.01 482.59 18.99 483.19 19.94 483.14 19.97"/>
        <polygon class="cls-24" points="481.97 18.05 481.37 17.08 481.38 17.08 481.99 18.03 481.97 18.05"/>
      </g>
      <path class="cls-20" d="M477.43,14.63s-.82-3.12-.16-4.58c.66-1.46,4.04-1.88,8.74-.61,4.7,1.27,6.56,3.41,5.78,5.24-.77,1.83-3.71,7.42-3.71,7.42,0,0-.68.79-1.77.4-1.09-.4-6.48-4.78-6.48-4.78l-2.4-3.09Z"/>
      <path class="cls-41" d="M491.96,13.97s.26,1.07-.47,2.39l-2.67,5.34s-.65.99-1.92.92c-1.28-.08-.85-1.21-.85-1.21,0,0,.94.91,1.71-.49l1.03-1.12,3.18-5.82Z"/>
      <path class="cls-8" d="M478.75,26.47c.56-1.09,1.45-2.82,1.72-3.47.41-.97-.15-5.09-.15-5.09,0,0-1.81-.59-2-1-.19-.41-1.16,1.06-1.16,1.06,0,0-1.57,1.23-2.89,3,.74.06,3.3.63,4.41,5.53l.08-.03Z"/>
      <path class="cls-35" d="M479.1,12.63s-.45-2.03,1-1.99c1.45.04,5.9.93,7.19,2.21,0,0,1.77,1.26.68,3.43l-1.89,3.78s-.97.92-2.72.11c-1.76-.81-4.23-3.37-4.23-3.37l-.02-4.17Z"/>
      <path class="cls-41" d="M486.32,12.21c-1.83-.92-5.03-1.52-6.22-1.56-1.45-.04-1,1.99-1,1.99l.02,3.81.53.06.33-4.22s-.53-1.9,6.35-.08Z"/>
      <path class="cls-36" d="M484.71,16.13s1.2.75,1.54,1.18l1.9-2.1-2.31,4.6-3.38-2.6s2.08,1.53,2.76.99c.68-.54-.43-1.75-.43-1.75"/>
      <path class="cls-47" d="M472,22.4s-5.98-2.08-4.57-5.09c1.41-3,5.53-2.15,7.1-1.13,1.58,1.02,4.21,2.71,4.52,7.32,0,0,.44,7.48,7.5,11.93,7.06,4.45,18.99,5.88,24.06,2.11,0,0-1-1.67-8.46-4.73-7.46-3.06-11.39-9.29-19.03-15.9-7.64-6.61-13.28-6.46-15.43-4.39-2.15,2.08-3.84,6.56,4.3,9.87Z"/>
      <path class="cls-32" d="M488.93,22.41s2.29,4,3.78,6.4c2.87,4.6,8.38,12.31,17.65,8.84l.25-.11c-1.02-.93-3.03-2.62-8.44-4.75-4.86-1.92-9.69-6.45-13.24-10.37Z"/>
      <path class="cls-8" d="M509.37,38.3s4.57,2.56,5.57,2.78l-4.32-3.54s-.89.59-1.25.76Z"/>
      <path class="cls-38" d="M494.3,38.15c-.91-.09-1.82-.27-2.71-.5-.89-.24-1.77-.53-2.63-.9-.86-.36-1.7-.79-2.48-1.32-.4-.26-.78-.54-1.15-.84-.37-.29-.73-.66-1.04-.97-.33-.34-.65-.7-.96-1.05-.3-.36-.6-.73-.87-1.12-.54-.78-1.02-1.6-1.43-2.46-.41-.86-.74-1.76-.98-2.68-.12-.46-.22-.93-.29-1.41-.07-.49-.13-.94-.12-1.49v.09c-.02-.22-.06-.5-.11-.75-.05-.26-.11-.51-.17-.77-.13-.51-.29-1.01-.48-1.5-.18-.49-.4-.97-.65-1.43-.13-.23-.26-.45-.41-.67-.15-.21-.3-.43-.46-.63-.16-.21-.33-.4-.51-.59-.18-.18-.37-.37-.57-.53-.1-.09-.2-.16-.31-.24-.11-.08-.21-.16-.32-.23l-.33-.22-.35-.19c-.23-.13-.48-.23-.73-.34-.25-.1-.5-.2-.76-.27-.26-.09-.53-.14-.79-.2-.27-.06-.54-.09-.82-.14.28-.01.56-.04.83-.03.28,0,.56.01.84.05.28.02.56.08.84.14.28.07.55.15.82.25l.4.15.39.18c.26.13.51.27.75.43.25.16.48.34.7.52.22.19.44.38.64.59.21.2.4.43.58.66.18.23.35.47.51.71.32.49.6,1,.85,1.52.24.53.44,1.07.61,1.63.08.28.16.56.23.84.07.29.13.56.17.88h0s0,.09,0,.09c.01.36.06.82.13,1.23.07.42.17.84.28,1.26.23.83.54,1.64.89,2.44.36.79.79,1.55,1.28,2.27.24.36.49.72.76,1.07.27.35.54.68.83,1.01.31.35.59.64.9.95.31.3.64.59.99.85.69.53,1.44,1.02,2.21,1.46,1.56.87,3.22,1.59,4.95,2.17Z"/>
      <polygon class="cls-46" points="509.78 35.29 508.72 34.76 509.38 33.44 510.26 34.5 509.78 35.29"/>
      <g>
        <path class="cls-32" d="M509.6,36.61s-.11.09-.22.17c-.12.08-.23.16-.23.16h0s.12-.08.23-.16c.11-.08.23-.17.23-.17Z"/>
        <path class="cls-32" d="M508.12,37.47s-.27.1-.53.21c-.27.09-.55.18-.55.18v-.03s.26-.09.54-.17c.27-.1.54-.2.54-.2v.02Z"/>
        <path class="cls-32" d="M505.93,38.12s-.28.05-.56.1c-.28.04-.57.08-.57.08v-.05s.28-.04.56-.08c.28-.05.56-.1.56-.1v.04Z"/>
        <polygon class="cls-32" points="503.66 38.42 502.51 38.48 502.51 38.41 503.66 38.36 503.66 38.42"/>
        <polygon class="cls-32" points="501.37 38.48 500.22 38.43 500.23 38.34 501.37 38.4 501.37 38.48"/>
        <polygon class="cls-32" points="499.08 38.34 497.94 38.21 497.95 38.09 499.09 38.24 499.08 38.34"/>
        <polygon class="cls-32" points="496.81 38.03 495.68 37.81 495.71 37.67 496.83 37.9 496.81 38.03"/>
        <polygon class="cls-32" points="494.56 37.55 493.46 37.24 493.5 37.09 494.6 37.4 494.56 37.55"/>
        <polygon class="cls-32" points="492.36 36.9 491.28 36.5 491.35 36.33 492.42 36.74 492.36 36.9"/>
        <rect class="cls-32" x="489.65" y="35.16" width=".19" height="1.15" transform="translate(247.68 462.96) rotate(-64.64)"/>
        <path class="cls-32" d="M488.17,35.02s-.24-.15-.49-.3c-.24-.16-.48-.32-.48-.32l.13-.18s.23.16.47.32c.24.15.49.3.49.3l-.11.18Z"/>
        <path class="cls-32" d="M486.27,33.71s-.22-.18-.44-.37c-.21-.2-.43-.39-.43-.39l.17-.18s.21.19.41.38c.22.19.43.37.43.37l-.15.18Z"/>
        <path class="cls-32" d="M484.6,32.12s-.19-.22-.37-.43c-.18-.23-.36-.45-.36-.45l.21-.16s.17.22.35.45c.19.22.37.44.37.44l-.2.17Z"/>
        <path class="cls-32" d="M483.19,30.29s-.15-.24-.3-.49c-.14-.25-.29-.5-.29-.5l.26-.14s.14.25.27.49c.15.24.3.49.3.49l-.24.15Z"/>
        <path class="cls-32" d="M482.09,28.26s-.11-.26-.23-.53c-.11-.27-.21-.54-.21-.54l.3-.11s.1.26.2.53c.11.26.22.53.22.53l-.28.12Z"/>
        <polygon class="cls-32" points="481.28 26.09 480.99 24.99 481.31 24.9 481.59 26.01 481.28 26.09"/>
        <rect class="cls-32" x="480.67" y="22.68" width=".33" height="1.15" transform="translate(1.84 71.28) rotate(-8.49)"/>
        <path class="cls-32" d="M480.46,21.58s-.05-.28-.1-.56c-.07-.27-.13-.54-.13-.54l.33-.09s.07.29.14.57c.05.28.1.56.1.56l-.33.06Z"/>
        <path class="cls-32" d="M479.85,19.42s-.12-.26-.23-.52c-.13-.25-.26-.49-.26-.49l.31-.17s.13.26.27.52c.12.26.23.52.23.52l-.32.14Z"/>
        <path class="cls-32" d="M478.75,17.47s-.18-.22-.35-.45c-.18-.21-.37-.41-.37-.41l.27-.26s.2.22.39.44c.18.23.35.45.35.45l-.29.22Z"/>
        <path class="cls-32" d="M477.21,15.85s-.23-.17-.46-.35c-.23-.15-.46-.3-.46-.3l.19-.31s.25.16.49.32c.23.17.46.34.46.34l-.22.3Z"/>
        <path class="cls-32" d="M475.31,14.68s-.26-.11-.53-.22c-.26-.09-.53-.18-.53-.18l.1-.34s.28.09.56.18c.27.11.53.21.53.21l-.13.33Z"/>
        <path class="cls-32" d="M473.16,14.03s-.28-.04-.57-.09c-.28-.03-.56-.06-.56-.06l.02-.34s.29.03.58.05c.28.04.57.08.57.08l-.05.34Z"/>
        <path class="cls-32" d="M470.92,13.86s-.29.02-.57.04c-.14.02-.27.04-.38.05-.1.01-.17.02-.17.02l-.06-.3s.29-.06.58-.1c.29-.02.57-.05.57-.05l.02.33Z"/>
        <path class="cls-32" d="M468.75,14.3s-.06.03-.16.08c-.1.05-.21.12-.32.2-.06.04-.11.08-.16.12-.05.04-.1.08-.13.12-.07.07-.12.12-.12.12l-.17-.15s.05-.05.13-.13c.04-.04.08-.09.14-.13.05-.05.11-.1.17-.14.12-.09.25-.18.34-.23.09-.05.16-.09.16-.09l.13.23Z"/>
        <path class="cls-32" d="M467.3,15.88s-.02.07-.05.17c-.04.1-.06.24-.1.37-.05.28-.07.56-.07.56h-.11s0-.29.03-.58c.03-.14.04-.29.08-.4.03-.1.04-.17.04-.17l.17.05Z"/>
        <path class="cls-32" d="M467.15,18.12s.03.14.06.28c.02.14.07.27.07.27,0,0-.05-.13-.08-.27-.04-.14-.07-.27-.07-.27h.03Z"/>
      </g>
      <path class="cls-25" d="M493.26,28.73s4.25,5.8,8.22,7.29c0,0,5.72,2.61,7.21-.03,0,0-.9-.3-1.27-.74-2.3-2.78-13.16-7.19-13.16-7.19l-1.01.67Z"/>
      <g>
        <polygon class="cls-47" points="506.06 5.34 507.11 5.75 507.1 5.79 506.06 5.34"/>
        <polygon class="cls-47" points="508.15 6.19 509.18 6.65 509.14 6.75 508.12 6.26 508.15 6.19"/>
        <polygon class="cls-47" points="510.2 7.14 511.21 7.64 511.13 7.79 510.14 7.26 510.2 7.14"/>
        <polygon class="cls-47" points="512.22 8.16 513.2 8.71 513.09 8.9 512.12 8.34 512.22 8.16"/>
        <polygon class="cls-47" points="514.18 9.28 515.14 9.88 515 10.1 514.05 9.49 514.18 9.28"/>
        <polygon class="cls-47" points="516.09 10.5 517.02 11.14 516.85 11.38 515.93 10.72 516.09 10.5"/>
        <polygon class="cls-47" points="517.93 11.82 518.81 12.53 518.61 12.78 517.73 12.06 517.93 11.82"/>
        <polygon class="cls-47" points="519.67 13.28 520.49 14.06 520.25 14.3 519.44 13.52 519.67 13.28"/>
        <rect class="cls-47" x="521.33" y="14.87" width=".35" height="1.13" transform="translate(111.05 337.52) rotate(-39.82)"/>
        <rect class="cls-47" x="522.63" y="16.71" width=".36" height="1.13" transform="translate(65.82 271.8) rotate(-31.01)"/>
        <rect class="cls-47" x="523.57" y="18.75" width=".37" height="1.13" transform="translate(21.46 168.97) rotate(-18.7)"/>
        <path class="cls-47" d="M524.34,20.94s.02.28.05.56c0,.29,0,.58,0,.58h-.36s0-.28,0-.55c-.03-.28-.05-.56-.05-.56l.37-.03Z"/>
        <polygon class="cls-47" points="524.27 23.24 524 24.34 523.66 24.25 523.93 23.16 524.27 23.24"/>
        <path class="cls-47" d="M523.61,25.43s-.03.06-.07.16c-.05.1-.1.22-.17.35-.14.25-.28.51-.28.51l-.29-.17s.13-.24.26-.48c.06-.12.12-.26.16-.35.04-.1.07-.16.07-.16l.31.14Z"/>
        <path class="cls-47" d="M522.41,27.39s-.19.21-.38.42c-.22.2-.43.4-.43.4l-.21-.25s.2-.18.4-.37c.19-.21.38-.42.38-.42l.24.22Z"/>
        <polygon class="cls-47" points="520.78 28.95 520 29.77 519.79 29.56 520.55 28.74 520.78 28.95"/>
        <polygon class="cls-47" points="519.25 30.6 518.51 31.45 518.31 31.28 519.04 30.42 519.25 30.6"/>
        <polygon class="cls-47" points="517.79 32.31 517.08 33.19 516.91 33.05 517.6 32.17 517.79 32.31"/>
        <polygon class="cls-47" points="516.38 34.07 515.7 34.97 515.57 34.87 516.23 33.96 516.38 34.07"/>
        <polygon class="cls-47" points="515.04 35.88 514.4 36.81 514.32 36.76 514.93 35.81 515.04 35.88"/>
        <polygon class="cls-47" points="513.8 37.77 513.26 38.76 513.24 38.74 513.74 37.73 513.8 37.77"/>
      </g>
      <path class="cls-22" d="M512.26,23.51s1.43-.74,2.22.7c0,0,.42.66.3,1.49-.12.83-3.77,9.37-7.72,10.29,0,0-.87.24-1.15.23-1.71-.05-2-.7-2-.7l1.33-1.13,7.03-10.88Z"/>
      <path class="cls-32" d="M507.76,5.14c-.33.65-1.16.89-1.86.54-.7-.35-1.01-1.16-.69-1.81s1.16-.89,1.86-.54,1.01,1.16.68,1.82Z"/>
      <path class="cls-47" d="M515.63,39.67l-.2-.18.25-.28.2.18-.25.28ZM514.58,38.75l-.85-.74.25-.28.85.74-.25.28ZM512.88,37.27l-.85-.74.25-.28.85.74-.25.28ZM511.18,35.78l-.85-.74.25-.28.85.74-.25.28Z"/>
      <path class="cls-38" d="M466.24,15.55s.03-.12.12-.33c.09-.21.23-.52.47-.88.24-.36.56-.8,1.02-1.21.45-.42,1.04-.84,1.76-1.13.72-.3,1.56-.49,2.46-.51.89-.02,1.83.11,2.75.38.92.27,1.84.63,2.71,1.1.44.22.87.48,1.29.73.43.27.83.54,1.24.83.8.58,1.58,1.17,2.32,1.79.75.61,1.44,1.26,2.12,1.89.67.63,1.29,1.27,1.86,1.89.58.61,1.09,1.22,1.56,1.79.46.57.88,1.09,1.22,1.58.35.48.65.9.88,1.26.47.72.72,1.13.72,1.13,0,0-.36-.34-.95-.95-.29-.31-.67-.66-1.08-1.08-.41-.42-.91-.87-1.42-1.37-.26-.25-.54-.5-.83-.76-.29-.26-.57-.54-.89-.81-.61-.55-1.28-1.11-1.95-1.7-.68-.58-1.41-1.16-2.15-1.74-.74-.58-1.5-1.15-2.28-1.7-.38-.28-.78-.55-1.16-.79-.41-.24-.79-.5-1.19-.71-.8-.45-1.61-.84-2.42-1.12-.81-.27-1.61-.47-2.38-.53-.77-.05-1.5.02-2.15.2-.65.18-1.22.46-1.69.77-.47.31-.85.64-1.14.94-.58.6-.83,1.03-.83,1.03Z"/>
      <polygon class="cls-25" points="505.33 4.78 507.58 5.4 507.82 4.17 505.33 4.78"/>
      <path class="cls-20" d="M494.75,21.62l1.94-3.88s.32-1.48,2.72-1.14,9.37,1.41,13.16,4.73c0,0,2.15,1.44.85,3.68,0,0-4.58,9.86-7.64,10.33,0,0-2.53.8-5.75-.95-3.22-1.76-6.66-5.3-7.31-6.41-.65-1.11.88-4.03,2.05-6.36Z"/>
      <path class="cls-22" d="M490.63,17.28s3.98-.36,4.79,2.97l-1.19,2.47s-2.86-2.86-4.97-2.77l1.37-2.67Z"/>
      <path class="cls-22" d="M513.09,29.03s4.98,7.69,3.45,11.71l-2.71,2.63s-.55-5.27-4.04-9.58l3.3-4.76Z"/>
      <path class="cls-35" d="M495.35,25.9l3.16-5.57s.43-1.41,2.44-.92c2.44.59,5.87,1.55,7.53,2.64,1.26.83,1.74,1.67.77,3.66l-3.56,5.1s-1.19,2.05-3.48.95c-2.3-1.1-6.16-4.07-6.16-4.07,0,0-.84-.79-.69-1.78Z"/>
      <g>
        <path class="cls-20" d="M501.79,31.54l-2.34-1.43c.8.53,1.62,1.05,2.34,1.43Z"/>
        <path class="cls-41" d="M495.35,25.9l3.16-5.57s.43-1.41,2.44-.92c1.85.45,4.26,1.1,6.04,1.87v-.02s-5.03-1.95-6.51-2.41c-1.47-.46-2.5.64-2.5.64,0,0-2.19,4.72-2.99,5.96-.79,1.24.46,2.23.46,2.23l4.01,2.44c-1.77-1.18-3.41-2.44-3.41-2.44,0,0-.84-.79-.69-1.78Z"/>
        <path class="cls-20" d="M501.83,31.57h0s-.03-.02-.04-.02l.04.02Z"/>
      </g>
      <path class="cls-41" d="M512.03,27.75c.18-.59.27-.96.27-.96l-4.22,5.6,2.91-5.82-2.44,4.23c-2.11,3.29-4.45,3.7-4.45,3.7-2.22,1.24-6.64-1.84-6.93-2.05.92.73,1.89,1.41,2.85,1.93,3.22,1.75,5.75.95,5.75.95,2.01-.3,4.66-4.64,6.26-7.59Z"/>
      <path class="cls-7" d="M496.07,22.1c.18-.45.38-.89.58-1.34.2-.44.4-.88.61-1.32.09-.22.23-.45.38-.65.16-.2.34-.39.55-.54.21-.16.46-.28.72-.33.27-.05.55-.04.8.04h0s0,0,0,0c1.07.4,2.14.82,3.2,1.26l1.58.66c.52.23,1.05.46,1.57.7-.55-.16-1.09-.35-1.64-.52l-1.62-.56c-1.08-.38-2.15-.78-3.22-1.19h.01c-.42-.12-.86-.03-1.23.22-.18.13-.35.28-.5.46-.15.18-.28.36-.39.58-.23.43-.46.85-.7,1.28-.24.42-.47.85-.73,1.26Z"/>
      <path class="cls-7" d="M498.42,29.86l3.77,2.14s1.73.69,2.57.04c1.08-.84,3.41-4.62,3.41-4.62l-3.08,5.23s-1.07,1.29-2.53.38l-4.14-3.18Z"/>
      <path class="cls-15" d="M496.6,25.97l2.31-4.62s.48-1.3,2.27-.96c1.79.34,5.7,1.99,5.7,1.99,0,0,1.26.53,1.89,1.74,0,0-1.2-.67-2.27-.99,0,0-4.25-1.5-5.86-.97,0,0-2.25,1.55,0,2.43,0,0,2.17.21,2.6-1.19,0,0,.69,3.12-2.98,2.85l-2.03-.74-1.65.47Z"/>
      <path class="cls-36" d="M498.34,28.63l3.91,2.16s1.88.96,2.66.02c.78-.94,2.84-4.45,2.84-4.45,0,0-3.1,4.33-4.96,3.78-1.86-.55-4.45-1.51-4.45-1.51Z"/>
      <path class="cls-15" d="M506.25,24.9c-.16.31-.5.45-.78.31s-.37-.5-.21-.81.5-.45.78-.31.37.5.21.81Z"/>
      <path class="cls-41" d="M490.62,16.45s.19-.1.47-.25c.3-.61.55-1.14.7-1.52.48-1.13-.05-2.38-1.64-3.47.05.05,2.17,2.09.47,5.24Z"/>
      <path class="cls-7" d="M478.81,12.86l.04-1.55s.29-1.32,2.31-.73l4.25.93s-5.31-2.47-6.41-1.42c0,0-1.04.4-.2,2.77Z"/>
      <path class="cls-15" d="M480.29,14.38l.14-1.71s.68-2.01,6.58.95c0,0-3.15-.55-4.63-.26,0,0,2.6,1.12,4.01,2.95,0,0-4.12-2.27-4.73-1.94l.06,1.26-1.42-1.26Z"/>
      <path class="cls-27" d="M489.82,19.7l1.12-1.77s2.67-.62,3.8,1.9c0,0-1.77-1.65-3.18-1.34l-.83,1.37-.91-.16Z"/>
      <polygon class="cls-33" points="495.06 19.3 493.59 22.13 494.23 22.72 495.42 20.25 495.06 19.3"/>
      <polygon class="cls-33" points="489.87 20.08 490.52 20.18 488.86 22.1 489.87 20.08"/>
      <path class="cls-27" d="M492.12,18.29l-.91,1.56.27.13.94-1.54.47.11-.62,1.24.2.1.84-1.12.4.2-.72,1.18h.37s.74-.99.74-.99c0,0-.76-.69-.88-.78-.12-.09-1.1-.08-1.1-.08Z"/>
      <path class="cls-33" d="M513.24,29.34s-2.14,3.67-3.26,4.69l.82,1.04s2.93-4.43,2.43-5.74Z"/>
      <polygon class="cls-33" points="513.83 31.13 510.81 35.07 511.32 35.79 513.98 31.5 513.83 31.13"/>
      <polygon class="cls-33" points="511.46 35.85 514.26 32.81 514.51 33.2 511.76 36.54 511.46 35.85"/>
      <polygon class="cls-33" points="512.03 36.68 514.2 34.44 514.53 34.95 512.23 37.24 512.03 36.68"/>
      <polyline class="cls-33" points="512.44 37.66 514.15 35.97 514.49 36.71 512.8 38.39 512.44 37.66"/>
      <polygon class="cls-33" points="512.94 38.7 514.28 37.67 514.73 38.54 513.32 39.65 512.94 38.7"/>
      <path class="cls-27" d="M515.71,35.6c.16.39.29.78.4,1.19.11.4.2.81.28,1.22.07.41.12.83.12,1.26v.32s-.04.32-.04.32c-.02.11-.04.22-.07.33-.03.11-.08.22-.12.33v.02s-.03.02-.03.02c-.35.36-.71.71-1.07,1.05-.18.17-.36.34-.55.51-.19.17-.37.34-.57.49.15-.2.31-.4.46-.59.15-.2.32-.39.48-.58.32-.38.66-.76.99-1.13l-.03.04c.03-.09.07-.17.09-.26.02-.09.04-.19.05-.28.02-.2.03-.39.03-.59,0-.1,0-.2,0-.3,0-.1,0-.2-.02-.3-.01-.2-.03-.41-.05-.61-.05-.41-.1-.82-.16-1.22l-.19-1.23Z"/>
      <polygon class="cls-27" points="514.57 41.12 514.33 40.82 516.53 38.84 516.5 39.74 514.57 41.12"/>
      <path class="cls-25" d="M510.26,34.5l-.48.79s2.39,2.06,2.94,3.72c0,0-1.34-3.12-2.46-4.51Z"/>
      <path class="cls-19" d="M489.3,43.02s-.61,1.22-.86,1.37c0,0,.64.12.86-1.37Z"/>
      <path class="cls-42" d="M482.09,43.9s6.25,3.3,12.44,2.29c0,0-1.48,3.43-5.53,2.47-4.05-.96-3.1-2.45-3.1-2.45"/>
      <path class="cls-23" d="M481.48,43.65c4.26,1.92,9.21,3.17,13.79,1.77,0,0,.25.84.25.84-4.79,1.18-9.81-.37-14.04-2.61h0Z"/>
      <path class="cls-23" d="M486.94,40.32c-.69-.32-1.52.66-1.47,1.19.23,0,.54-.12.84-.26,0,0,1.08-.45,1.08-.45l-.62,1.01c-.51.72.32,1.81,1.12,1.56.49-.15.87-1.49,1.11-1.91,0,0,.17,1.38.17,1.38.07.45.79,1.1,1.28.98.3-.08.42-.24.29-.61-.13-.33-.35-.66-.59-.97.33.22.64.47.88.82.72,1.21-.98,1.7-1.77,1.06-.38-.25-.72-.58-.87-1.13l.77.05c-.14.43-.44.91-.96,1.12-1.59.61-3.07-1.48-2.05-2.78,0,0,.45.55.45.55-.86.38-2.24.27-1.49-1.01.37-.55,1.24-1.13,1.83-.62h0Z"/>
      <g class="cls-13">
        <path class="cls-12" d="M487.79,40.3c.29.77.46,1.52.03,2.15-.11.09-.27.29-.09.75-.93.62-1.67-.82-1.42-1.54.19-.73.67-1.21,1.47-1.35h0Z"/>
      </g>
      <g id="YEUX_2" data-name="YEUX 2">
        <g>
          <path class="cls-22" d="M500.96,44.79c.32-.2.7-.67,1-1.27.46-.92.56-1.81.22-1.98s-.99.44-1.45,1.36c-.25.49-.38.97-.41,1.33l.65.55Z"/>
          <path class="cls-22" d="M479.44,35.3c.32-.21.7-.67,1-1.27.46-.92.56-1.81.22-1.98s-.99.44-1.45,1.36c-.25.49-.38.97-.41,1.33l.65.55Z"/>
        </g>
        <path class="cls-6" d="M477.27,33.93s.29.02.67.16c.19.06.4.16.62.28.22.12.43.28.65.44.1.09.2.18.3.27.09.09.19.18.27.28.16.2.29.4.39.58.18.38.23.66.23.66,0,0-.26-.14-.55-.37-.17-.1-.35-.23-.53-.38-.19-.14-.39-.29-.58-.45-.2-.15-.38-.32-.56-.48-.18-.16-.33-.32-.47-.46-.27-.28-.43-.52-.43-.52Z"/>
        <path class="cls-6" d="M498.68,43.27s.29.02.67.16c.19.06.4.16.62.28.22.12.43.28.65.44.1.09.2.18.29.27.09.09.19.18.27.28.16.2.29.4.39.58.18.38.23.65.23.65,0,0-.26-.14-.55-.37-.17-.1-.35-.23-.53-.38-.19-.14-.39-.29-.58-.45-.2-.15-.38-.32-.56-.48-.18-.16-.34-.32-.47-.46-.27-.28-.43-.52-.43-.52Z"/>
      </g>
      <g id="main_droite_2" data-name="main droite 2">
        <path class="cls-19" d="M481.06,103c-.04-.26.11.5.46-.84"/>
        <path class="cls-19" d="M476.49,99.13c-.45.74-1.58,1.37-2.46,1.3-1.55-.13-1.12-1.15-1.32-2.21-.34-1.87-2.56-3.67-4.4-4.02-2.01-.39-4.45.75-5.33,2.52-1.01,2.02.8,3,1.81,4.44.86,1.23.69,2.79,1.46,4.1,1.08,1.86,3.38,2.68,5.33,3.42"/>
        <path class="cls-19" d="M512.03,95.6c.03-.54,1.56-1.59,1.97-1.93.75-.63,1.39-1.02,2.39-1.03,1.11-.01,2.69.92,2.76,2.15.13,2.38-5.27,5.04-6.66,4.64"/>
      </g>
      <g id="shoes_avant" data-name="shoes avant">
        <path class="cls-34" d="M424.31,82.44s-1.98,11.75.88,14.16c0,0,1.17,2.4,3.89-.93,0,0-1.05,5.22-5.85,4.85l-4.74-6.44,5.83-11.64Z"/>
        <path class="cls-21" d="M422.49,99.52s-1.78,3.16-4.29,2.83c-2.51-.33-2.17-6.26-2.17-6.26l-1.09-4.17s9.08-6.84,8.43-7.59"/>
        <path class="cls-42" d="M393.27,63.84s8.06-12.67,24.3-2.16c14.68,9.5,5.02,23.54,3.57,28.86-1.46,5.33-3.23,14.02-3.23,14.02-4.61-2.77-8.93-2.88-9.58-3.05-4.47-8.87-13.4-26.06-13.4-26.06h0c-4.26-7.61-1.66-11.61-1.66-11.61"/>
        <path class="cls-46" d="M395.49,70.07s2.01-3.08,12.56,2.98c8.01,4.6,8.01,18.45,6.25,26.22-1.76,7.76-18.82-29.19-18.82-29.19"/>
        <path class="cls-46" d="M396.8,67.44s.58-.03,1.61.02c1.02.06,2.49.2,4.22.57.86.19,1.79.43,2.76.76.96.33,1.97.73,2.96,1.25.99.52,1.99,1.13,2.9,1.89.92.75,1.78,1.62,2.49,2.6l.27.38.23.37c.16.24.31.5.46.77.3.53.56,1.06.8,1.6.48,1.08.82,2.19,1.08,3.28.26,1.09.41,2.16.5,3.17.1,1.01.11,1.97.09,2.86-.04,1.77-.24,3.23-.43,4.23-.19,1.01-.36,1.57-.36,1.57,0,0,.08-.58.14-1.6.06-1.02.1-2.47,0-4.19-.05-.86-.14-1.8-.28-2.77-.14-.98-.36-1.99-.63-3.02-.28-1.03-.66-2.07-1.11-3.08-.23-.5-.48-1.01-.76-1.49-.14-.24-.28-.48-.44-.72l-.24-.37-.24-.32c-.66-.9-1.43-1.72-2.28-2.43-.85-.7-1.76-1.33-2.68-1.85-.93-.52-1.87-.96-2.78-1.33-.91-.37-1.8-.67-2.63-.92-1.66-.5-3.08-.8-4.08-.98-1-.18-1.58-.25-1.58-.25Z"/>
        <path class="cls-12" d="M397.31,61.12s.16-.09.47-.23c.32-.13.78-.33,1.4-.5.31-.08.65-.19,1.03-.26.38-.09.8-.16,1.24-.21.22-.03.46-.06.7-.09.24-.01.49-.03.74-.04.25-.01.52-.03.78-.03.27,0,.54.02.82.03,1.12.04,2.33.22,3.59.52.16.04.32.07.48.11.16.05.31.1.47.15.32.1.64.21.96.31.16.06.33.1.49.17.16.07.32.14.47.21.32.14.64.28.96.42.16.07.33.14.49.22.16.09.31.17.47.26.31.17.63.35.94.53l.48.27c.16.09.3.2.46.3.3.21.6.42.91.63.3.22.62.41.9.65.28.24.57.48.85.72l.85.73.11.09.05.05h.01s.04.05.04.05l.02.02c.06.06.14.14.21.22.15.16.27.3.4.45.26.3.48.61.72.91.21.32.44.63.64.95.19.33.39.65.58.98.17.34.34.67.51,1.01.18.33.3.68.45,1.02.14.34.29.68.4,1.03.12.35.23.69.34,1.03.12.34.18.7.27,1.04.08.35.17.68.23,1.03.05.34.1.68.15,1.02.04.34.11.67.13,1,.02.33.03.66.05.98.01.32.03.64.04.95-.01.31-.03.62-.04.92-.02.3-.03.6-.05.89,0,.14-.02.29-.02.43-.02.14-.04.28-.06.42-.08.55-.17,1.07-.24,1.57-.02.12-.04.25-.06.37-.03.12-.06.24-.09.35-.06.23-.12.46-.17.67-.11.43-.21.84-.32,1.21-.09.37-.25.7-.35,1-.22.6-.41,1.06-.54,1.38-.13.31-.2.48-.2.48,0,0,.03-.18.07-.52.05-.34.12-.83.23-1.45.13-.61.17-1.38.25-2.25.12-.86.09-1.84.11-2.9,0-.13,0-.26,0-.4,0-.13-.02-.27-.03-.41-.02-.27-.04-.55-.06-.83-.02-.28-.03-.57-.05-.86-.04-.29-.09-.58-.13-.88-.04-.3-.08-.6-.13-.9-.04-.3-.13-.6-.19-.91-.07-.3-.14-.61-.21-.92-.08-.31-.18-.61-.28-.92-.35-1.24-.89-2.47-1.49-3.67-.16-.29-.32-.59-.48-.89-.18-.29-.36-.57-.53-.86-.19-.28-.39-.56-.58-.83-.21-.26-.41-.54-.62-.78-.11-.13-.21-.26-.31-.36-.05-.06-.09-.11-.16-.17l-.02-.02s-.03-.03.01.01h-.01s-.05-.05-.05-.05l-.1-.09-.79-.68c-.26-.23-.52-.46-.78-.68-.25-.23-.55-.41-.82-.62-1.08-.84-2.21-1.56-3.34-2.19-.29-.15-.57-.3-.86-.44-.28-.15-.56-.3-.85-.41-.29-.12-.57-.24-.85-.36-.14-.06-.28-.12-.42-.18-.14-.05-.28-.09-.43-.14-.57-.17-1.11-.39-1.66-.5-.55-.13-1.07-.28-1.59-.35-.26-.04-.51-.09-.76-.13-.25-.04-.49-.05-.73-.08-.24-.03-.47-.05-.7-.07-.23,0-.45-.02-.66-.02-.43-.03-.83,0-1.21,0-.38,0-.72.04-1.03.06-.62.06-1.11.13-1.45.19-.33.06-.51.11-.51.11Z"/>
        <path class="cls-12" d="M402.58,60.3l-2.88,5.75,4.58-5.66,1.57.22-3.1,6.19,4.89-5.77,1.88.63-3.82,5.93,2.3.86,3.11-6.2,2.17,1.3-3.85,5.62s1.34,1.41,1.54,1.07c.2-.34,3.94-5.91,3.94-5.91l1.77,1.72-3.92,5.09.82,1.1,4.89-4.41.71,2-3.82,4.08,1.15,1.25,4.19-3.77.37,2.23-4.33,3.95.27,1.66,4.34-4.02.18,1.43-4.13,3.8.14,1.43,4.44-4.02.26,1.55-4.41,3.49-.04,1.22,4.59-3.28.04,1.53-4.11,2.83-.6,1.2,4.5-2.63.15-8.76s-3.11-6.29-3.13-6.77c-.01-.49-4.74-4.48-4.99-4.68-.25-.2-5.7-2.56-5.7-2.56l-5.97-.66Z"/>
        <path class="cls-43" d="M413.65,86.28c.28-2.97-1.33-6.82-1.35-6.86-1.43-4.1-9.12-7.51-9.2-7.55l.15-.34c.32.14,7.92,3.52,9.4,7.76.06.15,1.66,3.96,1.37,7.03l-.38-.04Z"/>
        <polygon class="cls-43" points="404.74 77.38 402.63 75.15 405.29 72.76 405.54 73.04 403.17 75.17 404.74 76.82 407.34 73.95 407.62 74.2 404.74 77.38"/>
        <polygon class="cls-43" points="407.93 81.17 405.98 79.13 409.69 75.7 409.94 75.98 406.52 79.15 407.96 80.65 411.43 77.54 411.68 77.82 407.93 81.17"/>
        <polygon class="cls-43" points="410.8 84.37 408.78 82.63 412.54 79.65 412.77 79.95 409.37 82.65 410.79 83.87 413.19 81.73 413.44 82.01 410.8 84.37"/>
        <rect class="cls-43" x="411.34" y="84.65" width="2.83" height=".38" transform="translate(69.47 329.22) rotate(-47.06)"/>
        <path class="cls-12" d="M422.37,84.91l-4.52,3.4s-.28,1.05-.16.94c.12-.12,4.37-3.17,4.37-3.17l.09,1.01-4.24,3.71.18.71,3.64-2.81-3.02,3.52.18.22,2.35-2.22,1.29-4.2-.16-1.1Z"/>
      </g>
      <g id="main_droite" data-name="main droite">
        <path class="cls-19" d="M475.45,100.84s5.45-10.23,12.76-9.03c7.31,1.2,2.49,13.83,2.49,13.83,0,0-2.18,7.11-7.7,4.13,0,0-3.93-1-1.8-6.06,0,0-.1-3.38-1.96-2.84l-3.79-.04Z"/>
        <path class="cls-19" d="M491.72,94.56s3.49-4.97,9.32-3.17c5.83,1.8,3.01,11.17,2.08,12.75-.93,1.58-3.55,7.83-7.81,5.98,0,0-6.3-1.68-.78-8.79,0,0-.31-1.71-2.49-.84l-.02-4.98"/>
        <path class="cls-19" d="M503.34,95.19s4.68-4.39,8.04-1.78c3.37,2.61-.6,14.35-3.37,14.3-2.78-.05-4.96-.45-5.07-5.55l-.33-4.47.74-2.5Z"/>
        <path class="cls-9" d="M476.99,98.91s6.91-11.1,14.35-5.16c0,0-6.4-2.75-14.35,5.16Z"/>
        <path class="cls-9" d="M505.03,94.51l.09,2.18s3.87-4.04,6.75-.89c0,0-1.34-5.57-6.84-1.28Z"/>
        <path class="cls-9" d="M492.17,94.37l-.11,2.06s7.48-6.46,11.11-1.74c0,0-2.6-7.27-11-.32Z"/>
        <path class="cls-6" d="M504.6,98.55s-.69,4.14-1.48,5.58c0,0,.55,4.23,5.41,3.45,0,0-1.87-.46-3.09-2.28-1.21-1.82-.85-6.75-.85-6.75Z"/>
        <path class="cls-6" d="M480.89,102.02s.74-2.28-.88-3.38l.13,2.31-4.19.96s3.83-.42,4.94.1Z"/>
        <path class="cls-42" d="M492.03,99.75l-.03.92,2.08-.09s-.61-.77-2.05-.83Z"/>
        <path class="cls-6" d="M492.15,97.81l-.12,1.94s2,.02,2.49,1.57c0,0-.19-3.9-2.38-3.51Z"/>
        <path class="cls-9" d="M482.4,102.28s-3.81,6.63,1.73,7.44c0,0-3.09-2.3-1.73-7.44Z"/>
        <path class="cls-9" d="M495.52,101.45s-5.29,5.64-.01,8.18c0,0-2.21-2.2.01-8.18Z"/>
      </g>
    </g>
    <path class="cls-4" d="M390.06,124.91c-2.4,5.56,3.25,11.43,8.16,11.07v-10.11c.51-6.79,4.56-8.19,7.84-8.31.21,0,3.65.11,4.94,1.2.37.32,1.03,2.61,1.03,2.61.81.14,5.9-16.8,5.89-16.81-4.22-2.66-9.07-3-9.58-3.05-5.5,5.26-14.53,18.47-14.53,18.47h0c-2.13,1.86-3.21,3.57-3.74,4.93"/>
    <g>
      <polygon class="cls-26" points="209.51 86.34 14.62 86.33 30.76 33.65 225.65 33.65 209.51 86.34"/>
      <polygon class="cls-16" points="208.42 83.58 13.52 83.57 29.66 30.89 224.56 30.89 208.42 83.58"/>
      <g>
        <path class="cls-12" d="M40.34,44.32l17.81-.02-1.32,4.54h-12.46s-2.04,6.87-2.04,6.87h10.34s-1.26,4.23-1.26,4.23h-10.34s-3.25,10.99-3.25,10.99h-5.39s7.91-26.61,7.91-26.61Z"/>
        <path class="cls-12" d="M62.2,44.3l18.12-.02-1.36,4.54h-12.74s-1.89,6.42-1.89,6.42h10.97s-1.21,4.19-1.21,4.19h-11.01s-2.09,6.94-2.09,6.94h13.09s-1.32,4.52-1.32,4.52l-18.48.02,7.91-26.61Z"/>
        <path class="cls-12" d="M86.16,71.07c-1.97,0-3.84-.3-5.63-.91s-3.29-1.45-4.49-2.53l3.71-4.46c.14.22.43.52.86.88.43.36,1.01.72,1.73,1.09.72.36,1.53.67,2.43.93.9.26,1.86.39,2.88.39,1.05,0,1.93-.14,2.65-.43.71-.29,1.26-.66,1.64-1.13.38-.47.59-1.03.63-1.67.05-.65-.17-1.17-.65-1.58-.48-.41-1.16-.77-2.02-1.08-.87-.31-1.85-.64-2.95-.99-1.28-.4-2.35-.84-3.22-1.34-.87-.5-1.5-1.1-1.91-1.81-.41-.71-.57-1.56-.5-2.56.11-1.54.54-2.92,1.27-4.12.73-1.21,1.69-2.23,2.86-3.08,1.18-.85,2.49-1.49,3.94-1.93,1.45-.44,2.94-.66,4.49-.66,1.23,0,2.37.14,3.43.41,1.05.27,2,.63,2.83,1.08.83.45,1.56.94,2.17,1.46l-3.61,4.2c-.09-.17-.32-.41-.69-.71-.37-.3-.85-.59-1.43-.88-.58-.29-1.23-.53-1.95-.73-.72-.2-1.47-.3-2.26-.3-1.02,0-1.9.16-2.63.47-.73.31-1.29.72-1.68,1.23-.39.51-.61,1.12-.67,1.85-.04.55.13,1,.51,1.36.38.36.94.68,1.68.95.74.27,1.63.57,2.69.89,1.39.4,2.58.85,3.57,1.36,1,.51,1.76,1.15,2.27,1.93.52.78.73,1.78.64,3-.12,1.67-.56,3.09-1.3,4.29-.74,1.19-1.71,2.16-2.89,2.91-1.18.75-2.5,1.3-3.96,1.66-1.46.36-2.93.54-4.42.54Z"/>
        <path class="cls-12" d="M112.89,48.79h-8.41s1.4-4.53,1.4-4.53l22.09-.02-1.36,4.54h-8.33s-6.59,22.08-6.59,22.08h-5.39s6.59-22.07,6.59-22.07Z"/>
        <path class="cls-12" d="M131.47,44.24h5.39s-7.91,26.61-7.91,26.61h-5.39s7.91-26.61,7.91-26.61Z"/>
        <path class="cls-12" d="M139.76,44.23h5.66s.94,20.15.94,20.15l12.81-20.17h5.7s-18.13,26.62-18.13,26.62h-4.6s-2.39-26.6-2.39-26.6Z"/>
        <path class="cls-12" d="M173.41,44.2h4.84s2.08,26.6,2.08,26.6h-5.58s-.21-6.63-.21-6.63h-9.28s-4.15,6.64-4.15,6.64h-5.58s17.89-26.62,17.89-26.62ZM174.41,60.54l-.34-10.45-6.55,10.46h6.88Z"/>
        <path class="cls-12" d="M191.26,44.19h5.39s-6.59,22.07-6.59,22.07h13.37s-1.32,4.52-1.32,4.52l-18.75.02,7.91-26.61Z"/>
      </g>
    </g>
    <g class="cls-3">
      <path class="cls-12" d="M6.14,197.03c-4.09-4.38-6.14-10.56-6.14-18.55v-52.51c0-7.99,2.04-14.17,6.14-18.55,4.09-4.38,9.99-6.56,17.69-6.56s13.6,2.19,17.69,6.56c4.09,4.38,6.14,10.56,6.14,18.55v52.51c0,7.99-2.05,14.18-6.14,18.55-4.09,4.38-9.99,6.56-17.69,6.56s-13.6-2.19-17.69-6.56ZM31.96,179.48v-54.51c0-6.56-2.71-9.85-8.13-9.85s-8.13,3.28-8.13,9.85v54.51c0,6.56,2.71,9.84,8.13,9.84s8.13-3.28,8.13-9.84Z"/>
      <path class="cls-12" d="M63.64,197.1c-4-4.33-5.99-10.53-5.99-18.62v-76.2h15.7v77.34c0,3.42.69,5.9,2.07,7.42,1.38,1.52,3.35,2.28,5.92,2.28s4.54-.76,5.92-2.28c1.38-1.52,2.07-4,2.07-7.42v-77.34h15.13v76.2c0,8.09-2,14.29-5.99,18.62-4,4.33-9.8,6.49-17.41,6.49s-13.41-2.16-17.41-6.49Z"/>
      <path class="cls-12" d="M127.85,116.55h-16.41v-14.27h48.51v14.27h-16.41v85.61h-15.7v-85.61Z"/>
    </g>
  </g>
</svg>