<?xml version="1.0" encoding="UTF-8"?>
<svg id="Calque_2" data-name="Calque 2" xmlns="http://www.w3.org/2000/svg" xmlns:xlink="http://www.w3.org/1999/xlink" viewBox="0 0 227.47 85.6">
  <defs>
    <style>
      .cls-1 {
        fill: none;
      }

      .cls-2 {
        filter: url(#drop-shadow-1);
      }

      .cls-3 {
        filter: url(#drop-shadow-2);
      }

      .cls-4 {
        opacity: .2;
      }

      .cls-4, .cls-5 {
        fill: #36594d;
      }

      .cls-6 {
        fill: #c9a089;
      }

      .cls-7 {
        fill: #d98a6e;
      }

      .cls-8 {
        fill: #6a4435;
      }

      .cls-9 {
        opacity: .5;
      }

      .cls-9, .cls-10, .cls-11, .cls-12 {
        fill: #fff;
      }

      .cls-10, .cls-13 {
        opacity: .3;
      }

      .cls-11 {
        opacity: .4;
      }

      .cls-14 {
        fill: #08a4da;
      }

      .cls-15 {
        fill: #e0f2fd;
      }

      .cls-16 {
        fill: #33483d;
      }

      .cls-17 {
        fill: #3c5347;
      }

      .cls-18 {
        fill: #f9c3a6;
      }

      .cls-19 {
        fill: #c57d64;
      }

      .cls-20 {
        fill: #01759a;
      }

      .cls-21 {
        fill: #61493f;
      }

      .cls-22 {
        fill: #b6927d;
      }

      .cls-23 {
        fill: #dadada;
      }

      .cls-24 {
        fill: #8d2c13;
      }

      .cls-25 {
        fill: #785c50;
      }

      .cls-26 {
        fill: #e29202;
      }

      .cls-27 {
        fill: #ea9376;
      }

      .cls-28 {
        fill: #56685b;
      }

      .cls-29 {
        fill: #35594d;
      }

      .cls-30 {
        fill: #b13518;
      }

      .cls-31 {
        fill: #48352d;
      }

      .cls-32 {
        fill: #0090be;
      }

      .cls-33 {
        fill: #bce3fa;
      }

      .cls-34 {
        fill: #5dc5f1;
      }

      .cls-35 {
        fill: #fdc420;
      }

      .cls-36 {
        fill: #cb4f1b;
      }

      .cls-37 {
        fill: #597b6a;
      }

      .cls-38 {
        fill: #f9b004;
      }

      .cls-39 {
        fill: #94604d;
      }

      .cls-40 {
        fill: #ededed;
      }

      .cls-41 {
        fill: #a3a09f;
      }

      .cls-42 {
        fill: #f7a707;
      }

      .cls-43 {
        fill: #f6b09e;
      }

      .cls-44 {
        fill: #b5b3b2;
      }

      .cls-45 {
        fill: #d53d16;
      }

      .cls-46 {
        fill: #009dd1;
      }

      .cls-47 {
        fill: #cc7512;
      }
    </style>
    <filter id="drop-shadow-1" x="0" y="42.4" width="68.11" height="44.05" filterUnits="userSpaceOnUse">
      <feOffset dx=".85" dy=".85"/>
      <feGaussianBlur result="blur" stdDeviation="0"/>
      <feFlood flood-color="#1e1f1c" flood-opacity=".45"/>
      <feComposite in2="blur" operator="in"/>
      <feComposite in="SourceGraphic"/>
    </filter>
    <filter id="drop-shadow-2" x="112.4" y="42.58" width="115.93" height="43.81" filterUnits="userSpaceOnUse">
      <feOffset dx=".85" dy=".85"/>
      <feGaussianBlur result="blur-2" stdDeviation="0"/>
      <feFlood flood-color="#1d1d1b" flood-opacity=".45"/>
      <feComposite in2="blur-2" operator="in"/>
      <feComposite in="SourceGraphic"/>
    </filter>
  </defs>
  <g id="Calque_1-2" data-name="Calque 1">
    <g class="cls-2">
      <path class="cls-12" d="M2.58,82.84c-1.72-1.84-2.58-4.44-2.58-7.8v-22.08c0-3.36.86-5.96,2.58-7.8,1.72-1.84,4.2-2.76,7.44-2.76s5.72.92,7.44,2.76c1.72,1.84,2.58,4.44,2.58,7.8v22.08c0,3.36-.86,5.96-2.58,7.8-1.72,1.84-4.2,2.76-7.44,2.76s-5.72-.92-7.44-2.76ZM13.44,75.46v-22.92c0-2.76-1.14-4.14-3.42-4.14s-3.42,1.38-3.42,4.14v22.92c0,2.76,1.14,4.14,3.42,4.14s3.42-1.38,3.42-4.14Z"/>
      <path class="cls-12" d="M26.76,82.87c-1.68-1.82-2.52-4.43-2.52-7.83v-32.04h6.6v32.52c0,1.44.29,2.48.87,3.12.58.64,1.41.96,2.49.96s1.91-.32,2.49-.96c.58-.64.87-1.68.87-3.12v-32.52h6.36v32.04c0,3.4-.84,6.01-2.52,7.83-1.68,1.82-4.12,2.73-7.32,2.73s-5.64-.91-7.32-2.73Z"/>
      <path class="cls-12" d="M53.76,49h-6.9v-6h20.4v6h-6.9v36h-6.6v-36Z"/>
    </g>
    <g>
      <path class="cls-12" d="M80.81,47.52c0-2.8,1.47-4.4,4.17-4.4s4.17,1.6,4.17,4.4v9.1c0,2.8-1.47,4.4-4.17,4.4s-4.17-1.6-4.17-4.4v-9.1ZM83.56,56.8c0,1.25.55,1.72,1.42,1.72s1.42-.47,1.42-1.72v-9.45c0-1.25-.55-1.72-1.42-1.72s-1.42.48-1.42,1.72v9.45Z"/>
      <path class="cls-12" d="M93.68,51.1h3.55v2.5h-3.55v7.22h-2.75v-17.5h7.27v2.5h-4.52v5.27Z"/>
      <path class="cls-12" d="M75.1,67.32h8.5v2.5h-2.87v15h-2.75v-15h-2.87v-2.5Z"/>
      <path class="cls-12" d="M87.55,84.81h-2.75v-17.5h2.75v7.5h3.12v-7.5h2.8v17.5h-2.8v-7.5h-3.12v7.5Z"/>
      <path class="cls-12" d="M98.22,74.69h3.77v2.5h-3.77v5.12h4.75v2.5h-7.5v-17.5h7.5v2.5h-4.75v4.87Z"/>
    </g>
    <g class="cls-3">
      <path class="cls-12" d="M132.13,52.72v1.5c0,4.32-1.32,7.08-4.26,8.46,3.54,1.38,4.92,4.56,4.92,9v3.42c0,6.48-3.42,9.96-10.02,9.96h-10.38v-42h9.96c6.84,0,9.78,3.18,9.78,9.66ZM119,49.06v11.1h2.58c2.46,0,3.96-1.08,3.96-4.44v-2.34c0-3-1.02-4.32-3.36-4.32h-3.18ZM119,66.16v12.9h3.78c2.22,0,3.42-1.02,3.42-4.14v-3.66c0-3.9-1.26-5.1-4.26-5.1h-2.94Z"/>
      <path class="cls-12" d="M136.21,53.14c0-6.72,3.54-10.56,10.02-10.56s10.02,3.84,10.02,10.56v21.84c0,6.72-3.54,10.56-10.02,10.56s-10.02-3.84-10.02-10.56v-21.84ZM142.81,75.4c0,3,1.32,4.14,3.42,4.14s3.42-1.14,3.42-4.14v-22.68c0-3-1.32-4.14-3.42-4.14s-3.42,1.14-3.42,4.14v22.68Z"/>
      <path class="cls-12" d="M159.97,53.14c0-6.72,3.54-10.56,10.02-10.56s10.02,3.84,10.02,10.56v21.84c0,6.72-3.54,10.56-10.02,10.56s-10.02-3.84-10.02-10.56v-21.84ZM166.57,75.4c0,3,1.32,4.14,3.42,4.14s3.42-1.14,3.42-4.14v-22.68c0-3-1.32-4.14-3.42-4.14s-3.42,1.14-3.42,4.14v22.68Z"/>
      <path class="cls-12" d="M192.91,68.32l-2.04,3.84v12.9h-6.6v-42h6.6v18.3l8.64-18.3h6.6l-9.18,18.72,9.18,23.28h-6.78l-6.42-16.74Z"/>
      <path class="cls-12" d="M217.69,42.58c6.42,0,9.72,3.84,9.72,10.56v1.32h-6.24v-1.74c0-3-1.2-4.14-3.3-4.14s-3.3,1.14-3.3,4.14c0,8.64,12.9,10.26,12.9,22.26,0,6.72-3.36,10.56-9.84,10.56s-9.84-3.84-9.84-10.56v-2.58h6.24v3c0,3,1.32,4.08,3.42,4.08s3.42-1.08,3.42-4.08c0-8.64-12.9-10.26-12.9-22.26,0-6.72,3.3-10.56,9.72-10.56Z"/>
    </g>
    <path class="cls-29" d="M202.18,43.06s-1.04,2.51.73,3.23c.22.09,1.26.61,2.11.15s1.5-1.88,1.56-2.53c0,0-4.26-.85-4.4-.85Z"/>
    <path class="cls-5" d="M211.01,43.68l-1.49,2.88c1.32.02,2.09-2.5,2.09-2.5l-.6-.38Z"/>
    <path class="cls-29" d="M211.37,43.29s-.3,2.62,2.33,2.18c1.02-.17,1.73-2.71,1.73-2.71l-4.06.53Z"/>
    <g>
      <g id="fulard_personnage_2" data-name="fulard personnage 2">
        <path class="cls-28" d="M212.59,23.01c2.46,1.1,3.32,2.26,3.32,2.26-1.97,1.03-3.57.26-3.57.26-4.28-1.5-4.48-4.73-4.48-4.73"/>
        <path class="cls-17" d="M214.99,24.2c-1.71.1-5.46.48-7.24-3.02l1.76-.54,4.87,2.77.6.79Z"/>
        <path class="cls-28" d="M208.67,20.67s2.31-.29,3.83.83c1.52,1.12,4.07,1.7,4.68,1.5,0,0-1.94,2.43-5.44.53-3.5-1.9-3.3-2.6-3.3-2.6l.23-.26Z"/>
        <path class="cls-37" d="M211.64,23.32s2.55,1.5,4.75-.05c0,0-2.08.57-4.75.05Z"/>
      </g>
      <g id="bras_gauche" data-name="bras gauche">
        <path class="cls-18" d="M192.82,15.99c.53.12,1.1.26,1.64.05.48-.19.53-.79.84-1.16.28-.33.64-.1.97-.07.5.05,1.1-.11,1.42-.55.24-.33.49-1.01.04-1.24-.37-.19-.77,0-1.05.28-.34.33-.56.33-.98.09-.25-.14-.5-.31-.79-.34-.39-.04-.72.13-1.07.28-.19.08-1.46.1-1.5.21"/>
        <path class="cls-18" d="M188.86,11.55s-2.81,11.28-.78,11.74c2.03.46,4.67-.08,4.67-.08l1.58-3.28-3.66.49s-2.69-.63,1.15-7.56l-2.97-1.3Z"/>
        <path class="cls-38" d="M194.19,11.79l2.76.65s.3.5.14.99c-.18.55-.46.74-.46.74l-2.8-.74.31-1.55"/>
        <path class="cls-18" d="M189.59,9.19s2.55-2.14,3.19-.3c0,0,.66-.65,1.42-.11.59.42.53.8.53.8,0,0,1.57-.95,2.4.06,0,0,.54.8.04,1.16,0,0-.55.39-1.02-.07,0,0-.41-.17-.87.25-.46.43-2.98.52-3.07.48-.09-.04-1.3-.39-1.3-.39,0,0-1.19-1.77-1.26-1.71"/>
        <path class="cls-6" d="M194.73,9.58s.14.47-.09,1.15l.55.32s.67-.69,1.14-.23c0,0-.61-.38-.19-.97,0,0-.83.8-1.41-.26Z"/>
        <path class="cls-40" d="M193.46,19.62l-1.47,4,1.7-.34,1.31-3.96s-.89-.11-1.54.3Z"/>
        <path class="cls-40" d="M194.84,19.63s4.61-.8,4.92-.17c.31.63-1.3,2.57-1.3,2.57l-1.71,1.25-3.09-.7,1.18-2.95Z"/>
        <path class="cls-11" d="M190.39,8.71s2.1-1.26,2.35.32c0,0-.65-.92-2.35-.32Z"/>
        <polygon class="cls-23" points="194.84 19.63 193.95 21.87 197.46 20.32 194.75 20.88 194.84 19.63"/>
        <path class="cls-12" d="M194.87,19.82l3.13-.16.1-.37s-2.52.39-3.24.53Z"/>
        <polygon class="cls-12" points="192.94 21.55 193.6 19.86 194.6 19.51 194.26 20.19 193.64 20.33 192.94 21.55"/>
        <path class="cls-38" d="M178.4,5.4l10.75,2.93s2.09,2.32-1.65,5.89l-11.4-2.46s-2.26-1.26-.93-4.03c1.33-2.77,3.23-2.33,3.23-2.33Z"/>
        <path class="cls-38" d="M195.49,10.97l-6.68-1.85c.24.03-1.07,4.06-1.07,4.06l6.15,1.57s.75-.21,1.41-1.58c.67-1.38.19-2.2.19-2.2Z"/>
        <path class="cls-26" d="M190.44,9.58s.07,1.66.62,1.8c.55.14,1.02-1.03,1.02-1.03,0,0,.73,1.35,1.25,1.55.53.2.36-1.18.33-1.31-.03-.13-.33-.47-.33-.47l-1.36-.3-1.54-.25Z"/>
        <path class="cls-18" d="M191.04,9.52c-.25.64-.82,1.02-1.28.85-.46-.18-.63-.84-.39-1.48.25-.64.82-1.02,1.28-.85.46.18.63.84.39,1.48Z"/>
        <path class="cls-26" d="M193.94,15.15c-.05-.03-.1-.07-.14-.12-.13-.18-.09-.42.08-.55,1.88-1.38.97-3.48.93-3.57-.09-.2,0-.43.2-.52.2-.09.43,0,.52.2.43.95.74,3.12-1.18,4.53-.12.09-.28.1-.41.03Z"/>
        <path class="cls-26" d="M186.86,14.44c-.16-.08-.27-.26-.26-.45.01-.26.24-.46.5-.45.03,0,1.04-.02,1.84-1.91.84-1.97-.07-2.97-.08-2.98-.18-.19-.17-.49.02-.67.19-.18.49-.17.67.02.06.06,1.35,1.47.27,4.01-1.09,2.55-2.7,2.49-2.77,2.49-.07,0-.13-.02-.19-.05Z"/>
        <path class="cls-26" d="M180.02,9.6c-.79,2.04-2.66,3.21-4.19,2.62-1.52-.59-2.12-2.72-1.33-4.76.79-2.04,2.66-3.21,4.19-2.62,1.52.59,2.12,2.72,1.33,4.76Z"/>
        <path class="cls-26" d="M181.77,10.06c-.79,2.04-2.66,3.21-4.19,2.62-1.52-.59-2.12-2.72-1.33-4.76.79-2.04,2.66-3.21,4.19-2.62,1.52.59,2.12,2.72,1.33,4.76Z"/>
        <polygon class="cls-26" points="178.11 4.7 180.44 5.31 177.83 12.76 176.06 12.28 178.11 4.7"/>
        <path class="cls-33" d="M178.99,9.37c-.55,1.42-1.85,2.23-2.91,1.82-1.06-.41-1.47-1.89-.93-3.31.55-1.42,1.85-2.23,2.91-1.82,1.06.41,1.47,1.89.93,3.31Z"/>
        <path class="cls-47" d="M175.62,8.46c.48-1.93,2.45-2.39,2.45-2.39-1.06-.41-2.36.41-2.91,1.82-.55,1.42-.13,2.9.93,3.31.08.03.17.05.26.07-.07-.05-1.19-.94-.72-2.81Z"/>
        <path class="cls-15" d="M176.44,10.94s-1.16-1.18-.46-2.86c0,0,.78-1.55,2.3-1.61,0,0-2.31,1.63-1.79,2.52,0,0,.43-1.3.94-1.1.51.2,1.05,1.13.49,1.99-.9,1.37-1.49,1.05-1.49,1.05Z"/>
        <path class="cls-34" d="M178.67,6.6s1.52,2.04-.94,4.23c0,0,1.44-1.81.94-4.23Z"/>
        <path class="cls-34" d="M177.84,7.69s1.17.48.7,1.87l.45-1.09s.16-1-1.15-.78Z"/>
        <path class="cls-38" d="M179.47,5.56s1.96,1.43.34,4.42c0,0,2.4-2.74-.34-4.42Z"/>
        <path class="cls-38" d="M179.12,5.21l1.58.4s.41.38.43.69l-1.26-.45-.75-.64Z"/>
        <polygon class="cls-38" points="180.53 7.37 180.05 7.79 180.45 7.74 180.53 7.37"/>
        <path class="cls-47" d="M176.56,12.41s1.62.18,2.62-1.37c0,0-.38.99-.86,1.36l1.07.25s-.59.47-2.82-.24Z"/>
        <path class="cls-47" d="M178.26,12.79s1.32.42,3.09-1.86c0,0-1.56,1.58-2.92,1.53"/>
        <path class="cls-47" d="M180.52,10.86s-1.18,1.84-2.43,1.91"/>
        <path class="cls-38" d="M174.57,10.34s.03.05.08.14c.05.09.13.21.24.35.21.28.54.62.96.78.1.04.21.07.32.09.11.02.22.02.32.02.11,0,.21-.01.3-.03.1-.02.19-.04.27-.06.17-.05.3-.1.4-.14.09-.04.15-.06.15-.06,0,0-.05.03-.13.09-.04.03-.1.06-.16.09-.06.04-.14.07-.22.11-.08.03-.17.07-.28.09-.1.03-.21.05-.32.06-.11,0-.23,0-.35-.01-.12-.01-.24-.05-.36-.09-.11-.05-.22-.1-.32-.17-.1-.07-.19-.14-.27-.22-.16-.16-.29-.33-.38-.48-.18-.31-.24-.54-.24-.54Z"/>
        <path class="cls-35" d="M181.91,6.62l6.53,1.79s.88.73.49,2.11c0,0-.15-1.38-.75-1.86l-.59-.16s.63.68.48,1.46c0,0-.5-1.01-1.58-1.61l-4.58-1.72Z"/>
        <path class="cls-26" d="M188.18,8.07s.8-1.05,1.5.13l-.52.94s-.42-.92-.98-1.07Z"/>
        <path class="cls-38" d="M188.85,7.98s1.16.66.66,3.36c0,0,1.11-3.41-.66-3.36Z"/>
        <path class="cls-42" d="M180.51,12.6l6.52,1.36s1.66-1.65,1.96-2.87l-1.58,1.13-5.66-1.46s-.65,1.62-1.37,1.83"/>
        <path class="cls-42" d="M189.76,12.44c.1-.03,4.13,1.34,4.13,1.34,0,0,.73-.45.91-.87,0,0-.19,1.74-1.27,1.59l-.22-.03-4.02-1.1.47-.94Z"/>
        <path class="cls-18" d="M191.22,9.52s-.79,1.74-.08,1.89c.72.15,1.56-.6,1.72-1.4,0,0-.28,1.74.66,1.97.94.23,1.13-1.44,1.23-1.76.1-.33-3.54-.7-3.54-.7Z"/>
        <path class="cls-26" d="M196.8,12.4s.37.32.15.98c0,0-.14.58-.45.73l-.34-.09s-.09.3.25.45c.34.15.71-.07,1.01-.91.31-.84.14-1.5-.49-1.59,0,0-.49.05-.44.36l.31.07Z"/>
        <path class="cls-6" d="M192.74,8.98s.31.69.08,1.18c0,0,.77-1.01-.08-1.18Z"/>
        <path class="cls-11" d="M194.98,9.55s1.85-.91,2.29.59c0,0-.28-.65-.7-.41,0,0-.59.03-.35.83,0,0-.5-.67.26-1.07,0,0-.5-.15-1.51.05Z"/>
        <path class="cls-47" d="M194.73,10.78s.9,1.55-.19,3.17c0,0,1.52-1.36.19-3.17Z"/>
        <path class="cls-47" d="M189.15,10.37s-.13,2.06-1.32,2.84c0,0,1.06.28,1.32-2.84Z"/>
        <path class="cls-47" d="M196.8,12.4s.7.71-.43,1.68l.12.03s1.11-.64.31-1.71Z"/>
        <path class="cls-42" d="M195.49,13.72c.09.06.87.26.87.26l.49-.6-1.07-.24-.29.58Z"/>
        <path class="cls-26" d="M184.14,13.49s2.77-1.57,4.33-.95l-.3.59-3.04.57-.99-.21Z"/>
        <polygon class="cls-47" points="188.63 12.62 189.41 12.9 189.05 13.22 188.06 13.15 188.63 12.62"/>
        <path class="cls-6" d="M191.15,8.79s-.04.66-.17.87l.14.02s.21-.38.03-.9Z"/>
        <path class="cls-11" d="M190.01,8.35s.57-.6.96.2c0,0-.52-.36-.96-.2Z"/>
        <path class="cls-11" d="M192.91,8.93s1.1-.82,1.76.59c0,0-.67-.84-1.5-.35,0,0,0-.24-.26-.24Z"/>
        <polyline class="cls-6" points="193.29 20.09 192.05 23.32 191.53 23.39 193.13 20.21"/>
      </g>
      <g id="corps_personnage" data-name="corps personnage">
        <path class="cls-24" d="M193.2,24.18s.95-.38.48,1.88c-.47,2.26.46.91.46.91l2.65-1.97,1.65-1.73s1.35-1.6,1.49-1.91c.14-.31.11-.59-.08-.91-.19-.32-1.2.14-1.4.07-.2-.07-4.83,2.9-4.83,2.9"/>
        <path class="cls-40" d="M198.84,20.62l-9.29,9.58s-.4,3.55,9.72,5.55l7.78-10.84-6.64-4.8-1.58.51Z"/>
        <polygon class="cls-23" points="202.89 25.9 198.78 32.93 200.78 32.68 198.12 35.44 199.27 35.75 202.33 31.71 202.89 25.9"/>
        <path class="cls-45" d="M203.27,25.15l-3.35,6.69s-.32.56.24.54l4.9-1.23,4.65-8.54s.93-1.49-1.85-1.81c-2.79-.32-4.59,4.34-4.59,4.34Z"/>
        <path class="cls-45" d="M200.65,18.85s-4.93,1.72-7.49,3.41l-.56,2.65s-.16.62.52.08c.69-.54,5.88-4.01,5.88-4.01l1.65-2.12Z"/>
        <path class="cls-24" d="M202.47,26.75s2.98-.94,4.26-2.23l-3.67,1.06-.59,1.17Z"/>
        <path class="cls-30" d="M198.22,19.78s-.98,1.59-.81,2.26l.45-.3s.28-1.5.36-1.96Z"/>
        <path class="cls-30" d="M204.99,28.54s-1.28.47-1.35,1c0,0-.18.76.08,1.19l-.22.81.27-.07.48-1.09.75-1.84Z"/>
        <path class="cls-24" d="M202.96,27.37l.46-.91,2.06.2-.42.83-2.1-.12ZM203.51,26.63l-.3.6,1.76.1.27-.53-1.72-.17Z"/>
        <polygon class="cls-21" points="201.31 28.24 202.56 28.34 201.94 29.14 200.92 29.01 201.31 28.24"/>
        <polygon class="cls-21" points="200.43 30.01 201.61 30.24 201.17 31.13 199.95 30.96 200.43 30.01"/>
        <path class="cls-36" d="M192.89,24.87l.37-2.68s3.6-1.73,4.56-1.99l-4.07,2.18-.86,2.48Z"/>
        <path class="cls-36" d="M202.56,27.04c-.03.09-.07.18-.1.27-.03.09-.07.18-.11.27-.08.18-.16.36-.24.53l-.06-.11c.26.04.52.08.79.13l.12.02-.07.09c-.1.13-.21.27-.32.4-.11.13-.22.26-.34.38.08-.15.17-.3.26-.44.09-.14.19-.28.28-.42l.05.11c-.26-.03-.52-.08-.79-.12l-.1-.02.05-.09c.09-.17.18-.34.28-.51.05-.08.1-.17.15-.25.05-.08.1-.17.16-.25Z"/>
        <path class="cls-44" d="M197.85,24.36l.34.87s-1.32,3.04.91,7.41l-.62-.56-1.84-5.33.67-2.65.53.26Z"/>
        <path class="cls-36" d="M201.44,29.27c-.02.06-.04.13-.07.19-.02.06-.05.12-.07.19-.05.12-.1.24-.16.36l-.05-.1c.27.02.53.06.8.1l.11.02-.05.09c-.08.14-.15.28-.24.42-.04.07-.08.14-.13.2-.04.07-.09.14-.13.2.02-.08.05-.15.08-.23.03-.08.06-.15.09-.22.06-.15.13-.29.19-.44l.06.11c-.27-.03-.53-.06-.8-.11l-.1-.02.05-.08c.06-.12.13-.23.2-.34.03-.06.07-.11.11-.17.04-.06.07-.11.11-.17Z"/>
        <polygon class="cls-36" points="193.6 24.26 197.07 22.24 197.26 21.69 193.6 24.26"/>
        <path class="cls-36" d="M203,27.02c-.03.09-.06.17-.09.26-.03.09-.07.17-.1.26l-.05-.08c.33,0,.67.02,1,.05.17.02.33.03.5.06.08.01.17.02.25.04.08.01.17.03.25.05-.08,0-.17.01-.25.01-.08,0-.17,0-.25,0-.17,0-.33,0-.5-.01-.33-.01-.66-.04-1-.09h-.09s.04-.08.04-.08c.05-.08.09-.16.14-.24.05-.08.1-.16.15-.23Z"/>
        <path class="cls-23" d="M196.66,29.61s.54,3.43,2.7,5.13l1.53-1.24.44-.88-1.44-.15-1.17.1-2.05-2.96Z"/>
        <path class="cls-36" d="M200.47,31.22c-.05.14-.11.28-.17.42-.06.14-.12.28-.18.41h0s0,.02,0,.02c-.01.02-.03.04-.04.05,0,0,0,.02,0,.02,0,0,0,0,0-.02-.02-.02,0,0,.02,0,.02,0,.04,0,.07-.01.05-.01.09-.03.15-.04l.15-.04c.1-.03.2-.05.31-.08.1-.02.21-.04.31-.06.21-.04.42-.08.63-.1.21-.03.42-.05.63-.07-.1.03-.2.06-.31.09-.1.03-.2.05-.31.08l-.61.15c-.1.02-.21.04-.31.07-.1.03-.21.05-.31.08l-.15.04s-.1.03-.16.04c-.03,0-.06,0-.09.01-.02,0-.03,0-.06,0-.02,0-.05-.01-.08-.04-.03-.04-.02-.08-.02-.1,0-.02.01-.04.02-.05.02-.03.04-.05.06-.07v.02c.06-.13.14-.26.21-.39.08-.13.15-.26.24-.39Z"/>
        <path class="cls-44" d="M197.33,22.36s1.05,5.15,2.88,6.61c0,0-.17-1.68,2.27-2.22l.59-1.17-4.26-4.19-.5-.25-.96,1.22Z"/>
        <polygon class="cls-12" points="190.72 29.6 197.24 22.67 197.51 23.56 193.72 28.44 195.48 25.2 190.72 29.6"/>
        <path class="cls-19" d="M198.21,20.4s-4.69,6.95.55,12.94l.43-.57s-3.53-5.44-.3-10.39"/>
        <path class="cls-39" d="M197.61,21.47s-.04,1.92.29,3.09l.54-1.29.1-1.06-.49-1.3-.07-.17-.37.73Z"/>
        <path class="cls-7" d="M197.35,22.46s-.02.03-.04.1c-.03.06-.06.16-.11.28-.04.12-.1.27-.15.45-.05.17-.11.37-.16.59-.06.21-.1.45-.15.7-.02.13-.04.26-.06.39-.02.13-.04.27-.05.41-.01.14-.03.28-.04.42-.01.14-.01.29-.02.43-.02.29,0,.59,0,.88,0,.07,0,.15,0,.22l.02.22c.01.15.03.29.04.44,0,.15.04.29.06.43.02.14.05.28.07.42.02.14.06.27.09.4.03.13.06.26.09.38.05.25.14.47.21.69.03.11.07.21.1.3.02.05.03.1.05.14.02.04.04.09.05.13.07.17.13.31.18.43.1.24.15.38.15.38,0,0-.07-.13-.18-.37-.06-.12-.13-.26-.21-.42-.09-.16-.15-.36-.23-.57-.07-.21-.17-.43-.24-.69-.07-.25-.15-.51-.21-.78-.03-.14-.05-.28-.08-.42-.02-.14-.06-.29-.07-.43-.02-.15-.03-.29-.05-.44l-.02-.22c0-.07,0-.15,0-.22,0-.3-.02-.6,0-.9,0-.15,0-.29.02-.44.02-.14.03-.29.05-.43.01-.14.03-.28.06-.41.02-.13.05-.26.07-.39.06-.25.11-.49.18-.7.03-.11.06-.21.09-.31.03-.1.07-.19.1-.27.06-.17.12-.32.17-.44.1-.24.18-.37.18-.37Z"/>
        <polyline class="cls-39" points="208.91 25.94 210.85 31.57 209.99 31.84 208.43 28.57"/>
        <path class="cls-20" d="M192.96,33.19c1.74,1.08,0,0,0,0l-1.34-.07-.85-.77-.93-1.48.14-1.28"/>
        <path class="cls-19" d="M198.76,33.34s.56.28.77,1.04c.21.76.13,5.22,5.59,6.86,0,0,3.4,1.51,4.48.45,1.09-1.06,4.31-3.73,4.31-3.73,0,0-.13-.17-.22-.56,0,0,1.12-.41-1.13-1.63l.91-.62s-1.26-.06-1.98-.78c-.72-.72,1.15-2.39-.49-3.1-1.63-.71-3.25,1.18-5.81,1.13-2.56-.05-4.6,1.11-6.01.37l-.43.57Z"/>
        <path class="cls-39" d="M199.76,33.53s.03.01.1.05c.06.04.15.09.26.18.21.17.48.47.66.92.08.22.15.48.16.76.01.14,0,.28,0,.42,0,.07-.02.14-.03.22l-.02.11h0s0,.01,0,.01c0,.02,0-.02,0-.01h0s0,.04,0,.04v.05c-.02.08,0,.13,0,.18,0,.05.02.12.03.17.04.12.08.24.15.35.13.23.31.45.52.64.2.2.43.39.66.56.23.17.47.33.71.48.24.14.47.28.69.41.22.12.44.24.64.34.4.2.74.36.99.46.12.05.22.09.29.11.07.02.1.03.1.03,0,0-.04,0-.11,0-.07,0-.18-.02-.31-.04-.26-.05-.64-.14-1.07-.3-.43-.15-.93-.36-1.43-.64-.25-.14-.51-.29-.76-.47-.25-.18-.5-.37-.73-.59-.22-.22-.43-.47-.59-.77-.08-.14-.14-.31-.18-.47-.01-.09-.03-.16-.03-.26,0-.09,0-.19.02-.25l.02-.12.02-.1c.01-.06.03-.13.04-.19.01-.13.04-.25.04-.37,0-.06,0-.12,0-.18,0-.06-.01-.12-.01-.17,0-.12-.03-.22-.05-.33-.06-.21-.13-.39-.21-.55-.09-.15-.17-.29-.26-.39-.08-.1-.15-.18-.2-.22-.05-.05-.08-.07-.08-.07Z"/>
        <polygon class="cls-39" points="212.56 35.76 208.49 37.91 207.57 38.4 207.85 39.28 212.56 35.76"/>
        <polyline class="cls-39" points="213.69 37.4 211.98 38.83 213.75 37.68"/>
        <path class="cls-27" d="M199.88,33.29s.05,0,.14.01c.09.01.22.05.37.11.15.06.31.16.46.29.04.03.07.07.11.11.04.04.08.07.11.12.07.09.13.18.18.28.02.05.05.1.07.15.02.05.03.11.05.16l.02.08s0,.05.01.08c0,.05.01.11.02.16.01.1,0,.2-.01.3,0,.09-.04.18-.06.25-.03.08-.04.15-.08.2-.03.06-.06.11-.08.14-.05.08-.08.12-.08.12,0,0,0-.05-.01-.14,0-.04,0-.1,0-.16,0-.06-.01-.13-.02-.2,0-.07,0-.15-.02-.22-.02-.08-.02-.16-.05-.24-.03-.08-.04-.16-.07-.24-.02-.04-.03-.08-.05-.12-.01-.04-.04-.08-.06-.11-.03-.08-.09-.15-.13-.22-.05-.07-.1-.14-.15-.21-.05-.06-.1-.13-.16-.19-.05-.06-.11-.11-.16-.17-.1-.1-.19-.19-.25-.25-.07-.06-.1-.1-.1-.1Z"/>
        <path class="cls-7" d="M210.16,31.5s.09-.03.25-.05c.08,0,.18-.02.29,0,.11.01.25.04.39.12.07.04.14.1.19.18.03.04.05.08.06.13.02.05.03.1.03.14.03.2-.02.37-.06.54-.08.33-.18.65-.22.97-.02.16-.03.32-.01.46.02.15.05.28.11.41.06.12.14.23.24.33.09.1.2.18.3.25.11.07.21.13.3.18.09.05.18.09.25.13.14.06.22.11.22.11,0,0-.09,0-.25-.02-.08-.01-.17-.02-.28-.05-.05-.01-.11-.03-.17-.04-.06-.02-.12-.04-.19-.07-.13-.06-.27-.12-.41-.22-.14-.1-.27-.23-.37-.39-.1-.16-.18-.36-.2-.55-.03-.2-.03-.4,0-.59.05-.38.18-.73.29-1.03.05-.15.11-.29.11-.4,0-.11-.03-.19-.1-.27-.07-.07-.17-.13-.27-.16-.09-.04-.18-.06-.26-.08-.15-.03-.24-.05-.24-.05Z"/>
        <path class="cls-7" d="M211.32,34.82s.96.49,1.67.47l-3.6,1.94,2.71-1.93-.78-.48Z"/>
        <polygon class="cls-41" points="209.59 36.52 209.63 36.77 211.01 38.04 211.69 37.5 209.59 36.52"/>
        <polygon class="cls-44" points="210.3 36.15 211.78 37.33 211.11 37.86 209.59 36.52 210.3 36.15"/>
        <rect class="cls-41" x="210.5" y="37.12" width=".86" height=".16" transform="translate(27.45 147.7) rotate(-41.06)"/>
        <path class="cls-23" d="M210.32,36.24c.07-.03.76.58.76.58l-.5.42.26-.45-.52-.55Z"/>
        <polygon class="cls-23" points="211.26 37.15 211.51 37.41 211.66 37.35 211.32 37.03 211.26 37.15"/>
        <polyline class="cls-39" points="209.63 36.77 209.65 36.81 209.89 37.17 211.01 38.04"/>
      </g>
      <g id="shoes_arrière" data-name="shoes arrière">
        <path class="cls-12" d="M191.02,41.97s-1.48.66-.86,1.06c0,0,.64.06,1.28.27.27.09,1.7-1.39.91-1.99-.48-.36-1.4.52-1.4.52l-.25-.46"/>
      </g>
      <g id="Jeans_personnage" data-name="Jeans personnage">
        <g>
          <path class="cls-12" d="M190.97,42.23s-.54.49-.09.86v.54c1.11-.66,2.13-1.37,1.56-1.91-.34-.32-1.13.29-1.13.29"/>
          <path class="cls-23" d="M190.39,43.06l.48.09v.11c.14.03.55-.11,1.09-.79"/>
        </g>
        <path class="cls-32" d="M184,42.43s-.47.71.72.44c.23-.05,1.42.22,1.53.2.15-.03,1.39,0,1.39,0,0,0,1.94.03,2.22.02,1.44-.02,2.51-.33,1.94-1.3"/>
        <path class="cls-32" d="M171.71,26.48s8.15-13.71,17.47-13.34c0,0,3.82.13,3.99,2.98,0,0,.07,2.03-2.16,7.93,0,0-3.11,7.9,1.9,9.4,0,0,4.16,2.16,6.02,2.45,0,0-6.74,7.8-14.65,7.15,0,0-3.34-.64,6.38-6.04,0,0-4.81-1.47-6.01-4.48,0,0-1.51,4.55-7.97,9.33l-4.96-15.4Z"/>
        <path class="cls-20" d="M184.62,32.28s2.3-4.79,2.94-6.34c0,0,1.49-2.62,1.73-1.87,0,0-5.93,9.54,1.86,11.48,0,0-.65.6-.52,1.21,0,0-4.52-1.25-6.01-4.48Z"/>
        <path class="cls-20" d="M194.52,35.1s2.92,1.31,3.83,1.24l-3.08-1.33-.7-.27-.19.06"/>
        <path class="cls-21" d="M192.62,33.12s.04,1.65,5.81,3.25l.52-.61s-3.13-.45-5.72-2.45l-.61-.19Z"/>
        <path class="cls-14" d="M174.81,22.27c-.08.09,8.35-9.96,15.15-8.98,0,0,2.87.59,2.84,2.64,0,0-2.33-3.5-7.64,1.1,0,0,1.04-1.91,3.11-3.13,0,0-6.9,1.5-13.48,8.37Z"/>
        <g>
          <polyline class="cls-32" points="195.6 34.61 195.12 35.56 195.63 35.82 196.25 34.94"/>
          <path class="cls-46" d="M195.6,34.61c-.03.09-.06.17-.09.25-.03.08-.07.17-.1.25-.07.16-.14.32-.22.49l-.03-.1c.17.08.34.17.5.25l-.1.02c.11-.14.22-.29.33-.43.06-.07.11-.14.17-.21.06-.07.12-.14.18-.2-.04.08-.09.16-.13.24-.04.08-.09.16-.14.23-.09.15-.19.3-.29.45l-.04.05-.06-.03c-.17-.08-.34-.17-.5-.25l-.07-.04.03-.07c.08-.16.17-.31.26-.47.05-.08.09-.15.14-.23.05-.07.09-.15.15-.22Z"/>
        </g>
        <path class="cls-20" d="M192.45,32.97l-.53.64,1.85,1.18s0-.76-.15-.88c-.15-.12-1.17-.94-1.17-.94Z"/>
        <path class="cls-46" d="M186.18,39.9s2.55-2.28,4.63-3.02l2.15.84-1.99-.51.62,2.08-1.01-1.74s-3.37,1.41-4.41,2.35Z"/>
        <path class="cls-20" d="M194.14,35.46c.03.06.25.74.25.74l.04.2.75-.24s.01-.2-.02-.19c-.03.01-.11-.02-.11-.02l-.25-.78s-.18-.45-.2-.43"/>
        <g>
          <polygon class="cls-20" points="189.63 23.37 189.65 23.52 189.5 23.55 189.48 23.39 189.63 23.37"/>
          <polygon class="cls-20" points="189.65 23.87 189.61 24.19 189.46 24.17 189.5 23.85 189.65 23.87"/>
          <polygon class="cls-20" points="189.53 24.51 189.44 24.82 189.3 24.78 189.39 24.47 189.53 24.51"/>
          <polygon class="cls-20" points="189.33 25.13 189.21 25.43 189.08 25.38 189.2 25.08 189.33 25.13"/>
          <polygon class="cls-20" points="189.07 25.72 188.93 26.01 188.81 25.96 188.95 25.67 189.07 25.72"/>
          <polygon class="cls-20" points="188.79 26.3 188.66 26.59 188.55 26.54 188.68 26.25 188.79 26.3"/>
          <polygon class="cls-20" points="188.53 26.89 188.41 27.19 188.3 27.14 188.42 26.84 188.53 26.89"/>
          <polygon class="cls-20" points="188.29 27.48 188.19 27.79 188.09 27.75 188.19 27.45 188.29 27.48"/>
          <polygon class="cls-20" points="188.09 28.09 187.99 28.4 187.9 28.37 187.99 28.06 188.09 28.09"/>
          <polygon class="cls-20" points="187.91 28.71 187.84 29.02 187.75 29 187.82 28.69 187.91 28.71"/>
          <polygon class="cls-20" points="187.78 29.33 187.72 29.65 187.64 29.64 187.69 29.32 187.78 29.33"/>
          <polygon class="cls-20" points="187.69 29.97 187.66 30.29 187.58 30.28 187.61 29.96 187.69 29.97"/>
          <polygon class="cls-20" points="187.65 30.6 187.66 30.92 187.59 30.93 187.58 30.61 187.65 30.6"/>
          <polygon class="cls-20" points="187.68 31.24 187.72 31.56 187.66 31.57 187.61 31.25 187.68 31.24"/>
          <polygon class="cls-20" points="187.78 31.87 187.87 32.18 187.81 32.2 187.73 31.89 187.78 31.87"/>
          <polygon class="cls-20" points="187.97 32.48 188.1 32.78 188.05 32.8 187.92 32.51 187.97 32.48"/>
          <polygon class="cls-20" points="188.25 33.06 188.42 33.33 188.38 33.36 188.21 33.09 188.25 33.06"/>
          <polygon class="cls-20" points="188.61 33.59 188.82 33.83 188.8 33.85 188.58 33.61 188.61 33.59"/>
          <polygon class="cls-20" points="189.05 34.06 189.29 34.27 189.28 34.29 189.03 34.08 189.05 34.06"/>
          <rect class="cls-20" x="189.67" y="34.39" width=".02" height=".32" transform="translate(56.32 173.79) rotate(-56.56)"/>
          <rect class="cls-20" x="190.23" y="34.72" width=".01" height=".32" transform="translate(72.2 188.09) rotate(-62.78)"/>
          <rect class="cls-20" x="190.82" y="34.98" width="0" height=".32" transform="translate(86.69 198.86) rotate(-67.98)"/>
          <polygon class="cls-20" points="191.29 35.31 191.44 35.36 191.29 35.31 191.29 35.31"/>
        </g>
        <path class="cls-20" d="M180.46,36.65c.22-.32.43-.65.64-.97.21-.33.42-.66.62-.99l.31-.5.3-.5c.2-.34.4-.67.59-1.01l.57-1.02c.09-.17.18-.34.27-.52l.27-.52.27-.52.25-.53.51-1.05h0s0-.01,0-.01c.6-1.05,1.23-2.09,1.9-3.1.34-.5.68-1,1.07-1.48.19-.24.39-.47.62-.68.12-.1.24-.2.39-.27.08-.03.17-.06.28-.03.11.03.17.12.21.2l-.14.07c-.06-.12-.15-.13-.27-.08-.12.05-.23.15-.34.25-.21.2-.4.43-.59.67-.36.47-.7.98-1.02,1.48-.64,1.02-1.24,2.06-1.82,3.12h0s-.49,1.06-.49,1.06l-.24.54-.26.53-.26.53c-.09.18-.17.35-.26.53l-.55,1.04c-.18.35-.38.69-.57,1.03l-.29.51-.3.51c-.2.34-.4.68-.6,1.01-.2.33-.41.67-.62,1l-.44-.29Z"/>
        <g>
          <polygon class="cls-20" points="186.56 43 186.71 42.95 186.71 42.96 186.56 43"/>
          <polygon class="cls-20" points="187.01 42.85 187.32 42.74 187.32 42.77 187.02 42.87 187.01 42.85"/>
          <polygon class="cls-20" points="187.62 42.63 187.92 42.52 187.93 42.56 187.63 42.67 187.62 42.63"/>
          <polygon class="cls-20" points="188.22 42.4 188.52 42.28 188.54 42.34 188.24 42.46 188.22 42.4"/>
          <polygon class="cls-20" points="188.81 42.16 189.11 42.04 189.14 42.11 188.84 42.23 188.81 42.16"/>
          <polygon class="cls-20" points="189.4 41.91 189.7 41.78 189.73 41.86 189.44 41.99 189.4 41.91"/>
          <polygon class="cls-20" points="189.99 41.65 190.28 41.52 190.32 41.61 190.03 41.74 189.99 41.65"/>
          <polygon class="cls-20" points="190.57 41.38 190.86 41.24 190.9 41.34 190.61 41.47 190.57 41.38"/>
          <polygon class="cls-20" points="191.15 41.1 191.43 40.95 191.48 41.05 191.2 41.19 191.15 41.1"/>
          <polygon class="cls-20" points="191.72 40.81 192 40.66 192.05 40.75 191.77 40.9 191.72 40.81"/>
          <polygon class="cls-20" points="192.28 40.5 192.56 40.34 192.62 40.45 192.34 40.6 192.28 40.5"/>
          <rect class="cls-20" x="192.85" y="40.09" width=".32" height=".12" transform="translate(6.48 103.96) rotate(-30.64)"/>
          <rect class="cls-20" x="193.4" y="39.76" width=".32" height=".11" transform="translate(8.23 108.4) rotate(-31.93)"/>
          <polygon class="cls-20" points="193.93 39.51 194.2 39.33 194.26 39.43 193.99 39.61 193.93 39.51"/>
          <polygon class="cls-20" points="194.47 39.15 194.73 38.97 194.79 39.06 194.53 39.24 194.47 39.15"/>
          <polygon class="cls-20" points="194.99 38.78 195.24 38.59 195.31 38.67 195.05 38.86 194.99 38.78"/>
          <polygon class="cls-20" points="195.5 38.39 195.75 38.19 195.81 38.26 195.56 38.47 195.5 38.39"/>
          <polygon class="cls-20" points="196 37.99 196.24 37.78 196.29 37.84 196.05 38.05 196 37.99"/>
          <polygon class="cls-20" points="196.48 37.56 196.71 37.34 196.76 37.4 196.53 37.62 196.48 37.56"/>
          <polygon class="cls-20" points="196.94 37.12 197.17 36.89 197.21 36.93 196.99 37.17 196.94 37.12"/>
          <polygon class="cls-20" points="197.39 36.66 197.6 36.42 197.63 36.44 197.42 36.69 197.39 36.66"/>
          <polygon class="cls-20" points="197.81 36.18 198.01 35.93 198.03 35.94 197.83 36.19 197.81 36.18"/>
          <polygon class="cls-20" points="198.22 35.66 198.31 35.53 198.22 35.67 198.22 35.66"/>
        </g>
        <g>
          <polyline class="cls-32" points="197.8 35.38 197.06 36.38 197.66 36.48 198.39 35.54"/>
          <path class="cls-46" d="M197.8,35.38c-.05.09-.11.18-.16.27-.05.09-.11.17-.17.26-.12.17-.23.34-.36.51l-.05-.12c.2.03.4.06.6.1l-.07.03c.13-.15.25-.3.38-.45.07-.07.13-.15.2-.22.07-.07.14-.14.21-.21-.05.09-.11.17-.16.25-.05.08-.11.17-.17.25-.11.16-.23.32-.35.48l-.03.04h-.05c-.2-.04-.4-.07-.6-.11l-.12-.02.08-.1c.13-.16.26-.32.39-.48.07-.08.13-.16.2-.23.07-.08.14-.16.21-.23Z"/>
        </g>
        <path class="cls-21" d="M193.81,34.75s.33.82.32,1.41l.75-.12s-.22-1.32-.5-1.74-.56.44-.56.44Z"/>
        <path class="cls-44" d="M192.23,33.51s.8-.81.82-.74c.02.06,1.63,1.31,1.63,1.31l-.98.77-1.47-1.34Z"/>
        <path class="cls-41" d="M193.51,34.6s.18.17.18.14c0-.03.96-.75.96-.75l-1.79-1.08,1.28,1.14-.63.56Z"/>
        <path class="cls-40" d="M192.77,32.96c.14-.43.43-1.48.43-1.48l.75.38s1.78,1.25,1.85,1.34c.08.09.02,1.4-.76,1.06-.78-.34-2.27-1.3-2.27-1.3"/>
        <polygon class="cls-44" points="194.02 36.11 194.93 35.94 194.94 36.15 194.05 36.32 194.02 36.11"/>
        <polygon class="cls-31" points="194.37 34.31 194.64 34.96 195.17 35.22 194.37 34.31"/>
        <path class="cls-46" d="M171.53,26.13s10.42,1.53,9.6,12.66c0,0-.11,2.79-2.51,3.81l-1.22.32-3.26-7.5-2.6-9.29Z"/>
        <path class="cls-20" d="M175.95,27.83s5.1,2.27,5.18,9.75l1.17-1.39s-.51-5.81-6.35-8.36Z"/>
        <path class="cls-20" d="M191.69,41.31s-2.5,1.36-5.2,1.75c0,0,4.1-.14,5.04-1.04,0,0,.62-.29.16-.71Z"/>
        <path class="cls-14" d="M172.13,26.75s8.23,1.4,8.55,11.33c0,0-1.46-8.55-8.48-9.56l-.07-1.78Z"/>
        <path class="cls-32" d="M180.22,30.45l2.6,3.39.93-1.34-.73-.37.7-1.4.73.37.5-.99-.74-.36.74-1.47.52.26.43-.34-.58-.67.5-1,.52.26.43-.34-.64-.57.75-1.11.89.45.15-.29-.87-.88.67-.41.51.68.17-.33-.91-2.33.62.31.61,1.65.34-.22-.33-.73.53-.13-.09.65.55-.53s-.24-.65-.3-.7c-.05-.06-1.15-.57-1.15-.57l-1.28-.09-.91,1.53"/>
        <path class="cls-20" d="M191.07,35.72s-.08-.02.54-.58l-1.44-1.58.69,1.51-1.16-.58,1.2,1.15"/>
        <path class="cls-46" d="M192.58,34.5c-.19.13-.37.27-.54.42-.04.04-.09.07-.13.11-.04.04-.08.07-.12.12l-.12.12-.11.12s-.07.09-.1.13c-.03.04-.06.09-.09.13-.03.05-.06.09-.08.14l-.07.14-.05.15s-.03.1-.04.15c-.01.05-.03.1-.03.15v.15s-.1-.14-.1-.14c.15.07.29.15.44.23l-.2.06c.06-.09.11-.17.18-.25.06-.08.13-.16.19-.23.13-.15.28-.29.43-.42.15-.13.32-.24.49-.34l.13-.07s.09-.04.14-.06c.05-.02.09-.04.14-.05l.14-.04c-.08.05-.17.1-.25.16-.08.05-.16.11-.23.17-.04.03-.07.06-.11.09-.04.03-.07.06-.11.1-.07.06-.13.14-.2.2-.13.14-.25.29-.37.44-.06.08-.11.15-.17.23-.05.08-.11.16-.15.23l-.07.12-.13-.06c-.15-.07-.3-.14-.45-.22l-.1-.05v-.09s.03-.19.03-.19c0-.06.02-.12.04-.19.02-.06.03-.12.05-.18.02-.06.05-.12.07-.17l.09-.16c.03-.05.07-.1.1-.15.04-.05.07-.1.11-.14.04-.04.08-.09.12-.13l.13-.12s.09-.07.14-.11c.05-.04.1-.07.14-.1.05-.03.1-.07.15-.1.2-.12.41-.23.63-.3Z"/>
        <path class="cls-20" d="M195.92,35.58s-.28.33-.28.33l.45-.25-.17-.08Z"/>
        <polygon class="cls-20" points="197.93 36.28 197.72 36.52 198.11 36.28 197.93 36.28"/>
        <path class="cls-46" d="M184.63,42.98s3.09-.18,6.58-2.36c0,0-5.8,2.39-6.53,1.44,0,0-.32-.46.39-1.19,0,0-1.93,2-.44,2.11Z"/>
        <path class="cls-46" d="M184.59,28.53s3.77-7.06,4.93-5.47c0,0,.27-5.39-4.93,5.47Z"/>
        <path class="cls-46" d="M190.39,31.48s.83,1.42,1.54,1.67c.07.02-.06,0,0,0l-.24.59,1,.61s-1.22.13-2.45-1.58c0,0,.93.84,1.36.68,0,0-1.12-1.13-1.21-1.97Z"/>
        <path class="cls-46" d="M196.09,36.13s-1.38.65-.91,1.81c0,0-.98-1.46.91-1.81Z"/>
        <path class="cls-20" d="M195.7,38.29c-.52-.82.2-1.72.48-2.03-.31.18-1.71,1.07-.51,2.14l.03-.11Z"/>
        <polygon class="cls-31" points="195.92 35.58 196.25 35.03 196.39 35.07 195.92 35.58"/>
        <polygon class="cls-31" points="198.34 35.65 197.95 36.25 198.52 35.74 198.34 35.65"/>
        <path class="cls-46" d="M191.39,41.45s.95.32.17,1.36l.43-.35s.91-.75-.07-1.21c-.98-.45-.04-.02-.04-.02l-.48.22Z"/>
        <path class="cls-20" d="M191.48,41.49s.73.38.16,1.25c0,0,.24-.57-.28-1l.12-.25Z"/>
        <path class="cls-32" d="M191.39,41.45l.52-.2.35.25-.47.32s.25-.08-.4-.37Z"/>
        <polygon class="cls-23" points="192.79 33.14 192.37 33.5 193.46 34.5 192.62 33.49 192.79 33.14"/>
        <polygon class="cls-31" points="194.37 34.31 194.41 34.47 193.89 34.85 193.81 34.75 194.37 34.31"/>
        <polygon class="cls-23" points="194.14 36.2 194.12 36.13 194.84 35.98 194.85 36.05 194.14 36.2"/>
      </g>
      <g id="bras_droit_personnage" data-name="bras droit personnage">
        <path class="cls-18" d="M206.83,24.46l-8.17,18.63,9.21.03,2.29-19.16s-.73-3.35-2.62-1.87c-1.9,1.47-.53,2.26-.53,2.26"/>
        <path class="cls-40" d="M204.88,28.85l5.02-.04.47-4.69s.16-3.79-2.92-2.04c-2.2,1.25-.52,2.37-.52,2.37l-.19.1-1.86,4.29Z"/>
        <path class="cls-40" d="M204.16,30.69s3.55-3.07,5.33-1.17l-.12,1.03s2.01-1.67.98-2.57c-1.02-.9-4.54-.31-5.88,1.03l-.5.55s-.31.93.19,1.12Z"/>
        <path class="cls-23" d="M205.49,28.31s2.41-1.31,4.41-.55c0,0,.41-2.99.25-3.81l-1,3.15s-1.01-.72-3.67,1.21Z"/>
        <path class="cls-12" d="M208.68,21.67s1.5-.14,1.5,1.96c0,0-.34-1.39-1.5-1.96Z"/>
        <path class="cls-12" d="M204.42,29.68s3.75-2.21,5.12-.49c0,0-.56-2.18-5.12.49Z"/>
        <path class="cls-23" d="M204.16,30.69s3.32-2.83,5.33-1.17c0,0-1.77-2.22-5.33,1.17Z"/>
        <path class="cls-23" d="M208.43,21.71s.61,2.65-1.6,2.74c-2.21.1,0,0,0,0l.75-1.79.42-.84.43-.1Z"/>
        <path class="cls-6" d="M204.14,30.9s3.35-3.1,5.34-1.24l-.83,6.96.06-6.5s-1.4-1.21-4.57.78Z"/>
        <path class="cls-10" d="M208.59,30.35l-.12,6.19-.58,6.37-6.14.15s5.1-11.37,4.95-11.31c-.15.06-.98,9.68-.98,9.68l2.88-11.07Z"/>
      </g>
      <g id="foulard_personnage" data-name="foulard personnage">
        <path class="cls-28" d="M201.35,17.97l-.26-.13s-3.63-.25-3.23,5.02c.23,2.95,1.33,6.17,1.33,6.17,0,0,.88-2.22,2.11-2.55,4.14-1.09,5.53-2.02,5.53-2.02,0,0,1.92-.91,1.37-3.4-.55-2.5-6.7-3.01-6.7-3.01"/>
        <path class="cls-22" d="M202.36,19.54s-.29,1.02,1.31,1.66c1.6.64,2.01.08,2.01.08,0,0-2.73-.85-3.32-1.75Z"/>
        <path class="cls-17" d="M208.27,21.44s-2.49,3.06-6.87.53c0,0,3.24.12,4.21-.62"/>
        <path class="cls-16" d="M201.23,18.36s-.48,1.4,1.21,2.86c0,0-.85-1.67-.17-2.2"/>
        <path class="cls-37" d="M200.75,18.12s-4.16.21-1.88,8.9c0,0-1.17-5.88.89-7.56,0,0,.58,1.94,2.9,2.15,0,0-2.54-1.37-1.91-3.49Z"/>
        <path class="cls-37" d="M199.81,21.2s2.57,3.64,7.09,1.7c0,0-6.85,4.32-7.09-1.7Z"/>
        <path class="cls-17" d="M200.99,24.29s4.05,1.49,7-2.47c0,0,.12,1.31-1.36,2.35-1.39.98-3.28,1.25-5.64.12Z"/>
        <path class="cls-37" d="M199.37,22.49s.21,3.16,2.88,2.72c0,0-4.34,2.01-2.88-2.72Z"/>
      </g>
      <path class="cls-18" d="M199.93,10.21s-1.63,7.65,3.91,10.42c6.48,3.24,12.07-3.8,12.07-3.8,0,0,7.87-4.71-1.04-8.31-4.47-1.81-8.34-3.44-11.13-3.58-.65-.03-.34,2.16-.86,2.3-.65.18-2.1-1.64-2.54-1.14-.72.83-.34,2.17-.41,4.1Z"/>
      <path class="cls-18" d="M199.93,10.21s-1.63,7.65,3.91,10.42c6.48,3.24,12.07-3.8,12.07-3.8,0,0,7.87-4.71-1.04-8.31-4.47-1.81-8.34-3.44-11.13-3.58-.65-.03-.34,2.16-.86,2.3-.65.18-2.1-1.64-2.54-1.14-.72.83-.34,2.17-.41,4.1Z"/>
      <path class="cls-6" d="M200.54,7.62s.27.7.55,2.67c.3,2.18,2.75,10.34,13.6,5.49"/>
      <path class="cls-43" d="M210.84,20.71c-.13-.45-.44-.85-.89-1.08-.86-.43-1.9-.08-2.33.78-.17.34-.22.72-.16,1.07,1.21-.02,2.35-.32,3.38-.77Z"/>
      <path class="cls-18" d="M197.73,11.91c.13,1,.89,1.73,1.7,1.62.81-.11,1.36-1,1.23-2-.13-1-.89-1.73-1.7-1.62-.81.11-1.36,1-1.23,2Z"/>
      <path class="cls-18" d="M214.7,20.62c.95-.35,1.49-1.25,1.21-2.02-.28-.77-1.28-1.11-2.22-.76-.95.35-1.49,1.25-1.21,2.02.28.77,1.28,1.11,2.22.76Z"/>
      <path class="cls-22" d="M214.91,19.43s0-.01.02-.04c.02-.02.03-.06.05-.1.01-.04.02-.1,0-.14-.02-.05-.06-.08-.12-.1-.06-.01-.13,0-.2.02-.04.02-.06.03-.11.06-.03.03-.05.04-.07.07-.01.02-.01.03,0,.06,0,.03.02.07.04.13.03.1.07.25.04.4-.04.16-.15.28-.27.35-.12.07-.25.1-.38.1-.13,0-.25-.03-.36-.1-.03-.02-.1-.07-.14-.13-.04-.05-.05-.14-.03-.2.04-.13.13-.17.2-.2.07-.03.14-.03.19-.03.05,0,.09.02.12.03.02.01.04.02.04.02,0,0-.01,0-.04,0-.03,0-.06,0-.11.02-.04.01-.09.04-.14.07-.04.03-.09.09-.08.13,0,.02,0,.03.03.04.02.02.03.02.08.05.06.03.14.03.23.02.08,0,.16-.04.23-.08.07-.04.11-.11.12-.16.02-.07,0-.15-.02-.25-.01-.05-.03-.11-.03-.19,0-.08.02-.18.08-.24.05-.06.11-.1.17-.13.04-.02.11-.05.16-.06.12-.03.24,0,.33.04.1.05.16.15.16.24,0,.09-.04.15-.07.19-.04.04-.07.07-.09.08-.02.02-.03.02-.03.02Z"/>
      <path class="cls-22" d="M199.26,12.36s0,.01.02.03c.02.02.04.06.06.11.02.05.03.13,0,.21-.03.08-.11.16-.22.19-.11.03-.24.01-.34-.05-.02-.01-.05-.03-.07-.04-.03-.02-.05-.04-.08-.06-.05-.04-.1-.1-.13-.17-.07-.15-.03-.33.04-.44.06-.12.15-.22.24-.31.1-.09.18-.15.26-.22.07-.07.11-.13.12-.18,0-.03,0-.06-.02-.09h0s0-.02,0-.02h0s0,0,0,.01h0s0,0,0,0l-.02-.03v-.02s-.02,0-.02,0c0,0,0,0,0,0-.03-.03-.1-.04-.17-.03-.14.03-.25.13-.29.21-.02.04-.04.08-.04.1,0,.03,0,.04,0,.04,0,0,0-.01-.01-.04,0-.03-.01-.07,0-.13.01-.05.04-.12.08-.18.05-.06.11-.13.21-.17.09-.04.23-.08.36,0,.02.01.03.02.05.04l.02.02h.01s.03.04.03.04h0s0,0,0,0h.01s0,.02,0,.02v.02c.05.05.07.13.08.21,0,.08-.02.16-.05.23-.03.07-.08.12-.12.17-.09.09-.19.17-.26.23-.07.07-.15.15-.19.23-.05.08-.06.14-.05.19,0,.03.03.06.05.09.01.01.02.03.04.04.02.01.04.03.05.04.06.05.13.07.19.07.06,0,.11-.03.15-.07.04-.04.05-.1.05-.14,0-.05,0-.08,0-.11,0-.03,0-.04,0-.04Z"/>
      <path class="cls-39" d="M200.85,11.95s.97-.66,1.64.14c.68.8-2.52.11-1.64-.14Z"/>
      <path class="cls-39" d="M211.92,16.5s.91.25.72,1.01c-.19.77-1.31-1.4-.72-1.01Z"/>
      <path class="cls-1" d="M199.85,22.44h-.03"/>
      <path class="cls-43" d="M201.23,15.44c-.41-.2-.85-.24-1.26-.13.24,1.11.67,2.26,1.41,3.26.27-.17.5-.41.65-.71.45-.89.09-1.97-.8-2.42Z"/>
      <path class="cls-19" d="M203.01,16.23c-.04.08-.13.11-.2.07s-.1-.13-.06-.21.13-.11.2-.07.1.13.06.21Z"/>
      <path class="cls-8" d="M201.43,11.72l.25.71c.58.09,1.13.04.81-.34-.33-.39-.74-.43-1.06-.37Z"/>
      <path class="cls-24" d="M199.12,9.75s-3.71-1.34-2.84-3.08c0,0,.2-1.82,2.18-.91,1.98.91,2.74,1.44,2.74,1.44l-2.08,2.54Z"/>
      <path class="cls-19" d="M203.95,15.94c-.03.05-.1.06-.16.03s-.1-.1-.07-.15.1-.06.16-.03.1.1.07.15Z"/>
      <path class="cls-19" d="M203.7,16.74c-.04.08-.11.11-.16.09s-.07-.11-.03-.18.11-.11.16-.09.07.11.03.18Z"/>
      <path class="cls-8" d="M212.3,16.69c-.19-.13-.39-.19-.39-.19-.22-.14-.21.06-.1.33l.48-.14Z"/>
      <path class="cls-19" d="M208.84,17.59c-.04.08-.13.11-.2.08s-.1-.13-.06-.21.13-.11.2-.08.1.13.06.21Z"/>
      <path class="cls-19" d="M207.74,18.01c-.05.1-.17.14-.28.09s-.14-.17-.09-.28.18-.14.28-.09.14.17.09.28Z"/>
      <path class="cls-19" d="M208.52,18.61c-.05.09-.15.13-.23.09s-.11-.15-.06-.24.15-.13.23-.09.11.15.06.24Z"/>
      <path class="cls-39" d="M200.62,7.56s-3.27,2.55-1.35,4.49c0,0,.79.28,1.24-2.51,0,0,.26,1.58.58,1.99,0,0,.76-1.45.93-1.85.17-.41-.06-2.14-.06-2.14,0,0-.76-.25-.84-.42-.08-.17-.49.45-.49.45Z"/>
      <path class="cls-39" d="M215.05,15.72c-.77-.11-1.75.62-2.09,1.25-.51.96,1.07.4,1.48.39-.23.37-.81.57-1.09.95-.52.71.36.72.9.59.8-.2,2.18-.63,2.24-1.85-.57-.44-.93-.85-1.61-1.19"/>
      <path class="cls-30" d="M201.39,6.67s.12-2.59.05-3.91c-.07-1.32-.75-2.54,2.12-2.74,2.36-.16,6.89.57,9.1,2.04,0,0,7.16,1.64,9.04,7.14,0,0,.54,2.6-.71,3.57-2.94,2.29-3.73,3.54-4.51,4.54,0,0-.13-.18-1.82-1.49-1.68-1.31-6.65-2.6-6.65-2.6l-2.14-1.65-1.88-1.3-2.92-3.8"/>
      <path class="cls-40" d="M201.78,6.55s.29-3.34.32-4.48c.03-1.14.36-3.66,9.73.63,10.29,4.71,5.45,7.94,4.94,8.53-1.11,1.3-2.78,4.16-2.78,4.16,0,0-10.04-4.93-10-5.17.03-.24-2.22-3.67-2.22-3.67Z"/>
      <path class="cls-44" d="M206.66,5.47s1.09.25,1,.94l-.79,1.57,1.63.7-.78,1.55s-1.15-.86-1.39-.91c-.25-.05-.58.57-.58.57l-1.35-.98,2.26-3.45Z"/>
      <path class="cls-21" d="M206.48,5.38s.76.62.81,1.08c.02.25-1.61,3.51-2.38,3.08-.77-.44,1.57-4.16,1.57-4.16Z"/>
      <path class="cls-12" d="M202.2,5.74l.22-3.87s.12-4.43,13.66,3.46c0,0-9.68-4.08-12.02-3.5,0,0,6.36,1.77,8.2,3.77,0,0-6.39-2.45-8.36-2.31l-.72,3.38-.99-.92Z"/>
      <g>
        <polygon class="cls-23" points="202.22 6.9 202.26 6.42 202.27 6.42 202.22 6.9"/>
        <polygon class="cls-23" points="202.3 5.95 202.34 5.48 202.36 5.48 202.31 5.95 202.3 5.95"/>
        <polygon class="cls-23" points="202.38 5.01 202.42 4.53 202.45 4.54 202.41 5.01 202.38 5.01"/>
        <polygon class="cls-23" points="202.46 4.06 202.49 3.59 202.54 3.59 202.5 4.06 202.46 4.06"/>
        <polygon class="cls-23" points="202.52 3.11 202.55 2.64 202.6 2.64 202.57 3.12 202.52 3.11"/>
        <path class="cls-23" d="M202.6,2.16s.03-.11.06-.23c.05-.11.1-.23.1-.23l.06.03s-.05.1-.09.21c-.03.11-.06.23-.06.23l-.06-.02Z"/>
        <path class="cls-23" d="M203.05,1.33s.02-.02.06-.04c.02-.01.04-.03.06-.04.02-.02.05-.04.07-.05.11-.06.22-.11.22-.11l.03.07s-.1.05-.2.1c-.03.01-.05.03-.07.05-.02.02-.04.03-.06.04-.04.03-.06.04-.06.04l-.05-.06Z"/>
        <polygon class="cls-23" points="203.93 .94 204.4 .89 204.41 .98 203.94 1.03 203.93 .94"/>
        <rect class="cls-23" x="205.07" y=".73" width=".09" height=".47" transform="translate(184.56 205.05) rotate(-84.52)"/>
        <polygon class="cls-23" points="205.83 1.02 206.29 1.12 206.28 1.21 205.81 1.11 205.83 1.02"/>
        <polygon class="cls-23" points="206.76 1.23 207.21 1.36 207.19 1.45 206.73 1.32 206.76 1.23"/>
        <rect class="cls-23" x="207.83" y="1.38" width=".1" height=".47" transform="translate(141.35 198.57) rotate(-71.78)"/>
        <rect class="cls-23" x="208.72" y="1.7" width=".11" height=".47" transform="translate(134.64 197.11) rotate(-69.73)"/>
        <rect class="cls-23" x="209.6" y="2.04" width=".11" height=".47" transform="translate(129.58 196.05) rotate(-68.17)"/>
        <rect class="cls-23" x="210.48" y="2.4" width=".11" height=".47" transform="translate(125.45 195.23) rotate(-66.88)"/>
        <rect class="cls-23" x="211.34" y="2.79" width=".12" height=".48" transform="translate(122.05 194.64) rotate(-65.82)"/>
        <polygon class="cls-23" points="212.08 3.27 212.5 3.47 212.45 3.58 212.02 3.38 212.08 3.27"/>
        <polygon class="cls-23" points="212.93 3.69 213.35 3.91 213.29 4.02 212.87 3.8 212.93 3.69"/>
        <rect class="cls-23" x="213.87" y="4.08" width=".13" height=".47" transform="translate(102.72 187.12) rotate(-59.84)"/>
        <rect class="cls-23" x="214.68" y="4.58" width=".14" height=".48" transform="translate(92.66 181.55) rotate(-56.65)"/>
        <polygon class="cls-23" points="215.38 5.17 215.75 5.46 215.66 5.57 215.29 5.28 215.38 5.17"/>
        <polygon class="cls-23" points="216.12 5.77 216.46 6.09 216.36 6.2 216.02 5.87 216.12 5.77"/>
        <polygon class="cls-23" points="216.79 6.45 217.08 6.83 216.96 6.92 216.67 6.54 216.79 6.45"/>
        <path class="cls-23" d="M217.34,7.25s.05.11.1.21c.05.11.09.23.09.23l-.15.05s-.04-.11-.08-.21c-.05-.11-.1-.21-.1-.21l.14-.07Z"/>
        <path class="cls-23" d="M217.65,8.17s.01.12.02.24c0,.12,0,.25,0,.25h-.16s0-.12,0-.23c-.01-.12-.02-.24-.02-.24l.16-.02Z"/>
        <path class="cls-23" d="M217.6,9.14s-.03.11-.07.23c-.05.11-.09.23-.09.23l-.14-.06s.04-.11.08-.21c.03-.11.07-.23.07-.23l.15.04Z"/>
        <rect class="cls-23" x="216.76" y="10.1" width=".47" height=".15" transform="translate(79.38 178.26) rotate(-53.38)"/>
        <polygon class="cls-23" points="216.59 10.76 216.25 11.1 216.14 10.99 216.48 10.66 216.59 10.76"/>
        <rect class="cls-23" x="215.51" y="11.53" width=".47" height=".14" transform="translate(76.3 176.63) rotate(-52.88)"/>
        <rect class="cls-23" x="214.96" y="12.3" width=".47" height=".13" transform="translate(83.38 182.91) rotate(-55.59)"/>
        <rect class="cls-23" x="214.43" y="13.09" width=".47" height=".13" transform="translate(87.02 186.25) rotate(-57.1)"/>
        <polygon class="cls-23" points="214.34 13.79 214.09 14.2 213.99 14.13 214.24 13.73 214.34 13.79"/>
        <polygon class="cls-23" points="213.85 14.6 213.6 15.01 213.5 14.95 213.74 14.54 213.85 14.6"/>
        <polygon class="cls-23" points="213.17 15.04 212.74 14.83 212.79 14.73 213.22 14.94 213.17 15.04"/>
        <rect class="cls-23" x="212.07" y="14.23" width=".11" height=".47" transform="translate(104.65 197.92) rotate(-63.54)"/>
        <rect class="cls-23" x="211.23" y="13.8" width=".11" height=".47" transform="translate(104.21 196.73) rotate(-63.43)"/>
        <polygon class="cls-23" points="210.62 13.77 210.19 13.56 210.24 13.47 210.66 13.68 210.62 13.77"/>
        <rect class="cls-23" x="209.53" y="12.96" width=".1" height=".47" transform="translate(103.44 194.39) rotate(-63.24)"/>
        <polygon class="cls-23" points="208.92 12.92 208.5 12.7 208.54 12.62 208.97 12.83 208.92 12.92"/>
        <polygon class="cls-23" points="208.08 12.49 207.65 12.27 207.69 12.19 208.12 12.41 208.08 12.49"/>
        <rect class="cls-23" x="207" y="11.67" width=".09" height=".47" transform="translate(101.43 190.39) rotate(-62.68)"/>
        <rect class="cls-23" x="206.16" y="11.23" width=".08" height=".48" transform="translate(100.19 188.7) rotate(-62.3)"/>
        <polygon class="cls-23" points="205.55 11.17 205.13 10.94 205.17 10.88 205.58 11.11 205.55 11.17"/>
        <polygon class="cls-23" points="204.72 10.71 204.31 10.46 204.34 10.41 204.75 10.66 204.72 10.71"/>
        <polygon class="cls-23" points="204.08 10.04 203.86 9.62 203.9 9.6 204.13 10.02 204.08 10.04"/>
        <polygon class="cls-23" points="203.62 9.21 203.38 8.8 203.41 8.79 203.66 9.19 203.62 9.21"/>
        <rect class="cls-23" x="203.02" y="7.95" width=".02" height=".47" transform="translate(25.18 106.46) rotate(-31.23)"/>
        <rect class="cls-23" x="202.52" y="7.15" width="0" height=".47" transform="translate(26.36 107.57) rotate(-31.72)"/>
      </g>
      <path class="cls-19" d="M200.74,6.15s-.35-1.31-.07-1.92c.28-.61,1.7-.79,3.67-.25,1.98.53,2.76,1.43,2.43,2.2-.32.77-1.56,3.12-1.56,3.12,0,0-.29.33-.74.17-.46-.17-2.72-2.01-2.72-2.01l-1.01-1.3Z"/>
      <path class="cls-39" d="M206.85,5.87s.11.45-.2,1l-1.12,2.24s-.27.42-.81.39c-.54-.03-.36-.51-.36-.51,0,0,.39.38.72-.21l.43-.47,1.34-2.45Z"/>
      <path class="cls-8" d="M201.29,11.13c.24-.46.61-1.19.72-1.46.17-.41-.06-2.14-.06-2.14,0,0-.76-.25-.84-.42-.08-.17-.49.45-.49.45,0,0-.66.52-1.22,1.26.31.03,1.39.26,1.85,2.33h.03Z"/>
      <path class="cls-33" d="M201.44,5.31s-.19-.85.42-.84c.61.02,2.48.39,3.03.93,0,0,.74.53.28,1.44l-.8,1.59s-.41.39-1.15.04c-.74-.34-1.78-1.42-1.78-1.42v-1.75Z"/>
      <path class="cls-39" d="M204.48,5.13c-.77-.39-2.12-.64-2.62-.66-.61-.02-.42.84-.42.84v1.6s.23.02.23.02l.14-1.77s-.22-.8,2.67-.03Z"/>
      <path class="cls-34" d="M203.8,6.78s.5.32.65.5l.8-.88-.97,1.94-1.42-1.09s.87.65,1.16.42c.29-.23-.18-.74-.18-.74"/>
      <path class="cls-45" d="M198.46,9.42s-2.51-.88-1.92-2.14c.59-1.26,2.32-.9,2.99-.47.66.43,1.77,1.14,1.9,3.08,0,0,.19,3.14,3.15,5.02,2.97,1.87,7.98,2.47,10.12.89,0,0-.42-.7-3.56-1.99-3.14-1.29-4.79-3.91-8-6.69-3.21-2.78-5.58-2.72-6.49-1.84-.91.87-1.62,2.76,1.81,4.15Z"/>
      <path class="cls-30" d="M205.58,9.42s.96,1.68,1.59,2.69c1.21,1.94,3.52,5.18,7.42,3.72l.1-.05c-.43-.39-1.28-1.1-3.55-2-2.05-.81-4.07-2.71-5.57-4.36Z"/>
      <path class="cls-8" d="M214.17,16.1s1.92,1.08,2.34,1.17l-1.82-1.49s-.37.25-.52.32Z"/>
      <path class="cls-36" d="M207.83,16.04c-.38-.04-.76-.11-1.14-.21-.37-.1-.74-.22-1.1-.38-.36-.15-.71-.33-1.04-.55-.17-.11-.33-.23-.48-.35-.16-.12-.31-.28-.44-.41-.14-.14-.27-.29-.4-.44-.13-.15-.25-.31-.36-.47-.23-.33-.43-.67-.6-1.03-.17-.36-.31-.74-.41-1.13-.05-.19-.09-.39-.12-.59-.03-.2-.05-.39-.05-.63v.04c0-.09-.03-.21-.04-.31-.02-.11-.04-.22-.07-.32-.05-.21-.12-.42-.2-.63-.08-.21-.17-.41-.27-.6-.05-.09-.11-.19-.17-.28-.06-.09-.12-.18-.19-.27-.07-.09-.14-.17-.22-.25-.08-.08-.16-.15-.24-.22-.04-.04-.09-.07-.13-.1-.04-.03-.09-.07-.13-.1l-.14-.09-.15-.08c-.1-.05-.2-.1-.31-.14-.11-.04-.21-.08-.32-.11-.11-.04-.22-.06-.33-.08-.11-.03-.23-.04-.34-.06.12,0,.23-.02.35-.01.12,0,.24,0,.35.02.12.01.24.03.35.06.12.03.23.06.35.1l.17.06.16.08c.11.05.22.11.32.18.1.07.2.14.3.22.09.08.19.16.27.25.09.09.17.18.24.28.08.1.15.2.22.3.13.2.25.42.36.64.1.22.19.45.26.68.03.12.07.23.1.35.03.12.05.23.07.37h0s0,.04,0,.04c0,.15.03.34.06.52.03.18.07.35.12.53.1.35.23.69.38,1.02.15.33.33.65.54.96.1.15.21.3.32.45.11.15.23.29.35.42.13.15.25.27.38.4.13.12.27.25.42.36.29.22.6.43.93.61.65.37,1.35.67,2.08.91Z"/>
      <polygon class="cls-44" points="214.34 14.84 213.9 14.62 214.17 14.06 214.54 14.51 214.34 14.84"/>
      <g>
        <path class="cls-30" d="M214.26,15.39s-.05.04-.09.07c-.05.03-.1.07-.1.07h0s.05-.03.1-.07c.05-.04.1-.07.1-.07Z"/>
        <path class="cls-30" d="M213.64,15.75s-.11.04-.22.09c-.11.04-.23.07-.23.07h0s.11-.05.23-.08c.11-.04.23-.08.23-.08h0Z"/>
        <path class="cls-30" d="M212.72,16.03s-.12.02-.24.04c-.12.02-.24.04-.24.04v-.02s.12-.02.24-.03c.12-.02.24-.04.24-.04v.02Z"/>
        <polygon class="cls-30" points="211.77 16.16 211.29 16.18 211.29 16.15 211.77 16.13 211.77 16.16"/>
        <polygon class="cls-30" points="210.8 16.18 210.32 16.16 210.32 16.12 210.81 16.15 210.8 16.18"/>
        <rect class="cls-30" x="209.58" y="15.83" width=".05" height=".48" transform="translate(168.91 222.32) rotate(-83.22)"/>
        <polygon class="cls-30" points="208.89 15.99 208.41 15.9 208.42 15.84 208.9 15.94 208.89 15.99"/>
        <rect class="cls-30" x="207.69" y="15.45" width=".06" height=".48" transform="translate(137.54 211.83) rotate(-74.63)"/>
        <polygon class="cls-30" points="207.02 15.51 206.56 15.35 206.59 15.28 207.04 15.45 207.02 15.51"/>
        <rect class="cls-30" x="205.88" y="14.78" width=".08" height=".48" transform="translate(104.14 194.66) rotate(-64.64)"/>
        <path class="cls-30" d="M205.25,14.72s-.1-.06-.21-.13c-.1-.07-.2-.13-.2-.13l.05-.08s.1.07.2.13c.1.06.2.13.2.13l-.05.07Z"/>
        <path class="cls-30" d="M204.46,14.17s-.09-.08-.18-.15c-.09-.08-.18-.16-.18-.16l.07-.07s.09.08.17.16c.09.08.18.16.18.16l-.06.07Z"/>
        <path class="cls-30" d="M203.75,13.51s-.08-.09-.16-.18c-.08-.1-.15-.19-.15-.19l.09-.07s.07.09.15.19c.08.09.16.18.16.18l-.08.07Z"/>
        <path class="cls-30" d="M203.16,12.74s-.06-.1-.13-.2c-.06-.11-.12-.21-.12-.21l.11-.06s.06.1.12.21c.06.1.12.21.12.21l-.1.06Z"/>
        <path class="cls-30" d="M202.7,11.88s-.05-.11-.1-.22c-.04-.11-.09-.23-.09-.23l.13-.05s.04.11.08.22c.05.11.09.22.09.22l-.12.05Z"/>
        <polygon class="cls-30" points="202.36 10.97 202.24 10.51 202.37 10.47 202.49 10.94 202.36 10.97"/>
        <rect class="cls-30" x="202.1" y="9.54" width=".14" height=".48" transform="translate(.77 29.97) rotate(-8.49)"/>
        <path class="cls-30" d="M202.01,9.07s-.02-.12-.04-.24c-.03-.11-.06-.23-.06-.23l.14-.04s.03.12.06.24c.02.12.04.24.04.24l-.14.03Z"/>
        <path class="cls-30" d="M201.76,8.17s-.05-.11-.1-.22c-.05-.1-.11-.21-.11-.21l.13-.07s.06.11.11.22c.05.11.1.22.1.22l-.14.06Z"/>
        <path class="cls-30" d="M201.3,7.35s-.07-.09-.15-.19c-.08-.09-.16-.17-.16-.17l.11-.11s.08.09.16.19c.07.1.15.19.15.19l-.12.09Z"/>
        <path class="cls-30" d="M200.65,6.66s-.1-.07-.19-.15c-.1-.06-.19-.13-.19-.13l.08-.13s.1.07.21.14c.1.07.19.14.19.14l-.09.13Z"/>
        <path class="cls-30" d="M199.85,6.17s-.11-.05-.22-.09c-.11-.04-.22-.07-.22-.07l.04-.14s.12.04.24.08c.11.04.22.09.22.09l-.06.14Z"/>
        <path class="cls-30" d="M198.94,5.9s-.12-.02-.24-.04c-.12-.01-.23-.02-.23-.02v-.14s.13.01.26.02c.12.02.24.03.24.03l-.02.14Z"/>
        <path class="cls-30" d="M198,5.83s-.12,0-.24.02c-.06,0-.11.02-.16.02-.04,0-.07,0-.07,0l-.03-.13s.12-.02.25-.04c.12,0,.24-.02.24-.02v.14Z"/>
        <path class="cls-30" d="M197.09,6.01s-.03.01-.07.04c-.04.02-.09.05-.14.08-.02.02-.04.04-.07.05-.02.02-.04.03-.06.05-.03.03-.05.05-.05.05l-.07-.06s.02-.02.05-.06c.02-.02.04-.04.06-.06.02-.02.04-.04.07-.06.05-.04.1-.08.14-.1.04-.02.07-.04.07-.04l.05.1Z"/>
        <path class="cls-30" d="M196.48,6.68s0,.03-.02.07c-.02.04-.03.1-.04.16-.02.12-.03.24-.03.24h-.05s0-.12.01-.24c.01-.06.02-.12.03-.17.01-.04.02-.07.02-.07l.07.02Z"/>
        <path class="cls-30" d="M196.42,7.62s.01.06.02.12c.01.06.03.12.03.12,0,0-.02-.06-.03-.11-.02-.06-.03-.11-.03-.11h.01Z"/>
      </g>
      <path class="cls-24" d="M207.39,12.08s1.79,2.44,3.46,3.07c0,0,2.41,1.1,3.03-.01,0,0-.38-.13-.53-.31-.97-1.17-5.53-3.02-5.53-3.02l-.42.28Z"/>
      <g>
        <polygon class="cls-45" points="212.78 2.25 213.22 2.42 213.21 2.43 212.78 2.25"/>
        <polygon class="cls-45" points="213.66 2.6 214.09 2.8 214.07 2.84 213.64 2.63 213.66 2.6"/>
        <polygon class="cls-45" points="214.52 3 214.94 3.21 214.91 3.28 214.49 3.05 214.52 3"/>
        <polygon class="cls-45" points="215.37 3.43 215.78 3.66 215.73 3.74 215.32 3.51 215.37 3.43"/>
        <polygon class="cls-45" points="216.19 3.9 216.6 4.15 216.54 4.24 216.14 3.99 216.19 3.9"/>
        <polygon class="cls-45" points="217 4.41 217.39 4.68 217.31 4.79 216.93 4.51 217 4.41"/>
        <polygon class="cls-45" points="217.77 4.97 218.14 5.27 218.05 5.37 217.69 5.07 217.77 4.97"/>
        <polygon class="cls-45" points="218.5 5.58 218.84 5.91 218.75 6.01 218.4 5.68 218.5 5.58"/>
        <rect class="cls-45" x="219.2" y="6.25" width=".15" height=".47" transform="translate(46.69 141.91) rotate(-39.82)"/>
        <rect class="cls-45" x="219.74" y="7.03" width=".15" height=".47" transform="translate(27.67 114.28) rotate(-31.01)"/>
        <rect class="cls-45" x="220.14" y="7.88" width=".16" height=".47" transform="translate(9.02 71.04) rotate(-18.7)"/>
        <path class="cls-45" d="M220.46,8.8s.01.12.02.24c0,.12,0,.25,0,.25h-.15s0-.12,0-.23c-.01-.12-.02-.24-.02-.24h.15Z"/>
        <polygon class="cls-45" points="220.44 9.77 220.32 10.23 220.18 10.2 220.29 9.74 220.44 9.77"/>
        <path class="cls-45" d="M220.16,10.69s-.01.03-.03.07c-.02.04-.04.09-.07.15-.06.11-.12.21-.12.21l-.12-.07s.05-.1.11-.2c.03-.05.05-.11.07-.15.02-.04.03-.07.03-.07l.13.06Z"/>
        <path class="cls-45" d="M219.65,11.52s-.08.09-.16.17c-.09.08-.18.17-.18.17l-.09-.1s.08-.08.17-.16c.08-.09.16-.18.16-.18l.1.09Z"/>
        <polygon class="cls-45" points="218.97 12.17 218.64 12.52 218.55 12.43 218.87 12.08 218.97 12.17"/>
        <polygon class="cls-45" points="218.32 12.87 218.01 13.22 217.93 13.15 218.23 12.79 218.32 12.87"/>
        <polygon class="cls-45" points="217.71 13.59 217.41 13.95 217.34 13.9 217.63 13.52 217.71 13.59"/>
        <polygon class="cls-45" points="217.12 14.33 216.83 14.71 216.77 14.66 217.05 14.28 217.12 14.33"/>
        <polygon class="cls-45" points="216.55 15.09 216.28 15.48 216.25 15.46 216.51 15.06 216.55 15.09"/>
        <polygon class="cls-45" points="216.03 15.88 215.81 16.3 215.8 16.29 216.01 15.87 216.03 15.88"/>
      </g>
      <path class="cls-21" d="M215.38,9.89s.6-.31.93.3c0,0,.18.28.13.63-.05.35-1.59,3.94-3.25,4.33,0,0-.37.1-.49.1-.72-.02-.84-.29-.84-.29l.56-.47,2.96-4.57Z"/>
      <path class="cls-30" d="M213.49,2.16c-.14.27-.49.37-.78.23s-.42-.49-.29-.76.49-.37.78-.23.42.49.29.76Z"/>
      <path class="cls-45" d="M216.8,16.68l-.09-.07.1-.12.09.07-.1.12ZM216.36,16.29l-.36-.31.1-.12.36.31-.1.12ZM215.64,15.67l-.36-.31.1-.12.36.31-.1.12ZM214.93,15.05l-.36-.31.1-.12.36.31-.1.12Z"/>
      <path class="cls-36" d="M196.03,6.54s.01-.05.05-.14c.04-.09.1-.22.2-.37.1-.15.23-.33.43-.51.19-.17.44-.35.74-.48.3-.13.66-.21,1.03-.21.38,0,.77.05,1.16.16.39.11.77.26,1.14.46.19.09.37.2.54.31.18.11.35.23.52.35.34.24.67.49.98.75.32.26.61.53.89.79.28.26.54.53.78.79.24.26.46.51.65.75.19.24.37.46.51.66.15.2.27.38.37.53.2.3.3.48.3.48,0,0-.15-.14-.4-.4-.12-.13-.28-.28-.46-.45-.17-.18-.38-.36-.6-.58-.11-.11-.23-.21-.35-.32-.12-.11-.24-.23-.37-.34-.26-.23-.54-.47-.82-.71-.29-.24-.59-.49-.9-.73-.31-.24-.63-.48-.96-.71-.16-.12-.33-.23-.49-.33-.17-.1-.33-.21-.5-.3-.34-.19-.67-.36-1.02-.47-.34-.12-.68-.2-1-.22-.32-.02-.63,0-.9.08-.27.07-.51.19-.71.32-.2.13-.36.27-.48.4-.24.25-.35.43-.35.43Z"/>
      <polygon class="cls-24" points="212.47 2.01 213.42 2.27 213.52 1.75 212.47 2.01"/>
      <path class="cls-19" d="M208.02,9.09l.82-1.63s.14-.62,1.14-.48,3.94.59,5.53,1.99c0,0,.91.6.36,1.55,0,0-1.93,4.15-3.21,4.34,0,0-1.07.34-2.42-.4-1.35-.74-2.8-2.23-3.08-2.69-.27-.47.37-1.69.86-2.68Z"/>
      <path class="cls-21" d="M206.29,7.27s1.68-.15,2.01,1.25l-.5,1.04s-1.2-1.2-2.09-1.17l.58-1.12Z"/>
      <path class="cls-21" d="M215.73,12.21s2.1,3.23,1.45,4.92l-1.14,1.11s-.23-2.21-1.7-4.03l1.39-2Z"/>
      <path class="cls-33" d="M208.27,10.89l1.33-2.34s.18-.59,1.03-.39c1.03.25,2.47.65,3.17,1.11.53.35.73.7.32,1.54l-1.5,2.14s-.5.86-1.46.4c-.97-.46-2.59-1.71-2.59-1.71,0,0-.35-.33-.29-.75Z"/>
      <g>
        <path class="cls-19" d="M210.98,13.26l-.98-.6c.34.22.68.44.98.6Z"/>
        <path class="cls-39" d="M208.27,10.89l1.33-2.34s.18-.59,1.03-.39c.78.19,1.79.46,2.54.79h0s-2.12-.83-2.74-1.02c-.62-.19-1.05.27-1.05.27,0,0-.92,1.98-1.26,2.51-.33.52.19.94.19.94l1.69,1.03c-.75-.5-1.43-1.03-1.43-1.03,0,0-.35-.33-.29-.75Z"/>
        <path class="cls-19" d="M211,13.27h0s-.01,0-.02,0h.02Z"/>
      </g>
      <path class="cls-39" d="M215.29,11.67c.08-.25.11-.4.11-.4l-1.77,2.35,1.22-2.45-1.03,1.78c-.89,1.38-1.87,1.56-1.87,1.56-.93.52-2.79-.77-2.92-.86.39.31.8.59,1.2.81,1.35.74,2.42.4,2.42.4.84-.13,1.96-1.95,2.63-3.19Z"/>
      <path class="cls-7" d="M208.58,9.29c.08-.19.16-.37.24-.56.08-.19.17-.37.25-.56.04-.09.1-.19.16-.27.07-.08.14-.16.23-.23.09-.07.19-.12.3-.14.11-.02.23-.02.34.01h0s0,0,0,0c.45.17.9.35,1.34.53l.67.28c.22.1.44.19.66.3-.23-.07-.46-.15-.69-.22l-.68-.24c-.45-.16-.9-.33-1.35-.5h0c-.18-.05-.36-.01-.52.09-.08.05-.15.12-.21.19-.06.08-.12.15-.16.24-.1.18-.19.36-.29.54-.1.18-.2.36-.3.53Z"/>
      <path class="cls-7" d="M209.56,12.56l1.59.9s.73.29,1.08.02c.45-.35,1.43-1.94,1.43-1.94l-1.29,2.2s-.45.54-1.07.16l-1.74-1.34Z"/>
      <path class="cls-15" d="M208.8,10.92l.97-1.94s.2-.55.96-.41c.75.14,2.4.84,2.4.84,0,0,.53.22.8.73,0,0-.5-.28-.95-.42,0,0-1.79-.63-2.46-.41,0,0-.95.65,0,1.02,0,0,.91.09,1.09-.5,0,0,.29,1.31-1.25,1.2l-.85-.31-.69.2Z"/>
      <path class="cls-34" d="M209.53,12.04l1.65.91s.79.4,1.12,0c.33-.4,1.19-1.87,1.19-1.87,0,0-1.31,1.82-2.09,1.59-.78-.23-1.87-.63-1.87-.63Z"/>
      <path class="cls-15" d="M212.86,10.47c-.07.13-.21.19-.33.13s-.15-.21-.09-.34.21-.19.33-.13.16.21.09.34Z"/>
      <path class="cls-39" d="M206.29,6.92s.08-.04.2-.11c.12-.26.23-.48.3-.64.2-.48-.02-1-.69-1.46.02.02.91.88.2,2.2Z"/>
      <path class="cls-7" d="M201.32,5.41l.02-.65s.12-.56.97-.31l1.79.39s-2.23-1.04-2.69-.6c0,0-.44.17-.08,1.17Z"/>
      <path class="cls-15" d="M201.94,6.05l.06-.72s.28-.85,2.77.4c0,0-1.32-.23-1.95-.11,0,0,1.09.47,1.69,1.24,0,0-1.73-.95-1.99-.82l.02.53-.6-.53Z"/>
      <path class="cls-25" d="M205.95,8.28l.47-.75s1.12-.26,1.6.8c0,0-.74-.69-1.34-.57l-.35.58-.38-.07Z"/>
      <polygon class="cls-31" points="208.15 8.11 207.53 9.31 207.8 9.55 208.3 8.51 208.15 8.11"/>
      <polygon class="cls-31" points="205.97 8.44 206.24 8.48 205.54 9.29 205.97 8.44"/>
      <path class="cls-25" d="M206.92,7.69l-.38.65.11.06.39-.65.2.04-.26.52.08.04.35-.47.17.08-.3.5h.16s.31-.42.31-.42c0,0-.32-.29-.37-.33-.05-.04-.46-.03-.46-.03Z"/>
      <path class="cls-31" d="M215.8,12.34s-.9,1.54-1.37,1.97l.35.44s1.23-1.86,1.02-2.41Z"/>
      <polygon class="cls-31" points="216.04 13.09 214.77 14.75 214.99 15.05 216.11 13.24 216.04 13.09"/>
      <polygon class="cls-31" points="215.05 15.08 216.22 13.8 216.33 13.96 215.17 15.36 215.05 15.08"/>
      <polygon class="cls-31" points="215.29 15.42 216.2 14.48 216.34 14.7 215.37 15.66 215.29 15.42"/>
      <polyline class="cls-31" points="215.46 15.84 216.18 15.12 216.32 15.44 215.61 16.14 215.46 15.84"/>
      <polygon class="cls-31" points="215.67 16.27 216.23 15.84 216.42 16.21 215.83 16.67 215.67 16.27"/>
      <path class="cls-25" d="M216.83,14.97c.07.16.12.33.17.5.05.17.09.34.12.52.03.17.05.35.05.53v.14s-.02.14-.02.14c0,.05-.02.09-.03.14-.01.05-.03.09-.05.14h0s0,.02,0,.02c-.15.15-.3.3-.45.44-.08.07-.15.14-.23.21-.08.07-.16.14-.24.21.06-.09.13-.17.2-.25.07-.08.13-.16.2-.24.14-.16.28-.32.42-.47v.02s.02-.07.02-.11c0-.04.02-.08.02-.12,0-.08.01-.17.01-.25,0-.04,0-.09,0-.13,0-.04,0-.09,0-.13,0-.09-.01-.17-.02-.26-.02-.17-.04-.34-.07-.52l-.08-.52Z"/>
      <polygon class="cls-25" points="216.35 17.29 216.26 17.17 217.18 16.33 217.17 16.71 216.35 17.29"/>
      <path class="cls-24" d="M214.54,14.51l-.2.33s1.01.87,1.24,1.57c0,0-.56-1.31-1.03-1.9Z"/>
      <path class="cls-18" d="M205.73,18.09s-.26.51-.36.58c0,0,.27.05.36-.58Z"/>
      <path class="cls-40" d="M202.7,18.46s2.63,1.39,5.23.96c0,0-.62,1.44-2.32,1.04-1.7-.4-1.3-1.03-1.3-1.03"/>
      <path class="cls-22" d="M202.44,18.35c1.78.72,3.91,1.16,5.73.5,0,0,.25.84.25.84-2.12.43-4.19-.31-5.98-1.34h0Z"/>
      <path class="cls-22" d="M204.74,16.95c-.27-.05-.41.23-.47.43,0,.04,0,.09.01.06,0-.01,0-.08-.05-.12,0-.04-.08-.04-.06-.05,0-.01.13-.07.22-.12l.82-.46c-.01.1-.46,1.09-.36,1.17,0,.06.16.16.2.15,0,0,.03,0,.08-.09l.77.05s.2.29.25.31c.05,0,.05,0,.06.03.11-.05-.08-.41-.13-.54.27.12.61.29.56.68-.32.76-1.35.36-1.53-.32,0,0,.77.05.77.05-.25.99-1.63.84-1.85-.12-.06-.28.03-.58.18-.78l.45.55c-.17.04-.3.1-.58.06-.4-.05-.48-.52-.25-.76.19-.25.66-.48.89-.19h0Z"/>
      <g class="cls-13">
        <path class="cls-12" d="M205.1,16.95c.32.37.51.53.59.82,0,.04-.05.01-.2-.04-.15-.06-.45.02-.42.43-.2.35-.69.26-.9-.03-.55-.75.05-1.42.92-1.19h0Z"/>
      </g>
      <g id="YEUX_2" data-name="YEUX 2">
        <g>
          <path class="cls-21" d="M210.63,18.83c.14-.09.3-.28.42-.53.19-.39.23-.76.09-.83s-.42.18-.61.57c-.1.21-.16.41-.17.56l.27.23Z"/>
          <path class="cls-21" d="M201.59,14.84c.14-.09.3-.28.42-.53.19-.39.23-.76.09-.83s-.42.18-.61.57c-.1.21-.16.41-.17.56l.27.23Z"/>
        </g>
        <path class="cls-6" d="M200.67,14.27s.12,0,.28.07c.08.03.17.07.26.12.09.05.18.12.27.18.04.04.08.07.12.11.04.04.08.08.11.12.07.09.12.17.16.24.08.16.1.28.1.28,0,0-.11-.06-.23-.16-.07-.04-.15-.1-.22-.16-.08-.06-.16-.12-.24-.19-.08-.06-.16-.14-.24-.2-.07-.07-.14-.13-.2-.19-.11-.12-.18-.22-.18-.22Z"/>
        <path class="cls-6" d="M209.67,18.19s.12,0,.28.07c.08.03.17.07.26.12.09.05.18.12.27.18.04.04.08.07.12.11.04.04.08.08.11.12.07.09.12.17.16.24.08.16.1.28.1.28,0,0-.11-.06-.23-.16-.07-.04-.15-.1-.22-.16-.08-.06-.16-.12-.24-.19-.08-.06-.16-.14-.24-.2-.07-.07-.14-.13-.2-.19-.11-.12-.18-.22-.18-.22Z"/>
      </g>
      <g id="main_droite_2" data-name="main droite 2">
        <path class="cls-18" d="M202.26,43.31c-.02-.11.05.21.19-.35"/>
        <path class="cls-18" d="M200.34,41.68c-.19.31-.66.58-1.04.55-.65-.06-.47-.48-.55-.93-.14-.79-1.08-1.54-1.85-1.69-.84-.16-1.87.32-2.24,1.06-.43.85.34,1.26.76,1.87.36.52.29,1.17.61,1.72.46.78,1.42,1.13,2.24,1.44"/>
        <path class="cls-18" d="M215.29,40.2c.01-.23.66-.67.83-.81.31-.26.59-.43,1-.43.47,0,1.13.39,1.16.9.05,1-2.21,2.12-2.8,1.95"/>
      </g>
      <g id="shoes_avant" data-name="shoes avant">
        <path class="cls-32" d="M178.4,34.66s-.83,4.94.37,5.95c0,0,.49,1.01,1.64-.39,0,0-.44,2.2-2.46,2.04l-1.99-2.71,2.45-4.9Z"/>
        <path class="cls-20" d="M177.64,41.84s-.75,1.33-1.8,1.19c-1.05-.14-.91-2.63-.91-2.63l-.46-1.76s3.82-2.88,3.54-3.19"/>
        <path class="cls-40" d="M165.35,26.84s3.39-5.33,10.22-.91c6.17,3.99,2.11,9.9,1.5,12.14-.61,2.24-1.36,5.89-1.36,5.89-1.94-1.17-3.76-1.21-4.03-1.28-1.88-3.73-5.63-10.96-5.63-10.96h0c-1.79-3.2-.7-4.88-.7-4.88"/>
        <path class="cls-44" d="M166.28,29.46s.85-1.3,5.28,1.25c3.37,1.94,3.37,7.76,2.63,11.02-.74,3.26-7.91-12.28-7.91-12.28"/>
        <path class="cls-44" d="M166.84,28.36s.25-.01.68.01c.43.02,1.05.08,1.77.24.36.08.75.18,1.16.32.41.14.83.31,1.24.53.42.22.84.48,1.22.79.39.32.75.68,1.05,1.09l.12.16.1.15c.07.1.13.21.19.32.13.22.24.45.34.67.2.45.34.92.45,1.38.11.46.17.91.21,1.33.04.43.05.83.04,1.2-.02.74-.1,1.36-.18,1.78-.08.42-.15.66-.15.66,0,0,.03-.24.06-.67.03-.43.04-1.04,0-1.76-.02-.36-.06-.75-.12-1.16-.06-.41-.15-.84-.27-1.27-.12-.43-.28-.87-.47-1.3-.1-.21-.2-.43-.32-.62-.06-.1-.12-.2-.19-.3l-.1-.15-.1-.14c-.28-.38-.6-.72-.96-1.02-.36-.3-.74-.56-1.13-.78-.39-.22-.78-.4-1.17-.56-.38-.15-.76-.28-1.1-.39-.7-.21-1.29-.34-1.72-.41-.42-.08-.67-.1-.67-.1Z"/>
        <path class="cls-12" d="M167.05,25.7s.07-.04.2-.1c.13-.06.33-.14.59-.21.13-.03.27-.08.44-.11.16-.04.33-.07.52-.09.09-.01.19-.02.29-.04.1,0,.2-.01.31-.02.11,0,.22-.01.33-.01.11,0,.23,0,.35.01.47.02.98.09,1.51.22.07.02.13.03.2.05.07.02.13.04.2.06.13.04.27.09.4.13.07.02.14.04.2.07.07.03.13.06.2.09.13.06.27.12.4.18.07.03.14.06.2.09.07.04.13.07.2.11.13.07.26.15.4.22l.2.11c.07.04.13.09.19.13.13.09.25.18.38.26.13.09.26.17.38.27.12.1.24.2.36.3l.36.31.04.04.02.02h0s.02.02.02.02h.01s.06.07.09.1c.06.07.12.13.17.19.11.12.2.26.3.38.09.13.18.26.27.4.08.14.16.27.25.41.07.14.14.28.22.42.08.14.13.29.19.43.06.14.12.29.17.43.05.15.1.29.14.43.05.14.07.29.11.44.03.15.07.29.1.43.02.14.04.29.06.43.02.14.05.28.05.42,0,.14.01.28.02.41,0,.13.01.27.02.4,0,.13-.01.26-.02.39,0,.13-.01.25-.02.37,0,.06,0,.12,0,.18,0,.06-.02.12-.03.18-.04.23-.07.45-.1.66,0,.05-.02.1-.03.15-.01.05-.03.1-.04.15-.03.1-.05.19-.07.28-.05.18-.09.35-.13.51-.04.16-.1.29-.15.42-.09.25-.17.45-.23.58-.05.13-.08.2-.08.2,0,0,.01-.08.03-.22.02-.14.05-.35.09-.61.05-.26.07-.58.11-.94.05-.36.04-.77.05-1.22,0-.06,0-.11,0-.17,0-.06,0-.11-.01-.17,0-.11-.02-.23-.02-.35,0-.12-.01-.24-.02-.36-.02-.12-.04-.24-.05-.37-.02-.12-.04-.25-.05-.38-.02-.13-.05-.25-.08-.38-.03-.13-.06-.26-.09-.39-.03-.13-.08-.26-.12-.39-.15-.52-.37-1.04-.63-1.54-.07-.12-.14-.25-.2-.37-.07-.12-.15-.24-.22-.36-.08-.12-.16-.23-.24-.35-.09-.11-.17-.23-.26-.33-.04-.05-.09-.11-.13-.15-.02-.02-.04-.04-.07-.07h0s-.01-.02,0,0h0s-.02-.02-.02-.02l-.04-.04-.33-.29c-.11-.1-.22-.19-.33-.29-.11-.1-.23-.17-.34-.26-.45-.35-.93-.65-1.41-.92-.12-.06-.24-.12-.36-.19-.12-.06-.24-.12-.36-.17-.12-.05-.24-.1-.36-.15-.06-.02-.12-.05-.18-.07-.06-.02-.12-.04-.18-.06-.24-.07-.47-.17-.7-.21-.23-.06-.45-.12-.67-.15-.11-.02-.22-.04-.32-.05-.1-.02-.21-.02-.31-.03-.1-.01-.2-.02-.29-.03-.1,0-.19,0-.28,0-.18-.01-.35,0-.51,0-.16,0-.3.02-.43.02-.26.02-.47.05-.61.08-.14.03-.21.04-.21.04Z"/>
        <path class="cls-12" d="M169.27,25.36l-1.21,2.42,1.93-2.38.66.09-1.3,2.6,2.06-2.43.79.26-1.61,2.49.97.36,1.31-2.61.91.54-1.62,2.36s.56.59.65.45c.08-.14,1.66-2.49,1.66-2.49l.75.72-1.65,2.14.34.46,2.06-1.85.3.84-1.61,1.72.48.52,1.76-1.58.16.94-1.82,1.66.12.7,1.83-1.69.08.6-1.74,1.6.06.6,1.87-1.69.11.65-1.85,1.47-.02.51,1.93-1.38.02.64-1.73,1.19-.25.5,1.89-1.11.06-3.68s-1.31-2.64-1.31-2.85c0-.2-1.99-1.88-2.1-1.97-.1-.08-2.4-1.08-2.4-1.08l-2.51-.28Z"/>
        <path class="cls-41" d="M173.92,36.28c.12-1.25-.56-2.87-.57-2.88-.6-1.72-3.84-3.16-3.87-3.17l.06-.14c.14.06,3.33,1.48,3.95,3.26.03.06.7,1.67.58,2.96h-.16Z"/>
        <polygon class="cls-41" points="170.18 32.54 169.29 31.6 170.4 30.59 170.51 30.71 169.51 31.61 170.17 32.3 171.27 31.09 171.38 31.2 170.18 32.54"/>
        <polygon class="cls-41" points="171.52 34.13 170.7 33.27 172.25 31.83 172.36 31.95 170.92 33.28 171.53 33.91 172.99 32.61 173.09 32.72 171.52 34.13"/>
        <polygon class="cls-41" points="172.72 35.48 171.87 34.75 173.45 33.49 173.55 33.62 172.12 34.75 172.72 35.27 173.73 34.36 173.83 34.48 172.72 35.48"/>
        <rect class="cls-41" x="172.95" y="35.6" width="1.19" height=".16" transform="translate(29.21 138.42) rotate(-47.06)"/>
        <path class="cls-12" d="M177.59,35.7l-1.9,1.43s-.12.44-.07.39c.05-.05,1.84-1.33,1.84-1.33l.04.42-1.78,1.56.08.3,1.53-1.18-1.27,1.48.08.09.99-.94.54-1.77-.07-.46Z"/>
      </g>
      <g id="main_droite" data-name="main droite">
        <path class="cls-18" d="M199.91,42.4s2.29-4.3,5.37-3.8c3.08.5,1.05,5.81,1.05,5.81,0,0-.92,2.99-3.24,1.74,0,0-1.65-.42-.76-2.55,0,0-.04-1.42-.82-1.19l-1.59-.02Z"/>
        <path class="cls-18" d="M206.75,39.76s1.47-2.09,3.92-1.33c2.45.76,1.26,4.7.87,5.36-.39.66-1.49,3.29-3.28,2.51,0,0-2.65-.71-.33-3.7,0,0-.13-.72-1.05-.35v-2.09"/>
        <path class="cls-18" d="M211.63,40.02s1.97-1.85,3.38-.75c1.42,1.1-.25,6.03-1.42,6.01-1.17-.02-2.09-.19-2.13-2.33l-.14-1.88.31-1.05Z"/>
        <path class="cls-9" d="M200.55,41.59s2.91-4.67,6.03-2.17c0,0-2.69-1.15-6.03,2.17Z"/>
        <path class="cls-9" d="M212.34,39.74l.04.91s1.63-1.7,2.84-.38c0,0-.56-2.34-2.88-.54Z"/>
        <path class="cls-9" d="M206.94,39.68l-.05.87s3.15-2.71,4.67-.73c0,0-1.09-3.06-4.63-.13Z"/>
        <path class="cls-6" d="M212.16,41.44s-.29,1.74-.62,2.35c0,0,.23,1.78,2.28,1.45,0,0-.79-.19-1.3-.96-.51-.77-.36-2.84-.36-2.84Z"/>
        <path class="cls-6" d="M202.19,42.9s.31-.96-.37-1.42l.05.97-1.76.41s1.61-.17,2.08.04Z"/>
        <path class="cls-40" d="M206.88,41.94v.39s.86-.04.86-.04c0,0-.26-.32-.86-.35Z"/>
        <path class="cls-6" d="M206.93,41.13l-.05.81s.84,0,1.05.66c0,0-.08-1.64-1-1.48Z"/>
        <path class="cls-9" d="M202.83,43.01s-1.6,2.79.73,3.13c0,0-1.3-.97-.73-3.13Z"/>
        <path class="cls-9" d="M208.35,42.66s-2.22,2.37,0,3.44c0,0-.93-.93,0-3.44Z"/>
      </g>
    </g>
    <path class="cls-4" d="M164,52.52c-1.01,2.34,1.37,4.81,3.43,4.65v-4.25c.21-2.86,1.92-3.44,3.3-3.49.09,0,1.54.05,2.08.5.16.13.43,1.1.43,1.1.34.06,2.48-7.07,2.48-7.07-1.78-1.12-3.81-1.26-4.03-1.28-2.31,2.21-6.11,7.76-6.11,7.76h0c-.9.78-1.35,1.5-1.57,2.07"/>
  </g>
</svg>