<?xml version="1.0" encoding="UTF-8"?>
<svg id="Calque_2" data-name="Calque 2" xmlns="http://www.w3.org/2000/svg" xmlns:xlink="http://www.w3.org/1999/xlink" viewBox="0 0 376.93 71.58">
  <defs>
    <style>
      .cls-1 {
        filter: url(#drop-shadow-1);
      }

      .cls-2 {
        filter: url(#drop-shadow-2);
      }

      .cls-3 {
        fill: #fff;
      }
    </style>
    <filter id="drop-shadow-1" x="0" y="0" width="112.29" height="72.43" filterUnits="userSpaceOnUse">
      <feOffset dx=".85" dy=".85"/>
      <feGaussianBlur result="blur" stdDeviation="0"/>
      <feFlood flood-color="#1d1d1b" flood-opacity=".45"/>
      <feComposite in2="blur" operator="in"/>
      <feComposite in="SourceGraphic"/>
    </filter>
    <filter id="drop-shadow-2" x="186.26" y=".29" width="191.52" height="72.03" filterUnits="userSpaceOnUse">
      <feOffset dx=".85" dy=".85"/>
      <feGaussianBlur result="blur-2" stdDeviation="0"/>
      <feFlood flood-color="#1d1d1b" flood-opacity=".45"/>
      <feComposite in2="blur-2" operator="in"/>
      <feComposite in="SourceGraphic"/>
    </filter>
  </defs>
  <g id="Calque_1-2" data-name="Calque 1">
    <g>
      <path class="cls-3" d="M133.91,8.47c0-4.64,2.44-7.29,6.92-7.29s6.92,2.65,6.92,7.29v15.07c0,4.64-2.44,7.29-6.92,7.29s-6.92-2.65-6.92-7.29v-15.07ZM138.46,23.83c0,2.07.91,2.86,2.36,2.86s2.36-.79,2.36-2.86v-15.65c0-2.07-.91-2.86-2.36-2.86s-2.36.79-2.36,2.86v15.65Z"/>
      <path class="cls-3" d="M155.24,14.39h5.88v4.14h-5.88v11.97h-4.55V1.51h12.05v4.14h-7.5v8.74Z"/>
      <path class="cls-3" d="M124.44,41.27h14.08v4.14h-4.76v24.85h-4.55v-24.85h-4.76v-4.14Z"/>
      <path class="cls-3" d="M145.07,70.26h-4.55v-28.99h4.55v12.42h5.18v-12.42h4.64v28.99h-4.64v-12.42h-5.18v12.42Z"/>
      <path class="cls-3" d="M162.76,53.49h6.25v4.14h-6.25v8.49h7.87v4.14h-12.42v-28.99h12.42v4.14h-7.87v8.08Z"/>
    </g>
    <g class="cls-1">
      <path class="cls-3" d="M4.27,67c-2.85-3.05-4.27-7.36-4.27-12.92V17.5C0,11.93,1.42,7.62,4.27,4.57,7.12,1.53,11.23,0,16.6,0s9.48,1.53,12.33,4.57c2.85,3.05,4.27,7.36,4.27,12.92v36.58c0,5.57-1.43,9.88-4.27,12.92-2.85,3.05-6.96,4.57-12.33,4.57s-9.48-1.52-12.33-4.57ZM22.27,54.78V16.8c0-4.57-1.89-6.86-5.67-6.86s-5.67,2.29-5.67,6.86v37.98c0,4.57,1.89,6.86,5.67,6.86s5.67-2.29,5.67-6.86Z"/>
      <path class="cls-3" d="M44.34,67.05c-2.78-3.02-4.18-7.34-4.18-12.97V.99h10.93v53.88c0,2.39.48,4.11,1.44,5.17.96,1.06,2.34,1.59,4.13,1.59s3.16-.53,4.13-1.59c.96-1.06,1.44-2.78,1.44-5.17V.99h10.54v53.09c0,5.63-1.39,9.96-4.18,12.97-2.78,3.02-6.83,4.52-12.13,4.52s-9.35-1.51-12.13-4.52Z"/>
      <path class="cls-3" d="M89.07,10.94h-11.43V.99h33.8v9.94h-11.43v59.65h-10.94V10.94Z"/>
    </g>
    <g class="cls-2">
      <path class="cls-3" d="M218.96,17.09v2.49c0,7.16-2.19,11.73-7.06,14.02,5.86,2.29,8.15,7.55,8.15,14.91v5.67c0,10.74-5.67,16.5-16.6,16.5h-17.2V1.09h16.5c11.33,0,16.2,5.27,16.2,16ZM197.19,11.03v18.39h4.27c4.08,0,6.56-1.79,6.56-7.36v-3.88c0-4.97-1.69-7.16-5.57-7.16h-5.27ZM197.19,39.36v21.37h6.26c3.68,0,5.67-1.69,5.67-6.86v-6.06c0-6.46-2.09-8.45-7.06-8.45h-4.87Z"/>
      <path class="cls-3" d="M225.72,17.79c0-11.13,5.87-17.5,16.6-17.5s16.6,6.36,16.6,17.5v36.19c0,11.13-5.86,17.5-16.6,17.5s-16.6-6.36-16.6-17.5V17.79ZM236.66,54.67c0,4.97,2.19,6.86,5.67,6.86s5.67-1.89,5.67-6.86V17.09c0-4.97-2.19-6.86-5.67-6.86s-5.67,1.89-5.67,6.86v37.58Z"/>
      <path class="cls-3" d="M265.09,17.79c0-11.13,5.87-17.5,16.6-17.5s16.6,6.36,16.6,17.5v36.19c0,11.13-5.86,17.5-16.6,17.5s-16.6-6.36-16.6-17.5V17.79ZM276.03,54.67c0,4.97,2.19,6.86,5.67,6.86s5.67-1.89,5.67-6.86V17.09c0-4.97-2.19-6.86-5.67-6.86s-5.67,1.89-5.67,6.86v37.58Z"/>
      <path class="cls-3" d="M319.67,42.94l-3.38,6.36v21.37h-10.93V1.09h10.93v30.32l14.31-30.32h10.93l-15.21,31.01,15.21,38.57h-11.23l-10.64-27.73Z"/>
      <path class="cls-3" d="M360.73.29c10.64,0,16.1,6.36,16.1,17.5v2.19h-10.34v-2.88c0-4.97-1.99-6.86-5.47-6.86s-5.47,1.89-5.47,6.86c0,14.31,21.37,17,21.37,36.88,0,11.13-5.57,17.5-16.3,17.5s-16.3-6.36-16.3-17.5v-4.27h10.34v4.97c0,4.97,2.19,6.76,5.67,6.76s5.67-1.79,5.67-6.76c0-14.31-21.37-17-21.37-36.88,0-11.13,5.47-17.5,16.1-17.5Z"/>
    </g>
  </g>
</svg>