<svg xmlns="http://www.w3.org/2000/svg" xmlns:xlink="http://www.w3.org/1999/xlink" width="389" height="58"><defs><clipPath id="c"><path d="M41.957 13.277h1.598v1.02h-1.598Zm0 0"/></clipPath><clipPath id="b"><path d="M0 0h389v58H0z"/></clipPath><clipPath id="e"><path d="M38.668 12.152h1.672v.926h-1.672Zm0 0"/></clipPath><clipPath id="d"><path d="M0 0h389v58H0z"/></clipPath><clipPath id="g"><path d="M43.254 13.852h.68v.37h-.68Zm0 0"/></clipPath><clipPath id="f"><path d="M0 0h389v58H0z"/></clipPath><clipPath id="i"><path d="M40.547 12.855h1.34v.59h-1.34Zm0 0"/></clipPath><clipPath id="h"><path d="M0 0h389v58H0z"/></clipPath><clipPath id="k"><path d="M18.816 20.41H24v10.895h-5.184Zm0 0"/></clipPath><clipPath id="j"><path d="M0 0h389v58H0z"/></clipPath><clipPath id="m"><path d="M29.836 13.46h2.191v1.454h-2.191Zm0 0"/></clipPath><clipPath id="l"><path d="M0 0h389v58H0z"/></clipPath><clipPath id="o"><path d="M20.953 26.879h2.887v3.82h-2.887Zm0 0"/></clipPath><clipPath id="n"><path d="M0 0h389v58H0z"/></clipPath><clipPath id="q"><path d="M15.207 23.555h2.016v1.754h-2.016Zm0 0"/></clipPath><clipPath id="p"><path d="M0 0h389v58H0z"/></clipPath><clipPath id="s"><path d="M17.684 24.785h2.941v2.688h-2.941Zm0 0"/></clipPath><clipPath id="r"><path d="M0 0h389v58H0z"/></clipPath><clipPath id="u"><path d="M20.113 30.66h1.727v1.797h-1.727Zm0 0"/></clipPath><clipPath id="t"><path d="M0 0h389v58H0z"/></clipPath><clipPath id="w"><path d="M17.14 28.2h1.438v2.163h-1.437Zm0 0"/></clipPath><clipPath id="v"><path d="M0 0h389v58H0z"/></clipPath><clipPath id="x"><path d="M0 0h389v58H0z"/></clipPath><clipPath id="y"><path d="M0 0h389v58H0z"/></clipPath><mask id="A"><g filter="url(#a)"><path d="M0 0h389v58H0z" style="fill:#000;fill-opacity:.4;stroke:none"/></g></mask><mask id="C"><g filter="url(#a)"><path d="M0 0h389v58H0z" style="fill:#000;fill-opacity:.4;stroke:none"/></g></mask><mask id="E"><g filter="url(#a)"><path d="M0 0h389v58H0z" style="fill:#000;fill-opacity:.4;stroke:none"/></g></mask><mask id="G"><g filter="url(#a)"><path d="M0 0h389v58H0z" style="fill:#000;fill-opacity:.4;stroke:none"/></g></mask><mask id="I"><g filter="url(#a)"><path d="M0 0h389v58H0z" style="fill:#000;fill-opacity:.301961;stroke:none"/></g></mask><mask id="K"><g filter="url(#a)"><path d="M0 0h389v58H0z" style="fill:#000;fill-opacity:.301961;stroke:none"/></g></mask><mask id="M"><g filter="url(#a)"><path d="M0 0h389v58H0z" style="fill:#000;fill-opacity:.501961;stroke:none"/></g></mask><mask id="O"><g filter="url(#a)"><path d="M0 0h389v58H0z" style="fill:#000;fill-opacity:.501961;stroke:none"/></g></mask><mask id="Q"><g filter="url(#a)"><path d="M0 0h389v58H0z" style="fill:#000;fill-opacity:.501961;stroke:none"/></g></mask><mask id="S"><g filter="url(#a)"><path d="M0 0h389v58H0z" style="fill:#000;fill-opacity:.501961;stroke:none"/></g></mask><mask id="U"><g filter="url(#a)"><path d="M0 0h389v58H0z" style="fill:#000;fill-opacity:.501961;stroke:none"/></g></mask><mask id="W"><g filter="url(#a)"><path d="M0 0h389v58H0z" style="fill:#000;fill-opacity:.45098;stroke:none"/></g></mask><mask id="Y"><g filter="url(#a)"><path d="M0 0h389v58H0z" style="fill:#000;fill-opacity:.45098;stroke:none"/></g></mask><g clip-path="url(#b)"><g id="z" clip-path="url(#c)"><path d="M43.555 14.297s-.801-1.645-1.598-.758c0 0 .781-.312 1.598.758" style="stroke:none;fill-rule:nonzero;fill:#fff;fill-opacity:1"/></g></g><g clip-path="url(#d)"><g id="B" clip-path="url(#e)"><path d="M40.34 12.953s-.785-1.324-1.672-.562c0 0 .441-.29.602.023 0 0 .355.262-.122.664 0 0 .586-.215.27-.773 0 0 .371.105.922.648" style="stroke:none;fill-rule:nonzero;fill:#fff;fill-opacity:1"/></g></g><g clip-path="url(#f)"><g id="D" clip-path="url(#g)"><path d="M43.934 14.223s-.114-.606-.68-.27c0 0 .469-.015.68.27" style="stroke:none;fill-rule:nonzero;fill:#fff;fill-opacity:1"/></g></g><g clip-path="url(#h)"><g id="F" clip-path="url(#i)"><path d="M41.887 13.406s-.36-.957-1.34-.347c0 0 .758-.254 1.078.386 0 0 .102-.148.262-.039" style="stroke:none;fill-rule:nonzero;fill:#fff;fill-opacity:1"/></g></g><g clip-path="url(#j)"><g id="H" clip-path="url(#k)"><path d="m23.387 20.41-2.442 3.914-2.125 4.012 3.649 2.969S23.934 21.953 24 22.05c.066.094-3.32 6.441-3.32 6.441Zm0 0" style="stroke:none;fill-rule:nonzero;fill:#fff;fill-opacity:1"/></g></g><g clip-path="url(#l)"><g id="J" clip-path="url(#m)"><path d="M31.02 13.46c1.027.18 1.468 1.052.347 1.423-.394.129-.93-.145-.828-.656.379-.672-.43-.875-.703-.676.07.047 1.043-.086 1.184-.09" style="stroke:none;fill-rule:nonzero;fill:#fff;fill-opacity:1"/></g></g><g clip-path="url(#n)"><g id="L" clip-path="url(#o)"><path d="M23.84 30.7s.082-4.098-2.89-3.805c0 0 2.152.37 2.89 3.804" style="stroke:none;fill-rule:nonzero;fill:#fff;fill-opacity:1"/></g></g><g clip-path="url(#p)"><g id="N" clip-path="url(#q)"><path d="m17.223 24.754-.395.555s-.324-1.723-1.621-1.387c0 0 1.305-1.235 2.016.832" style="stroke:none;fill-rule:nonzero;fill:#fff;fill-opacity:1"/></g></g><g clip-path="url(#r)"><g id="P" clip-path="url(#s)"><path d="m20.625 26.91-.32.563s-.864-2.977-2.621-2.36c0 0 1.921-1.465 2.941 1.797" style="stroke:none;fill-rule:nonzero;fill:#fff;fill-opacity:1"/></g></g><g clip-path="url(#t)"><g id="R" clip-path="url(#u)"><path d="M21.84 30.66s-.133 2.39-1.723 1.656c0 0 1.203-.074 1.723-1.656" style="stroke:none;fill-rule:nonzero;fill:#fff;fill-opacity:1"/></g></g><g clip-path="url(#v)"><g id="T" clip-path="url(#w)"><path d="M18.535 28.2s.426 2.382-1.394 2.148c0 0 .957-.2 1.394-2.149" style="stroke:none;fill-rule:nonzero;fill:#fff;fill-opacity:1"/></g></g><g id="V" clip-path="url(#x)"><path d="M95.457 14.648c0-4 1.766-5.515 4.563-5.515s4.562 1.515 4.562 5.515v30.25c0 4-1.766 5.516-4.562 5.516s-4.563-1.516-4.563-5.516ZM86.66 44.336c0 8.953 4.719 14.078 13.36 14.078s13.359-5.125 13.359-14.078V15.21c0-8.953-4.719-14.078-13.36-14.078S86.66 6.258 86.66 15.21Zm31.992-42.563v42.641c0 8.953 4.485 14.078 13.125 14.078s13.125-5.125 13.125-14.078V1.774h-8.328v43.203c0 4-1.765 5.437-4.562 5.437s-4.563-1.437-4.563-5.437V1.773Zm29.684 8h9.203v48h8.797v-48h9.203v-8h-27.203Zm0 0" style="stroke:none;fill-rule:nonzero;fill:#1d1d1b;fill-opacity:1"/></g><g id="X" clip-path="url(#y)"><path d="M249.027 1.852h-13.28v56h13.843c8.797 0 13.36-4.641 13.36-13.282v-4.562c0-5.922-1.845-10.156-6.563-12 3.922-1.844 5.672-5.516 5.672-11.281v-2c0-8.641-3.922-12.875-13.032-12.875m-.562 30.796c4 0 5.672 1.61 5.672 6.797v4.89c0 4.157-1.594 5.517-4.547 5.517h-5.047V32.648Zm.312-22.796c3.125 0 4.485 1.765 4.485 5.765v3.11c0 4.484-2 5.921-5.282 5.921h-3.437V9.852Zm27.528 4.875c0-4 1.765-5.516 4.562-5.516s4.563 1.516 4.563 5.516v30.25c0 4-1.766 5.515-4.563 5.515s-4.562-1.515-4.562-5.515Zm-8.797 29.687c0 8.953 4.719 14.078 13.36 14.078s13.359-5.125 13.359-14.078V15.29c0-8.953-4.72-14.078-13.36-14.078s-13.36 5.125-13.36 14.078Zm40.476-29.687c0-4 1.766-5.516 4.563-5.516s4.562 1.516 4.562 5.516v30.25c0 4-1.765 5.515-4.562 5.515s-4.563-1.515-4.563-5.515Zm-8.796 29.687c0 8.953 4.718 14.078 13.359 14.078s13.36-5.125 13.36-14.078V15.29c0-8.953-4.72-14.078-13.36-14.078s-13.36 5.125-13.36 14.078Zm52.476 13.438h9.031l-12.234-31.047 12.234-24.953h-8.797l-11.515 24.406V1.852h-8.797v56h8.797V40.648l2.719-5.109Zm11.516-42.563c0 16 17.203 18.156 17.203 29.688 0 4-1.766 5.437-4.563 5.437s-4.562-1.437-4.562-5.437v-4h-8.313v3.437c0 8.953 4.47 14.078 13.11 14.078s13.125-5.125 13.125-14.078c0-16-17.203-18.156-17.203-29.687 0-4 1.609-5.516 4.406-5.516s4.406 1.516 4.406 5.516v2.328h8.313v-1.766c0-8.953-4.407-14.078-12.954-14.078-8.562 0-12.968 5.125-12.968 14.078m0 0" style="stroke:none;fill-rule:nonzero;fill:#1d1d1b;fill-opacity:1"/></g><filter id="a" width="100%" height="100%" x="0%" y="0%" filterUnits="objectBoundingBox"><feColorMatrix in="SourceGraphic" values="0 0 0 0 1 0 0 0 0 1 0 0 0 0 1 0 0 0 1 0"/></filter></defs><path d="M43.262 46.168c.457-.285.351-.668.238-.926-.094-.254-.375-.523-.469-.328-.015.211-.191.246-.101.402.035.055.136.106.297.082.367-.05.699-.636.93-.882l-4.028-.836c-.281.074-.07.726.062.86.102.167.336.073.54-.122l-3.844-2.41a28 28 0 0 0 .515-1.438c.047-.289.258-.215.164-.566-.14-.324-.359-.707-.617-.969-.328-.293-1.125-.094-1.949.195.09-2.546 2.945-3.324 4.973-1.914 2.09 1.188 2.074 4.496 1.28 6.266l-3.839-2.41c1.254-1.277 3.113-1.438 4.606-.711 1.535.605 2.562 2.957 1.746 4.43l-3.551-1.422c.281-.508.77-.965 1.293-1.192 2.144-1 4.754 1.375 3.32 3.383-.308.48-1.082.906-1.566.508" style="stroke:none;fill-rule:nonzero;fill:#e0f2fd;fill-opacity:1"/><path d="M23.875 14.203c-1.984-.312-2.996.059-2.996.059.808 1.445 2.121 1.617 2.121 1.617 3.285.8 4.723-1.137 4.723-1.137" style="stroke:none;fill-rule:nonzero;fill:#55685b;fill-opacity:1"/><path d="M21.887 13.969c1.027.758 3.21 2.52 5.746 1.054l-.88-1.054-4.167-.254Zm0 0" style="stroke:none;fill-rule:nonzero;fill:#3c5347;fill-opacity:1"/><path d="M27.273 14.336s-1.328-1.121-2.73-1.04c-1.406.083-3.234-.589-3.531-.96 0 0 .218 2.3 3.18 2.535 2.96.234 3.117-.281 3.117-.281Zm0 0" style="stroke:none;fill-rule:nonzero;fill:#55685b;fill-opacity:1"/><path d="M24.34 14.781s-2.203-.097-2.945-1.965c0 0 1.07 1.204 2.945 1.965" style="stroke:none;fill-rule:nonzero;fill:#5a7b6b;fill-opacity:1"/><path d="M39.074 17.852c-.383-.145-.793-.282-1.043-.637-.222-.317-.008-.711-.054-1.063-.04-.32-.356-.324-.579-.437-.336-.172-.644-.516-.664-.918-.011-.3.102-.828.48-.793.313.035.477.32.544.601.078.34.219.434.578.454.215.015.437.007.633.109.261.129.398.375.554.61.086.124.868.656.856.738" style="stroke:none;fill-rule:nonzero;fill:#f9c3a6;fill-opacity:1"/><path d="M43.352 16.691s-2.829 8.184-4.286 7.649-2.886-1.95-2.886-1.95l.347-2.699 2.086 1.797s1.934.7 2.356-5.191Zm0 0" style="stroke:none;fill-rule:nonzero;fill:#f9c3a6;fill-opacity:1"/><path d="m39.922 14.676-1.984-.719s-.391.191-.493.563c-.113.418-.015.648-.015.648l2.047.68.437-1.098" style="stroke:none;fill-rule:nonzero;fill:#f8b006;fill-opacity:1"/><path d="M43.855 14.918s-.722-2.371-1.87-1.484c0 0-.15-.676-.84-.645-.54.024-.657.281-.657.281s-.593-1.23-1.52-.937c0 0-.663.285-.503.71 0 0 .191.47.668.368 0 0 .324.059.437.512.114.453 1.649 1.53 1.72 1.547.073.015.972.285.972.285s1.465-.621 1.484-.555" style="stroke:none;fill-rule:nonzero;fill:#f9c3a6;fill-opacity:1"/><path d="M40.488 13.07s-.277.235-.414.758l-.472-.027s-.137-.7-.618-.606c0 0 .54.012.516-.53 0 0 .191.831.988.405" style="stroke:none;fill-rule:nonzero;fill:#caa189;fill-opacity:1"/><path d="m37.2 19.855-.712 3.102-.918-.906.793-3.004s.598.293.836.808" style="stroke:none;fill-rule:nonzero;fill:#ededed;fill-opacity:1"/><path d="M36.332 19.305s-2.555-2.375-3-2.106c-.45.266-.238 2.133-.238 2.133l.558 1.473 2.22.824Zm0 0" style="stroke:none;fill-rule:nonzero;fill:#ededed;fill-opacity:1"/><use xlink:href="#z" mask="url(#A)"/><path d="m36.332 19.305-.352 1.765-1.566-2.398 1.469 1.45Zm0 0" style="stroke:none;fill-rule:nonzero;fill:#dadada;fill-opacity:1"/><path d="m36.238 19.414-1.894-1.371.086-.273s1.414 1.27 1.808 1.644M36.738 21.273l.278-1.32-.489-.625-.062.563.332.336Zm0 0" style="stroke:none;fill-rule:nonzero;fill:#fff;fill-opacity:1"/><path d="m52.39 17.102-7.902-2.543s-2.254.593-1.363 4.347l8.117 3.102s1.922.133 2.219-2.14c.297-2.27-1.07-2.766-1.07-2.766" style="stroke:none;fill-rule:nonzero;fill:#f8b006;fill-opacity:1"/><path d="m39.453 13.629 4.922 1.559c-.156-.079-.98 2.976-.98 2.976l-4.477-1.52s-.383-.433-.238-1.562c.144-1.133.773-1.453.773-1.453" style="stroke:none;fill-rule:nonzero;fill:#f8b006;fill-opacity:1"/><path d="M43.168 14.816s-.723 1.012-1.125.875c-.402-.14-.219-1.058-.219-1.058s-1.004.547-1.414.46c-.414-.085.25-.882.32-.948.07-.067.399-.165.399-.165l.973.364Zm0 0" style="stroke:none;fill-rule:nonzero;fill:#e29202;fill-opacity:1"/><path d="M42.816 14.535c-.109.5.094.973.454 1.047.359.078.738-.27.843-.77.11-.503-.097-.972-.453-1.05-.36-.075-.738.27-.844.773" style="stroke:none;fill-rule:nonzero;fill:#f9c3a6;fill-opacity:1"/><path d="M38.719 16.875q.071.008.136-.02a.293.293 0 0 0 .172-.378c-.613-1.625.809-2.57.871-2.606a.3.3 0 0 0 .09-.41.296.296 0 0 0-.41-.086c-.652.414-1.726 1.645-1.101 3.309.039.109.136.18.242.191M43.426 19.309a.356.356 0 0 0 .219-.66c-.02-.012-.641-.434-.375-1.942.277-1.574 1.253-1.828 1.261-1.832a.347.347 0 0 0 .262-.422.35.35 0 0 0-.426-.262c-.058.012-1.437.368-1.793 2.395-.36 2.031.672 2.652.719 2.676.039.027.086.039.133.047M49.668 19.063c-.336 1.593.36 3.085 1.55 3.335 1.192.25 2.43-.835 2.766-2.43.332-1.593-.359-3.085-1.55-3.335s-2.43.836-2.766 2.43" style="stroke:none;fill-rule:nonzero;fill:#e29202;fill-opacity:1"/><path d="M48.383 18.64c-.332 1.594.36 3.087 1.55 3.34 1.192.25 2.43-.84 2.766-2.43.332-1.593-.36-3.085-1.55-3.34-1.192-.25-2.43.84-2.766 2.43" style="stroke:none;fill-rule:nonzero;fill:#e29202;fill-opacity:1"/><path d="m52.848 16.781-1.7-.57-1.398 5.719 1.3.418Zm0 0" style="stroke:none;fill-rule:nonzero;fill:#e29202;fill-opacity:1"/><path d="M50.402 19.34c-.234 1.11.25 2.148 1.078 2.324.829.172 1.692-.582 1.922-1.691.235-1.106-.246-2.149-1.078-2.32-.828-.176-1.687.581-1.922 1.687" style="stroke:none;fill-rule:nonzero;fill:#bce3fa;fill-opacity:1"/><path d="M52.883 20.14c.484-1.402-.559-2.488-.559-2.488.828.172 1.313 1.211 1.082 2.32-.234 1.11-1.097 1.868-1.926 1.692a1 1 0 0 1-.187-.062c.066-.004 1.121-.102 1.59-1.461" style="stroke:none;fill-rule:nonzero;fill:#cc7512;fill-opacity:1"/><path d="M51.36 21.36s1.206-.266 1.445-1.602c0 0 .144-1.281-.785-1.938 0 0 .777 1.953.09 2.297 0 0 .257-.988-.137-1.066-.399-.078-1.118.281-1.114 1.047.004 1.222.5 1.261.5 1.261" style="stroke:none;fill-rule:nonzero;fill:#e0f2fd;fill-opacity:1"/><path d="M51.727 17.738s-1.778.66-1.133 3.028c0 0-.164-1.715 1.133-3.028" style="stroke:none;fill-rule:nonzero;fill:#5ec5f1;fill-opacity:1"/><path d="M51.809 18.762s-.926-.18-1.2.883l.16-.864s.31-.687 1.04-.02" style="stroke:none;fill-rule:nonzero;fill:#5ec5f1;fill-opacity:1"/><path d="M51.652 16.766s-1.804.097-2.011 2.62c0 0-.387-2.687 2.011-2.62" style="stroke:none;fill-rule:nonzero;fill:#f8b006;fill-opacity:1"/><path d="m52.016 16.688-1.149-.395s-.41.07-.547.258l.97.234ZM50.258 17.469l.129.453-.235-.192Zm0 0" style="stroke:none;fill-rule:nonzero;fill:#f8b006;fill-opacity:1"/><path d="M50.688 22.23s-1.083-.543-1.075-1.921c0 0-.164.777-.011 1.199l-.77-.278s.176.536 1.855 1" style="stroke:none;fill-rule:nonzero;fill:#cc7512;fill-opacity:1"/><path d="M49.473 21.773s-.996-.273-1.172-2.418c0 0 .328 1.625 1.203 2.141" style="stroke:none;fill-rule:nonzero;fill:#cc7512;fill-opacity:1"/><path d="M48.844 19.652s-.016 1.625.738 2.176" style="stroke:none;fill-rule:nonzero;fill:#cc7512;fill-opacity:1"/><path d="m52.773 21.742-.105.055q-.105.055-.293.121c-.242.09-.586.168-.914.098a1.3 1.3 0 0 1-.234-.078 1 1 0 0 1-.211-.118 2 2 0 0 1-.18-.14 2.552 2.552 0 0 1-.332-.402l-.066-.102.046.113a2 2 0 0 0 .157.281 1.473 1.473 0 0 0 .313.336c.066.051.144.102.226.137.078.039.168.066.258.086q.134.026.273.027c.086 0 .176-.011.258-.027.168-.031.312-.09.433-.149.239-.117.371-.238.371-.238" style="stroke:none;fill-rule:nonzero;fill:#f8b006;fill-opacity:1"/><path d="m49.7 16.434-4.805-1.54s-.844.102-1.16 1.118c0 0 .656-.801 1.222-.86l.434.145s-.672.168-.891.715c0 0 .723-.426 1.64-.367Zm0 0" style="stroke:none;fill-rule:nonzero;fill:#fcc420;fill-opacity:1"/><path d="M45.195 14.793s-.07-.98-.984-.531l-.059.8s.637-.406 1.043-.269" style="stroke:none;fill-rule:nonzero;fill:#e29202;fill-opacity:1"/><path d="M44.813 14.46s-.997-.058-1.782 1.837c0 0 .688-2.582 1.782-1.836" style="stroke:none;fill-rule:nonzero;fill:#f8b006;fill-opacity:1"/><path d="m48.145 20.738-4.625-1.804s-.368-1.704-.06-2.59l.532 1.347 4.125 1.391s-.254 1.277.117 1.7M42.434 16.883c-.051-.059-3.125-.84-3.125-.84s-.27-.578-.211-.914c0 0-.586 1.16.144 1.512l.149.07 2.953.945Zm0 0" style="stroke:none;fill-rule:nonzero;fill:#f7a706;fill-opacity:1"/><path d="M42.707 14.46s-.215 1.411-.723 1.216c-.507-.2-.734-1.012-.507-1.578 0 0-.536 1.199-1.215.96-.676-.238-.121-1.359-.051-1.601s2.496 1.004 2.496 1.004" style="stroke:none;fill-rule:nonzero;fill:#f9c3a6;fill-opacity:1"/><path d="M38.05 13.992s-.362.051-.491.555c0 0-.145.418-.012.64l.246.083s-.063.222-.336.175-.41-.332-.258-.98c.149-.652.524-.996.946-.793 0 0 .285.226.125.398Zm0 0" style="stroke:none;fill-rule:nonzero;fill:#e29202;fill-opacity:1"/><path d="M41.973 13.504s-.47.305-.535.707c0 0-.067-.945.535-.707" style="stroke:none;fill-rule:nonzero;fill:#caa189;fill-opacity:1"/><use xlink:href="#B" mask="url(#C)"/><path d="M40 13.824s-1.187.602-1.172 2.063c0 0-.394-1.469 1.172-2.063M43.652 15.832s-.754 1.344-.328 2.309c0 0-.773-.254.328-2.309M38.05 13.992s-.726.16-.413 1.223l-.09-.027s-.434-.856.504-1.196" style="stroke:none;fill-rule:nonzero;fill:#cc7512;fill-opacity:1"/><path d="M38.332 15.352c-.078.003-.645-.196-.645-.196l-.062-.578.762.29Zm0 0" style="stroke:none;fill-rule:nonzero;fill:#f7a706;fill-opacity:1"/><path d="M45.516 19.82s-1.094-2.105-2.32-2.355l-.055.488 1.668 1.598Zm0 0" style="stroke:none;fill-rule:nonzero;fill:#e29202;fill-opacity:1"/><path d="m43.066 17.45-.605-.141.094.347.648.36Zm0 0" style="stroke:none;fill-rule:nonzero;fill:#cc7512;fill-opacity:1"/><path d="M43.043 14.04s-.238.425-.246.612l-.098-.043s.02-.324.344-.57" style="stroke:none;fill-rule:nonzero;fill:#caa189;fill-opacity:1"/><use xlink:href="#D" mask="url(#E)"/><use xlink:href="#F" mask="url(#G)"/><path d="m37.113 20.227-.543 2.52.301.25.297-2.634" style="stroke:none;fill-rule:nonzero;fill:#caa189;fill-opacity:1"/><path d="M35.512 22.813s-.442-.622-1.067.98-.652.383-.652.383l-.86-2.305-.328-1.754s-.195-1.55-.156-1.805c.04-.25.172-.41.422-.53.25-.122.695.57.848.613.152.035 1.836 3.773 1.836 3.773" style="stroke:none;fill-rule:nonzero;fill:#8c2c13;fill-opacity:1"/><path d="m33.434 18.297 1.91 9.762s-1.196 2.382-8.332-.485l-.457-9.933 6.101-.305Zm0 0" style="stroke:none;fill-rule:nonzero;fill:#ededed;fill-opacity:1"/><path d="m28.754 19.95-.29 6.058-1.148-.965.543 2.805-.847-.274-.27-3.77Zm0 0" style="stroke:none;fill-rule:nonzero;fill:#dadada;fill-opacity:1"/><path d="m28.824 19.324-.629 5.54s-.027.476-.367.238l-2.562-2.758.562-7.227s.024-1.308 1.895-.37c1.867.929 1.101 4.577 1.101 4.577M33.02 16.457s2.382 3.086 3.296 5.172l-.726 1.883s-.153.453-.363-.164c-.207-.618-2.04-4.895-2.04-4.895Zm0 0" style="stroke:none;fill-rule:nonzero;fill:#d53d15;fill-opacity:1"/><path d="M28.672 20.652s-1.477-1.797-1.75-3.125l1.86 2.157Zm0 0" style="stroke:none;fill-rule:nonzero;fill:#8c2c13;fill-opacity:1"/><path d="M34.16 18.023s-.035 1.391-.414 1.739l-.16-.375s.437-1.047.574-1.364M26.367 20.746s.606.817.438 1.176c0 0-.196.547-.528.71l-.191.598-.14-.156.144-.875Zm0 0" style="stroke:none;fill-rule:nonzero;fill:#b13518;fill-opacity:1"/><path d="m26.926 19.559-.047.441 1.137.648.058-.496Zm-.176.503.082-.687 1.367.71-.086.755Zm0 0" style="stroke:none;fill-rule:nonzero;fill:#8c2c13;fill-opacity:1"/><path d="m28.793 22.055-.828-.446.07.75.684.336ZM28.625 23.516l-.836-.336-.082.734.832.395Zm0 0" style="stroke:none;fill-rule:nonzero;fill:#614a3f;fill-opacity:1"/><path d="m35.418 23.367.86-1.82S34.73 19 34.233 18.449l1.653 3.02ZM28.496 20.793c-.02.07-.031.145-.047.215q-.022.107-.039.215-.039.211-.066.43l.078-.048q-.27-.123-.543-.234l-.086-.035.008.086q.019.19.043.379.023.188.058.375.012-.19.012-.38.001-.19-.004-.382l-.074.055c.176.086.36.164.539.242l.074.027.008-.074q.019-.216.031-.434.001-.106.008-.218c0-.07.004-.145 0-.219" style="stroke:none;fill-rule:nonzero;fill:#cb501b;fill-opacity:1"/><path d="m32.531 21.035-.566.402s-.41 2.438-3.586 4.258l.613-.097 3.317-2.582.656-1.93Zm0 0" style="stroke:none;fill-rule:nonzero;fill:#b5b3b2;fill-opacity:1"/><path d="M28.29 22.645a1 1 0 0 0-.036.144l-.035.145-.047.289.07-.04a12 12 0 0 0-.539-.265l-.07-.031-.008.078c-.008.117-.02.238-.023.355q-.005.093-.004.18v.18c.02-.059.03-.117.043-.176.015-.055.027-.117.039-.176q.03-.175.054-.351l-.078.043c.18.09.36.18.543.257l.067.028.007-.07q.011-.147.016-.294v-.296M35.23 22.7l-1.351-2.677.105-.41ZM28.234 20.602c-.02.066-.03.136-.05.203-.012.066-.028.133-.04.203l.063-.031a8 8 0 0 0-.977-.547c-.054-.024-.113-.055-.168-.075q-.088-.04-.175-.074.075.06.152.114l.152.105q.159.1.317.195.321.194.66.352l.059.031.003-.062q.002-.101.004-.207c0-.067.004-.137 0-.207" style="stroke:none;fill-rule:nonzero;fill:#cb501b;fill-opacity:1"/><path d="M31.137 24.797s-1.73 1.922-3.77 2.105l-.449-1.394.082-.73.96.495.692.536Zm0 0" style="stroke:none;fill-rule:nonzero;fill:#dadada;fill-opacity:1"/><path d="M28.105 24.258c-.027.11-.046.222-.07.332q-.024.167-.055.332v.015c.004.012.004.032.004.047q-.002.011-.004.016s0-.008.012-.012c.024-.004.004-.004-.004-.011q-.016-.018-.039-.036c-.023-.027-.043-.058-.074-.09l-.078-.085q-.08-.089-.16-.176-.084-.084-.172-.168a8.713 8.713 0 0 0-.719-.617q.075.092.156.18.078.088.16.175l.325.34c.054.055.11.11.16.168.055.059.11.113.164.172l.082.086c.023.023.05.062.078.09a.3.3 0 0 0 .055.043c.012.007.02.015.035.023a.1.1 0 0 0 .062.004.08.08 0 0 0 .051-.055q.01-.024.008-.043c0-.027 0-.047-.008-.07v.016c.012-.114.016-.227.024-.336 0-.114.007-.227.007-.34" style="stroke:none;fill-rule:nonzero;fill:#cb501b;fill-opacity:1"/><path d="M33.672 20s-2.75 2.79-4.488 2.96c0 0 .793-.976-.512-2.308l.11-.968 4.366-.883.418.047Zm0 0" style="stroke:none;fill-rule:nonzero;fill:#b5b3b2;fill-opacity:1"/><path d="m34.855 27.207-1.257-6.98-.528.449.38 4.59.222-2.743Zm0 0" style="stroke:none;fill-rule:nonzero;fill:#fff;fill-opacity:1"/><path d="M33.918 18.414s.102 6.246-5.605 7.86l-.036-.528s4.414-1.965 4.41-6.363" style="stroke:none;fill-rule:nonzero;fill:#c57e65;fill-opacity:1"/><path d="M33.855 19.328s-.753 1.215-1.437 1.809l.187-1.02.368-.703.836-.617.117-.078Zm0 0" style="stroke:none;fill-rule:nonzero;fill:#95604d;fill-opacity:1"/><path d="M33.617 20.055q0 0-.015.078c-.008.05-.028.125-.047.219q-.03.145-.09.34a7 7 0 0 1-.137.43c-.05.16-.125.323-.195.5q-.058.132-.121.265c-.043.093-.082.183-.133.277-.047.09-.098.184-.145.277-.05.094-.109.184-.168.278-.105.191-.234.37-.363.55-.031.044-.058.09-.094.133l-.101.133-.203.254c-.067.09-.145.164-.215.242q-.11.119-.215.23c-.066.083-.148.145-.219.216-.07.066-.144.132-.21.199-.137.137-.286.238-.41.344q-.1.076-.188.148c-.028.023-.059.05-.086.07a1 1 0 0 1-.086.059q-.168.116-.29.2l-.25.175s.094-.059.262-.156l.305-.18c.117-.066.235-.164.371-.262.133-.105.285-.203.426-.332.145-.129.3-.254.45-.406q.106-.118.218-.23c.07-.083.152-.157.219-.247q.105-.124.21-.254l.106-.132q.052-.065.098-.137c.125-.184.254-.367.363-.559.055-.097.113-.187.164-.285l.14-.285c.052-.09.094-.187.134-.277.039-.094.074-.188.113-.274.062-.183.129-.351.176-.511q.036-.122.066-.23.029-.112.05-.212.048-.201.071-.344c.031-.195.04-.304.04-.304" style="stroke:none;fill-rule:nonzero;fill:#d98a6e;fill-opacity:1"/><path d="m24.977 17.523-3.497 2.73.43.52 2.3-1.41" style="stroke:none;fill-rule:nonzero;fill:#95604d;fill-opacity:1"/><path d="M31.992 28.54c-1.531-.032 0 0 0 0l.867.503.84-.137 1.184-.543.437-.86" style="stroke:none;fill-rule:nonzero;fill:#00769b;fill-opacity:1"/><path d="M28.316 26.273s-.464-.054-.902.336c-.441.391-2.203 3.211-6.281 2.012 0 0-2.735-.433-2.98-1.539-.25-1.105-1.18-4.082-1.18-4.082s.152-.055.359-.258c0 0-.531-.71 1.375-.562l-.316-.758s.808.476 1.554.32.258-1.957 1.563-1.738c1.308.219 1.547 2.055 3.168 3.066 1.625 1.008 2.422 2.563 3.601 2.676Zm0 0" style="stroke:none;fill-rule:nonzero;fill:#c57e65;fill-opacity:1"/><path d="M27.61 25.992s-.028-.008-.079-.008a1.632 1.632 0 0 0-1.02.313c-.14.105-.288.238-.406.41-.066.078-.113.172-.171.266q-.036.072-.07.144l-.036.078v.004l-.004.004c-.004.008.008-.015.004-.012l-.004.012-.008.016-.02.035c-.023.055-.046.082-.07.113-.019.031-.058.063-.085.094a1.5 1.5 0 0 1-.239.16c-.172.09-.375.149-.582.192q-.316.06-.64.078c-.215.007-.43.015-.637.011a26 26 0 0 1-.598-.027c-.187-.012-.37-.031-.539-.047a11 11 0 0 1-.8-.117l-.223-.047-.074-.023q0-.002.07.039c.047.027.113.062.207.101a6.985 6.985 0 0 0 1.941.43c.215.016.438.027.668.02.227-.008.461-.028.692-.075s.465-.117.68-.238c.109-.055.21-.133.3-.219.043-.05.086-.094.121-.148.04-.059.075-.121.094-.164l.031-.086.032-.067q.021-.069.05-.136c.043-.082.078-.168.13-.246.023-.04.046-.075.07-.114.027-.035.054-.066.078-.101.05-.07.113-.125.168-.184q.177-.157.355-.258a1.755 1.755 0 0 1 .535-.191c.051-.012.078-.012.078-.012M18.703 22.18l1.672 2.992.371.683-.531.434ZM17.332 22.738l.488 1.598-.636-1.445" style="stroke:none;fill-rule:nonzero;fill:#95604d;fill-opacity:1"/><path d="M27.633 25.79s-.031-.024-.094-.052a1.4 1.4 0 0 0-.273-.082 1.4 1.4 0 0 0-.41-.004.4.4 0 0 0-.114.024c-.039.008-.078.012-.117.027-.074.031-.152.059-.227.106-.03.02-.07.039-.105.062l-.094.082-.047.04q-.022.022-.039.046c-.027.031-.054.059-.078.094-.047.058-.078.129-.11.187-.034.063-.05.13-.066.184-.015.058-.03.11-.035.16q-.005.072-.004.125a1 1 0 0 0 0 .106s.028-.032.067-.086q.03-.04.066-.098c.02-.04.059-.074.09-.117.035-.04.062-.09.105-.13.043-.038.079-.089.125-.128.051-.04.09-.086.145-.121a1 1 0 0 0 .074-.055c.028-.02.059-.031.086-.047.05-.035.113-.058.168-.09q.093-.035.18-.066.087-.03.176-.055.086-.022.168-.039c.101-.023.195-.043.257-.054z" style="stroke:none;fill-rule:nonzero;fill:#ea9376;fill-opacity:1"/><path d="M21.938 20.492s-.043-.055-.137-.129a1 1 0 0 0-.18-.12.7.7 0 0 0-.293-.083.45.45 0 0 0-.195.04.3.3 0 0 0-.094.054.4.4 0 0 0-.078.074c-.098.117-.14.242-.184.363-.082.239-.152.48-.257.696-.051.11-.114.21-.18.297a.92.92 0 0 1-.52.316c-.097.023-.199.027-.293.035q-.14-.001-.257-.008c-.079-.007-.149-.02-.207-.023l-.18-.024s.055.036.16.094c.055.024.117.055.195.082q.06.025.125.043c.047.016.094.024.145.035a1.2 1.2 0 0 0 .738-.066 1 1 0 0 0 .352-.262c.101-.11.18-.238.242-.367.12-.258.18-.527.234-.762.031-.113.055-.226.094-.289a.26.26 0 0 1 .172-.125.7.7 0 0 1 .234.004c.074.016.14.04.192.055.109.039.172.07.172.07" style="stroke:none;fill-rule:nonzero;fill:#d98a6e;fill-opacity:1"/><path d="M19.863 22.094s-.8-.082-1.234-.387l1.457 2.676-.91-2.309Zm0 0" style="stroke:none;fill-rule:nonzero;fill:#d98a6e;fill-opacity:1"/><path d="m20.25 23.86-.121.14-1.383.23-.203-.617Zm0 0" style="stroke:none;fill-rule:nonzero;fill:#a3a0a0;fill-opacity:1"/><path d="m19.96 23.336-1.401.144.203.598 1.488-.219Zm0 0" style="stroke:none;fill-rule:nonzero;fill:#b5b3b2;fill-opacity:1"/><path d="m19.168 24.063.113-.032-.176-.617-.113.031Zm0 0" style="stroke:none;fill-rule:nonzero;fill:#a3a0a0;fill-opacity:1"/><path d="M19.91 23.39c-.031-.046-.71.055-.71.055l.144.47.02-.392ZM18.953 23.57l-.258.067-.066-.102.336-.058Zm0 0" style="stroke:none;fill-rule:nonzero;fill:#dadada;fill-opacity:1"/><path d="m20.129 24-.035.016-.293.125-1.055.09" style="stroke:none;fill-rule:nonzero;fill:#95604d;fill-opacity:1"/><path d="M29.637 34.816s.875 2.43.328 2.426c0 0-.442.2-.867-.965-.422-1.16-.77-2.359-.028-2.414.45-.031.664.89.664.89l.344-.183" style="stroke:none;fill-rule:nonzero;fill:#fff;fill-opacity:1"/><path d="M30.02 36.762s-.918-.387-1.125-2.032l.816.77.32 1.137" style="stroke:none;fill-rule:nonzero;fill:#dadada;fill-opacity:1"/><path d="M33.438 38.527s-1.247.578-2.961-1.246c-1.72-1.824-2.207-3.746-.735-3.047" style="stroke:none;fill-rule:nonzero;fill:#0090be;fill-opacity:1"/><path d="M48.121 32.836s.484-11.879-5.488-15.434c0 0-2.446-1.472-3.707.243 0 0-.867 1.238-1.871 5.832 0 0-1.266 6.199-5.012 5.101 0 0-3.477-.344-4.762-.914 0 0 .2 6.195 6.157 10.863 0 0 2.058-.398-1.438-6.804 0 0 3.598 1.039 5.574-.36 0 0-.906 3.457 1.188 9.07Zm0 0" style="stroke:none;fill-rule:nonzero;fill:#0090be;fill-opacity:1"/><path d="M37.574 31.363s.512-3.922.742-5.156c0 0 .133-2.242-.324-1.871 0 0-.176 8.371-5.824 6.418 0 0 .164.64-.172.969 0 0 3.336 1.058 5.578-.36M30.242 29.102s-2.355-.372-2.894-.778l2.46.422.547.113.094.114" style="stroke:none;fill-rule:nonzero;fill:#00769b;fill-opacity:1"/><path d="M32.234 28.637s-.695 1.015-4.949-.332l-.078-.59s2.145.988 4.57.793Zm0 0" style="stroke:none;fill-rule:nonzero;fill:#614a3f;fill-opacity:1"/><path d="M47.773 29.098c.016.086-1.168-9.614-5.816-11.774 0 0-2.031-.8-2.848.496 0 0 2.875-1.238 4.32 3.79 0 0 .126-1.618-.671-3.22 0 0 3.699 3.739 5.015 10.708" style="stroke:none;fill-rule:nonzero;fill:#05a4da;fill-opacity:1"/><path d="m29.77 28.355-.09.79-.418-.047-.028-.801" style="stroke:none;fill-rule:nonzero;fill:#0090be;fill-opacity:1"/><path d="M29.77 28.355c-.02.067-.032.13-.047.196a4 4 0 0 1-.04.195 7 7 0 0 0-.058.39l.063-.05-.418-.047.05.055q-.014-.2-.03-.399-.014-.1-.024-.199-.016-.1-.032-.2-.01.1-.015.2c-.008.067-.008.137-.012.203q-.005.2-.004.399l.004.047.047.007q.211.03.418.047l.058.008.004-.059q.019-.193.032-.394.002-.101.004-.195c0-.067.003-.137 0-.204" style="stroke:none;fill-rule:nonzero;fill:#009dd1;fill-opacity:1"/><path d="m32.406 28.61.067.609-1.633-.016s.308-.476.45-.488a72 72 0 0 0 1.116-.106" style="stroke:none;fill-rule:nonzero;fill:#00769b;fill-opacity:1"/><path d="M33.504 35.488s-.668-2.457-1.668-3.765l-1.688-.348 1.446.488-1.23 1.047 1.34-.676s1.534 2.246 1.8 3.254" style="stroke:none;fill-rule:nonzero;fill:#009dd1;fill-opacity:1"/><path d="M30.332 29.477c-.043.027-.457.363-.457.363l-.102.11-.37-.458s.074-.129.093-.11c.016.02.078.032.078.032l.477-.387s.293-.203.3-.187M38.066 23.758l-.078.086.086.082.078-.09ZM37.852 24.063l-.102.218.102.047.105-.215ZM37.664 24.512l-.066.23.101.031.07-.23ZM37.54 24.98l-.048.239.102.015.047-.234ZM37.457 25.457l-.027.238.093.012.032-.238ZM37.398 25.934l-.035.234.09.016.04-.239ZM37.324 26.402l-.043.239.082.015.047-.234ZM37.23 26.871l-.054.234.074.02.059-.234ZM37.113 27.336l-.066.23.07.02.07-.23ZM36.973 27.793l-.082.223.062.023.086-.223ZM36.8 28.238l-.097.219.059.027.101-.218ZM36.602 28.668l-.118.21.051.032.117-.21ZM36.363 29.082l-.133.2.043.03.137-.199ZM36.086 29.469l-.156.183.035.032.16-.18ZM35.766 29.824l-.18.16.027.028.18-.157ZM35.398 30.129l-.199.133.02.027.203-.129ZM34.992 30.375l-.219.102.012.027.219-.098ZM34.55 30.559l-.23.066.008.023.23-.062ZM34.086 30.672l-.238.031.004.02.238-.028ZM33.61 30.719h-.239v.015h.238ZM33.133 30.707l-.238-.023-.004.011.238.024ZM32.656 30.648l-.234-.046v.003l.234.051ZM32.176 30.543l-.114-.031.114.035ZM38.395 35.781c-.004-.293-.008-.578-.004-.867q.001-.438.015-.871l.012-.434.016-.437c.015-.29.023-.578.046-.867l.055-.867c.012-.149.028-.29.043-.434l.078-.867.055-.434.113-.863v-.008a39 39 0 0 0 .074-2.707c-.003-.453-.02-.902-.066-1.355a4.5 4.5 0 0 0-.113-.676c-.032-.11-.063-.223-.133-.328a.3.3 0 0 0-.16-.133c-.078-.028-.156.004-.211.035l.062.102c.086-.051.149-.024.203.062s.086.191.114.293c.05.215.074.438.093.66.036.442.04.89.036 1.34a38 38 0 0 1-.137 2.688l.004-.008-.133.863-.066.437-.047.434-.055.434c-.016.144-.035.293-.047.437l-.078.871c-.027.293-.043.582-.062.875l-.032.438-.02.437q-.023.435-.034.875c-.008.293-.016.586-.016.88ZM32.004 37.27l-.074-.09-.004.004ZM31.781 36.992l-.144-.187-.016.011.152.184ZM31.492 36.61l-.14-.192-.028.02.149.187ZM31.215 36.223l-.14-.196-.04.028.145.195ZM30.938 35.832l-.133-.2-.047.036.137.191ZM30.672 35.434l-.133-.2-.055.036.137.199ZM30.41 35.031l-.129-.199-.058.04.129.198ZM30.156 34.629l-.12-.207-.067.043.125.203ZM29.91 34.219l-.117-.207-.07.039.12.207ZM29.676 33.8l-.117-.206-.07.039.113.21ZM29.445 33.383l-.11-.211-.077.039.113.21ZM29.227 32.957l-.106-.215-.078.04.105.214ZM29.016 32.527l-.102-.215-.074.036.098.215ZM28.816 32.094l-.093-.219-.075.031.094.223ZM28.629 31.652l-.09-.222-.07.03.086.224ZM28.457 31.207l-.082-.223-.074.024.082.226ZM28.297 30.758l-.078-.227-.067.02.075.23ZM28.148 30.3l-.066-.23-.059.02.063.23ZM28.02 29.844l-.06-.235-.046.012.05.234ZM27.91 29.375l-.047-.234-.043.007.043.239ZM27.82 28.906l-.039-.238-.027.004.031.242ZM27.75 28.434l-.023-.239h-.012l.015.239ZM27.707 27.95l-.008-.118.004.117Zm0 0" style="stroke:none;fill-rule:nonzero;fill:#00769b;fill-opacity:1"/><path d="m28.078 27.941.063.922-.418-.18-.078-.882" style="stroke:none;fill-rule:nonzero;fill:#0090be;fill-opacity:1"/><path d="M28.078 27.941q-.004.113-.008.23c-.004.079 0 .157 0 .231q0 .236.012.465l.082-.055q-.208-.095-.418-.183l.035.047c-.02-.145-.035-.293-.058-.438-.012-.074-.02-.144-.035-.218s-.028-.145-.043-.22q-.005.113-.004.223-.001.112.004.223c.003.149.011.293.023.442v.03l.031.016q.209.093.418.18l.086.04-.008-.095a9 9 0 0 0-.047-.46c-.007-.075-.02-.153-.03-.231q-.018-.113-.04-.227" style="stroke:none;fill-rule:nonzero;fill:#009dd1;fill-opacity:1"/><path d="M30.828 29.168s-.539.379-.773.754l-.422-.375s.676-.738 1.023-.883c.348-.144.172.504.172.504" style="stroke:none;fill-rule:nonzero;fill:#614a3f;fill-opacity:1"/><path d="M32.324 29.04s-.176-.83-.21-.798c-.036.035-1.548.156-1.548.156l.297.88Zm0 0" style="stroke:none;fill-rule:nonzero;fill:#b5b3b2;fill-opacity:1"/><path d="M31.078 29.195s-.183.035-.168.016c.012-.023-.297-.863-.297-.863l1.563.05-1.27.192Zm0 0" style="stroke:none;fill-rule:nonzero;fill:#a3a0a0;fill-opacity:1"/><path d="M32.21 28.473a27 27 0 0 1 .333-1.098l-.621-.07s-1.617.062-1.703.082c-.082.023-.582.867.043.976.625.106 1.949.11 1.949.11" style="stroke:none;fill-rule:nonzero;fill:#ededed;fill-opacity:1"/><path d="m30.148 29.934-.503-.477-.09.125.484.473Zm0 0" style="stroke:none;fill-rule:nonzero;fill:#b5b3b2;fill-opacity:1"/><path d="m30.656 28.664-.43.3-.437-.054Zm0 0" style="stroke:none;fill-rule:nonzero;fill:#48352d;fill-opacity:1"/><path d="M48.254 32.844s-7.133-3.285-11.145 4.004c0 0-1.062 1.785.024 3.402l.633.695 5.09-3.355Zm0 0" style="stroke:none;fill-rule:nonzero;fill:#009dd1;fill-opacity:1"/><path d="M44.8 32.11s-4.112-.657-7.202 3.984l-.164-1.344s2.68-3.422 7.367-2.64M29.488 34.133s1.227 2.027 2.754 3.367c0 0-2.722-1.914-2.941-2.86 0 0-.27-.433.187-.507" style="stroke:none;fill-rule:nonzero;fill:#00769b;fill-opacity:1"/><path d="M47.629 32.984s-5.715-2.468-9.945 3.606c0 0 4.382-4.75 9.18-2.524Zm0 0" style="stroke:none;fill-rule:nonzero;fill:#05a4da;fill-opacity:1"/><path d="m41.07 32.008-3.008 1.062-.039-1.215.61.067.133-1.156-.61-.07.094-.821.605.07.141-1.215-.434-.046-.132-.391.636-.18.094-.828-.437-.047-.133-.386.629-.098-.02-.996-.738-.082.027-.242.903-.2-.25-.527-.594.211.031-.277 1.52-1.086-.512-.055-1.055.781-.125-.273.504-.32-.277-.297-.203.441-.133-.555s.418-.304.473-.316c.054-.016.949.105.949.105l.836.465-.051 1.328" style="stroke:none;fill-rule:nonzero;fill:#0090be;fill-opacity:1"/><path d="M32.148 30.887s.063.02-.101-.586l1.539-.399-1.043.664.957.11-1.215.226" style="stroke:none;fill-rule:nonzero;fill:#00769b;fill-opacity:1"/><path d="M31.695 29.516a4 4 0 0 1 .227.722l.023.121.02.121q.004.063.008.122.005.064.004.12c0 .04.003.083-.004.122l-.012.117-.027.113c-.004.04-.024.074-.036.11-.011.035-.023.074-.043.105l-.054.102.11-.055c-.122-.016-.243-.023-.368-.04l.102.118q.002-.116-.008-.227t-.028-.222a2.704 2.704 0 0 0-.266-.852l-.054-.097c-.02-.032-.043-.059-.062-.094-.024-.027-.043-.059-.07-.086l-.071-.082c.031.066.066.129.09.2.027.062.05.132.074.198q.016.053.031.102c.008.035.02.07.024.105.02.067.03.137.047.207a5 5 0 0 1 .066.844l-.004.102.106.015c.12.012.242.032.367.043l.078.008.031-.062.067-.125q.033-.062.054-.13c.012-.046.031-.09.035-.132q.017-.07.028-.14l.004-.137c.007-.043 0-.09-.004-.137a1 1 0 0 0-.012-.133c-.012-.043-.016-.09-.027-.129l-.032-.133c-.011-.039-.027-.082-.039-.125-.015-.039-.035-.078-.047-.12a1 1 0 0 0-.054-.118 2.3 2.3 0 0 0-.274-.441" style="stroke:none;fill-rule:nonzero;fill:#009dd1;fill-opacity:1"/><path d="M29.172 28.828c.035.008.039.32.039.32l-.176-.335ZM27.633 28.45l.035.23-.145-.305Zm0 0" style="stroke:none;fill-rule:nonzero;fill:#00769b;fill-opacity:1"/><path d="M33.215 38.04s-1.856-1.364-3.153-4.15c0 0 2.653 3.852 3.497 3.56 0 0 .39-.16.238-.903 0 0 .39 2.031-.582 1.492M39.117 29.035s.52-5.941-.855-5.422c0 0 2.023-3.476.855 5.422M34.293 28.516s-1.094.55-1.64.418c-.051-.016.038.023 0 0l-.09.464-.872-.027s.707.574 2.172.012c0 0-.922.144-1.129-.13 0 0 1.153-.25 1.559-.737M28.848 29.105s.593.97-.172 1.5c0 0 1.207-.515.172-1.5" style="stroke:none;fill-rule:nonzero;fill:#009dd1;fill-opacity:1"/><path d="M28.207 30.61c.66-.297.582-1.157.527-1.462.125.239.633 1.364-.55 1.54Zm0 0" style="stroke:none;fill-rule:nonzero;fill:#00769b;fill-opacity:1"/><path d="m29.172 28.828.023-.476-.105-.036ZM27.633 27.887v.531l-.149-.55Zm0 0" style="stroke:none;fill-rule:nonzero;fill:#48352d;fill-opacity:1"/><path d="M29.617 34.336s-.726-.184-.656.781l-.121-.394s-.266-.84.531-.727c.8.117.035.004.035.004Zm0 0" style="stroke:none;fill-rule:nonzero;fill:#009dd1;fill-opacity:1"/><path d="M29.543 34.324s-.605-.058-.605.719c0 0 .085-.453.582-.512Zm0 0" style="stroke:none;fill-rule:nonzero;fill:#00769b;fill-opacity:1"/><path d="m29.617 34.336-.246-.34-.316.016.164.394s-.121-.148.398-.07" style="stroke:none;fill-rule:nonzero;fill:#0090be;fill-opacity:1"/><path d="m32.117 28.578.117.395-1.082.187.934-.293Zm0 0" style="stroke:none;fill-rule:nonzero;fill:#dadada;fill-opacity:1"/><path d="m30.656 28.664-.09.082.172.45.09-.028Zm0 0" style="stroke:none;fill-rule:nonzero;fill:#48352d;fill-opacity:1"/><path d="m30.035 29.941.04-.039-.384-.382-.043.039Zm0 0" style="stroke:none;fill-rule:nonzero;fill:#dadada;fill-opacity:1"/><path d="m26.883 17.445-2.586 15.52-5.578-4.426 6.285-12.758s1.816-1.793 2.398-.101c.586 1.691-.59 1.629-.59 1.629" style="stroke:none;fill-rule:nonzero;fill:#f9c3a6;fill-opacity:1"/><path d="m26.313 20.984-3.122-2.066 1.618-3.117s1.437-2.434 2.652-.09c.867 1.676-.64 1.695-.64 1.695l.077.14Zm0 0" style="stroke:none;fill-rule:nonzero;fill:#ededed;fill-opacity:1"/><path d="M26.016 22.426s-.97-3.36-2.86-2.899l-.34.696s-.574-1.86.43-2.004c1.004-.145 2.965 1.648 3.254 3.035l.086.55s-.18.708-.57.622" style="stroke:none;fill-rule:nonzero;fill:#ededed;fill-opacity:1"/><path d="M26.148 20.398s-.972-1.793-2.53-2.136c0 0 .96-2.035 1.386-2.48l-.656 2.37s.922-.043 1.8 2.246" style="stroke:none;fill-rule:nonzero;fill:#dadada;fill-opacity:1"/><path d="M26.863 14.95s-.883-.696-1.738.616c0 0 .773-.734 1.738-.617M26.262 21.688s-1.446-2.907-3-2.391c0 0 1.234-1.133 3 2.39" style="stroke:none;fill-rule:nonzero;fill:#fff;fill-opacity:1"/><path d="M26.016 22.426s-.926-3.117-2.86-2.899c0 0 2.012-.668 2.86 2.899M27 15.082s-1.46 1.402-.117 2.363c1.344.961 0 0 0 0l.262-1.422.082-.699Zm0 0" style="stroke:none;fill-rule:nonzero;fill:#dadada;fill-opacity:1"/><path d="M25.941 22.566s-.832-3.296-2.828-2.945l-2.308 4.688 2.601-4.09s1.367-.188 2.535 2.347" style="stroke:none;fill-rule:nonzero;fill:#caa189;fill-opacity:1"/><use xlink:href="#H" mask="url(#I)"/><path d="m32.945 15.625.211.023s2.371 1.325-.02 4.45c-1.343 1.75-3.34 3.312-3.34 3.312s.356-1.746-.28-2.45c-2.137-2.366-2.633-3.515-2.633-3.515s-.832-1.347.527-2.68c1.36-1.335 5.406.844 5.406.844" style="stroke:none;fill-rule:nonzero;fill:#55685b;fill-opacity:1"/><path d="M31.676 16.191s-.235.762-1.496.508-1.29-.765-1.29-.765 2.051.578 2.786.257" style="stroke:none;fill-rule:nonzero;fill:#b6927d;fill-opacity:1"/><path d="M27.21 14.98s.313 2.922 4.08 3.125c0 0-2.075-1.246-2.38-2.101" style="stroke:none;fill-rule:nonzero;fill:#3c5347;fill-opacity:1"/><path d="M32.86 15.914s-.27 1.066-1.91 1.293c0 0 1.206-.691 1-1.305" style="stroke:none;fill-rule:nonzero;fill:#32483d;fill-opacity:1"/><path d="M33.254 15.957s2.516 1.828-2.441 6.324c0 0 3.125-3.195 2.519-5.082 0 0-1.156.973-2.687.164 0 0 2.144.184 2.609-1.406" style="stroke:none;fill-rule:nonzero;fill:#5a7b6b;fill-opacity:1"/><path d="M32.594 18.266s-3.082 1.226-5.121-1.825c0 0 2.527 5.489 5.12 1.825" style="stroke:none;fill-rule:nonzero;fill:#5a7b6b;fill-opacity:1"/><path d="M30.594 19.71s-3.137-.714-3.367-4.386c0 0-.61.766-.106 2.02.469 1.176 1.54 2.113 3.473 2.367" style="stroke:none;fill-rule:nonzero;fill:#3c5347;fill-opacity:1"/><path d="M32.344 19.246s-1.414 1.895-2.903.531c0 0 1.895 3.016 2.903-.53" style="stroke:none;fill-rule:nonzero;fill:#5a7b6b;fill-opacity:1"/><path d="M36.98 11.352s-2.093 5.437-6.675 4.918c-5.364-.606-5.996-7.278-5.996-7.278s-3.004-6.14 4.027-4.773c3.527.687 6.605 1.246 8.402 2.289.418.242-.664 1.488-.394 1.793.332.37 1.976-.176 2.047.32.113.813-.668 1.492-1.41 2.73" style="stroke:none;fill-rule:nonzero;fill:#f9c3a6;fill-opacity:1"/><path d="M36.98 11.352s-2.093 5.437-6.675 4.918c-5.364-.606-5.996-7.278-5.996-7.278s-3.004-6.14 4.027-4.773c3.527.687 6.605 1.246 8.402 2.289.418.242-.664 1.488-.394 1.793.332.37 1.976-.176 2.047.32.113.813-.668 1.492-1.41 2.73" style="stroke:none;fill-rule:nonzero;fill:#f9c3a6;fill-opacity:1"/><path d="M37.652 9.484s-.453.329-1.425 1.45c-1.079 1.238-5.922 5.336-10.73-2.102" style="stroke:none;fill-rule:nonzero;fill:#caa189;fill-opacity:1"/><path d="M25.898 13.477c.262-.23.618-.356.993-.313a1.295 1.295 0 0 1 .804 2.164 6.5 6.5 0 0 1-1.797-1.851" style="stroke:none;fill-rule:nonzero;fill:#f6b19e;fill-opacity:1"/><path d="M37.664 13.309c-.488.57-1.262.714-1.723.316-.464-.395-.445-1.18.043-1.75.489-.574 1.262-.715 1.723-.32.465.398.445 1.18-.043 1.754M23.527 11.848c-.453-.602-.422-1.383.063-1.75.488-.368 1.25-.176 1.7.425.452.602.425 1.387-.063 1.754-.489.364-1.25.172-1.7-.43" style="stroke:none;fill-rule:nonzero;fill:#f9c3a6;fill-opacity:1"/><path d="M23.883 11.02v-.032q.001-.03.008-.082a.2.2 0 0 1 .058-.09.14.14 0 0 1 .113-.011.25.25 0 0 1 .114.09c.02.027.027.043.043.082.008.03.015.05.015.07-.004.015-.004.02-.02.039-.015.016-.042.035-.073.062a.57.57 0 0 0-.188.239.44.44 0 0 0 .027.332.55.55 0 0 0 .196.215.46.46 0 0 0 .262.086c.027 0 .093 0 .136-.024a.2.2 0 0 0 .106-.113c.027-.098-.016-.164-.047-.211a.3.3 0 0 0-.11-.094.3.3 0 0 0-.085-.031c-.02 0-.032-.004-.032-.004l.028.016c.015.011.039.03.062.054a.4.4 0 0 1 .059.102c.011.043.015.098-.004.117-.008.012-.016.012-.031.016-.02.004-.028 0-.07-.004a.34.34 0 0 1-.15-.078.4.4 0 0 1-.113-.145.2.2 0 0 1-.011-.152c.015-.051.054-.094.117-.149.027-.027.062-.058.098-.105a.27.27 0 0 0 .05-.184.4.4 0 0 0-.054-.148.4.4 0 0 0-.078-.102.38.38 0 0 0-.227-.11.22.22 0 0 0-.2.087.2.2 0 0 0-.034.148.414.414 0 0 0 .035.113M36.523 12.969q.002 0-.027.011c-.02.008-.05.02-.082.047a.26.26 0 0 0-.078.133.25.25 0 0 0 .062.211c.055.063.141.102.23.11l.063.003q.034.001.075-.004a.35.35 0 0 0 .148-.054.4.4 0 0 0 .16-.29.9.9 0 0 0-.027-.288c-.024-.098-.05-.172-.07-.243-.016-.07-.02-.128 0-.16.011-.015.023-.035.046-.05l.012-.004.004-.004c-.02.008-.008.004-.012.004h.004l.004-.004.024-.008.015-.008h.004q.001.001.008-.004c.035-.004.082.02.117.055a.36.36 0 0 1 .102.25c-.004.031-.008.062-.016.078l-.016.027q0 .002.024-.02a.2.2 0 0 0 .055-.077.402.402 0 0 0-.04-.336.28.28 0 0 0-.226-.153q-.023-.001-.047.004l-.023.004H37l-.027.012h-.004l-.012.004-.008.004-.02.008a.35.35 0 0 0-.124.105.34.34 0 0 0-.059.164c-.008.059 0 .106.008.152.016.094.047.184.062.254.02.07.032.153.028.22 0 .066-.02.108-.047.136-.02.015-.043.023-.07.035-.012.004-.028.004-.04.008-.015.004-.035.004-.05.004a.25.25 0 0 1-.149-.032.16.16 0 0 1-.062-.105.16.16 0 0 1 .027-.11.16.16 0 0 1 .05-.066z" style="stroke:none;fill-rule:nonzero;fill:#b6927d;fill-opacity:1"/><path d="M35.703 12.066s-.336-.804-1.082-.582c-.75.227 1.524 1.094 1.082.582M26.938 10.406s-.668-.215-.86.344c-.187.559 1.39-.34.86-.344" style="stroke:none;fill-rule:nonzero;fill:#95604d;fill-opacity:1"/><path d="M34.047 14.094a1.3 1.3 0 0 1 .836.43c-.598.597-1.332 1.136-2.203 1.46a1.27 1.27 0 0 1-.117-.707 1.34 1.34 0 0 1 1.484-1.183" style="stroke:none;fill-rule:nonzero;fill:#f6b19e;fill-opacity:1"/><path d="M32.61 13.86a.12.12 0 0 0 .097.128.117.117 0 0 0 .125-.105c.008-.063-.039-.121-.098-.125a.11.11 0 0 0-.125.101" style="stroke:none;fill-rule:nonzero;fill:#c57e65;fill-opacity:1"/><path d="m35.434 11.684-.446.34c-.394-.18-.726-.43-.37-.54a.8.8 0 0 1 .816.2" style="stroke:none;fill-rule:nonzero;fill:#6a4435;fill-opacity:1"/><path d="M37.68 11.395s2.855.671 3.02-.77c0 0 .612-1.215-.993-1.453-1.605-.235-2.297-.211-2.297-.211Zm0 0" style="stroke:none;fill-rule:nonzero;fill:#8c2c13;fill-opacity:1"/><path d="M32.145 13.3c-.008.044.035.083.09.087.054.008.1-.02.105-.063s-.035-.082-.09-.086c-.055-.008-.102.024-.105.063M31.973 13.902c-.008.063.02.118.066.121.043.004.086-.043.09-.105.008-.063-.024-.117-.066-.121s-.086.043-.09.105" style="stroke:none;fill-rule:nonzero;fill:#c57e65;fill-opacity:1"/><path d="M26.621 10.367c.172-.004.317.04.317.04.195.003.105.12-.075.245Zm0 0" style="stroke:none;fill-rule:nonzero;fill:#6a4435;fill-opacity:1"/><path d="M28.422 12.34c-.008.066.035.125.094.133.062.004.113-.043.12-.11.009-.062-.034-.12-.093-.129-.059-.007-.113.043-.121.106M28.934 13.05a.155.155 0 0 0 .136.173c.082.007.16-.051.168-.137a.154.154 0 0 0-.133-.172.16.16 0 0 0-.171.137M28.203 13.105c-.008.075.04.141.102.149.066.008.129-.047.136-.121s-.039-.14-.105-.149c-.066-.007-.125.047-.133.121" style="stroke:none;fill-rule:nonzero;fill:#c57e65;fill-opacity:1"/><path d="M37.629 9.414s1.012 2.922-.98 3.352c0 0-.606-.145.25-2.07 0 0-.805.878-1.172 1.007 0 0 .113-1.21.171-1.535s.91-1.313.91-1.313.579.157.696.079c.121-.075.125.48.125.48M25.297 8.645c.527.25.844 1.097.797 1.632-.07.805-.828-.187-1.082-.355-.012.324.273.68.293 1.039.03.652-.52.297-.805-.004-.418-.445-1.102-1.277-.645-2.07.536-.04.926-.153 1.485-.086" style="stroke:none;fill-rule:nonzero;fill:#95604d;fill-opacity:1"/><path d="M37.508 8.547s.984-1.668 1.558-2.461c.579-.797 1.5-1.285-.214-2.574-1.403-1.063-4.532-2.442-6.508-2.43 0 0-5.137-1.883-8.551.785 0 0-1.39 1.403-1.008 2.52.902 2.625.89 3.73.969 4.668 0 0 .156-.059 1.738-.192 1.582-.129 5.211 1.078 5.211 1.078l2.004-.16 1.707-.047 3.363-1.187" style="stroke:none;fill-rule:nonzero;fill:#b13518;fill-opacity:1"/><path d="M37.313 8.316s1.175-2.207 1.617-2.93c.437-.722 1.261-2.437-6.336-3.566C24.25.582 25.96 4.566 26.039 5.14c.164 1.266.043 3.727.043 3.727s8.273 1 8.352.836c.078-.164 2.879-1.387 2.879-1.387" style="stroke:none;fill-rule:nonzero;fill:#ededed;fill-opacity:1"/><path d="M34.703 5.652s-.781-.28-1.004.184l-.148 1.3-1.305-.222-.144 1.285s1.066-.07 1.238 0c.176.07.129.594.129.594l1.246-.063Zm0 0" style="stroke:none;fill-rule:nonzero;fill:#b5b3b2;fill-opacity:1"/><path d="M34.855 5.672s-.726.074-.94.344c-.118.144-.423 2.851.233 2.89.657.035.707-3.234.707-3.234" style="stroke:none;fill-rule:nonzero;fill:#614a3f;fill-opacity:1"/><path d="m37.383 7.64 1.441-2.503s1.727-2.82-9.941-3.395c0 0 7.707 1.383 8.933 2.696 0 0-4.691-1.481-6.66-.981 0 0 4.989 1.066 6.164 1.957l-.93 2.402Zm0 0" style="stroke:none;fill-rule:nonzero;fill:#fff;fill-opacity:1"/><path d="m36.902 8.352.164-.313h-.004ZM37.234 7.727l.164-.309-.011-.008-.16.313ZM37.566 7.105l.168-.312-.02-.012-.163.313ZM37.906 6.484l.168-.308-.027-.016-.168.309ZM38.25 5.867l.176-.308-.04-.02-.171.309ZM38.59 5.242l.055-.168.03-.18-.05-.003s-.016.082-.027.168l-.055.168ZM38.645 4.531l-.02-.05c-.008-.016-.012-.032-.02-.051-.011-.02-.015-.043-.027-.063-.043-.078-.09-.156-.09-.156l-.05.031.085.149c.012.02.016.039.028.058.008.02.011.04.02.055l.019.05ZM38.25 3.938l-.273-.223-.04.047.274.222ZM37.672 3.523l-.313-.164-.03.059.312.164ZM37.035 3.215l-.332-.13-.023.063.328.13ZM36.371 2.969l-.34-.11-.02.07.337.106ZM35.691 2.762l-.343-.09-.02.074.344.09ZM35.004 2.586l-.344-.078-.02.078.348.078ZM34.313 2.438l-.344-.07-.02.081.348.067ZM33.617 2.3l-.347-.058-.012.082.347.063ZM32.922 2.184l-.352-.055-.011.086.347.055ZM32.219 2.078l-.352-.047-.012.094.352.043ZM31.516 1.992l-.352-.031-.012.094.356.03ZM30.809 1.934l-.356-.02-.004.102.352.015ZM30.098 1.906h-.356l.004.106.352-.004ZM29.387 1.922l-.356.027.012.11.352-.032ZM28.676 1.996l-.348.063.02.109.347-.066ZM27.977 2.152l-.332.118.039.105.332-.117ZM27.316 2.426s-.078.047-.152.094c-.074.05-.148.105-.148.105l.07.09s.066-.05.137-.098c.078-.047.152-.094.152-.094ZM26.746 2.875s-.055.066-.11.137c-.054.078-.1.156-.1.156l.097.059.094-.141c.054-.07.109-.137.109-.137ZM26.383 3.504s-.024.082-.047.168l-.04.18.114.02.031-.169c.028-.086.051-.168.051-.168ZM26.273 4.219l.024.351.11-.008-.024-.351ZM26.352 4.926l.082.347.101-.023-.078-.344ZM26.477 5.617l.027.352.101-.008-.023-.352ZM26.516 6.316l.007.356.102-.004-.008-.352ZM26.527 7.023v.356h.098v-.356ZM26.523 7.73l-.007.352.093.004.008-.352ZM26.504 8.438l-.012.351.09.004.016-.352ZM26.75 8.988l.352.043.011-.086-.351-.043ZM27.453 9.07l.352.04.008-.079-.352-.043ZM28.156 9.152l.352.04.008-.079-.352-.043ZM28.86 9.23l.35.043.009-.078-.352-.039ZM29.563 9.309l.351.039.008-.07-.352-.044ZM30.266 9.387l.351.039.008-.07-.352-.04ZM30.969 9.46l.351.04.008-.066-.351-.04ZM31.672 9.535l.351.035.008-.062-.351-.035ZM32.375 9.605l.355.036.004-.063-.351-.035ZM33.082 9.668l.355.027.004-.05-.355-.032ZM33.79 9.719l.355.008v-.043l-.356-.012ZM34.457 9.559l.309-.168-.016-.032-.312.168ZM35.082 9.227l.316-.157-.011-.02-.317.153ZM35.715 8.914l.32-.152-.008-.012-.32.148ZM36.352 8.61l.32-.15v-.003l-.324.145Zm0 0" style="stroke:none;fill-rule:nonzero;fill:#dadada;fill-opacity:1"/><path d="M38.125 8.488s.75-.68.828-1.175c.074-.493-.742-1.184-2.195-1.653-1.45-.469-2.305-.223-2.414.387-.11.613-.29 2.582-.29 2.582s.044.328.395.41c.352.078 2.52-.148 2.52-.148Zm0 0" style="stroke:none;fill-rule:nonzero;fill:#c57e65;fill-opacity:1"/><path d="M34.426 5.832s-.254.234-.285.707l-.211 1.856s0 .375.347.57c.348.2.43-.172.43-.172s-.402.082-.367-.418l-.078-.473Zm0 0" style="stroke:none;fill-rule:nonzero;fill:#95604d;fill-opacity:1"/><path d="M35.758 11.371c.039-.383.105-.988.14-1.203.059-.324.91-1.313.91-1.313s.579.157.696.082c.121-.078.125.477.125.477s.203.59.25 1.281c-.207-.113-.977-.402-2.106.7Zm0 0" style="stroke:none;fill-rule:nonzero;fill:#6a4435;fill-opacity:1"/><path d="M38.031 7.68s.465-.457.078-.696c-.39-.234-1.71-.765-2.27-.648 0 0-.679.031-.765.785l-.148 1.32s.097.407.699.493 1.688-.164 1.688-.164Zm0 0" style="stroke:none;fill-rule:nonzero;fill:#bce3fa;fill-opacity:1"/><path d="M36.207 6.332c.64.07 1.582.461 1.902.652.387.239-.078.696-.078.696l-.66.996-.148-.074.636-1.165s.461-.406-1.652-1.105" style="stroke:none;fill-rule:nonzero;fill:#95604d;fill-opacity:1"/><path d="M35.957 7.637s-.441-.008-.605.05l-.137-.878-.184 1.605 1.332-.105s-.804.046-.894-.211c-.086-.262.414-.391.414-.391" style="stroke:none;fill-rule:nonzero;fill:#5ec5f1;fill-opacity:1"/><path d="M38.227 11.457s1.925.473 2.066-.559c.145-1.03-1.082-1.507-1.672-1.511-.59 0-1.566-.004-2.437 1.152 0 0-1.395 1.887-4.008 1.852-2.614-.04-5.992-1.703-6.68-3.559 0 0 .547-.27 3.027.203 2.485.473 4.582-.492 7.72-.922 3.132-.43 4.589.57 4.8 1.485.21.914-.11 2.379-2.816 1.859" style="stroke:none;fill-rule:nonzero;fill:#d53d15;fill-opacity:1"/><path d="M33.777 8.566s-1.289.657-2.086 1.032c-1.543.718-4.308 1.804-6.148-.696l-.047-.07c.426-.07 1.242-.168 3.031.195 1.602.328 3.645-.039 5.25-.46" style="stroke:none;fill-rule:nonzero;fill:#b13518;fill-opacity:1"/><path d="M25.691 9.246s-1.632-.11-1.933-.223l1.738-.191s.133.309.195.414" style="stroke:none;fill-rule:nonzero;fill:#6a4435;fill-opacity:1"/><path d="M29.676 11.781c.254.137.523.242.797.332q.416.137.843.215.434.076.88.078.222 0 .445-.023c.148-.012.304-.051.437-.078a5.4 5.4 0 0 0 .852-.258c.273-.113.543-.246.797-.402.253-.153.496-.336.714-.54a4 4 0 0 0 .317-.32c.101-.113.195-.223.285-.367l-.016.023c.043-.054.102-.12.157-.18q.088-.088.175-.171.182-.165.383-.313.199-.145.414-.261c.074-.036.145-.075.223-.106q.11-.048.226-.086a2 2 0 0 1 .239-.066q.119-.03.238-.043c.043-.008.082-.008.125-.012.04 0 .082-.008.121-.004l.125-.004.125.012c.082.004.164.02.25.035.082.016.164.031.246.059.082.023.16.054.242.086.082.027.157.066.239.101-.07-.05-.14-.105-.215-.152a2 2 0 0 0-.23-.129c-.079-.043-.16-.074-.243-.105a1.6 1.6 0 0 0-.258-.075l-.132-.03-.137-.02a2.206 2.206 0 0 0-.547.004c-.09.011-.18.023-.27.046-.09.016-.175.043-.265.07a3 3 0 0 0-.254.098q-.251.113-.484.254a4 4 0 0 0-.438.324 9 9 0 0 0-.207.18c-.066.067-.125.125-.195.203l-.016.024a3 3 0 0 1-.246.3c-.09.098-.188.192-.285.282-.207.18-.426.34-.653.488a5 5 0 0 1-.726.379q-.187.082-.379.152a5 5 0 0 1-.39.121c-.141.04-.266.07-.4.094q-.2.042-.405.055-.41.033-.832.008a9 9 0 0 1-1.672-.278" style="stroke:none;fill-rule:nonzero;fill:#cb501b;fill-opacity:1"/><path d="m26.102 8.387.367.039.05-.461-.41.133Zm0 0" style="stroke:none;fill-rule:nonzero;fill:#b5b3b2;fill-opacity:1"/><path d="M25.922 8.762s.015.043.031.082l.031.086.004-.004s-.02-.04-.035-.082zM26.164 9.238s.05.075.106.149l.113.136.004-.003s-.055-.07-.114-.141c-.054-.07-.105-.14-.105-.14ZM26.625 9.785l.133.125.133.117.011-.011s-.066-.059-.136-.118l-.13-.12ZM27.172 10.254l.289.21.016-.019-.293-.207ZM27.762 10.66l.308.184.016-.024-.309-.183ZM28.387 11.016l.324.16.016-.035-.325-.153ZM29.04 11.32l.331.137.016-.039-.332-.133ZM29.71 11.578l.34.11.016-.047-.343-.106ZM30.398 11.785l.352.082.012-.058-.348-.079ZM31.105 11.93l.356.05.008-.062-.356-.047ZM31.82 12.008s.09.004.184.004h.18l-.004-.07s-.09.003-.176.003c-.09 0-.18-.004-.18-.004ZM32.543 11.988l.18-.02.18-.03-.016-.075s-.086.016-.176.028l-.176.027ZM33.254 11.86s.09-.028.172-.051c.09-.032.176-.059.176-.059l-.032-.078-.164.055c-.09.027-.172.054-.172.054ZM33.938 11.617l.164-.078.16-.082-.043-.082s-.078.043-.157.082l-.164.078ZM34.574 11.273l.149-.101c.074-.05.148-.106.148-.106l-.059-.078s-.07.051-.144.102c-.07.05-.148.101-.148.101ZM35.156 10.84l.266-.242-.07-.075-.262.243ZM35.68 10.34l.234-.27-.078-.066-.234.27ZM36.145 9.797s.062-.067.125-.129l.128-.121-.074-.082s-.066.066-.133.129c-.062.066-.125.129-.125.129ZM36.672 9.332s.078-.047.152-.098c.074-.043.153-.082.153-.082l-.055-.101s-.078.047-.16.09l-.149.097ZM37.293 9.008s.086-.031.172-.059c.082-.023.168-.043.168-.043l-.028-.113-.18.047c-.081.031-.167.058-.167.058ZM37.977 8.844s.09-.004.18-.012h.171l.004-.113h-.184c-.09.004-.18.011-.18.011ZM38.676 8.863s.09.02.176.035c.086.024.171.043.171.043l.028-.105-.176-.047c-.09-.02-.176-.035-.176-.035ZM39.352 9.059s.082.039.164.074c.078.043.156.082.156.082l.05-.094-.163-.086c-.082-.035-.16-.074-.16-.074ZM39.969 9.398s.074.051.144.106q.054.047.09.082c.024.02.04.031.04.031l.07-.066-.137-.125-.145-.11ZM40.465 9.887s.008.02.023.047c.02.03.035.07.051.105l.023.063q.012.029.012.05l.012.055.07-.012-.011-.058a.2.2 0 0 0-.012-.059c-.008-.02-.012-.043-.02-.062-.02-.047-.035-.09-.05-.118l-.028-.05ZM40.574 10.547s-.004.023-.015.055c-.008.035-.024.074-.04.113-.03.082-.078.16-.078.16l.032.016s.047-.075.09-.157c.015-.043.039-.086.046-.117l.02-.05ZM40.23 11.16l-.062.063c-.027.035-.063.062-.063.062s.036-.027.067-.058c.035-.028.066-.059.066-.059Zm0 0" style="stroke:none;fill-rule:nonzero;fill:#b13518;fill-opacity:1"/><path d="M31.559 9.488s-2.106.793-3.403.508c0 0-1.949-.293-1.89-1.238 0 0 .289.074.46.02 1.079-.337 4.684.363 4.684.363Zm0 0" style="stroke:none;fill-rule:nonzero;fill:#8c2c13;fill-opacity:1"/><path d="m32.195 1.152-.347-.07v.012ZM31.5 1.02l-.348-.055-.004.035.348.043ZM30.8.918l-.35-.043-.005.059.352.03ZM30.098.844 29.742.82l-.004.067.356.02ZM29.39.8l-.355-.007v.082h.352ZM28.68.793l-.352.012.004.093.352-.015ZM27.969.824l-.352.04.012.1.351-.038ZM27.266.914l-.352.063.023.105.348-.066ZM26.566 1.063l-.336.105.032.105.336-.109ZM25.89 1.297l-.32.156.051.102.32-.157ZM25.262 1.645l-.278.218.075.09.273-.219ZM24.73 2.125l-.109.14-.101.153.093.059s.051-.07.098-.141l.11-.137ZM24.352 2.742l-.118.336.106.035.117-.332ZM24.152 3.43s0 .023-.007.054c-.004.036-.012.079-.016.121l-.016.184.106.004.015-.172c.004-.043.012-.086.016-.121.008-.031.012-.055.012-.055ZM24.133 4.152s.015.086.027.172l.047.18.098-.031s-.024-.082-.043-.164c-.016-.086-.028-.176-.028-.176ZM24.293 4.84l.066.348.09-.016-.058-.348ZM24.414 5.535l.05.348.079-.008-.043-.352ZM24.504 6.234l.039.352.066-.008-.03-.351ZM24.574 6.938l.024.351.054-.004-.02-.351ZM24.617 7.64l.008.356h.031l.004-.355ZM24.621 8.348l-.031.351h.012l.039-.347Zm0 0" style="stroke:none;fill-rule:nonzero;fill:#d53d15;fill-opacity:1"/><path d="M27.46 4.867s-.25-.437-.702-.195c0 0-.223.101-.332.34-.11.238-.61 3.105.27 4.023 0 0 .19.211.265.258.457.277.644.156.644.156l-.156-.523Zm0 0" style="stroke:none;fill-rule:nonzero;fill:#614a3f;fill-opacity:1"/><path d="M31.785.813c-.027.226.152.43.399.457.242.027.46-.133.488-.36s-.152-.43-.399-.46c-.242-.028-.464.136-.488.363" style="stroke:none;fill-rule:nonzero;fill:#b13518;fill-opacity:1"/><path d="m25.633 8.156.347-.047.016.114-.348.05Zm-.703.102.351-.051.016.117-.348.051Zm-.7.097.352-.046.016.117-.352.047Zm-.433.063.082-.012.02.117-.087.012Zm0 0" style="stroke:none;fill-rule:nonzero;fill:#d53d15;fill-opacity:1"/><path d="M40.91 10.64s.012-.035.024-.105c.011-.07.03-.176.03-.312a1.9 1.9 0 0 0-.062-.493 1.8 1.8 0 0 0-.27-.597 2.1 2.1 0 0 0-.558-.555 2.8 2.8 0 0 0-.789-.367q-.434-.136-.902-.18c-.153-.015-.309-.02-.465-.027q-.239-.002-.465.008c-.308.011-.617.035-.918.07a15 15 0 0 0-1.687.313 10 10 0 0 0-.715.203c-.219.07-.418.136-.594.207-.172.066-.324.125-.445.18-.246.109-.383.175-.383.175s.152-.027.41-.086c.129-.031.29-.058.469-.097.18-.04.387-.07.61-.118.109-.023.226-.039.347-.058q.176-.031.371-.063.383-.057.8-.11.424-.05.864-.089.44-.042.887-.055c.148-.007.3-.011.441-.011.149.007.293.004.434.015.289.02.57.055.828.121.262.067.504.153.715.27s.39.262.531.418c.14.156.242.328.312.492.07.16.114.313.141.441.047.258.04.41.04.41" style="stroke:none;fill-rule:nonzero;fill:#cb501b;fill-opacity:1"/><path d="M32.48 1.129 31.785.91l.149-.363Zm0 0" style="stroke:none;fill-rule:nonzero;fill:#8c2c13;fill-opacity:1"/><path d="m32.383 7.363.152-1.351s.168-.442-.52-.762c-.687-.32-2.703-1.23-4.265-1.008 0 0-.809.012-.852.824 0 0-.48 3.372.243 4.02 0 0 .53.644 1.675.734 1.145.086 2.657-.254 3.016-.433.36-.184.457-1.207.55-2.024" style="stroke:none;fill-rule:nonzero;fill:#c57e65;fill-opacity:1"/><path d="M34.207 6.926s-.984-.774-1.766-.04l-.109.856s1.242-.265 1.777.117ZM26.3 6.176s-2.624 1.168-2.91 2.484l.262 1.152s1.047-1.289 2.7-1.824Zm0 0" style="stroke:none;fill-rule:nonzero;fill:#614a3f;fill-opacity:1"/><path d="m31.496 8.383.125-2.004s.125-.441-.484-.656c-.746-.262-1.809-.598-2.43-.594-.477.004-.742.14-.828.828l.062 1.95s-.039.741.754.843c.79.105 2.313-.016 2.313-.016s.355-.062.488-.351" style="stroke:none;fill-rule:nonzero;fill:#bce3fa;fill-opacity:1"/><path d="m28.84 8.766.86.027c-.302.004-.606-.004-.86-.027" style="stroke:none;fill-rule:nonzero;fill:#c57e65;fill-opacity:1"/><path d="m31.496 8.383.125-2.004s.125-.441-.484-.656c-.563-.196-1.309-.438-1.907-.54v-.007s1.66.347 2.125.476c.465.133.547.598.547.598s-.23 1.613-.234 2.078c-.004.461-.5.508-.5.508l-1.473-.043c.668-.008 1.313-.059 1.313-.059s.355-.062.488-.351M26.797 6.02c.055-.184.094-.297.094-.297l.148 2.191.23-2.023-.081 1.527c-.008 1.223.535 1.734.535 1.734.37.703 2.062.653 2.172.645a6 6 0 0 1-1.079.02c-1.144-.087-1.675-.731-1.675-.731-.473-.426-.43-2.016-.344-3.066" style="stroke:none;fill-rule:nonzero;fill:#95604d;fill-opacity:1"/><path d="M31.953 7.266c.031-.153.05-.301.078-.45.024-.152.043-.3.067-.453.011-.074.015-.156.011-.234a1 1 0 0 0-.05-.238.6.6 0 0 0-.133-.211.6.6 0 0 0-.219-.13h-.004a34 34 0 0 0-1.055-.214l-.53-.098c-.177-.027-.352-.058-.532-.082.172.051.348.094.52.14l.523.134q.523.123 1.05.234h-.007a.43.43 0 0 1 .285.266.82.82 0 0 1 .055.426c-.008.152-.024.3-.032.453-.011.152-.023.304-.027.457M30.012 8.902l-1.356-.082s-.574-.117-.683-.43c-.141-.406-.106-1.792-.106-1.792l-.086 1.898s.063.524.602.531Zm0 0" style="stroke:none;fill-rule:nonzero;fill:#d98a6e;fill-opacity:1"/><path d="m31.152 8.191.184-1.609s.094-.426-.434-.64c-.53-.22-1.84-.454-1.84-.454s-.421-.074-.792.133c0 0 .43.027.765.125 0 0 1.371.336 1.703.746 0 0 .325.793-.418.637 0 0-.605-.316-.476-.758 0 0-.715.703.297 1.262l.66.152Zm0 0" style="stroke:none;fill-rule:nonzero;fill:#e0f2fd;fill-opacity:1"/><path d="m30.242 8.59-1.394-.102s-.66-.07-.703-.449c-.047-.379.011-1.652.011-1.652s.078 1.668.66 1.84c.582.171 1.426.363 1.426.363" style="stroke:none;fill-rule:nonzero;fill:#5ec5f1;fill-opacity:1"/><path d="M28.8 6.258c-.01.11.055.207.153.215.094.011.18-.067.192-.176.015-.106-.055-.203-.149-.215-.094-.008-.183.07-.195.176" style="stroke:none;fill-rule:nonzero;fill:#e0f2fd;fill-opacity:1"/><path d="m34.352 6.71-.082-.144c.027-.21.054-.394.074-.52.07-.378.422-.616 1.027-.628-.023.004-.926.176-1.02 1.293" style="stroke:none;fill-rule:nonzero;fill:#95604d;fill-opacity:1"/><path d="m38.066 7.785.254-.414s.153-.398-.48-.586l-1.278-.484s1.817.258 1.926.722c0 0 .203.286-.422.762" style="stroke:none;fill-rule:nonzero;fill:#d98a6e;fill-opacity:1"/><path d="m37.418 7.934.254-.473s.168-.645-1.89-.875c0 0 .921.39 1.261.723 0 0-.875-.153-1.559.09 0 0 1.473.109 1.575.3l-.23.32Zm0 0" style="stroke:none;fill-rule:nonzero;fill:#e0f2fd;fill-opacity:1"/><path d="m34.008 7.7.008-.657s-.598-.621-1.325-.148c0 0 .746-.133 1.067.19l-.016.5Zm0 0" style="stroke:none;fill-rule:nonzero;fill:#775c50;fill-opacity:1"/><path d="m32.7 6.7-.098.995-.27.047.11-.855ZM33.93 7.793l-.188-.086.106.79Zm0 0" style="stroke:none;fill-rule:nonzero;fill:#48352d;fill-opacity:1"/><path d="m33.64 6.938-.023.566-.094-.012.016-.566-.14-.051-.051.43-.067-.008-.031-.438-.137-.015-.015.433-.094-.066-.027-.387s.316-.047.363-.05.3.163.3.163" style="stroke:none;fill-rule:nonzero;fill:#775c50;fill-opacity:1"/><path d="M26.207 6.23s-.062 1.329.055 1.79l-.395.132s-.012-1.664.34-1.922M25.746 6.598l.121 1.554-.258.098.036-1.578ZM25.563 8.246l-.215-1.277-.133.058.148 1.348ZM25.27 8.363l-.188-.957-.172.078.215.993ZM24.996 8.55l-.16-.734-.215.137.156.73ZM24.684 8.742l-.172-.5-.27.153.18.527Zm0 0" style="stroke:none;fill-rule:nonzero;fill:#48352d;fill-opacity:1"/><path d="M24.488 7.453a4 4 0 0 0-.308.242q-.147.131-.282.274-.133.144-.25.312l-.054.082-.043.094a1 1 0 0 0-.04.098c-.011.03-.015.07-.023.105l-.004.008.004.008c.032.156.067.304.102.46l.058.227c.024.078.04.153.067.227l-.024-.235c-.003-.078-.015-.156-.023-.234l-.07-.465v.016c.007-.027.011-.055.023-.082s.02-.059.031-.082c.032-.059.063-.11.094-.164.016-.028.04-.051.055-.078s.039-.051.058-.079q.056-.075.118-.152.122-.147.25-.293Zm0 0" style="stroke:none;fill-rule:nonzero;fill:#775c50;fill-opacity:1"/><path d="m23.848 9.098.109-.04-.238-.894-.145.242Zm0 0" style="stroke:none;fill-rule:nonzero;fill:#775c50;fill-opacity:1"/><path d="m26.11 8.098-.008.289s-.98.129-1.41.472c0 0 .886-.59 1.417-.761" style="stroke:none;fill-rule:nonzero;fill:#8c2c13;fill-opacity:1"/><path d="M30.16 13.914s-.05.426-.008.508c0 0-.187-.074.008-.508" style="stroke:none;fill-rule:nonzero;fill:#f9c3a6;fill-opacity:1"/><path d="M31.902 15.379s-2.203-.2-3.66-1.524c0 0-.195 1.157 1.031 1.598 1.227.438 1.235-.117 1.235-.117" style="stroke:none;fill-rule:nonzero;fill:#ededed;fill-opacity:1"/><path d="M32.102 15.418c-1.586 0-3.211-.293-4.473-1.426l.89-.754c.684 1.098 2.141 1.82 3.583 2.18" style="stroke:none;fill-rule:nonzero;fill:#b6927d;fill-opacity:1"/><path d="M31.238 13.61c.282-.16.582.214.621.492.09.351-.304.71-.683.53-.27-.128-.332-.214-.442-.32l.91-.289c.086 1.477-2.277 1.278-1.851-.171l.898.503c-.468.348-.992.317-1.34-.164-.261-.52.247-.886.715-.625-.09.067-.37.43-.175.32.039-.07.027-.116.05-.12-.015-.09-.023-.09.016-.13.023-.027.074-.085-.031-.03l.906.503c.09.043-.094-.332-.195-.164-.02.04-.016.102.011.094l.887-.387c-.004.051.113.262.012.22-.098-.036-.313.015-.352.128-.05.266.274-.285.043-.39" style="stroke:none;fill-rule:nonzero;fill:#b6927d;fill-opacity:1"/><use xlink:href="#J" mask="url(#K)"/><path d="M26.793 12.387c-.05-.11-.07-.297-.047-.508.035-.32.16-.566.281-.555.118.012.184.285.149.606-.02.172-.063.32-.121.422ZM34.066 13.57c-.05-.11-.07-.293-.046-.504.035-.32.16-.57.28-.554.118.011.184.281.15.605a1.2 1.2 0 0 1-.122.422Zm0 0" style="stroke:none;fill-rule:nonzero;fill:#614a3f;fill-opacity:1"/><path d="M34.871 13.586s-.078-.047-.203-.074a2 2 0 0 0-.211-.032c-.078-.003-.164 0-.246.004-.04.008-.082.012-.121.024a1 1 0 0 0-.121.027 1.4 1.4 0 0 0-.2.082c-.113.07-.171.137-.171.137s.093.008.207-.004c.062 0 .133-.004.203-.012.074-.004.152-.008.226-.02.082-.003.157-.019.23-.03q.114-.014.204-.04c.121-.027.203-.062.203-.062M27.652 12.379s-.078-.047-.203-.07a2 2 0 0 0-.21-.036c-.079-.003-.165 0-.247.004l-.12.024a1 1 0 0 0-.122.027 1.4 1.4 0 0 0-.2.086.8.8 0 0 0-.171.133s.09.008.207-.004c.062 0 .133 0 .203-.008q.113-.007.227-.02c.082-.007.156-.023.23-.03.074-.012.145-.028.203-.044.121-.027.203-.062.203-.062" style="stroke:none;fill-rule:nonzero;fill:#caa189;fill-opacity:1"/><path d="M23.93 30.844c-.008.273.183.629.425.761.43.23.493-.109.727-.355.41-.434 1.297-.523 1.844-.305.594.242 1.039.957.969 1.57-.082.708-.727.653-1.235.86-.437.176-.66.613-1.082.828-.605.3-1.32.145-1.957.004-1.332-.293-2.875-1.195-2.367-2.758M15.2 23.844c.085-.149-.137-.688-.188-.844-.086-.293-.192-.508-.45-.68-.289-.191-.863-.218-1.093.094-.438.602-.086 1.902.695 2.055" style="stroke:none;fill-rule:nonzero;fill:#f9c3a6;fill-opacity:1"/><path d="m15.012 23.809-.258.347-1.586-1.23.36-.258s.734.902 1.484 1.14" style="stroke:none;fill-rule:nonzero;fill:#caa189;fill-opacity:1"/><path d="M40.488 35.379S39 38.8 37.84 38.945c0 0-.719.434-.863-.91 0 0-.618 1.555.707 2.278l2.347-.88Zm0 0" style="stroke:none;fill-rule:nonzero;fill:#0090be;fill-opacity:1"/><path d="M38.047 40.176s-.07 1.133.644 1.476c.715.34 1.641-1.277 1.641-1.277l1-.906s-1.215-3.352-.918-3.434" style="stroke:none;fill-rule:nonzero;fill:#00769b;fill-opacity:1"/><path d="M52.293 35.074s-.422-3.98-6.488-3.996c-5.48-.015-5.34 5.324-5.867 6.973-.528 1.648-.793 2.191-.793 2.191l3.308.375L48.324 39" style="stroke:none;fill-rule:nonzero;fill:#ededed;fill-opacity:1"/><path d="M50.172 37.055s0-1.153-3.805-1.364c-2.894-.16-4.426 2.489-5.289 4.829-.867 2.34 8.2-2.977 8.2-2.977" style="stroke:none;fill-rule:nonzero;fill:#b5b3b2;fill-opacity:1"/><path d="M50.277 36.14s-.148-.105-.425-.265a8.4 8.4 0 0 0-1.207-.57 7 7 0 0 0-.856-.274 6.4 6.4 0 0 0-.988-.176 5 5 0 0 0-1.086 0 4.6 4.6 0 0 0-1.102.254l-.136.055-.125.059c-.082.035-.164.078-.25.12-.172.09-.329.184-.485.286a6 6 0 0 0-.844.676 7 7 0 0 0-.671.746 8.2 8.2 0 0 0-1.13 1.922c-.12.297-.171.472-.171.472s.078-.168.234-.445c.16-.277.399-.664.719-1.102q.241-.327.547-.68c.203-.23.433-.46.68-.683.25-.226.527-.433.82-.62.148-.095.3-.185.453-.259.078-.043.156-.078.242-.117l.125-.055.117-.043a4.2 4.2 0 0 1 1.016-.246c.344-.039.687-.05 1.02-.03q.503.034.96.128c.301.059.586.129.844.203a11.4 11.4 0 0 1 1.7.645" style="stroke:none;fill-rule:nonzero;fill:#b5b3b2;fill-opacity:1"/><path d="M51.227 34.395s-.028-.051-.086-.141a3 3 0 0 0-.282-.371c-.066-.074-.136-.164-.226-.246q-.127-.135-.29-.27l-.167-.144q-.094-.066-.188-.137c-.066-.047-.133-.098-.203-.14q-.106-.065-.219-.133a6 6 0 0 0-1.035-.477 2 2 0 0 0-.14-.055c-.051-.011-.102-.027-.153-.039l-.304-.082c-.051-.012-.102-.031-.153-.039q-.083-.017-.16-.027-.165-.031-.328-.055c-.055-.008-.11-.02-.164-.023A2 2 0 0 0 46.96 32l-.336-.023-.172-.008c-.058-.004-.113 0-.172 0l-.343.011c-.118.004-.235 0-.352.016-.113.016-.23.027-.344.043l-.347.043-.047.008-.02.004h-.008l-.015.004h-.008c-.027.004-.063.015-.094.02l-.183.05c-.118.035-.23.082-.344.121q-.167.069-.332.137-.16.08-.32.16l-.305.176c-.106.054-.2.125-.297.187-.094.067-.192.13-.277.203q-.135.111-.27.215c-.086.07-.164.153-.246.227-.078.078-.16.152-.234.23l-.215.239c-.07.082-.145.16-.207.242q-.09.128-.18.25c-.059.082-.117.16-.172.242-.05.082-.098.168-.148.246q-.072.124-.137.242-.036.06-.066.117t-.06.121q-.107.236-.202.454c-.016.039-.035.07-.047.109q-.022.053-.04.105-.034.107-.07.207c-.042.133-.085.258-.12.372-.044.113-.055.226-.079.324-.047.195-.074.351-.097.453l-.032.16s.028-.05.07-.148c.044-.098.114-.239.192-.418.07-.184.192-.391.317-.633.117-.246.289-.5.464-.781.024-.036.043-.07.067-.106.027-.035.05-.07.078-.101q.075-.106.156-.211l.16-.22.184-.206q.093-.104.187-.215c.063-.07.137-.133.207-.203l.211-.207q.114-.099.23-.196a7 7 0 0 1 1.017-.71q.14-.072.28-.149.143-.069.286-.137c.098-.043.2-.078.297-.12.097-.032.199-.071.297-.098.05-.016.101-.032.144-.043.024-.004.04-.012.07-.016l.012-.004c-.004 0 .012-.004-.008 0h.008l.02-.004.039-.004.324-.043q.164-.022.32-.047c.11-.019.215-.015.32-.023.43-.035.848-.031 1.255-.004q.15.016.3.031c.098.008.196.016.293.04.094.015.192.035.285.05q.07.017.141.028l.137.035c.176.05.36.086.52.152.167.059.331.11.48.18.074.031.148.066.222.094.07.035.137.074.204.105l.195.102q.092.058.18.109c.117.066.218.14.316.207.102.062.184.129.262.187.152.122.273.227.347.297.078.075.118.118.118.118" style="stroke:none;fill-rule:nonzero;fill:#fff;fill-opacity:1"/><path d="m49.98 33.281-.226 2.004-.234-2.273-.454-.211-.242 2.156-.297-2.352-.601-.156-.012 2.211-.75-.168.242-2.16-.789-.031.051 2.136s-.59.141-.586.016-.023-2.226-.023-2.226l-.758.148.156 2.008-.402.148-.532-1.992-.527.402.305 1.727-.516.129-.457-1.707-.476.523.46 1.778-.355.39-.453-1.8-.293.347.437 1.703-.285.352-.476-1.813-.336.364.562 1.671-.195.325-.648-1.645-.27.39.598 1.45-.047.414-.735-1.46 1.457-2.329s1.895-1.117 1.98-1.242c.087-.125 2.013-.367 2.11-.375.098-.012 1.938.3 1.938.3Zm0 0" style="stroke:none;fill-rule:nonzero;fill:#fff;fill-opacity:1"/><path d="M42.633 38.207c.433-.828 1.515-1.562 1.527-1.57 1.074-.832 3.68-.414 3.707-.41l.02-.114c-.11-.02-2.684-.43-3.797.43-.043.027-1.113.754-1.563 1.61Zm0 0" style="stroke:none;fill-rule:nonzero;fill:#a3a0a0;fill-opacity:1"/><path d="m46.492 37.395.938-.227-.29-1.082-.113.031.254.965-.691.168-.192-1.2-.117.02ZM45.008 37.844l.86-.203-.388-1.536-.113.032.36 1.418-.637.148-.383-1.41-.113.031ZM43.707 38.195l.828-.113-.476-1.422-.114.035.434 1.29-.586.081-.262-.976-.113.031ZM43.129 38.43l.117-.02-.152-.875-.117.02Zm0 0" style="stroke:none;fill-rule:nonzero;fill:#a3a0a0;fill-opacity:1"/><path d="m40.578 36.36.606 1.663s-.11.325-.121.274c-.008-.055-.606-1.578-.606-1.578l-.195.25.48 1.695-.168.156-.476-1.36.191 1.442-.086.028-.234-.985.379-1.324Zm0 0" style="stroke:none;fill-rule:nonzero;fill:#fff;fill-opacity:1"/><path d="m31.129 39.293 1.508 1.477s6.203-2.536 9.508-2.579l9.93-3.89s1.827-1.203 1.538-2.504c0 0 1.203 1.328.82 2.207l-18.519 6.734s-.062 1.258-.777 1.344-3.367-.297-3.367-.297l-1.118-.879-.597-.203.097-.863.38-.695Zm0 0" style="stroke:none;fill-rule:nonzero;fill:#ededed;fill-opacity:1"/><path d="m55.188 33.512.117-1.024-3.14 2.063Zm0 0" style="stroke:none;fill-rule:nonzero;fill:#ededed;fill-opacity:1"/><path d="m35.465 40.688-.793.312s1.039.719-2.082.168c0 0-2.13-.242-1.5-1.223l-.902-.91s-.11 1.926-.028 1.977c.078.047.555.293.555.293s.789-.032.984.11c.196.144.996.273.996.273l.985.316.625.07.511-.148.524-.121c.242-.102.676-.61.676-.61Zm0 0" style="stroke:none;fill-rule:nonzero;fill:#dadada;fill-opacity:1"/><path d="M56.078 33.031s-16.55 6.489-20.613 7.657c0 0 1.113 1.515-2.64.851 0 0-3.169-.434-2.481-1.43l.328-.59s-12.32-12.964-19.926-18.456L14.5 43.816 25.402 55.25s-.058 1.102 1.504 1.594c1.559.492 2.008.148 2.235-.54l14.05-5.124Zm0 0" style="stroke:none;fill-rule:nonzero;fill:#80537c;fill-opacity:1"/><path d="M29.848 41.3s-1.051-.25-.465-1.374l.535-.492-18.7-17.47 3.255 21.696L25.39 54.617s-.215.5.336.797Zm0 0" style="stroke:none;fill-rule:nonzero;fill:#5e3c5a;fill-opacity:1"/><path d="M22.129 32.156s-.672 1.336-1.707 1.063c-1.035-.278-1.828-1.696-1.23-3.086.593-1.387 2.667 1.773 2.937 2.023M19.156 29.453s-.12 1.54-1.968 1.09.73-2.32.73-2.32ZM16.41 27.96s-.687 1.013-1.86.384c-1.093-.582-.081-2.07-.081-2.07Zm0 0" style="stroke:none;fill-rule:nonzero;fill:#43293f;fill-opacity:1"/><path d="m22.129 32.156.437-.773-4.796-4.488.472 1.773Zm0 0" style="stroke:none;fill-rule:nonzero;fill:#5e3c5a;fill-opacity:1"/><path d="M29.8 39.422s-.597.308-.769.742l-3.636 14.453-7.282-7.304 5.23 4.285 3.845-9.114-2.684 9.836 4.281-12.465s.176-.398 1.016-.433" style="stroke:none;fill-rule:nonzero;fill:#43293f;fill-opacity:1"/><path d="m32.945 54.105 2.164-6.238-3.851 6.524 4.699-11.567s1.336-.64.34-1.84c0 0 .445 1.336-1.043 1.582l-5.984 13.25 5.449-2.043" style="stroke:none;fill-rule:nonzero;fill:#5e3c5a;fill-opacity:1"/><path d="m52.074 34.3-9.93 3.891-.609-.007s9.797-3.57 10.54-3.883" style="stroke:none;fill-rule:nonzero;fill:#a3a0a0;fill-opacity:1"/><path d="m31.98 42.195-.242-.09c-.515-.199-1.715-.675-2.215-.96l-.043.382M27.559 49.145l.558.44-.86-.093Zm0 0" style="stroke:none;fill-rule:nonzero;fill:#5e3c5a;fill-opacity:1"/><path d="m24.668 34.383.062.832-.726-1.723" style="stroke:none;fill-rule:nonzero;fill:#80537c;fill-opacity:1"/><path d="M35.938 41.871s-.883.852-3.31.399c0 0-1.839-.333-2.628-1.07 0 0 3.148 1.655 5.938.671M34.71 42.863l-6.116 13.895s-1.602-.004-2.535-.762l1.488.168 3.41-9.062-2.566 8.613 5.117-12.988s.43.164 1.203.136M43.629 49.914l10.758-15.523-17.215 6.691 15.437-5.477-10.472 7.352 8.883-5.723-8.418 9.809 7.058-7.57Zm0 0" style="stroke:none;fill-rule:nonzero;fill:#966091;fill-opacity:1"/><path d="M33.82 45.742s-2.53 1.692-5.875-1.254l-.218.86s2.644 2.593 5.718 1.222Zm0 0" style="stroke:none;fill-rule:nonzero;fill:#5e3c5a;fill-opacity:1"/><path d="M32.102 47.059s-1.364.164-2.547-.43c0 0 .98.86 2.277.867M28.242 49.434l-.5-.368.496-1.89-.199 1.672Zm0 0" style="stroke:none;fill-rule:nonzero;fill:#966091;fill-opacity:1"/><path d="M31.129 39.293s-6.582-7.605-8.848-8.441l-.12.203 8.51 8.465ZM14.719 24.21s.332.185.062-.097c-.629-.652-2.261-2.242-2.781-3.27l-.379.868Zm0 0" style="stroke:none;fill-rule:nonzero;fill:#ededed;fill-opacity:1"/><path d="M13.977 23.453s-.965-1.558-1.102-2.336l-.355.578-.043.414Zm0 0" style="stroke:none;fill-rule:nonzero;fill:#ededed;fill-opacity:1"/><path d="m13.625 22.922-1.105-1.227.125-.203ZM30.133 38.77l-1.961-1.985-1.973-1.972-3.96-3.934-.071.094c.262.148.508.324.754.504.242.183.476.37.71.566.466.39.919.8 1.364 1.215a81 81 0 0 1 2.61 2.558q1.282 1.307 2.523 2.645c.418.445.832.89 1.246 1.344l.613.675c.2.227.41.454.602.688-.192-.238-.395-.465-.594-.695l-.601-.688a137 137 0 0 0-3.727-4.031 67 67 0 0 0-2.598-2.574 34 34 0 0 0-1.367-1.223 17 17 0 0 0-.715-.57 8 8 0 0 0-.761-.516l-.399-.23.328.32 3.977 3.918 1.996 1.95Zm0 0" style="stroke:none;fill-rule:nonzero;fill:#dadada;fill-opacity:1"/><path d="m26.656 35.07-.172-.187c-.113-.117-.27-.285-.46-.485-.196-.199-.419-.433-.665-.675-.25-.243-.511-.504-.773-.762-.27-.254-.54-.508-.797-.742-.25-.239-.496-.45-.707-.63-.105-.093-.203-.171-.289-.245q-.136-.105-.23-.18l-.208-.152s.07.066.192.172q.092.083.219.191c.078.078.172.168.273.262q.148.145.324.308c.114.11.23.23.36.348.25.238.515.496.777.754.27.254.535.508.785.75l.692.648c.406.38.68.625.68.625M42.145 38.191s-7.497-.175-9.512 2.579Zm0 0" style="stroke:none;fill-rule:nonzero;fill:#dadada;fill-opacity:1"/><path d="M33.098 40.852c1.648-1.965 8.687-2.52 8.757-2.524l-.007-.117c-.293.023-7.16.562-8.844 2.566Zm0 0" style="stroke:none;fill-rule:nonzero;fill:#ededed;fill-opacity:1"/><path d="M32.645 41.035c1.542-1.226 9.43-2.77 9.511-2.789l.489-.094-.5-.02c-.067-.003-6.915-.265-9.555 2.595l.09.082c2.164-2.348 7.222-2.563 8.906-2.567-1.836.375-7.672 1.633-9.012 2.703Zm0 0" style="stroke:none;fill-rule:nonzero;fill:#ededed;fill-opacity:1"/><path d="m39.258 39.27-.258.054c-.16.04-.39.09-.668.16-.277.075-.602.149-.941.246-.344.098-.711.2-1.075.301-.367.11-.726.223-1.066.332s-.652.223-.922.32c-.133.047-.254.102-.36.149-.109.043-.198.09-.273.125-.078.031-.133.074-.168.094l-.058.035s.02-.012.062-.027c.04-.02.094-.055.172-.082s.172-.07.281-.106.23-.082.368-.125c.136-.039.28-.09.437-.137l.488-.148c.34-.106.707-.211 1.07-.316s.727-.215 1.071-.317c.34-.101.656-.2.93-.277.273-.086.5-.156.66-.203.156-.051.25-.078.25-.078M54.39 33.04l-2.011 1.37 1.836-1.754Zm0 0" style="stroke:none;fill-rule:nonzero;fill:#dadada;fill-opacity:1"/><path d="M23.914 31.469s.316-3.617-1.812-4.551c-2.125-.938-3.016 3.203-3.016 3.203s-.645 2.242 1.316 2.402c0 0 1.203.41 1.508-1.28 0 0 .606-.872 1-.411Zm0 0" style="stroke:none;fill-rule:nonzero;fill:#f9c3a6;fill-opacity:1"/><path d="M20.71 27.04s-.065-1.903-1.905-2.427c-1.836-.523-2.7 2.418-2.723 2.992-.027.575-.406 2.665 1.027 2.907 0 0 1.946.636 1.711-2.176 0 0 .371-.398.797.203l.856-1.3" style="stroke:none;fill-rule:nonzero;fill:#f9c3a6;fill-opacity:1"/><path d="M17.55 25.219s-.476-1.953-1.808-1.844c-1.328.11-2.293 3.871-1.555 4.332.739.465 1.38.73 2.278-.59l.851-1.113Zm0 0" style="stroke:none;fill-rule:nonzero;fill:#f9c3a6;fill-opacity:1"/><use xlink:href="#L" mask="url(#M)"/><use xlink:href="#N" mask="url(#O)"/><use xlink:href="#P" mask="url(#Q)"/><path d="M16.645 25.887s-.524 1.203-.567 1.718c0 0-.863 1.016-2.008-.02 0 0 .57.2 1.2-.07.628-.273 1.375-1.628 1.375-1.628M22.281 30.852s.196-.727.809-.739l-.43.586.938.969s-.938-.766-1.317-.816" style="stroke:none;fill-rule:nonzero;fill:#caa189;fill-opacity:1"/><path d="m19.742 28.348-.152.246-.531-.38s.296-.097.683.134" style="stroke:none;fill-rule:nonzero;fill:#ededed;fill-opacity:1"/><path d="m20.043 27.82-.3.528s-.528-.336-.927-.012c0 0 .72-.992 1.227-.516" style="stroke:none;fill-rule:nonzero;fill:#caa189;fill-opacity:1"/><use xlink:href="#R" mask="url(#S)"/><use xlink:href="#T" mask="url(#U)"/><path d="m13.895 5.492-.075.637-1.707 2.887-.46.058-2.34-3.094 2.308 2.797.356-.054 1.84-3.262Zm0 0" style="stroke:none;fill-rule:nonzero;fill:#4b7687;fill-opacity:1"/><path d="m12.977 5.379-.063.758.32-.73-.199.937.477-.875-.242.867-1.223 2.242-.227-.187Zm0 0" style="stroke:none;fill-rule:nonzero;fill:#dadada;fill-opacity:1"/><path d="m13.82 5.398-1.77 3.223-.35.043L9.37 5.828l-.059.152 2.336 2.825.461-.059 1.786-3.254Zm0 0" style="stroke:none;fill-rule:nonzero;fill:#558599;fill-opacity:1"/><path d="M13.715 5.586 12.05 8.62l-.352.043-2.222-2.703 2.101 2.46-1.894-2.64 2.02 2.621-1.59-2.675 1.66 2.668 1.203-3.016-1.043 2.996 1.3-2.969-1.168 2.953" style="stroke:none;fill-rule:nonzero;fill:#ededed;fill-opacity:1"/><path d="M55.156 6.719v.922l-.851-1.18v.883l-.477-.625-.16 1.52 4.387 3.226.23-.059" style="stroke:none;fill-rule:nonzero;fill:#dadada;fill-opacity:1"/><path d="m65.344 7.152-5.703 4.313h-1.504L53.52 6.719l-.22 1.527 4.66 3.457h1.528l5.899-4.328Zm0 0" style="stroke:none;fill-rule:nonzero;fill:#a1be4e;fill-opacity:1"/><path d="m61.523 6.398-1.18 1.418-1.679 3.34" style="stroke:none;fill-rule:nonzero;fill:#fff;fill-opacity:1"/><path d="M54.3 7.344v-.192l3.759 4.184Zm0 0" style="stroke:none;fill-rule:nonzero;fill:#b5b3b2;fill-opacity:1"/><path d="m62.57 6.57-1.258 1.145-2.37 3.48" style="stroke:none;fill-rule:nonzero;fill:#fff;fill-opacity:1"/><path d="m65.344 7.152-2.614.875-3.468 3.438h.379Zm0 0" style="stroke:none;fill-rule:nonzero;fill:#87a042;fill-opacity:1"/><path d="m59.598 11.11 3.765-4.227-4.02 4.199L62.57 6.57l-3.629 4.625 2.582-4.797-2.875 4.797L60.441 6.2 58.29 11.23 55.156 6.72l2.98 4.746h1.208l5.043-4.23.093-.083" style="stroke:none;fill-rule:nonzero;fill:#ededed;fill-opacity:1"/><path d="m60.441 6.2-.98 1.84-1.172 3.19M63.363 6.883l-1.379.87-2.64 3.329" style="stroke:none;fill-rule:nonzero;fill:#fff;fill-opacity:1"/><path d="m62.941 7.617-3.468 3.653 4.84-3.977Zm0 0" style="stroke:none;fill-rule:nonzero;fill:#ededed;fill-opacity:1"/><path d="m63.727 7.79.586-.087-4.97 3.762Zm0 0" style="stroke:none;fill-rule:nonzero;fill:#697e34;fill-opacity:1"/><path d="m58.055 11.543-4.473-4.547-.234 1.285 4.574 3.395Zm0 0" style="stroke:none;fill-rule:nonzero;fill:#87a042;fill-opacity:1"/><path d="m58.055 11.23-2.899-3.59v-.21Zm0 0" style="stroke:none;fill-rule:nonzero;fill:#b5b3b2;fill-opacity:1"/><path d="m1.41 43.965.028.722-.704-.902.024.692-.387-.473-.082 1.191 3.531 2.407.18-.055" style="stroke:none;fill-rule:nonzero;fill:#dadada;fill-opacity:1"/><path d="m9.406 44.012-4.344 3.543-1.18.043-3.757-3.586L0 45.215l3.75 2.574 1.2-.043 4.495-3.562Zm0 0" style="stroke:none;fill-rule:nonzero;fill:#a1be4e;fill-opacity:1"/><path d="m6.39 43.531-.882 1.14-1.219 2.669" style="stroke:none;fill-rule:nonzero;fill:#fff;fill-opacity:1"/><path d="m.758 44.477-.004-.149L3.816 47.5Zm0 0" style="stroke:none;fill-rule:nonzero;fill:#b5b3b2;fill-opacity:1"/><path d="m7.215 43.637-.95.93-1.761 2.796" style="stroke:none;fill-rule:nonzero;fill:#fff;fill-opacity:1"/><path d="m9.406 44.012-2.023.758-2.617 2.792.297-.007Zm0 0" style="stroke:none;fill-rule:nonzero;fill:#87a042;fill-opacity:1"/><path d="m5.016 47.277 2.832-3.422-3.032 3.407 2.399-3.625-2.711 3.726 1.887-3.832-2.114 3.84 1.262-3.965-1.547 4.004-2.582-3.445 2.473 3.633.945-.035 3.828-3.461.074-.067" style="stroke:none;fill-rule:nonzero;fill:#ededed;fill-opacity:1"/><path d="m5.54 43.406-.72 1.469-.828 2.535M7.848 43.855l-1.055.723-1.977 2.684" style="stroke:none;fill-rule:nonzero;fill:#fff;fill-opacity:1"/><path d="m7.535 44.445-2.613 2.961 3.68-3.254Zm0 0" style="stroke:none;fill-rule:nonzero;fill:#ededed;fill-opacity:1"/><path d="m8.156 44.559.457-.086-3.785 3.09Zm0 0" style="stroke:none;fill-rule:nonzero;fill:#697e34;fill-opacity:1"/><path d="M3.82 47.66.184 44.227l-.145 1.015 3.68 2.528Zm0 0" style="stroke:none;fill-rule:nonzero;fill:#87a042;fill-opacity:1"/><path d="m3.813 47.418-2.375-2.73-.008-.168Zm0 0" style="stroke:none;fill-rule:nonzero;fill:#b5b3b2;fill-opacity:1"/><use xlink:href="#V" mask="url(#W)"/><path d="M94.324 13.516c0-4 1.766-5.516 4.563-5.516s4.562 1.516 4.562 5.516v30.25c0 4-1.765 5.515-4.562 5.515s-4.563-1.515-4.563-5.515Zm-8.797 29.687c0 8.953 4.72 14.078 13.36 14.078s13.36-5.125 13.36-14.078V14.078c0-8.953-4.72-14.078-13.36-14.078s-13.36 5.125-13.36 14.078ZM117.52.641v42.64c0 8.953 4.484 14.078 13.125 14.078s13.125-5.125 13.125-14.078V.641h-8.329v43.203c0 4-1.765 5.437-4.562 5.437s-4.563-1.437-4.563-5.437V.64Zm29.683 8h9.203v48h8.797v-48h9.203v-8h-27.203ZM196.152 6.418c0-1.656.735-2.297 1.891-2.297 1.172 0 1.906.64 1.906 2.297v12.61c0 1.656-.734 2.296-1.906 2.296-1.156 0-1.89-.64-1.89-2.297Zm-3.672 12.375c0 3.734 1.97 5.86 5.563 5.86 3.61 0 5.578-2.126 5.578-5.86V6.653c0-3.735-1.969-5.86-5.578-5.86-3.594 0-5.563 2.125-5.563 5.86Zm17.172-14.406h6.032V1.059h-9.704v23.328h3.672v-9.625h4.735v-3.344h-4.735Zm-24.804 32h3.828v20h3.672v-20h3.828v-3.328h-11.328Zm16.601 10h4.172v10h3.719V33.059h-3.719v10h-4.172v-10h-3.672v23.328h3.672Zm14.235-10h6.328v-3.328h-10v23.328h10v-3.328h-6.328v-6.844h5.03v-3.328h-5.03Zm0 0" style="stroke:none;fill-rule:nonzero;fill:#69b29e;fill-opacity:1"/><use xlink:href="#X" mask="url(#Y)"/><path d="M247.895.715h-13.282v56h13.844c8.797 0 13.36-4.64 13.36-13.281V38.87c0-5.922-1.844-10.156-6.563-12 3.922-1.844 5.672-5.516 5.672-11.281v-2c0-8.64-3.922-12.875-13.031-12.875m-.563 30.797c4 0 5.672 1.61 5.672 6.797v4.89c0 4.156-1.594 5.516-4.547 5.516h-5.047V31.512Zm.313-22.797c3.125 0 4.484 1.765 4.484 5.765v3.11c0 4.484-2 5.922-5.281 5.922h-3.438V8.715Zm27.527 4.875c0-4 1.765-5.516 4.562-5.516s4.563 1.516 4.563 5.516v30.25c0 4-1.766 5.515-4.563 5.515s-4.562-1.515-4.562-5.515Zm-8.797 29.687c0 8.953 4.719 14.078 13.36 14.078s13.359-5.125 13.359-14.078V14.152c0-8.953-4.719-14.078-13.36-14.078S266.375 5.2 266.375 14.152Zm40.477-29.687c0-4 1.765-5.516 4.562-5.516s4.563 1.516 4.563 5.516v30.25c0 4-1.766 5.515-4.563 5.515s-4.562-1.515-4.562-5.515Zm-8.797 29.687c0 8.953 4.718 14.078 13.36 14.078 8.64 0 13.358-5.125 13.358-14.078V14.152c0-8.953-4.718-14.078-13.359-14.078s-13.36 5.125-13.36 14.078Zm52.476 13.438h9.031l-12.234-31.047L359.563.715h-8.797L339.25 25.12V.715h-8.797v56h8.797V39.512l2.719-5.11Zm11.516-42.563c0 16 17.203 18.157 17.203 29.688 0 4-1.766 5.437-4.562 5.437s-4.563-1.437-4.563-5.437v-4h-8.312v3.437c0 8.953 4.468 14.078 13.109 14.078s13.125-5.125 13.125-14.078c0-16-17.203-18.156-17.203-29.687 0-4 1.61-5.516 4.406-5.516 2.797 0 4.406 1.516 4.406 5.516v2.328h8.313v-1.766c0-8.953-4.406-14.078-12.953-14.078-8.563 0-12.97 5.125-12.97 14.078m0 0" style="stroke:none;fill-rule:nonzero;fill:#69b29e;fill-opacity:1"/></svg>