<?xml version="1.0" encoding="utf-8" ?>
<svg xmlns="http://www.w3.org/2000/svg" xmlns:xlink="http://www.w3.org/1999/xlink" width="519" height="538">
	<path fill="#7EBFE4" fill-opacity="0.98823529" d="M474.719 226.205C477.493 226.209 480.147 226.824 482.871 227.268C482.248 227.946 481.844 228.454 480.934 228.695C478.434 228.074 472.947 230.539 470.642 231.568C472.136 229.91 473.402 228.007 474.719 226.205Z"/>
	<path fill="#F7D8CB" d="M259.184 218.034C259.879 217.971 260.312 217.917 260.982 218.164L261.158 218.67C260.361 219.412 259.493 220.049 258.659 220.747C256.165 222.835 256.147 230.885 255.827 234.285L255.381 234.709L254.986 234.502C253.92 231.727 255.457 222.816 256.664 220.062C257.237 218.754 257.909 218.493 259.184 218.034Z"/>
	<path fill="#A1695B" d="M140.889 221.452Q142.146 223.975 142.709 226.736C142.785 228.283 142.447 228.773 141.399 229.926L141.176 230.167C138.954 229.623 137.257 228.172 136.047 226.275C137.756 224.82 139.498 223.214 140.889 221.452Z"/>
	<path fill="#7EBFE4" d="M30.2176 168.71C28.9253 166.576 26.1598 163.685 25.6766 161.283C25.5508 160.658 25.6451 160.416 25.9999 159.912C26.8333 159.617 27.6541 159.547 28.5153 159.812C31.1288 160.616 32.1223 165.608 33.3067 167.851C31.8743 167.876 31.4075 167.785 30.2176 168.71Z"/>
	<path fill="#C78370" d="M426.279 229.287C424.811 225.734 419.164 214.906 420.32 211.641L420.816 211.732C423.637 214.573 426.928 224.203 428.67 228.247C427.86 228.543 426.993 228.795 426.279 229.287Z"/>
	<path fill="#973105" d="M259.753 85.7991C261.722 87.8671 263.264 89.8629 263.137 92.8857C263.035 95.3397 261.567 98.7922 259.981 100.676C259.938 100.632 259.902 100.582 259.853 100.545C258.649 99.6325 258.065 98.9759 257.185 97.7565C258.601 94.4505 259.212 91.6058 258.044 88.0896C258.339 87.2282 259.161 86.4886 259.753 85.7991Z"/>
	<path fill="#FBC6AE" d="M142.254 147.35L142.548 147.024C143.797 148.351 144.732 149.926 145.944 151.288C145.855 151.356 145.768 151.424 145.678 151.49C145.393 151.7 145.123 151.86 144.811 152.022L144.644 152.427C145.167 152.86 145.693 153.283 146.173 153.764C145.87 156.007 145.695 159.408 144.441 161.28C142.736 160.492 141.261 159.717 140.517 157.886C139.169 154.57 141.017 150.455 142.254 147.35Z"/>
	<path fill="#FBC6AE" d="M247.653 156.611C251.123 154.803 252.256 151.787 253.629 148.399C253.671 148.552 253.71 148.704 253.755 148.856C254.769 152.27 257.561 153.465 255.473 157.401C254.384 159.452 251.977 161.849 249.839 162.833C249.003 160.604 249.449 158.468 247.653 156.611Z"/>
	<path fill="#F7D8CB" d="M262.358 184.645C263.231 185.64 264.007 186.786 265.403 186.998C265.935 187.08 266.556 186.921 267.076 186.811C269.695 186.326 272.497 186.459 275.108 186.956C271.838 188.849 269.736 191.093 267.925 194.413C266.529 193.818 264.79 193.203 263.705 192.125C261.877 190.309 262.381 187.014 262.358 184.645Z"/>
	<path fill="#F9AD04" d="M261.097 176.276C259.268 176.193 253.511 177.132 252.234 175.988C251.566 175.391 251.368 174.431 251.27 173.575C250.908 170.42 251.272 166.863 253.428 164.39C254.182 163.526 255.17 162.801 256.356 162.774C258.778 162.719 260.627 165.525 262.295 166.972L262.483 167.134C262.602 167.36 262.944 167.847 262.975 168.075C263.158 169.397 262.339 174.023 261.862 175.331C261.664 175.872 261.569 175.971 261.097 176.276Z"/>
	<path fill="#E09208" d="M270.912 158.782C271.881 159.099 272.992 159.398 273.471 160.397C273.516 160.491 273.542 160.593 273.577 160.691L272.766 163.075C269.487 165.297 267.001 170.576 266.264 174.419C265.485 178.475 265.89 182.872 267.076 186.811C266.556 186.921 265.935 187.08 265.403 186.998C264.007 186.786 263.231 185.64 262.358 184.645C261.65 182.137 260.686 178.864 261.097 176.276C261.569 175.971 261.664 175.872 261.862 175.331C262.339 174.023 263.158 169.397 262.975 168.075C262.944 167.847 262.602 167.36 262.483 167.134C264.484 165.961 265.511 164.267 266.704 162.359C267.68 161.067 269.444 159.464 270.912 158.782Z"/>
	<path fill="#D74414" d="M482.871 227.268L483.545 227.118C483.889 227.416 483.965 227.359 484.017 227.849C484.195 229.521 483.121 231.555 482.035 232.743C478.008 237.153 470.327 241.79 465.335 245.221C459.51 249.224 453.413 253.911 447.057 257.011C445.432 257.804 443.858 258.42 442.018 258.438C440.747 258.452 439.512 258.08 438.295 257.755C435.894 253.755 434.387 249.262 432.635 244.956C430.509 239.733 428.267 234.567 426.279 229.287C426.993 228.795 427.86 228.543 428.67 228.247Q431.968 234.853 434.913 241.624C436.465 245.257 437.639 249.448 439.817 252.748C440.385 253.609 441.129 254.187 442.093 254.549C443.47 255.064 444.547 254.625 445.8 253.986C450.274 251.701 454.465 248.457 458.557 245.556C466.159 240.168 473.775 234.666 480.934 228.695C481.844 228.454 482.248 227.946 482.871 227.268Z"/>
	<path fill="#0C92BD" d="M33.3067 167.851C37.3403 174.544 43.0294 180.494 47.9397 186.571C50.8669 190.193 53.5679 194.232 56.7207 197.626C57.3505 198.304 58.3737 199.379 59.3359 199.516C60.7966 199.725 62.4624 198.453 63.4502 197.52C66.5303 194.611 80.4541 169.977 82.2231 165.068C83.3282 162.001 83.0613 158.457 84.3606 155.477C84.9377 154.154 85.6838 153.35 87.0005 152.773C87.3919 152.809 87.6296 152.727 87.9096 153.045C88.9712 154.251 88.5636 157.517 88.3518 159.067C88.0758 161.086 87.335 163.064 86.4879 164.907C83.6507 171.078 68.0217 198.846 63.6853 202.191C62.3986 203.183 60.861 203.62 59.2495 203.358C57.55 203.082 56.2638 202.093 55.073 200.906C52.1082 197.949 49.8145 193.909 47.2226 190.586C41.5843 183.357 35.3849 176.27 30.2176 168.71C31.4075 167.785 31.8743 167.876 33.3067 167.851Z"/>
	<path fill="#D74414" d="M229.85 207.749C230.101 206.126 230.251 202.353 231.474 201.211C236.317 207.736 248.235 220.941 250.948 227.857C249.85 231.542 247.86 239.902 246.414 242.858L245.957 243.025C243.96 241.711 243.467 238.926 241.669 237.59C239.944 235.678 237.531 229.747 235.813 227.061C234.944 225.702 233.986 224.198 232.323 223.845C231.581 222 230.914 220.122 230.225 218.256C230.143 214.694 229.504 211.34 229.85 207.749Z"/>
	<path fill="#FBC6AE" d="M266.815 158.066C264.716 157.525 261.796 157.186 260.544 155.234C260.276 154.817 260.051 154.304 260.139 153.798C260.312 152.802 261.189 152.103 262.032 151.66C264.243 150.498 267.008 150.401 269.345 151.192C271.943 152.071 274.187 153.65 276.554 154.995C277.966 154.887 279.449 154.716 280.857 154.9C283.222 155.208 285.442 156.079 287.768 156.536C290.485 157.071 293.487 156.93 296.081 157.939C299.281 159.185 301.76 161.537 305.218 162.233C302.251 165.239 299.759 168.459 297.503 172.023L295.394 167.994C294.437 169.946 293.299 175.106 291.144 175.789C290.491 175.997 289.857 175.776 289.311 175.414C286.34 173.445 285.076 169.462 284.382 166.165C282.758 168.341 280.539 171.594 277.647 172.034C276.659 172.184 275.75 171.936 274.99 171.281C272.773 169.37 272.917 165.744 272.766 163.075L273.577 160.691C273.542 160.593 273.516 160.491 273.471 160.397C272.992 159.398 271.881 159.099 270.912 158.782C269.444 159.464 267.68 161.067 266.704 162.359C266.821 161.207 267.298 159.057 266.815 158.066Z"/>
	<path fill="#D3A28F" d="M266.815 158.066C267.922 157.408 267.803 155.863 268.833 155.031C269.68 155.337 269.964 156.158 270.632 156.729C271.423 157.405 272.652 157.315 273.623 157.303L273.995 157.296L274.733 157.225C274.918 158.096 273.896 159.747 273.577 160.691C273.542 160.593 273.516 160.491 273.471 160.397C272.992 159.398 271.881 159.099 270.912 158.782C269.444 159.464 267.68 161.067 266.704 162.359C266.821 161.207 267.298 159.057 266.815 158.066Z"/>
	<path fill="#566C61" d="M131.534 181.089C130.435 179.423 129.125 177.886 127.883 176.324C126.644 174.767 123.742 171.698 123.968 169.719C127.924 169.56 135.161 173.12 139.813 173.561C146.204 174.167 156.771 170.955 162.29 172.959C162.759 174.738 166.79 178.005 168.131 179.828C166.903 179.933 165.524 179.901 164.416 180.478C164.288 180.816 164.199 181.036 164.182 181.401C158.471 183.302 157.504 189.722 152.893 192.571C148.261 193.768 140.305 193.148 135.752 191.455C133.078 190.461 125.31 186.211 124.499 183.517C124.298 182.851 124.443 182.699 124.742 182.116C126.027 181.522 129.809 181.425 131.534 181.089Z"/>
	<path fill="#F4F4F4" d="M164.182 181.401C166.186 181.498 169.411 181.373 170.777 183.1C171.173 183.601 171.336 184.141 171.532 184.73C171.647 185.074 171.811 185.38 171.983 185.697C169.895 189.663 169.516 192.892 170.825 197.175C171.638 199.835 172.75 202.33 173.221 205.088Q173.2 211.543 173.048 217.997L173.054 219.775C172.666 222.625 172.286 225.558 172.71 228.423C173.588 234.36 177.352 238.053 171.871 243.016C170.169 241.235 169.333 239.032 168.039 236.967C165.597 232.511 159.837 225.325 155.101 223.228C152.69 222.16 148.989 221.236 146.505 222.353C145.247 222.918 144.261 224.536 143.817 225.773C143.644 226.256 143.56 226.584 143.199 226.964L142.709 226.736Q142.146 223.975 140.889 221.452C142.01 215.84 145.587 212.444 148.741 207.948C151.966 203.348 154.37 198.589 155.544 193.087L152.893 192.571C157.504 189.722 158.471 183.302 164.182 181.401Z"/>
	<path fill="#B53B0B" d="M139.331 128.824Q137.475 122.043 135.144 115.411C133.257 110.176 129.182 104.155 129.275 98.5276C129.378 92.2684 132.725 86.0081 137.143 81.7273C148.371 70.8489 165.532 67.8873 180.617 67.6573C185.076 67.5893 189.56 67.9747 194.004 67.8758C196.567 67.8188 198.907 65.252 201.298 65.5319C202.659 65.6913 203.696 67.7964 204.345 68.8528C213.868 69.6393 222.249 71.0608 231.52 73.3197C241.676 75.7944 251.873 78.4409 259.753 85.7991C259.161 86.4886 258.339 87.2282 258.044 88.0896C251.929 79.9022 240.204 77.9833 230.692 76.6021C211.6 73.8298 175.782 69.3692 159.277 81.6442C155.602 84.3775 152.929 88.1503 152.284 92.7503C152.048 94.4345 152.094 96.119 152.357 97.7967C152.688 99.9072 156.414 113.705 157.377 115.324C154.658 117.321 151.551 118.847 148.944 120.965C147.117 122.449 145.662 124.29 144.115 126.05C143.341 126.931 142.523 127.936 141.503 128.534C141.075 128.784 140.292 128.989 139.787 128.941C139.631 128.926 139.483 128.863 139.331 128.824Z"/>
	<path fill="#9DAD63" d="M493.962 83.9036C495.19 83.88 497.703 83.5568 498.659 84.3226C498.638 84.5544 498.65 84.5806 498.542 84.8289C497.588 87.0228 492.482 89.9862 490.524 91.544C488.359 93.2657 486.424 95.2651 484.242 96.9739C478.88 101.174 473.198 105.045 467.676 109.037C462.666 112.658 457.778 116.435 452.705 119.969C445.956 124.67 438.878 128.918 432.166 133.657C426.903 137.374 421.99 142.817 416.15 145.535C411.446 147.725 396.296 147.583 391.504 145.685C388.206 144.379 380.314 137.497 376.914 134.987L353.836 117.93C347.522 113.328 341.087 108.856 334.984 103.974C333.337 102.655 329.665 100.213 329.057 98.2434C328.227 95.5542 329.429 80.7769 330.762 78.4733C331.993 78.0046 333.947 78.357 335.252 78.4896L332.126 78.639C335.526 82.5664 339.32 86.0191 342.873 89.788C359.4 107.317 376.793 124.049 393.179 141.718C393.678 141.067 393.935 140.454 394.805 140.295C397.1 139.873 400.778 141.253 403.148 141.667C401.303 142.154 397.026 142.365 395.793 143.613C396.143 144.159 396.606 144.221 397.219 144.342C400.71 145.033 409.412 145.083 412.811 144.279C413.538 144.107 414.161 143.691 414.754 143.251C420.06 139.323 426.038 133.662 431.222 129.314C435.256 125.931 448.079 116.156 450.501 112.847C450.523 112.051 450.329 111.814 449.961 111.124C450.36 110.419 450.585 110.434 451.313 110.132L452.284 110.659C455.047 110.409 461.146 104.167 463.345 102.116L464.715 101.101C468.315 98.6757 471.678 96.1467 474.645 92.9624C474.038 92.3297 473.58 91.8391 473.243 91.0227L473.452 90.5724C474.578 90.342 475.702 90.7269 476.803 90.977C482.021 88.7147 487.7 86.0286 493.245 84.7876C493.75 84.6745 494.038 84.5899 494.458 84.2567L493.962 83.9036Z"/>
	<path fill="#E09208" d="M352.743 173.863L352.997 173.833C355.668 173.499 358.247 172.638 360.923 172.333C366.833 171.66 374.994 173.087 379.785 176.788C384.651 180.548 387.397 186.595 388.098 192.607C388.909 199.577 387.074 207.177 382.659 212.704C380.117 215.886 376.436 218.542 372.289 218.976C366.214 219.612 355.678 217.301 350.915 213.215C349.072 211.635 346.995 209.278 344.649 208.504C345.145 208.252 345.235 208.242 345.241 207.661C345.254 206.26 344.602 204.427 344.343 203.009C343.793 199.99 343.467 196.651 343.598 193.572C343.846 187.739 346.074 181.677 349.928 177.275C350.653 176.446 352.35 175.214 352.656 174.193C352.689 174.084 352.714 173.973 352.743 173.863Z"/>
	<path fill="#F4F4F4" d="M371.056 181.022C372.199 180.92 373.013 181.102 373.988 181.69C377.171 183.61 379.039 187.941 379.948 191.414C381.38 196.884 380.407 202.58 377.503 207.416C375.508 210.739 372.958 212.948 369.154 213.916Q368.321 213.827 367.52 213.579Q366.72 213.33 365.983 212.931C362.844 211.201 360.939 208.216 360 204.833C358.494 199.402 359.293 193.071 362.108 188.186C364.154 184.634 367.05 182.088 371.056 181.022Z"/>
	<path fill="#7EBFE4" d="M364.932 188.19C366.265 188.361 367.948 188.329 368.849 189.417C368.76 190.236 368.432 190.444 367.905 191.058C367.333 191.507 366.874 191.761 366.201 192.035C365.832 191.984 365.547 192.05 365.296 191.739C364.589 190.861 364.868 189.251 364.932 188.19Z"/>
	<path fill="#F9AD04" d="M305.218 162.233C306.801 161.491 308.665 160.887 310.395 161.463C313.407 162.466 315.081 165.679 318.213 166.723C322.799 168.252 328.107 168.773 332.873 169.67C339.532 170.924 346.129 172.387 352.743 173.863C352.714 173.973 352.689 174.084 352.656 174.193C352.35 175.214 350.653 176.446 349.928 177.275C346.074 181.677 343.846 187.739 343.598 193.572C343.467 196.651 343.793 199.99 344.343 203.009C344.602 204.427 345.254 206.26 345.241 207.661C345.235 208.242 345.145 208.252 344.649 208.504C335.805 206.14 326.394 205.578 317.588 202.993C315.963 201.854 314.442 200.219 312.955 198.887C309.007 195.353 304.966 192.099 300.2 189.705C292.216 185.694 283.743 184.061 275.108 186.956C272.497 186.459 269.695 186.326 267.076 186.811C265.89 182.872 265.485 178.475 266.264 174.419C267.001 170.576 269.487 165.297 272.766 163.075C272.917 165.744 272.773 169.37 274.99 171.281C275.75 171.936 276.659 172.184 277.647 172.034C280.539 171.594 282.758 168.341 284.382 166.165C285.076 169.462 286.34 173.445 289.311 175.414C289.857 175.776 290.491 175.997 291.144 175.789C293.299 175.106 294.437 169.946 295.394 167.994L297.503 172.023C299.759 168.459 302.251 165.239 305.218 162.233Z"/>
	<path fill="#F4F4F4" d="M398.758 137.018C400.814 132.718 403.635 128.831 405.735 124.55C410.329 115.184 414.204 105.316 418.318 95.7214C419.923 91.9785 421.03 88.1195 422.379 84.2893C423.587 80.8623 425.101 77.4443 426.64 74.1521C427.374 72.5811 428.366 70.164 430.11 69.5904C432.69 68.7419 435.847 69.2388 438.491 69.5166C453.91 71.1364 467.727 76.3745 482.4 80.8428C486.218 82.0056 490.09 82.9415 493.962 83.9036L494.458 84.2567C494.038 84.5899 493.75 84.6745 493.245 84.7876C487.7 86.0286 482.021 88.7147 476.803 90.977C475.702 90.7269 474.578 90.342 473.452 90.5724L473.243 91.0227C473.58 91.8391 474.038 92.3297 474.645 92.9624C471.678 96.1467 468.315 98.6757 464.715 101.101L463.345 102.116C461.146 104.167 455.047 110.409 452.284 110.659L451.313 110.132C450.585 110.434 450.36 110.419 449.961 111.124C450.329 111.814 450.523 112.051 450.501 112.847C448.079 116.156 435.256 125.931 431.222 129.314C426.038 133.662 420.06 139.323 414.754 143.251C414.161 143.691 413.538 144.107 412.811 144.279C409.412 145.083 400.71 145.033 397.219 144.342C396.606 144.221 396.143 144.159 395.793 143.613C397.026 142.365 401.303 142.154 403.148 141.667C400.778 141.253 397.1 139.873 394.805 140.295C393.935 140.454 393.678 141.067 393.179 141.718C376.793 124.049 359.4 107.317 342.873 89.788C339.32 86.0191 335.526 82.5664 332.126 78.639L335.252 78.4896L340.114 79.0347C340.243 77.7233 340.168 74.957 341.152 74.0111C341.461 73.7133 341.721 73.8158 342.121 73.8093C345.43 75.388 349.311 84.028 351.79 87.2578C352.037 84.6914 351.673 80.6756 352.838 78.406C353.412 78.2329 353.446 78.2701 353.958 78.5499C359.817 81.751 381.595 117.216 387.567 124.992C390.839 129.252 395.248 132.45 398.485 136.671C398.575 136.787 398.667 136.902 398.758 137.018Z"/>
	<path fill="#E6F1F4" d="M463.345 102.116C462.946 100.506 463.096 96.9376 463.719 95.4155C464.779 96.8798 464.043 99.1052 464.582 100.727C464.624 100.852 464.671 100.976 464.715 101.101L463.345 102.116Z"/>
	<path fill="#96A696" d="M446.513 109.595C446.906 108.925 447.203 108.569 447.955 108.33C448.274 109.115 448.319 109.453 449.017 109.96C449.793 109.986 450.545 110.017 451.313 110.132C450.585 110.434 450.36 110.419 449.961 111.124C448.781 110.832 448.034 111.547 447.017 112.127L446.566 111.996C446.261 111.161 446.404 110.45 446.513 109.595Z"/>
	<path fill="#C9E7F5" d="M441.15 114.55C440.074 116.082 438.615 117.581 437.278 118.895C436.233 119.922 434.767 121.524 433.232 121.509L433.061 120.994C433.614 119.708 434.96 118.716 435.836 117.619C437.208 115.903 438.252 113.947 439.663 112.279C440.165 113.03 440.69 113.774 441.15 114.55Z"/>
	<path fill="#7EBFE4" d="M439.663 112.279C441.596 110.81 443.449 109.269 445.153 107.536C447.634 105.013 456.371 94.1617 458.937 93.4727C459.621 93.6736 459.76 93.6801 460.219 94.2102C459.772 96.3732 449.108 104.365 448.047 107.968C448.012 108.088 447.986 108.21 447.955 108.33C447.203 108.569 446.906 108.925 446.513 109.595C444.53 110.088 442.554 113.052 441.15 114.55C440.69 113.774 440.165 113.03 439.663 112.279Z"/>
	<path fill="#FBC6AE" d="M257.835 118.083C263.535 118.902 271.346 120.331 275.093 125.208C277.285 128.06 277.976 131.868 277.46 135.386C277.072 138.033 275.605 140.029 273.53 141.637C268.405 145.864 260.816 144.578 254.715 145.689C253.978 146.311 253.882 147.498 253.629 148.399C252.256 151.787 251.123 154.803 247.653 156.611C249.449 158.468 249.003 160.604 249.839 162.833C248.08 163.485 246.606 163.659 244.74 163.495C241.616 163.711 239.004 164.106 236.852 166.651C234.485 169.451 233.096 173.064 230.504 175.708C228.728 177.52 223.295 181.331 222.388 183.221C221.166 184.543 219.187 185.449 217.589 186.26C215.43 187.216 213.245 188.134 211.106 189.133L210.296 189.382C207.399 189.296 204.334 189.876 201.43 190.067C197.799 190.306 194.388 189.95 190.789 189.552C189.619 189.422 188.587 189.32 187.411 189.487C182.483 187.706 177.721 185.827 173.174 183.179C172.843 184.07 172.451 184.87 171.983 185.697C171.811 185.38 171.647 185.074 171.532 184.73C171.336 184.141 171.173 183.601 170.777 183.1C169.411 181.373 166.186 181.498 164.182 181.401C164.199 181.036 164.288 180.816 164.416 180.478C165.524 179.901 166.903 179.933 168.131 179.828C166.79 178.005 162.759 174.738 162.29 172.959C162.486 171.582 161.252 169.154 160.451 168.053C158.099 164.821 154.865 163.407 151.043 162.786C148.815 162.339 146.571 162.105 144.441 161.28C145.695 159.408 145.87 156.007 146.173 153.764C145.693 153.283 145.167 152.86 144.644 152.427L144.811 152.022C145.123 151.86 145.393 151.7 145.678 151.49C145.768 151.424 145.855 151.356 145.944 151.288C144.732 149.926 143.797 148.351 142.548 147.024L142.254 147.35C141.955 146.102 141.464 144.865 141.057 143.646C143.247 142.599 144.233 140.83 146.094 139.447C146.275 138.756 146.509 138.218 146.834 137.582L148.11 136.464C148.718 136.009 149.366 135.617 150.007 135.214C152.476 133.144 154.904 131.446 157.766 129.954C158.504 132.233 158.952 133.575 160.981 134.969C161.145 135.235 161.341 135.681 161.56 135.888C161.632 135.92 161.704 135.951 161.775 135.984C164.621 137.302 167.413 140.317 170.721 139.365C173.41 140.645 182.587 141.535 185.422 140.701C185.496 140.679 185.566 140.645 185.638 140.617L188.128 140.433C189.656 139.733 192.098 139.558 193.784 139.105C196.681 138.327 199.534 137.332 202.406 136.463C202.92 136.23 203.437 135.996 203.933 135.726C205.731 134.744 206.684 132.805 207.217 130.915C207.364 130.397 207.213 130.649 207.693 130.238C211.637 129.277 215.438 127.85 219.263 126.506C220.704 126.188 221.991 125.81 223.354 125.238C225.058 124.85 226.865 124.386 228.432 123.603C230.767 122.906 233.318 122.595 235.707 122.081C240.161 121.124 244.478 119.95 248.778 118.445C251.459 119.179 255.067 118.345 257.835 118.083Z"/>
	<path fill="#D3A28F" d="M192.107 173.47C191.891 173.354 191.798 173.313 191.588 173.15C191.081 172.756 190.911 172.491 190.831 171.869C191.18 171.218 191.372 170.938 192.01 170.516L192.341 170.779Q192.398 171.951 192.491 173.12L192.107 173.47Z"/>
	<path fill="#D3A28F" d="M167.377 161.866C168.523 162.159 169.256 162.036 170.316 161.55C170.434 161.574 170.551 161.6 170.67 161.622C171.734 161.817 172.721 161.408 173.759 161.841L173.972 162.211C173.348 163.168 171.209 163.442 170.132 163.669C168.379 164.04 166.604 164.289 164.846 164.634C165.702 163.849 166.952 162.96 167.377 161.866Z"/>
	<path fill="#D3A28F" d="M229.006 159.239C229.138 160.863 228.672 162.935 229.134 164.434C229.981 164.854 231.015 164.705 231.66 165.341C231.319 165.442 231.029 165.485 230.677 165.526L230.498 165.874C227.471 166.665 224.443 167.533 221.394 168.227C222.789 167.288 224.498 166.324 225.69 165.146C226.782 165.08 227.712 164.617 228.708 164.2C228.758 162.546 228.897 160.89 229.006 159.239Z"/>
	<path fill="#A1695B" d="M234.997 149.184C236.453 150.63 237.778 152.271 238.997 153.921C236.875 153.683 234.762 153.458 232.666 153.036L232.351 152.964C232.925 151.42 234.397 150.655 234.997 149.184Z"/>
	<path fill="#A1695B" d="M237.426 144.408L237.722 144.791C239.716 145.304 241.46 143.051 243.59 142.999C242.361 144.875 240.41 148.417 237.996 148.893C237.336 149.023 236.828 148.914 236.266 148.537C236.03 148.378 235.792 148.057 235.615 147.847C235.835 147.25 235.945 147.228 236.42 146.834C236.919 146.419 237.2 146.186 237.399 145.546C237.299 145.277 237.213 144.977 237.073 144.727L237.426 144.408Z"/>
	<path fill="#A1695B" d="M164.43 146.404C165.625 147.066 166.793 147.619 167.677 148.69L167.035 149.259Q166.771 149.484 166.505 149.707C165.102 150.875 163.69 151.905 161.768 151.732C161.252 151.354 161.046 151.227 161.018 150.517C160.937 148.39 163.465 148.137 164.325 146.652C164.37 146.574 164.395 146.487 164.43 146.404Z"/>
	<path fill="#D3A28F" d="M245.998 157.296C246.604 157.184 247.111 156.889 247.653 156.611C249.449 158.468 249.003 160.604 249.839 162.833C248.08 163.485 246.606 163.659 244.74 163.495C244.522 162.196 244.044 160.928 243.647 159.673C244.31 159.983 245.11 160.441 245.828 160.574C246.498 160.699 247.013 160.448 247.535 160.056C247.741 159.427 247.859 159.224 247.538 158.588C247.243 158.002 246.575 157.544 245.998 157.296Z"/>
	<path fill="#7C4F41" d="M225.686 160.51C225.734 159.551 225.787 158.678 226.036 157.749C226.612 157.183 226.639 157.216 227.45 157.138L229.006 159.239C228.897 160.89 228.758 162.546 228.708 164.2C227.712 164.617 226.782 165.08 225.69 165.146C225.607 163.582 225.543 162.074 225.686 160.51Z"/>
	<path fill="#7C4F41" d="M167.377 161.866C167.213 160.292 167.044 158.422 167.386 156.865C167.59 155.939 167.875 155.254 168.704 154.745C169.375 154.806 169.517 154.829 169.978 155.387C171.233 156.91 170.717 159.817 170.316 161.55C169.256 162.036 168.523 162.159 167.377 161.866Z"/>
	<path fill="#D3A28F" d="M145.944 151.288L148.172 153.233C147.082 154.282 146.934 158.253 146.732 159.797C147.792 159.489 148.926 159.019 150.036 159.165C150.777 159.968 150.795 161.07 150.883 162.129C150.915 162.518 150.894 162.364 151.043 162.786C148.815 162.339 146.571 162.105 144.441 161.28C145.695 159.408 145.87 156.007 146.173 153.764C145.693 153.283 145.167 152.86 144.644 152.427L144.811 152.022C145.123 151.86 145.393 151.7 145.678 151.49C145.768 151.424 145.855 151.356 145.944 151.288Z"/>
	<path fill="#F7D8CB" d="M182.476 179.217C186.078 179.645 190.161 183.27 194.137 184.046C195.46 184.304 197.23 183.917 198.404 184.563L198.149 184.964C197.106 185.391 196.144 185.655 195.01 185.696C191.281 185.832 186.051 183.907 183.476 181.196C182.826 180.512 182.414 180.155 182.476 179.217Z"/>
	<path fill="#D3A28F" d="M204.589 169.176C204.958 169 205.148 168.76 205.551 168.946C206.171 169.233 206.824 169.87 207.06 170.518C207.302 171.185 207.146 171.899 206.802 172.495C205.902 174.06 202.921 175.815 201.13 176.202C199.047 176.652 196.834 174.829 195.019 174.12C194.143 173.778 193.03 173.613 192.107 173.47L192.491 173.12C194.424 173.363 195.892 172.35 197.552 171.491C197.92 172.7 198.194 174.278 199.343 174.987C199.441 175.048 199.549 175.092 199.652 175.144C199.928 175.176 200.376 175.259 200.663 175.202C202.36 174.867 202.729 172.412 203.539 171.127C204.443 171.165 204.865 172.013 205.755 172.308L206.049 172.02C206.138 170.897 205.247 170.034 204.589 169.176Z"/>
	<path fill="#A1695B" d="M245.01 141.681C247.699 139.286 250.236 139.111 253.663 139.244C253.87 140.673 253.91 144.692 254.715 145.689C253.978 146.311 253.882 147.498 253.629 148.399C252.256 151.787 251.123 154.803 247.653 156.611C247.111 156.889 246.604 157.184 245.998 157.296C239.989 152.301 246.623 145.695 245.01 141.681Z"/>
	<path fill="#A1695B" d="M148.11 136.464C148.718 136.009 149.366 135.617 150.007 135.214C151.704 137.434 154.348 136.322 156.242 139.156C157.707 140.18 159.141 141.271 160.356 142.592L161.611 144.263C161.013 146.084 160.801 147.948 159.403 149.367C157.979 149.621 156.852 148.692 155.728 147.911C154.76 147.238 153.821 146.358 152.671 146.041L152.373 146.274C152.305 148.784 156.663 153.275 154.628 155.842C153.798 156.255 153.152 156.116 152.306 155.821C150.715 155.268 149.446 154.306 148.172 153.233L145.944 151.288C144.732 149.926 143.797 148.351 142.548 147.024L142.254 147.35C141.955 146.102 141.464 144.865 141.057 143.646C143.247 142.599 144.233 140.83 146.094 139.447C146.275 138.756 146.509 138.218 146.834 137.582L148.11 136.464Z"/>
	<path fill="#7C4F41" d="M148.11 136.464C148.718 136.009 149.366 135.617 150.007 135.214C151.704 137.434 154.348 136.322 156.242 139.156C152.924 139.206 149.375 139.642 146.094 139.447C146.275 138.756 146.509 138.218 146.834 137.582L148.11 136.464Z"/>
	<path fill="#D3A28F" d="M167.677 148.69C183.298 156.21 202.418 162.237 219.497 156.162C222.771 154.998 225.856 153.334 228.914 151.699C229.895 152.132 231.273 153.039 232.351 152.964L232.666 153.036C230.648 153.524 228.563 155.288 227.507 157.038C227.487 157.071 227.469 157.105 227.45 157.138C226.639 157.216 226.612 157.183 226.036 157.749C225.787 158.678 225.734 159.551 225.686 160.51L225.495 158.695C225.326 158.676 225.158 158.632 224.987 158.637C223.965 158.665 213.621 163.229 212.719 163.914C211.869 164.559 212.515 165.255 211.818 166.012L211.394 165.922C209.958 163.76 208.458 164.449 206.054 164.556C201.581 164.755 196.747 165.356 192.428 163.904C189.575 162.945 186.85 161.625 183.924 160.882L183.541 160.787C182.772 161.258 182.062 161.677 181.214 161.987L180.823 161.756C180.783 160.875 180.656 160.109 180.159 159.356C178.728 157.191 174.301 154.481 171.921 153.367C170.705 152.798 168.854 152.33 167.921 151.375C167.86 150.926 167.795 150.482 167.711 150.035C167.609 149.494 167.47 149.553 167.035 149.259L167.677 148.69Z"/>
	<path fill="#D74414" d="M257.835 118.083C263.535 118.902 271.346 120.331 275.093 125.208C277.285 128.06 277.976 131.868 277.46 135.386C277.072 138.033 275.605 140.029 273.53 141.637C268.405 145.864 260.816 144.578 254.715 145.689C253.91 144.692 253.87 140.673 253.663 139.244C250.236 139.111 247.699 139.286 245.01 141.681L243.59 142.999C241.46 143.051 239.716 145.304 237.722 144.791L237.426 144.408L237.073 144.727C235.786 145.75 234.67 146.76 233.645 148.058L234.997 149.184C234.397 150.655 232.925 151.42 232.351 152.964C231.273 153.039 229.895 152.132 228.914 151.699C225.856 153.334 222.771 154.998 219.497 156.162C202.418 162.237 183.298 156.21 167.677 148.69C166.793 147.619 165.625 147.066 164.43 146.404C163.401 145.78 162.522 145.04 161.611 144.263L160.356 142.592C159.141 141.271 157.707 140.18 156.242 139.156C154.348 136.322 151.704 137.434 150.007 135.214C152.476 133.144 154.904 131.446 157.766 129.954C158.504 132.233 158.952 133.575 160.981 134.969C161.145 135.235 161.341 135.681 161.56 135.888C161.632 135.92 161.704 135.951 161.775 135.984C164.621 137.302 167.413 140.317 170.721 139.365C173.41 140.645 182.587 141.535 185.422 140.701C185.496 140.679 185.566 140.645 185.638 140.617L188.128 140.433C189.656 139.733 192.098 139.558 193.784 139.105C196.681 138.327 199.534 137.332 202.406 136.463C202.92 136.23 203.437 135.996 203.933 135.726C205.731 134.744 206.684 132.805 207.217 130.915C207.364 130.397 207.213 130.649 207.693 130.238C211.637 129.277 215.438 127.85 219.263 126.506C220.704 126.188 221.991 125.81 223.354 125.238C225.058 124.85 226.865 124.386 228.432 123.603C230.767 122.906 233.318 122.595 235.707 122.081C240.161 121.124 244.478 119.95 248.778 118.445C251.459 119.179 255.067 118.345 257.835 118.083Z"/>
	<path fill="#B53B0B" d="M201.203 154.099C202.215 154.243 203.087 154.347 204.003 154.818C204.364 155.358 204.4 155.312 204.278 155.942C203.397 156.14 202.458 156.485 201.606 156.069C201.118 155.404 201.184 154.88 201.203 154.099Z"/>
	<path fill="#7C4F41" d="M233.645 148.058L234.997 149.184C234.397 150.655 232.925 151.42 232.351 152.964C231.273 153.039 229.895 152.132 228.914 151.699C230.061 150.255 232.095 149.055 233.645 148.058Z"/>
	<path fill="#6C4E47" d="M250.984 130.688C252.56 133.364 253.206 136.201 253.663 139.244C250.236 139.111 247.699 139.286 245.01 141.681L243.59 142.999C241.46 143.051 239.716 145.304 237.722 144.791L237.426 144.408C240.543 138.464 244.855 133.537 250.984 130.688Z"/>
	<path fill="#B53B0B" d="M150.007 135.214C152.476 133.144 154.904 131.446 157.766 129.954C158.504 132.233 158.952 133.575 160.981 134.969C161.145 135.235 161.341 135.681 161.56 135.888C161.632 135.92 161.704 135.951 161.775 135.984C164.621 137.302 167.413 140.317 170.721 139.365C173.41 140.645 182.587 141.535 185.422 140.701C185.496 140.679 185.566 140.645 185.638 140.617L188.128 140.433C189.656 139.733 192.098 139.558 193.784 139.105C196.681 138.327 199.534 137.332 202.406 136.463C200.324 140.498 192.817 142.728 188.72 144.039C181.441 146.368 173.364 147.482 166.116 144.532C164.336 143.808 162.293 142.499 160.356 142.592C159.141 141.271 157.707 140.18 156.242 139.156C154.348 136.322 151.704 137.434 150.007 135.214Z"/>
	<path fill="#973105" d="M161.56 135.888C161.632 135.92 161.704 135.951 161.775 135.984C164.621 137.302 167.413 140.317 170.721 139.365C173.41 140.645 182.587 141.535 185.422 140.701C185.496 140.679 185.566 140.645 185.638 140.617L188.128 140.433C188.397 140.644 188.25 140.488 188.433 140.998C187.544 141.579 186.534 141.859 185.493 142.041C179.622 143.067 168.581 143.358 163.538 139.587C162.127 138.533 161.792 137.594 161.56 135.888Z"/>
	<path fill="#973105" d="M250.984 130.688C254.993 128.764 260.599 128.243 264.835 129.717C267.794 130.747 270.585 132.902 271.879 135.815C272.702 137.667 272.703 139.888 273.53 141.637C268.405 145.864 260.816 144.578 254.715 145.689C253.91 144.692 253.87 140.673 253.663 139.244C253.206 136.201 252.56 133.364 250.984 130.688Z"/>
	<path fill="#F4F4F4" d="M157.377 115.324C156.414 113.705 152.688 99.9072 152.357 97.7967C152.094 96.119 152.048 94.4345 152.284 92.7503C152.929 88.1503 155.602 84.3775 159.277 81.6442C175.782 69.3692 211.6 73.8298 230.692 76.6021C240.204 77.9833 251.929 79.9022 258.044 88.0896C259.212 91.6058 258.601 94.4505 257.185 97.7565C258.065 98.9759 258.649 99.6325 259.853 100.545C259.902 100.582 259.938 100.632 259.981 100.676C259.056 102.309 258.196 104.068 257.159 105.626C257.053 107.402 257.068 116.769 257.565 117.959L257.835 118.083C255.067 118.345 251.459 119.179 248.778 118.445C244.478 119.95 240.161 121.124 235.707 122.081C233.318 122.595 230.767 122.906 228.432 123.603C226.865 124.386 225.058 124.85 223.354 125.238C221.991 125.81 220.704 126.188 219.263 126.506C215.438 127.85 211.637 129.277 207.693 130.238C207.213 130.649 207.364 130.397 207.217 130.915C206.684 132.805 205.731 134.744 203.933 135.726C203.437 135.996 202.92 136.23 202.406 136.463C199.534 137.332 196.681 138.327 193.784 139.105C192.098 139.558 189.656 139.733 188.128 140.433L185.638 140.617C185.566 140.645 185.496 140.679 185.422 140.701C182.587 141.535 173.41 140.645 170.721 139.365C167.413 140.317 164.621 137.302 161.775 135.984C161.704 135.951 161.632 135.92 161.56 135.888C161.341 135.681 161.145 135.235 160.981 134.969C158.952 133.575 158.504 132.233 157.766 129.954C154.904 131.446 152.476 133.144 150.007 135.214C149.366 135.617 148.718 136.009 148.11 136.464L146.834 137.582C146.509 138.218 146.275 138.756 146.094 139.447C144.233 140.83 143.247 142.599 141.057 143.646C139.045 138.711 140.058 133.881 139.331 128.824C139.483 128.863 139.631 128.926 139.787 128.941C140.292 128.989 141.075 128.784 141.503 128.534C142.523 127.936 143.341 126.931 144.115 126.05C145.662 124.29 147.117 122.449 148.944 120.965C151.551 118.847 154.658 117.321 157.377 115.324Z"/>
	<path fill="#D74414" d="M257.185 97.7565C258.065 98.9759 258.649 99.6325 259.853 100.545C259.902 100.582 259.938 100.632 259.981 100.676C259.056 102.309 258.196 104.068 257.159 105.626C256.047 105.705 254.502 105.977 253.543 105.341C254.662 102.76 255.91 100.263 257.185 97.7565Z"/>
	<path fill="#C78370" d="M221.326 104.036C226.712 100.403 233.388 100.018 239.635 101.217C241.658 101.606 243.691 102.192 245.623 102.906C247.507 103.602 250.933 105.565 252.792 105.663C252.998 105.674 253.189 105.55 253.388 105.493L253.543 105.341C254.502 105.977 256.047 105.705 257.159 105.626C257.053 107.402 257.068 116.769 257.565 117.959L257.835 118.083C255.067 118.345 251.459 119.179 248.778 118.445C244.478 119.95 240.161 121.124 235.707 122.081C233.318 122.595 230.767 122.906 228.432 123.603C226.865 124.386 225.058 124.85 223.354 125.238C221.991 125.81 220.704 126.188 219.263 126.506C215.438 127.85 211.637 129.277 207.693 130.238C207.318 129.955 207.149 129.948 207.034 129.468C206.449 127.028 207.884 123.602 209.219 121.553C208.946 121.462 208.675 121.369 208.411 121.255C207.789 120.985 207.537 120.593 207.312 119.977C206.519 117.801 207.283 115.096 208.279 113.094C211.323 111.559 214.643 111.429 217.973 111.186C218.076 109.525 218.275 107.899 218.514 106.252C219.393 105.394 220.316 104.724 221.326 104.036Z"/>
	<path fill="#A1695B" d="M248.484 110.42C249.261 109.926 250.193 109.684 251.121 109.996C251.917 110.263 252.545 111.126 252.772 111.916C252.985 112.654 252.927 113.562 252.48 114.212C252.137 114.71 252.038 114.719 251.483 114.831C251.023 112.572 250.369 111.77 248.484 110.42Z"/>
	<path fill="#6C4E47" d="M221.326 104.036C222.302 106.015 222.211 116.275 222.132 118.886C222.749 120.924 223.214 123.112 223.354 125.238C221.991 125.81 220.704 126.188 219.263 126.506C215.438 127.85 211.637 129.277 207.693 130.238C207.318 129.955 207.149 129.948 207.034 129.468C206.449 127.028 207.884 123.602 209.219 121.553C208.946 121.462 208.675 121.369 208.411 121.255C207.789 120.985 207.537 120.593 207.312 119.977C206.519 117.801 207.283 115.096 208.279 113.094C211.323 111.559 214.643 111.429 217.973 111.186C218.076 109.525 218.275 107.899 218.514 106.252C219.393 105.394 220.316 104.724 221.326 104.036Z"/>
	<path fill="#A1695B" d="M219.244 125.643C221.15 123.892 221.56 121.297 222.132 118.886C222.749 120.924 223.214 123.112 223.354 125.238C221.991 125.81 220.704 126.188 219.263 126.506L219.244 125.643Z"/>
	<path fill="#F4F4F4" d="M209.219 121.553C211.274 120.481 213.903 119.218 216.25 119.992C217.411 120.375 218.286 121.316 218.783 122.41C219.217 123.363 219.187 124.609 219.244 125.643L219.263 126.506C215.438 127.85 211.637 129.277 207.693 130.238C207.318 129.955 207.149 129.948 207.034 129.468C206.449 127.028 207.884 123.602 209.219 121.553Z"/>
	<path fill="#F4F4F4" d="M228.702 109.827C229.9 108.517 231.148 107.328 232.839 106.674C237.593 104.837 244.139 108.437 248.484 110.42C250.369 111.77 251.023 112.572 251.483 114.831C251.471 115.627 251.397 116.153 250.809 116.749C250.199 117.367 249.487 117.948 248.778 118.445C244.478 119.95 240.161 121.124 235.707 122.081C233.318 122.595 230.767 122.906 228.432 123.603C227.215 121.748 228.354 112.372 228.702 109.827Z"/>
	<path fill="#C78370" d="M161.442 101.952C163.489 100.601 165.485 99.3531 167.814 98.5495C174.695 96.1759 183.508 97.6433 190.518 99.0788C194.198 99.8323 204.02 101.57 206.081 104.712C207.601 107.028 206.031 111.179 207.808 112.979L208.279 113.094C207.283 115.096 206.519 117.801 207.312 119.977C207.537 120.593 207.789 120.985 208.411 121.255C208.675 121.369 208.946 121.462 209.219 121.553C207.884 123.602 206.449 127.028 207.034 129.468C207.149 129.948 207.318 129.955 207.693 130.238C207.213 130.649 207.364 130.397 207.217 130.915C206.684 132.805 205.731 134.744 203.933 135.726C203.437 135.996 202.92 136.23 202.406 136.463C199.534 137.332 196.681 138.327 193.784 139.105C192.098 139.558 189.656 139.733 188.128 140.433L185.638 140.617C185.566 140.645 185.496 140.679 185.422 140.701C182.587 141.535 173.41 140.645 170.721 139.365C167.413 140.317 164.621 137.302 161.775 135.984C161.704 135.951 161.632 135.92 161.56 135.888C161.341 135.681 161.145 135.235 160.981 134.969C158.952 133.575 158.504 132.233 157.766 129.954C154.904 131.446 152.476 133.144 150.007 135.214C149.366 135.617 148.718 136.009 148.11 136.464L146.834 137.582C146.509 138.218 146.275 138.756 146.094 139.447C144.233 140.83 143.247 142.599 141.057 143.646C139.045 138.711 140.058 133.881 139.331 128.824C139.483 128.863 139.631 128.926 139.787 128.941C140.292 128.989 141.075 128.784 141.503 128.534C142.523 127.936 143.341 126.931 144.115 126.05C145.662 124.29 147.117 122.449 148.944 120.965C151.551 118.847 154.658 117.321 157.377 115.324C158.829 113.003 158.407 109.843 158.653 107.214C158.873 104.86 159.621 103.434 161.442 101.952Z"/>
	<path fill="#6C4E47" d="M201.65 109.558C203.142 112.845 203.116 124.371 201.766 127.8C201.426 128.662 200.829 129.624 199.897 129.933C199.657 130.012 199.466 129.998 199.225 129.999C202.842 126.072 201.072 117.483 200.909 112.49C201.249 111.525 201.216 110.455 201.65 109.558Z"/>
	<path fill="#A1695B" d="M191.567 107.135C194.002 106.999 196.177 106.077 198.653 106.086C200.027 107.113 201.155 107.828 201.65 109.558C201.216 110.455 201.249 111.525 200.909 112.49L200.767 112.445C200.728 111.735 200.845 111.302 200.373 110.741C197.966 112.364 197.631 114.988 194.197 115.116L193.923 113.761C194.288 112.32 194.545 110.859 194.816 109.399Q194.183 109.34 193.553 109.261C192.54 109.131 191.369 108.944 190.71 108.09C190.906 107.459 191.048 107.498 191.567 107.135Z"/>
	<path fill="#D3A28F" d="M171.538 119.168L171.581 119.406C171.749 120.369 171.534 122.307 172.038 123.046L172.54 122.957C173.088 123.354 173.09 123.415 173.309 124.061C174.027 126.063 174.341 128.47 175.896 130.021C176.098 130.713 176.438 131.118 176.887 131.659C179.494 132.347 182.402 131.879 184.864 132.737C184.283 133.111 183.69 133.449 183.066 133.746C180.07 135.172 177.668 135.688 174.481 134.565C170.338 129.844 171.233 124.91 171.538 119.168Z"/>
	<path fill="#E6F1F4" d="M173.309 124.061C174.027 126.063 174.341 128.47 175.896 130.021C176.098 130.713 176.438 131.118 176.887 131.659C175.545 131.193 174.077 130.43 173.337 129.163C172.401 127.558 172.822 125.735 173.309 124.061Z"/>
	<path fill="#E6F1F4" d="M170.47 110.311C170.463 108.78 170.505 107.627 171.387 106.33C172.462 104.75 174.18 103.946 176.023 103.642C178.742 103.193 190.344 104.555 192.39 106.032L192.39 106.542L191.567 107.135C191.048 107.498 190.906 107.459 190.71 108.09C191.369 108.944 192.54 109.131 193.553 109.261Q194.183 109.34 194.816 109.399C194.545 110.859 194.288 112.32 193.923 113.761C193.408 113.504 193.6 113.634 193.18 113.304C192.775 112.986 192.373 112.647 191.939 112.366C188.359 110.05 181.052 108.15 176.853 109.137C175.888 109.364 175.335 110.551 174.495 110.737C173.457 110.967 172.075 109.939 170.47 110.311Z"/>
	<path fill="#A1695B" d="M162.316 111.281C163.059 116.826 169.053 133.876 173.549 137.419C177.252 140.337 181.116 140.668 185.638 140.617C185.566 140.645 185.496 140.679 185.422 140.701C182.587 141.535 173.41 140.645 170.721 139.365C167.413 140.317 164.621 137.302 161.775 135.984C161.704 135.951 161.632 135.92 161.56 135.888C161.341 135.681 161.145 135.235 160.981 134.969C161.316 134.804 161.546 134.614 161.833 134.38C162.357 133.327 162.347 132.135 162.445 130.98C161.695 130.228 160.902 129.492 160.465 128.507L160.592 128.375C161.216 128.313 162.106 128.337 162.625 127.966C162.929 127.749 162.899 127.027 162.946 126.666Q162.011 118.999 162.316 111.281Z"/>
	<path fill="#7C4F41" d="M162.946 126.666C163.952 130.615 165.229 134.433 168.297 137.287C168.95 137.895 170.31 138.636 170.721 139.365C167.413 140.317 164.621 137.302 161.775 135.984C161.704 135.951 161.632 135.92 161.56 135.888C161.341 135.681 161.145 135.235 160.981 134.969C161.316 134.804 161.546 134.614 161.833 134.38C162.357 133.327 162.347 132.135 162.445 130.98C161.695 130.228 160.902 129.492 160.465 128.507L160.592 128.375C161.216 128.313 162.106 128.337 162.625 127.966C162.929 127.749 162.899 127.027 162.946 126.666Z"/>
	<path fill="#6C4E47" d="M161.442 101.952C162.662 104.307 162.161 108.614 162.316 111.281Q162.011 118.999 162.946 126.666C162.899 127.027 162.929 127.749 162.625 127.966C162.106 128.337 161.216 128.313 160.592 128.375L160.465 128.507C160.902 129.492 161.695 130.228 162.445 130.98C162.347 132.135 162.357 133.327 161.833 134.38C161.546 134.614 161.316 134.804 160.981 134.969C158.952 133.575 158.504 132.233 157.766 129.954C154.904 131.446 152.476 133.144 150.007 135.214C149.366 135.617 148.718 136.009 148.11 136.464L146.834 137.582C146.509 138.218 146.275 138.756 146.094 139.447C144.233 140.83 143.247 142.599 141.057 143.646C139.045 138.711 140.058 133.881 139.331 128.824C139.483 128.863 139.631 128.926 139.787 128.941C140.292 128.989 141.075 128.784 141.503 128.534C142.523 127.936 143.341 126.931 144.115 126.05C145.662 124.29 147.117 122.449 148.944 120.965C151.551 118.847 154.658 117.321 157.377 115.324C158.829 113.003 158.407 109.843 158.653 107.214C158.873 104.86 159.621 103.434 161.442 101.952Z"/>
	<path fill="#4E3045" d="M146.834 137.582C146.087 136.946 145.233 135.998 144.866 135.079C144.61 134.435 144.736 134.076 144.981 133.466C145.537 133.213 145.767 133.046 146.373 133.353C147.393 133.871 147.859 135.439 148.11 136.464L146.834 137.582Z"/>
	<path fill="#C9E7F5" d="M170.47 110.311C172.075 109.939 173.457 110.967 174.495 110.737C175.335 110.551 175.888 109.364 176.853 109.137C181.052 108.15 188.359 110.05 191.939 112.366C192.373 112.647 192.775 112.986 193.18 113.304C193.6 113.634 193.408 113.504 193.923 113.761L194.197 115.116C197.631 114.988 197.966 112.364 200.373 110.741C200.845 111.302 200.728 111.735 200.767 112.445L200.909 112.49C201.072 117.483 202.842 126.072 199.225 129.999C194.474 131.095 189.596 131.403 184.864 132.737C182.402 131.879 179.494 132.347 176.887 131.659C176.438 131.118 176.098 130.713 175.896 130.021C174.341 128.47 174.027 126.063 173.309 124.061C173.09 123.415 173.088 123.354 172.54 122.957L172.038 123.046C171.534 122.307 171.749 120.369 171.581 119.406L171.538 119.168C171.424 116.218 170.641 113.282 170.47 110.311Z"/>
	<path fill="#7EBFE4" d="M172.54 122.957C173.034 121.812 173.714 120.888 174.489 119.922C175.789 122.14 176.65 124.7 178.221 126.722C178.28 126.797 178.334 126.876 178.394 126.95C179.723 128.588 187.244 128.996 187.454 130.103C183.94 131.163 179.462 130.679 175.896 130.021C174.341 128.47 174.027 126.063 173.309 124.061C173.09 123.415 173.088 123.354 172.54 122.957Z"/>
	<path fill="#F4F4F4" d="M194.197 115.116C197.631 114.988 197.966 112.364 200.373 110.741C200.845 111.302 200.728 111.735 200.767 112.445L200.478 113.646L200.363 112.277L199.945 112.273C198.952 113.531 197.872 122.852 197.61 124.88C193.977 123.369 186.35 121.902 184.801 117.962C184.424 117.003 184.442 115.855 184.872 114.916C185.093 114.433 185.157 114.465 185.576 114.201C187.853 114.509 190.421 119.612 192.892 117.876C193.746 117.276 193.811 116.593 194.004 115.638C194.075 115.289 194.029 115.428 194.197 115.116Z"/>
	<path fill="#C78370" d="M222.388 183.221C226.69 187.205 228.747 190.951 230.272 196.592C230.676 198.087 230.908 199.786 231.474 201.211C230.251 202.353 230.101 206.126 229.85 207.749C229.504 211.34 230.143 214.694 230.225 218.256C230.914 220.122 231.581 222 232.323 223.845C233.986 224.198 234.944 225.702 235.813 227.061C237.531 229.747 239.944 235.678 241.669 237.59C240.861 239.453 239.5 240.959 238.659 242.793C239.043 247.248 242.692 256.26 246.082 259.128C248.183 260.904 250.676 262.151 252.936 263.699L253.146 263.992C251.985 267.985 249.196 273.518 245.434 275.564C244.711 275.957 243.967 276.305 243.236 276.683C237.317 278.934 230.529 282.721 224.719 284.426C219.589 285.461 214.399 285.538 209.193 285.826L207.152 285.671C204.657 285.383 202.148 285.25 199.642 285.09C197.5 285.051 195.363 284.648 193.262 284.263C191.788 283.913 190.305 283.706 188.807 283.495C187.475 283.249 186.183 283.051 184.831 282.951C184.459 282.924 184.393 282.954 184.057 282.798C182.89 282.256 182.525 280.343 182.149 279.215C177.551 282.95 174.362 288.237 169.01 291.147C168.9 289.43 168.849 286.942 169.344 285.308L169.425 285.004C169.531 275.036 170.135 265.112 170.71 255.162C170.754 252.862 170.757 250.514 171.156 248.244C170.748 246.262 170.841 244.76 171.871 243.016C177.352 238.053 173.588 234.36 172.71 228.423C172.286 225.558 172.666 222.625 173.054 219.775L173.048 217.997Q173.2 211.543 173.221 205.088C172.75 202.33 171.638 199.835 170.825 197.175C169.516 192.892 169.895 189.663 171.983 185.697C172.451 184.87 172.843 184.07 173.174 183.179C177.721 185.827 182.483 187.706 187.411 189.487C188.587 189.32 189.619 189.422 190.789 189.552C194.388 189.95 197.799 190.306 201.43 190.067C204.334 189.876 207.399 189.296 210.296 189.382L211.106 189.133C213.245 188.134 215.43 187.216 217.589 186.26C219.187 185.449 221.166 184.543 222.388 183.221Z"/>
	<path fill="#B4B2B2" d="M215.473 231.442C216.899 229.552 218.319 227.701 219.917 225.95C220.59 230.151 217.132 238.495 214.66 241.918C214.155 242.617 213.697 242.937 212.895 243.234C213.456 239.827 216.354 234.971 215.836 231.701L215.473 231.442Z"/>
	<path fill="#D3A28F" d="M174.298 277.704C174.066 277.767 173.797 277.745 173.557 277.751L173.119 277.277C172.962 276.664 172.923 276.186 172.993 275.552C173.286 272.894 174.46 270.551 176.605 268.909C179.742 266.507 183.194 266.257 186.952 266.765C185.959 267.536 184.885 268.173 183.816 268.831C179.309 270.754 176.387 273.233 174.298 277.704Z"/>
	<path fill="#A1695B" d="M183.816 268.831C182.773 271.907 180.42 272.711 178.652 275.135C176.243 278.436 174.421 285.544 170.561 287.426C170.206 287.6 170.097 287.47 169.75 287.358C169.274 286.638 169.372 286.159 169.344 285.308L169.425 285.004C169.461 284.964 169.492 284.919 169.534 284.886C172.016 282.913 173.109 280.6 174.298 277.704C176.387 273.233 179.309 270.754 183.816 268.831Z"/>
	<path fill="#F4F4F4" d="M194.275 230.353C196.747 235.022 197.074 238.15 196.913 243.357Q199.223 243.147 201.509 242.76L201.482 246.518C206.871 242.452 211.07 236.522 215.473 231.442L215.836 231.701C216.354 234.971 213.456 239.827 212.895 243.234C208.681 252.44 199.279 261.686 190.804 266.889C186.302 265.411 182.632 263.447 178.666 260.851C175.753 259.672 173.39 256.83 170.71 255.162C170.754 252.862 170.757 250.514 171.156 248.244L171.909 249.057C174.454 251.252 186.067 262.023 188.771 262.022C189.164 262.022 189.435 261.72 189.636 261.402C190.558 259.939 190.231 256.779 190.112 255.08C190.539 255.048 190.936 254.98 191.356 254.903C191.982 254.342 192.328 253.83 192.575 253.017C192.922 251.877 192.712 250.472 192.142 249.436C191.668 248.574 191.053 248.306 190.147 248.025C190.306 246.194 190.073 244.355 190.332 242.525C191.007 242.321 191.506 242.102 191.978 241.546C192.45 240.99 192.745 240.324 192.669 239.58C192.497 237.902 191.435 236.979 190.219 235.965C190.671 235.246 190.687 235.301 191.513 235.065L192.269 235.261C193.611 234.365 193.745 231.848 194.275 230.353Z"/>
	<path fill="#7EBFE4" d="M171.156 248.244L171.909 249.057C172.079 251.535 173.719 253.933 175.545 255.54C176.619 256.484 179.367 257.822 179.814 259.026C179.578 259.792 179.172 260.253 178.666 260.851C175.753 259.672 173.39 256.83 170.71 255.162C170.754 252.862 170.757 250.514 171.156 248.244Z"/>
	<path fill="#D74414" d="M173.048 217.997C173.601 217.689 174.562 217.744 175.18 217.827L174.626 218.215C174.597 218.927 174.71 219.055 175.228 219.6C175.286 219.661 175.361 219.704 175.427 219.756C177.944 220.048 179.984 220.853 182.27 221.916C182.901 222.388 183.526 222.871 184.177 223.314C184.477 224.131 185.038 225.187 184.84 226.056L184.474 226.243L185.735 226.486C186.08 225.685 185.883 224.724 186.113 223.86L186.626 223.707C187.095 223.906 187.577 224.13 188.066 224.273C188.701 224.458 189.033 224.468 189.609 224.161C189.902 226.636 189.866 229.087 190.104 231.549L189.983 235.43L190.219 235.965C191.435 236.979 192.497 237.902 192.669 239.58C192.745 240.324 192.45 240.99 191.978 241.546C191.506 242.102 191.007 242.321 190.332 242.525C190.073 244.355 190.306 246.194 190.147 248.025C191.053 248.306 191.668 248.574 192.142 249.436C192.712 250.472 192.922 251.877 192.575 253.017C192.328 253.83 191.982 254.342 191.356 254.903C190.936 254.98 190.539 255.048 190.112 255.08C190.231 256.779 190.558 259.939 189.636 261.402C189.435 261.72 189.164 262.022 188.771 262.022C186.067 262.023 174.454 251.252 171.909 249.057L171.156 248.244C170.748 246.262 170.841 244.76 171.871 243.016C177.352 238.053 173.588 234.36 172.71 228.423C172.286 225.558 172.666 222.625 173.054 219.775L173.048 217.997Z"/>
	<path fill="#B53B0B" d="M173.048 217.997C173.601 217.689 174.562 217.744 175.18 217.827L174.626 218.215C174.597 218.927 174.71 219.055 175.228 219.6C175.286 219.661 175.361 219.704 175.427 219.756C175.265 220.298 175.081 220.829 174.998 221.39C174.638 221.909 174.39 222.3 174.194 222.91L173.51 222.629C172.951 221.848 173.106 220.735 173.054 219.775L173.048 217.997Z"/>
	<path fill="#973105" d="M174.194 222.91C174.39 222.3 174.638 221.909 174.998 221.39C177.718 224.101 180.936 225.042 184.474 226.243L185.735 226.486C185.603 227.029 185.741 226.805 185.331 227.166C182.613 226.923 176.098 224.829 174.194 222.91Z"/>
	<path fill="#D74414" d="M175.427 219.756C177.944 220.048 179.984 220.853 182.27 221.916C182.901 222.388 183.526 222.871 184.177 223.314C184.477 224.131 185.038 225.187 184.84 226.056L184.474 226.243C180.936 225.042 177.718 224.101 174.998 221.39C175.081 220.829 175.265 220.298 175.427 219.756Z"/>
	<path fill="#6C4E47" d="M185.502 234.864C186.541 235.086 187.554 235.442 188.595 235.645C189.226 235.769 189.443 235.781 189.983 235.43L190.219 235.965C191.435 236.979 192.497 237.902 192.669 239.58C192.745 240.324 192.45 240.99 191.978 241.546C191.506 242.102 191.007 242.321 190.332 242.525C189.269 241.339 187.846 240.626 186.488 239.83L185.502 234.864Z"/>
	<path fill="#6C4E47" d="M185.542 252.734C185.434 251.603 185.248 250.402 185.261 249.268C185.27 248.509 185.428 248.222 185.937 247.685C186.724 247.456 187.222 247.506 188.027 247.649L190.147 248.025C191.053 248.306 191.668 248.574 192.142 249.436C192.712 250.472 192.922 251.877 192.575 253.017C192.328 253.83 191.982 254.342 191.356 254.903C190.936 254.98 190.539 255.048 190.112 255.08C188.919 253.902 187.071 253.354 185.542 252.734Z"/>
	<path fill="#F4F4F4" d="M228.948 227.431C228.649 227.017 228.401 226.684 228.261 226.184C227.743 224.325 228.573 219.912 229.638 218.36L230.225 218.256C230.914 220.122 231.581 222 232.323 223.845C233.986 224.198 234.944 225.702 235.813 227.061C237.531 229.747 239.944 235.678 241.669 237.59C240.861 239.453 239.5 240.959 238.659 242.793C239.043 247.248 242.692 256.26 246.082 259.128C248.183 260.904 250.676 262.151 252.936 263.699L253.146 263.992C251.985 267.985 249.196 273.518 245.434 275.564C244.711 275.957 243.967 276.305 243.236 276.683C237.317 278.934 230.529 282.721 224.719 284.426C219.589 285.461 214.399 285.538 209.193 285.826L207.152 285.671C204.657 285.383 202.148 285.25 199.642 285.09C197.5 285.051 195.363 284.648 193.262 284.263C191.788 283.913 190.305 283.706 188.807 283.495C187.475 283.249 186.183 283.051 184.831 282.951C184.459 282.924 184.393 282.954 184.057 282.798C182.89 282.256 182.525 280.343 182.149 279.215C186.026 271.686 194.181 270.569 200.867 266.695Q202.785 265.571 204.601 264.287Q206.417 263.004 208.117 261.572Q209.817 260.139 211.39 258.567Q212.963 256.995 214.396 255.295C218.796 250.112 222.069 244.216 224.615 237.933Q225.686 235.337 226.473 232.642C226.806 231.472 227.138 227.836 227.847 227.222L228.948 227.431Z"/>
	<path fill="#973105" d="M232.323 223.845C233.986 224.198 234.944 225.702 235.813 227.061C237.531 229.747 239.944 235.678 241.669 237.59C240.861 239.453 239.5 240.959 238.659 242.793C236.781 241.832 235.366 231.873 233.737 229.353C233.153 229.071 232.539 230.079 231.746 230.349C230.988 230.2 230.837 230.179 230.266 229.674L230.398 229.257C231.015 229.094 231.631 228.975 232.258 228.861C232.304 228.81 232.357 228.765 232.397 228.708C233.37 227.307 232.647 225.394 232.323 223.845Z"/>
	<defs>
		<linearGradient id="gradient_0" gradientUnits="userSpaceOnUse" x1="167.57832" y1="206.64943" x2="227.28394" y2="217.4556">
			<stop offset="0" stop-color="#465B4E"/>
			<stop offset="1" stop-color="#5B7B6C"/>
		</linearGradient>
	</defs>
	<path fill="url(#gradient_0)" d="M222.388 183.221C226.69 187.205 228.747 190.951 230.272 196.592C230.676 198.087 230.908 199.786 231.474 201.211C230.251 202.353 230.101 206.126 229.85 207.749C228.308 214.681 224.196 220.427 219.917 225.95C218.319 227.701 216.899 229.552 215.473 231.442C211.07 236.522 206.871 242.452 201.482 246.518L201.509 242.76Q199.223 243.147 196.913 243.357C197.074 238.15 196.747 235.022 194.275 230.353C193.745 231.848 193.611 234.365 192.269 235.261L191.513 235.065C190.687 235.301 190.671 235.246 190.219 235.965L189.983 235.43L190.104 231.549C189.866 229.087 189.902 226.636 189.609 224.161C189.033 224.468 188.701 224.458 188.066 224.273C187.577 224.13 187.095 223.906 186.626 223.707L186.113 223.86C185.883 224.724 186.08 225.685 185.735 226.486L184.474 226.243L184.84 226.056C185.038 225.187 184.477 224.131 184.177 223.314C183.526 222.871 182.901 222.388 182.27 221.916C179.984 220.853 177.944 220.048 175.427 219.756C175.361 219.704 175.286 219.661 175.228 219.6C174.71 219.055 174.597 218.927 174.626 218.215L175.18 217.827C174.562 217.744 173.601 217.689 173.048 217.997Q173.2 211.543 173.221 205.088C172.75 202.33 171.638 199.835 170.825 197.175C169.516 192.892 169.895 189.663 171.983 185.697C172.451 184.87 172.843 184.07 173.174 183.179C177.721 185.827 182.483 187.706 187.411 189.487C188.587 189.32 189.619 189.422 190.789 189.552C194.388 189.95 197.799 190.306 201.43 190.067C204.334 189.876 207.399 189.296 210.296 189.382L211.106 189.133C213.245 188.134 215.43 187.216 217.589 186.26C219.187 185.449 221.166 184.543 222.388 183.221Z"/>
	<path fill="#566C61" d="M211.106 189.133C213.245 188.134 215.43 187.216 217.589 186.26C217.925 187.228 218.167 187.751 217.678 188.738C216.12 191.882 211.357 195.57 207.969 196.508C207.299 196.693 206.914 196.74 206.274 196.475C206.458 194.38 210.3 191.838 211.106 189.133Z"/>
	<path fill="#973105" d="M176.306 207.825C178.994 210.642 188.586 219.326 189.776 222.168L189.609 224.161C189.033 224.468 188.701 224.458 188.066 224.273C187.577 224.13 187.095 223.906 186.626 223.707L186.113 223.86C185.883 224.724 186.08 225.685 185.735 226.486L184.474 226.243L184.84 226.056C185.038 225.187 184.477 224.131 184.177 223.314C183.526 222.871 182.901 222.388 182.27 221.916C182.562 221.379 182.5 221.426 182.447 220.866C183.12 221.05 183.639 221.19 184.347 221.11C184.474 220.331 183.036 218.91 182.512 218.249C179.796 214.818 177.805 211.969 176.306 207.825Z"/>
	<path fill="#D3A28F" d="M187.411 189.487C188.587 189.32 189.619 189.422 190.789 189.552C194.388 189.95 197.799 190.306 201.43 190.067C204.334 189.876 207.399 189.296 210.296 189.382C208.164 191.628 205.288 193.354 202.232 193.924C196.327 195.025 192.095 192.74 187.411 189.487Z"/>
	<path fill="#D74414" d="M173.221 205.088C174.011 204.834 174.12 204.661 174.891 205.036C175.496 205.923 175.824 206.877 176.306 207.825C177.805 211.969 179.796 214.818 182.512 218.249C183.036 218.91 184.474 220.331 184.347 221.11C183.639 221.19 183.12 221.05 182.447 220.866C182.5 221.426 182.562 221.379 182.27 221.916C179.984 220.853 177.944 220.048 175.427 219.756C175.361 219.704 175.286 219.661 175.228 219.6C174.71 219.055 174.597 218.927 174.626 218.215L175.18 217.827C174.562 217.744 173.601 217.689 173.048 217.997Q173.2 211.543 173.221 205.088Z"/>
	<path fill="#973105" d="M175.427 219.756C175.361 219.704 175.286 219.661 175.228 219.6C174.71 219.055 174.597 218.927 174.626 218.215L175.18 217.827C177.58 218.93 179.955 219.981 182.447 220.866C182.5 221.426 182.562 221.379 182.27 221.916C179.984 220.853 177.944 220.048 175.427 219.756Z"/>
	<path fill="#B4B2B2" d="M189.776 222.168L190.023 221.749C193.058 222.879 198.24 229.448 199.623 232.414C201.133 235.652 201.654 239.213 201.509 242.76Q199.223 243.147 196.913 243.357C197.074 238.15 196.747 235.022 194.275 230.353C193.745 231.848 193.611 234.365 192.269 235.261L191.513 235.065C190.687 235.301 190.671 235.246 190.219 235.965L189.983 235.43L190.104 231.549C189.866 229.087 189.902 226.636 189.609 224.161L189.776 222.168Z"/>
	<path fill="#F7D8CB" d="M190.104 231.549C190.118 230.478 189.888 227.799 190.484 226.982L190.246 227.364L190.866 227.235C192.665 229.816 191.882 232.139 191.513 235.065C190.687 235.301 190.671 235.246 190.219 235.965L189.983 235.43L190.104 231.549Z"/>
	<path fill="#FBC6AE" d="M142.709 226.736L143.199 226.964C143.56 226.584 143.644 226.256 143.817 225.773C144.261 224.536 145.247 222.918 146.505 222.353C148.989 221.236 152.69 222.16 155.101 223.228C159.837 225.325 165.597 232.511 168.039 236.967C169.333 239.032 170.169 241.235 171.871 243.016C170.841 244.76 170.748 246.262 171.156 248.244C170.757 250.514 170.754 252.862 170.71 255.162C170.135 265.112 169.531 275.036 169.425 285.004L169.344 285.308C168.849 286.942 168.9 289.43 169.01 291.147C167.637 295.83 167.198 311.509 167.711 316.912C171.375 312.57 174.386 308.689 180.481 308.164C184.131 307.85 187.73 309.14 190.493 311.508C192.615 313.327 194.755 316.22 194.991 319.063C195.127 320.709 194.539 322.263 193.461 323.499C190.281 327.144 184.917 328.888 181.202 332.111C178.122 330.867 173.418 326.444 170.516 324.309C166.028 321.006 161.018 318.597 156.463 315.44C154.04 314.208 151.634 312.938 149.114 311.912C148.344 312.476 148.118 312.708 147.956 313.682C146.344 315.951 146.323 318.793 145.479 321.359C144.206 323.981 142.752 325.934 139.846 326.888C136.302 328.05 131.853 327.254 128.507 325.796C127.156 324.76 126.021 323.572 125.086 322.15C121.084 316.061 122.481 308.304 124.06 301.631C124.374 300.301 124.978 299.03 125.241 297.701L125.311 297.336C124.309 296.599 123.222 295.962 122.169 295.299L120.273 294.673C120.26 294.78 120.246 294.886 120.235 294.994C119.579 301.435 122.47 307.613 116.275 312.623C114.047 314.425 111.172 315.093 108.354 314.733Q107.785 314.659 107.227 314.528Q106.669 314.398 106.126 314.213Q105.583 314.028 105.062 313.789Q104.54 313.551 104.045 313.262Q103.549 312.974 103.085 312.637Q102.621 312.3 102.192 311.919Q101.764 311.538 101.375 311.116Q100.987 310.694 100.642 310.236C97.3924 305.971 97.2971 300.35 97.1697 295.224L96.9471 295.215L96.6302 294.69C94.5681 294.738 91.8902 296.908 89.9319 297.7C87.6598 297.113 85.4868 296.386 83.2838 295.588C82.8562 295.267 82.3479 295.011 81.8874 294.737C81.3971 294.315 80.8659 293.891 80.5015 293.351C77.4323 288.801 79.8054 278.331 80.7859 273.146C81.1941 271.534 83.1721 267.129 82.9813 265.827L82.2602 265.517L82.8315 265.167L82.8515 264.515C81.3517 261.729 74.1758 256.425 71.3327 254.159C71.9161 253.52 72.4314 252.979 72.7792 252.179L72.5595 251.73C75.1012 251.203 77.6013 251.186 79.8276 252.673C82.9011 254.725 84.1179 258.645 86.8244 260.611C89.6975 262.699 93.5367 263.164 96.5027 265.166C96.7822 265.354 97.0661 265.542 97.3499 265.725C97.6333 265.907 97.5354 265.845 97.9154 265.963L100.324 266.16C101.674 265.831 102.884 265.583 104.281 265.554C103.331 262.265 100.548 255.624 102.065 252.462C103.571 249.322 109.881 248.122 113.027 247.015C112.953 246.599 112.868 246.175 112.83 245.754C112.766 245.05 112.802 244.674 113.32 244.137C114.582 242.829 119.975 243.399 121.711 243.344C128.304 238.717 125.593 232.819 129.038 229.671C130.845 228.019 133.713 227.774 135.791 226.444C135.877 226.389 135.962 226.331 136.047 226.275C137.257 228.172 138.954 229.623 141.176 230.167L141.399 229.926C142.447 228.773 142.785 228.283 142.709 226.736Z"/>
	<path fill="#F7D8CB" d="M123.952 294.175C124.971 294.18 125.639 294.032 126.514 294.624C126.764 295.22 126.904 295.349 126.618 295.972C126.355 296.543 125.837 297.022 125.311 297.336C124.309 296.599 123.222 295.962 122.169 295.299C122.705 294.641 123.188 294.462 123.952 294.175Z"/>
	<path fill="#F7D8CB" d="M116.167 266.357C117.5 266.511 118.714 266.784 119.964 267.272C119.11 267.536 118.778 267.608 118.334 268.442C118.167 268.756 118.016 269.079 117.864 269.4C117.296 269.546 117.271 269.532 116.725 269.312C116.728 269.269 116.744 269.224 116.733 269.181C116.609 268.665 116.451 268.651 116.015 268.431C115.303 268.072 114.125 267.572 113.871 266.808C114.599 266.419 115.355 266.436 116.167 266.357Z"/>
	<path fill="#F4F4F4" d="M97.9154 265.963L100.324 266.16C100.826 267.82 102.175 268.716 103.417 269.847C102.808 271.109 102.016 272.263 101.255 273.438C100.21 271.628 97.64 268.131 97.3352 266.169L97.9154 265.963Z"/>
	<path fill="#D3A28F" d="M149.114 311.912L148.756 311.669C149.076 310.206 151.242 307.344 152.539 306.541C152.64 306.479 152.744 306.423 152.847 306.364L153.178 306.569C153.156 308.056 152.291 309.326 151.603 310.602C153.263 311.805 155.742 313.194 156.61 315.08L156.463 315.44C154.04 314.208 151.634 312.938 149.114 311.912Z"/>
	<path fill="#D3A28F" d="M120.273 294.673C120.529 294.434 120.432 294.554 120.625 294.25C120.767 294.027 120.905 293.801 121.053 293.582C122.387 291.588 124.031 289.566 126.509 289.093C127.139 289.252 127.491 289.266 127.822 289.902C128.501 291.203 127.69 292.72 127.184 293.928C126.09 293.942 125.037 294.035 123.952 294.175C123.188 294.462 122.705 294.641 122.169 295.299L120.273 294.673Z"/>
	<path fill="#F4F4F4" d="M145.109 312.199C145.481 312.417 145.666 312.52 145.735 312.983C146.148 315.76 144.82 319.897 143.249 322.13C141.366 324.807 139.17 325.873 136.052 326.378C135.663 326.231 135.521 326.109 135.218 325.839C135.235 325.333 135.233 325.261 135.564 324.897C137.072 323.236 139.038 322.742 140.794 320.423C142.687 317.924 143.118 314.546 145.109 312.199Z"/>
	<path fill="#F4F4F4" d="M116.873 295.754C117.825 296.26 118.203 297.046 118.515 298.056C119.503 301.257 118.559 305.201 117.006 308.089C115.459 310.967 113.694 312.299 110.655 313.218C109.934 313.175 109.661 313.298 109.154 312.758C109.376 311.444 113.354 306.883 114.34 304.747C115.666 301.875 115.753 298.643 116.873 295.754Z"/>
	<path fill="#D3A28F" d="M100.049 278.014C98.7656 283.772 97.7253 289.341 97.1697 295.224L96.9471 295.215L96.6302 294.69C94.5681 294.738 91.8902 296.908 89.9319 297.7C87.6598 297.113 85.4868 296.386 83.2838 295.588C82.8562 295.267 82.3479 295.011 81.8874 294.737C81.9669 294.702 82.0461 294.667 82.1259 294.633C84.1378 293.783 86.3219 293.415 88.3675 292.595C94.8712 289.988 97.3938 284.024 100.049 278.014Z"/>
	<defs>
		<linearGradient id="gradient_1" gradientUnits="userSpaceOnUse" x1="115.14907" y1="280.32193" x2="126.82233" y2="273.21487">
			<stop offset="0" stop-color="#FFE8E1"/>
			<stop offset="1" stop-color="#F8F6F4"/>
		</linearGradient>
	</defs>
	<path fill="url(#gradient_1)" d="M119.964 267.272L123.371 268.697C124.64 269.789 125.995 270.83 126.986 272.193C128.207 275.989 130.658 279.604 132.531 283.123C131.857 284.518 131.091 285.88 130.364 287.248C126.498 280.467 122.364 272.019 113.88 270.471C112.173 270.16 109.826 270.984 108.359 270.251L108.225 269.772L108.558 269.333C111.261 268.124 113.941 268.819 116.725 269.312C117.271 269.532 117.296 269.546 117.864 269.4C118.016 269.079 118.167 268.756 118.334 268.442C118.778 267.608 119.11 267.536 119.964 267.272Z"/>
	<path fill="#D3A28F" d="M142.709 226.736L143.199 226.964C143.56 226.584 143.644 226.256 143.817 225.773C144.261 224.536 145.247 222.918 146.505 222.353C148.989 221.236 152.69 222.16 155.101 223.228C159.837 225.325 165.597 232.511 168.039 236.967C167.879 236.976 167.719 236.989 167.559 236.992C162.577 237.097 154.409 223.209 148.845 228.314C146.18 230.76 144.823 234.978 143.344 238.213C140.802 243.774 137.342 252.192 133.634 256.806C132.807 252.851 138.321 242.482 139.726 238.097C140.528 235.595 140.965 232.785 141.176 230.167L141.399 229.926C142.447 228.773 142.785 228.283 142.709 226.736Z"/>
	<path fill="#C78370" d="M121.711 243.344C128.304 238.717 125.593 232.819 129.038 229.671C130.845 228.019 133.713 227.774 135.791 226.444C135.877 226.389 135.962 226.331 136.047 226.275C137.257 228.172 138.954 229.623 141.176 230.167C140.965 232.785 140.528 235.595 139.726 238.097C138.321 242.482 132.807 252.851 133.634 256.806C131.995 260.631 129.868 264.734 128.822 268.747C128.513 269.883 128.307 271.032 127.575 271.98L126.986 272.193C125.995 270.83 124.64 269.789 123.371 268.697L119.964 267.272C118.714 266.784 117.5 266.511 116.167 266.357C115.867 266.292 115.806 266.274 115.456 266.233C111.87 265.807 108.852 266.51 105.998 268.725C105.542 267.711 105.107 266.306 104.281 265.554C103.331 262.265 100.548 255.624 102.065 252.462C103.571 249.322 109.881 248.122 113.027 247.015C112.953 246.599 112.868 246.175 112.83 245.754C112.766 245.05 112.802 244.674 113.32 244.137C114.582 242.829 119.975 243.399 121.711 243.344Z"/>
	<path fill="#D3A28F" d="M126.321 256.82C126.607 257.721 126.932 258.455 126.689 259.397C126.153 260.263 125.713 260.492 124.758 260.713C124.025 260.882 123.266 261.018 122.514 261.012C123.25 260.508 123.802 259.856 124.322 259.141L124.545 258.948L124.903 258.629C125.581 258.036 126.057 257.707 126.321 256.82Z"/>
	<path fill="#B4B2B2" d="M113.862 260.384C117.393 260.261 120.949 260.311 124.322 259.141C123.802 259.856 123.25 260.508 122.514 261.012L122.314 261.074L120.791 261.539C119.102 261.824 116.485 263.172 114.894 262.248C114.186 261.837 114.055 261.112 113.862 260.384Z"/>
	<path fill="#A1695B" d="M122.314 261.074C123.893 261.33 124.35 262.175 125.246 263.419C126.437 265.072 127.422 267.313 128.822 268.747C128.513 269.883 128.307 271.032 127.575 271.98L126.986 272.193C125.995 270.83 124.64 269.789 123.371 268.697C123.067 266.313 121.011 264.338 120.507 261.9L120.791 261.539L122.314 261.074Z"/>
	<path fill="#F4F4F4" d="M113.862 260.384C113.819 259.417 113.691 258.635 114.392 257.865C116.207 255.873 119.576 254.966 122.224 254.971C124.135 254.974 124.991 255.497 126.321 256.82C126.057 257.707 125.581 258.036 124.903 258.629L124.545 258.948L124.322 259.141C120.949 260.311 117.393 260.261 113.862 260.384Z"/>
	<path fill="#0C92BD" d="M275.108 186.956C283.743 184.061 292.216 185.694 300.2 189.705C304.966 192.099 309.007 195.353 312.955 198.887C314.442 200.219 315.963 201.854 317.588 202.993C319.513 205.869 321.584 208.665 323.402 211.609C335.897 231.84 341.95 249.937 347.629 272.845C349.217 279.253 351.1 285.726 352.336 292.206C338.931 292.178 324.706 291.957 313.162 299.902C310.74 301.569 308.782 303.709 306.541 305.577L303.921 308.803C300.238 308.54 294.777 313.242 292.191 315.483C287.935 319.173 283.538 323.903 280.456 328.64C278.327 331.911 276.562 336.507 273.722 339.164C273.46 341.089 272.049 343.262 271.288 345.078C270.064 347.999 266.851 357.355 269.128 360.034C269.238 360.163 269.341 360.222 269.471 360.307C266.622 361.812 263.403 362.913 260.444 364.214C251.393 368.192 244.899 373.003 238.646 380.587C236.402 378.544 233.885 376.708 231.535 374.777Q225.236 369.561 219.05 364.212C206.517 353.446 194.174 342.346 181.202 332.111C184.917 328.888 190.281 327.144 193.461 323.499C194.539 322.263 195.127 320.709 194.991 319.063C194.755 316.22 192.615 313.327 190.493 311.508C187.73 309.14 184.131 307.85 180.481 308.164C174.386 308.689 171.375 312.57 167.711 316.912C167.198 311.509 167.637 295.83 169.01 291.147C174.362 288.237 177.551 282.95 182.149 279.215C182.525 280.343 182.89 282.256 184.057 282.798C184.393 282.954 184.459 282.924 184.831 282.951C186.183 283.051 187.475 283.249 188.807 283.495C190.305 283.706 191.788 283.913 193.262 284.263C195.363 284.648 197.5 285.051 199.642 285.09C202.148 285.25 204.657 285.383 207.152 285.671L209.193 285.826C214.399 285.538 219.589 285.461 224.719 284.426C230.529 282.721 237.317 278.934 243.236 276.683C243.967 276.305 244.711 275.957 245.434 275.564C249.196 273.518 251.985 267.985 253.146 263.992L252.936 263.699C254.095 262.357 254.693 259.444 255.214 257.711C256.489 253.47 258.016 249.088 258.681 244.707C259.195 241.322 259.233 237.825 259.485 234.411C259.815 229.914 260.414 225.315 261.244 220.886C261.832 217.742 263.279 214.748 264.033 211.628C265.413 205.914 266.076 200.012 267.925 194.413C269.736 191.093 271.838 188.849 275.108 186.956Z"/>
	<path fill="#00789A" d="M272.807 249.968C273.303 250.062 273.481 250.141 273.901 250.388C274.699 251.682 274.527 252.759 274.408 254.237C274.072 254.094 273.784 253.903 273.474 253.712C272.902 252.494 272.797 251.301 272.807 249.968Z"/>
	<path fill="#00789A" d="M271.937 244.356C272.784 244.501 272.85 244.467 273.424 245.09C273.749 246.036 273.621 246.936 273.551 247.916C273.006 247.842 272.48 247.716 272.151 247.241C271.528 246.341 271.758 245.359 271.937 244.356Z"/>
	<path fill="#00789A" d="M275.364 268.533C275.688 268.664 275.973 268.839 276.275 269.014C277.179 270.926 277.191 274.741 276.563 276.71C276.268 276.612 276.01 276.456 275.737 276.31C274.839 274.102 275.15 270.875 275.364 268.533Z"/>
	<path fill="#56595A" d="M184.831 282.951C186.183 283.051 187.475 283.249 188.807 283.495C188.798 284.257 188.827 284.975 188.914 285.733C188.993 286.423 188.967 286.786 188.722 287.43C188.112 288.173 187.495 288.336 186.6 288.63C185.673 286.802 185.212 284.951 184.831 282.951Z"/>
	<path fill="#00789A" d="M275.553 279.79C275.847 279.894 276.218 280.002 276.436 280.239C277.901 281.835 277.225 288.215 276.853 290.255C276.254 290.256 276.068 290.287 275.555 289.999C274.567 287.394 275.106 282.543 275.553 279.79Z"/>
	<path fill="#00789A" d="M198.853 294.321L199.301 294.533C200.196 295.64 200.683 296.893 200.625 298.326C200.496 301.552 198.415 304.092 196.118 306.116L195.374 306.467L195.039 306.34C195.226 305.439 195.979 304.71 196.514 303.983C198.714 300.987 198.971 297.907 198.853 294.321Z"/>
	<path fill="#00789A" d="M273.604 256.748C274.308 256.87 274.858 256.951 275.42 257.433C277.171 258.937 276.758 263.66 276.796 265.792C276.234 265.799 275.273 265.759 274.857 265.363C273.109 263.694 273.614 259.005 273.604 256.748Z"/>
	<path fill="#00789A" d="M275.429 296.181L276.199 296.337C276.614 296.638 276.779 296.999 276.931 297.483C277.556 299.484 278.124 304.235 277.205 306.101L275.96 305.648C275.549 305.21 275.323 304.849 275.123 304.276C274.309 301.952 274.314 298.389 275.429 296.181Z"/>
	<path fill="#56595A" d="M193.262 284.263C195.363 284.648 197.5 285.051 199.642 285.09C200.042 286.767 201.607 287.794 201.592 289.657C200.27 290.097 198.747 290.215 197.357 290.135C195.977 290.056 194.525 289.677 193.626 288.553C192.667 287.353 193.04 285.648 193.262 284.263Z"/>
	<path fill="#6C4E47" d="M207.152 285.671L209.193 285.826C211.049 286.215 212.772 286.887 213.829 288.564C214.553 289.714 214.719 290.892 214.72 292.223C212.499 293.234 211.656 294.957 210.077 296.639C209.512 297.24 208.84 297.733 207.966 297.66C206.724 297.555 205.713 296.361 204.861 295.549L207.857 291.543C207.562 290.988 207.259 290.429 207.004 289.854C206.3 288.266 206.573 287.259 207.152 285.671Z"/>
	<path fill="#00789A" d="M224.719 284.426C230.529 282.721 237.317 278.934 243.236 276.683C243.642 277.139 243.801 277.353 243.741 278.022C243.58 279.822 240.708 281.579 239.284 282.444C235.57 284.7 229.136 285.979 226.568 287.927C225.816 286.793 225.267 285.665 224.719 284.426Z"/>
	<path fill="#B4B2B2" d="M209.193 285.826C214.399 285.538 219.589 285.461 224.719 284.426C225.267 285.665 225.816 286.793 226.568 287.927L226.579 288.523C224.41 290.617 217.897 292.149 214.932 292.227C214.862 292.229 214.791 292.225 214.72 292.223C214.719 290.892 214.553 289.714 213.829 288.564C212.772 286.887 211.049 286.215 209.193 285.826Z"/>
	<path fill="#00789A" d="M277.922 320.753C284.537 315.573 295.767 305.634 304.221 304.973C305.163 304.9 305.793 304.953 306.541 305.577L303.921 308.803C300.238 308.54 294.777 313.242 292.191 315.483C287.935 319.173 283.538 323.903 280.456 328.64C278.327 331.911 276.562 336.507 273.722 339.164C272.744 335.773 272.091 332.295 271.402 328.838C272.268 328.163 272.837 327.361 273.471 326.477C276.043 322.894 275.222 321.032 275.807 317.017C275.948 316.055 276.09 315.058 276.918 314.45L277.34 314.569C278.198 316.204 277.905 318.915 277.922 320.753Z"/>
	<path fill="#00789A" d="M230.714 299.978C231.332 301.252 231.922 302.478 233.238 303.147C236.217 304.661 240.473 303.443 243.476 302.476C250.489 300.218 256.673 295.314 260.01 288.671C265.118 278.504 269.816 257.72 266.031 246.585C265.869 246.109 265.816 245.92 265.8 245.401L266.348 245.344C267.575 246.058 268.922 248.209 269.309 249.584C270.171 252.641 270.492 256.015 270.661 259.178C270.967 264.922 271.027 299.911 269.166 303.296C256.88 311.252 242.508 313.243 228.189 310.861C227.932 310.734 228.091 310.791 227.663 310.754C227.195 310.713 226.73 310.665 226.264 310.612C226.091 309.307 226.965 307.597 227.083 306.218C227.309 303.578 226.663 300.91 226.167 298.335C230.345 297.355 234.027 294.962 238.272 293.977C235.758 295.865 232.873 297.695 230.714 299.978Z"/>
	<path fill="#7EBFE4" d="M169.01 291.147C174.362 288.237 177.551 282.95 182.149 279.215C182.525 280.343 182.89 282.256 184.057 282.798C184.393 282.954 184.459 282.924 184.831 282.951C185.212 284.951 185.673 286.802 186.6 288.63C190.384 301.344 195.55 314.776 203.684 325.384C204.525 326.481 205.495 328.1 206.602 328.913L206.848 329.558C205.354 332.75 201.877 331.032 204.212 337.33C206.484 343.461 212.339 349.425 217.125 353.817C222.817 358.702 229.639 363.666 237.426 364.029C240.056 364.151 242.961 363.664 244.925 361.776C253.187 353.829 239.055 329.695 234.172 321.874C232.887 319.816 227.345 312.72 227.415 311.042L228.189 310.861C242.508 313.243 256.88 311.252 269.166 303.296C269.775 311.279 269.313 321.183 271.402 328.838C272.091 332.295 272.744 335.773 273.722 339.164C273.46 341.089 272.049 343.262 271.288 345.078C270.064 347.999 266.851 357.355 269.128 360.034C269.238 360.163 269.341 360.222 269.471 360.307C266.622 361.812 263.403 362.913 260.444 364.214C251.393 368.192 244.899 373.003 238.646 380.587C236.402 378.544 233.885 376.708 231.535 374.777Q225.236 369.561 219.05 364.212C206.517 353.446 194.174 342.346 181.202 332.111C184.917 328.888 190.281 327.144 193.461 323.499C194.539 322.263 195.127 320.709 194.991 319.063C194.755 316.22 192.615 313.327 190.493 311.508C187.73 309.14 184.131 307.85 180.481 308.164C174.386 308.689 171.375 312.57 167.711 316.912C167.198 311.509 167.637 295.83 169.01 291.147Z"/>
	<path fill="#E6F1F4" d="M206.602 328.913L206.848 329.558C205.354 332.75 201.877 331.032 204.212 337.33C206.484 343.461 212.339 349.425 217.125 353.817C216.276 354.703 215.481 355.797 214.184 355.941C213.27 356.043 212.271 355.407 211.595 354.865C206.801 351.018 202.729 341.805 202.003 335.811C201.786 334.019 201.857 331.832 203.078 330.376C203.987 329.291 205.254 329.005 206.602 328.913Z"/>
	<path fill="#81547F" d="M57.0591 248.174C59.4933 246.956 62.3203 245.381 65.1477 246.224C67.9504 247.059 69.731 250.619 72.5595 251.73L72.7792 252.179C72.4314 252.979 71.9161 253.52 71.3327 254.159C74.1758 256.425 81.3517 261.729 82.8515 264.515L82.8315 265.167L82.2602 265.517L82.9813 265.827C83.1721 267.129 81.1941 271.534 80.7859 273.146C79.8054 278.331 77.4323 288.801 80.5015 293.351C80.8659 293.891 81.3971 294.315 81.8874 294.737C82.3479 295.011 82.8562 295.267 83.2838 295.588C85.4868 296.386 87.6598 297.113 89.9319 297.7C91.8902 296.908 94.5681 294.738 96.6302 294.69L96.9471 295.215L97.1697 295.224C97.2971 300.35 97.3924 305.971 100.642 310.236Q100.987 310.694 101.375 311.116Q101.764 311.538 102.192 311.919Q102.621 312.3 103.085 312.637Q103.549 312.974 104.045 313.262Q104.54 313.551 105.062 313.789Q105.583 314.028 106.126 314.213Q106.669 314.398 107.227 314.528Q107.785 314.659 108.354 314.733C111.172 315.093 114.047 314.425 116.275 312.623C122.47 307.613 119.579 301.435 120.235 294.994C120.246 294.886 120.26 294.78 120.273 294.673L122.169 295.299C123.222 295.962 124.309 296.599 125.311 297.336L125.241 297.701C124.978 299.03 124.374 300.301 124.06 301.631C122.481 308.304 121.084 316.061 125.086 322.15C126.021 323.572 127.156 324.76 128.507 325.796C131.853 327.254 136.302 328.05 139.846 326.888C142.752 325.934 144.206 323.981 145.479 321.359C146.323 318.793 146.344 315.951 147.956 313.682C148.118 312.708 148.344 312.476 149.114 311.912C151.634 312.938 154.04 314.208 156.463 315.44C161.018 318.597 166.028 321.006 170.516 324.309C173.418 326.444 178.122 330.867 181.202 332.111C194.174 342.346 206.517 353.446 219.05 364.212Q225.236 369.561 231.535 374.777C233.885 376.708 236.402 378.544 238.646 380.587C244.899 373.003 251.393 368.192 260.444 364.214C263.403 362.913 266.622 361.812 269.471 360.307C269.341 360.222 269.238 360.163 269.128 360.034C266.851 357.355 270.064 347.999 271.288 345.078C272.049 343.262 273.46 341.089 273.722 339.164C276.562 336.507 278.327 331.911 280.456 328.64C283.538 323.903 287.935 319.173 292.191 315.483C294.777 313.242 300.238 308.54 303.921 308.803L306.541 305.577C308.782 303.709 310.74 301.569 313.162 299.902C324.706 291.957 338.931 292.178 352.336 292.206C358.554 291.894 366.558 294.865 371.83 298.074C374.671 299.803 377.268 301.907 380.062 303.704C382.914 305.538 386.096 306.924 388.668 309.159C390.602 304.869 394.89 295.633 398.553 293.279L399.13 293.257C399.916 294.23 400.203 296.189 400.543 297.408C403.005 296.508 405.049 295.94 407.684 295.895C409.431 297.193 410.891 298.759 412.757 299.9C413.511 299.992 413.909 299.911 414.466 300.448C414.548 301.275 414.207 301.975 413.85 302.699C412.262 305.922 410.186 308.952 408.404 312.074L397.51 331.461Q374.256 372.243 352.124 413.644C346.98 423.26 342.563 433.251 337.396 442.857C335.693 446.022 333.92 449.778 331.536 452.466C330.431 453.711 328.318 454.82 326.86 455.623C321.551 458.545 315.848 460.937 310.436 463.701C300.504 468.773 290.706 474.126 280.653 478.958C275.635 481.37 270.447 483.435 265.448 485.867C258.815 489.095 252.335 492.664 245.715 495.932Q240.077 498.739 234.397 501.461C232.219 502.502 229.483 503.479 227.567 504.91C225.046 506.792 224.215 510.206 221.417 511.787C219.443 512.902 216.817 513.107 214.585 513.136C209.139 513.204 203.034 511.441 199.102 507.524C197.588 506.015 196.463 504.239 195.439 502.374C191.977 497.078 185.821 493.227 181.179 488.958C177.329 485.418 173.41 481.934 169.619 478.332C166.959 475.803 164.416 473.128 161.648 470.717C156.38 466.13 150.771 461.867 145.358 457.448Q133.34 447.595 121.527 437.498C118.576 434.994 115.653 432.441 112.616 430.043C108.913 427.12 104.359 424.208 101.38 420.523C97.1186 415.252 87.8715 375.587 85.2449 366.322L66.721 301.517C62.2905 285.921 58.1026 270.176 53.1682 254.733C52.9355 254.225 52.7349 253.698 52.5249 253.18C51.8715 251.568 50.1915 247.964 50.8871 246.317C52.5634 246.239 54.4341 248.166 56.7258 248.176C56.8369 248.177 56.948 248.175 57.0591 248.174Z"/>
	<path fill="#966392" d="M247.612 395.533Q252.393 395.557 257.172 395.696C256.309 400.141 250.311 416.968 250.834 419.745C247.977 422.197 244.873 422.974 241.305 423.902C241.061 423.791 240.898 423.632 240.694 423.459C240.279 419.363 246.304 400.269 247.612 395.533Z"/>
	<path fill="#F4F4F4" d="M306.541 305.577C308.782 303.709 310.74 301.569 313.162 299.902C324.706 291.957 338.931 292.178 352.336 292.206C358.554 291.894 366.558 294.865 371.83 298.074C374.671 299.803 377.268 301.907 380.062 303.704C382.914 305.538 386.096 306.924 388.668 309.159C390.602 304.869 394.89 295.633 398.553 293.279L399.13 293.257C399.916 294.23 400.203 296.189 400.543 297.408C403.005 296.508 405.049 295.94 407.684 295.895C409.431 297.193 410.891 298.759 412.757 299.9C404.7 307.388 393.522 311.417 383.849 316.44L337.428 340.866C331.014 344.241 324.371 347.137 318.111 350.814C316.626 351.662 314.988 352.562 313.336 353.019C295.827 360.856 278.871 369.845 261.364 377.709C261.813 378.626 262.321 379.57 262.643 380.54C262.915 381.358 263.011 382.23 262.579 383.014C261.689 384.629 259.416 385.386 257.741 385.822C249.835 387.88 229.44 387.261 222.303 382.859C221.306 382.244 220.484 381.515 220.233 380.323C219.77 378.121 221.693 375.23 222.807 373.421C213.997 365.921 204.772 358.934 195.693 351.766L151.181 316.603C150.075 315.659 149.015 314.678 147.956 313.682C148.118 312.708 148.344 312.476 149.114 311.912C151.634 312.938 154.04 314.208 156.463 315.44C161.018 318.597 166.028 321.006 170.516 324.309C173.418 326.444 178.122 330.867 181.202 332.111C194.174 342.346 206.517 353.446 219.05 364.212Q225.236 369.561 231.535 374.777C233.885 376.708 236.402 378.544 238.646 380.587C244.899 373.003 251.393 368.192 260.444 364.214C263.403 362.913 266.622 361.812 269.471 360.307C269.341 360.222 269.238 360.163 269.128 360.034C266.851 357.355 270.064 347.999 271.288 345.078C272.049 343.262 273.46 341.089 273.722 339.164C276.562 336.507 278.327 331.911 280.456 328.64C283.538 323.903 287.935 319.173 292.191 315.483C294.777 313.242 300.238 308.54 303.921 308.803L306.541 305.577Z"/>
	<path fill="#00789A" d="M289.416 354.797C289.277 354.343 289.221 353.913 289.304 353.442C289.669 351.375 291.761 346.4 293.634 345.345C293.998 345.14 294.163 345.284 294.538 345.379Q294.259 349.595 293.922 353.807L289.416 354.797Z"/>
	<path fill="#B4B2B2" d="M333.029 324.834C341.506 322.113 355.392 320.993 363.531 325.122C363.42 325.124 363.31 325.128 363.199 325.128C360.158 325.136 357.057 324.394 354.044 323.994C347.408 323.113 339.899 323.502 333.612 325.94L333.029 324.834Z"/>
	<path fill="#B4B2B2" d="M306.089 352.655C306.773 350.443 307.86 348.276 308.965 346.247C314.077 336.864 322.513 327.911 333.029 324.834L333.612 325.94C325.586 329.104 318.299 335.179 313.325 342.198C310.953 345.545 308.909 349.219 306.312 352.386L306.089 352.655Z"/>
	<path fill="#B4B2B2" d="M313.336 353.019C312.817 352.07 311.581 351.808 310.599 351.387C311.045 349.852 314.118 347.669 315.249 346.368C317.261 344.053 318.775 341.353 320.872 339.066C330.506 328.561 342.915 328.724 356.151 328.091Q346.736 334.136 336.862 339.396C332.385 341.733 327.708 343.685 323.243 346.086C321.611 346.963 317.011 349.056 316.493 350.779L316.833 351.038L318.111 350.814C316.626 351.662 314.988 352.562 313.336 353.019Z"/>
	<path fill="#0C92BD" d="M273.722 339.164C276.562 336.507 278.327 331.911 280.456 328.64C283.538 323.903 287.935 319.173 292.191 315.483C294.777 313.242 300.238 308.54 303.921 308.803C298.942 318.489 297.215 325.488 295.728 336.116C295.313 339.079 295.317 342.535 294.538 345.379C294.163 345.284 293.998 345.14 293.634 345.345C291.761 346.4 289.669 351.375 289.304 353.442C289.221 353.913 289.277 354.343 289.416 354.797Q279.353 357.224 269.471 360.307C269.341 360.222 269.238 360.163 269.128 360.034C266.851 357.355 270.064 347.999 271.288 345.078C272.049 343.262 273.46 341.089 273.722 339.164Z"/>
	<path fill="#634161" d="M57.0591 248.174C59.4933 246.956 62.3203 245.381 65.1477 246.224C67.9504 247.059 69.731 250.619 72.5595 251.73L72.7792 252.179C72.4314 252.979 71.9161 253.52 71.3327 254.159C74.1758 256.425 81.3517 261.729 82.8515 264.515L82.8315 265.167L82.2602 265.517L82.9813 265.827C83.1721 267.129 81.1941 271.534 80.7859 273.146C79.8054 278.331 77.4323 288.801 80.5015 293.351C80.8659 293.891 81.3971 294.315 81.8874 294.737C82.3479 295.011 82.8562 295.267 83.2838 295.588C85.4868 296.386 87.6598 297.113 89.9319 297.7C91.8902 296.908 94.5681 294.738 96.6302 294.69L96.9471 295.215L97.1697 295.224C97.2971 300.35 97.3924 305.971 100.642 310.236Q100.987 310.694 101.375 311.116Q101.764 311.538 102.192 311.919Q102.621 312.3 103.085 312.637Q103.549 312.974 104.045 313.262Q104.54 313.551 105.062 313.789Q105.583 314.028 106.126 314.213Q106.669 314.398 107.227 314.528Q107.785 314.659 108.354 314.733C111.172 315.093 114.047 314.425 116.275 312.623C122.47 307.613 119.579 301.435 120.235 294.994C120.246 294.886 120.26 294.78 120.273 294.673L122.169 295.299C123.222 295.962 124.309 296.599 125.311 297.336L125.241 297.701C124.978 299.03 124.374 300.301 124.06 301.631C122.481 308.304 121.084 316.061 125.086 322.15C126.021 323.572 127.156 324.76 128.507 325.796C131.853 327.254 136.302 328.05 139.846 326.888C142.752 325.934 144.206 323.981 145.479 321.359C146.323 318.793 146.344 315.951 147.956 313.682C149.015 314.678 150.075 315.659 151.181 316.603C150.619 318.343 150.103 320.771 148.941 322.195C150.411 323.827 152.776 325.104 154.602 326.34C162.536 331.709 168.157 336.078 171.927 345.149C171.903 343.024 171.818 340.899 171.429 338.804C176.578 343.423 182.349 347.345 187.97 351.361Q195.443 356.788 202.813 362.354C207.426 365.81 212.113 369.223 216.395 373.09C214.286 374.945 212.176 377.037 211.94 380.014C211.794 381.858 212.51 383.558 213.742 384.908C217.295 388.801 223.271 389.638 227.97 391.456Q222.784 390.881 217.609 390.213C215.328 399.605 214.104 409.099 212.68 418.635C220.358 421.608 226.316 424.359 234.819 424.504C236.851 424.539 239.354 424.484 241.305 423.902C244.873 422.974 247.977 422.197 250.834 419.745C250.905 419.697 250.977 419.649 251.047 419.599C256.128 415.995 257.596 400.391 260.764 394.329C262.354 391.285 266.26 390.556 267.992 387.642C268.295 387.132 268.486 386.579 268.592 385.997C268.86 384.533 268.476 382.017 269.175 380.791C270.037 381.001 270.61 381.973 271.047 382.722C271.985 384.328 272.243 386.06 271.752 387.863C270.926 390.896 268.517 393.188 267.031 395.882C266.377 397.067 265.955 398.663 265.535 399.954C262.972 407.841 260.893 415.969 258.718 423.974L249.712 456.745Q247.57 464.412 245.24 472.023C243.817 476.663 242.219 481.206 241.494 486.022L241.466 486.216C244.585 481.621 246.625 475.983 248.786 470.89Q254.648 457.048 261.087 443.466C262.358 440.767 263.373 437.652 264.903 435.119C263.975 440.71 262.435 446.19 261.127 451.701C258.48 462.85 255.704 474.227 253.765 485.52C257.115 484.582 260.664 483.192 264.109 482.812C262.052 484.045 259.762 484.608 257.693 485.753C246.845 491.757 237.433 497.274 225.778 501.891C228.738 494.155 230.832 486.111 233.336 478.222C238.803 461.001 244.227 443.624 250.357 426.632C234.226 432.292 226.969 432.468 211.077 425.498C210.025 434.143 207.951 442.715 207.119 451.367L212.028 453.825C210.14 454.006 208.236 454.245 206.34 454.285C204.418 464.628 202.919 475.053 201.032 485.406C200.204 489.953 199.579 494.875 198.121 499.251C197.858 500.041 197.633 500.736 196.926 501.237C196.781 501.339 196.627 501.428 196.478 501.524C196.038 501.808 195.78 501.974 195.439 502.374C191.977 497.078 185.821 493.227 181.179 488.958C177.329 485.418 173.41 481.934 169.619 478.332C166.959 475.803 164.416 473.128 161.648 470.717C156.38 466.13 150.771 461.867 145.358 457.448Q133.34 447.595 121.527 437.498C118.576 434.994 115.653 432.441 112.616 430.043C108.913 427.12 104.359 424.208 101.38 420.523C97.1186 415.252 87.8715 375.587 85.2449 366.322L66.721 301.517C62.2905 285.921 58.1026 270.176 53.1682 254.733C52.9355 254.225 52.7349 253.698 52.5249 253.18C51.8715 251.568 50.1915 247.964 50.8871 246.317C52.5634 246.239 54.4341 248.166 56.7258 248.176C56.8369 248.177 56.948 248.175 57.0591 248.174Z"/>
	<path fill="#4E3045" d="M89.9319 297.7C91.8902 296.908 94.5681 294.738 96.6302 294.69L96.9471 295.215C97.0445 296.465 97.2232 297.323 96.376 298.355C95.2633 299.71 93.7904 300.21 92.0849 300.335C89.4369 300.529 86.0996 299.87 84.0421 298.093C83.3728 297.515 83.2079 297.053 83.0617 296.198L83.2838 295.588C85.4868 296.386 87.6598 297.113 89.9319 297.7Z"/>
	<path fill="#4E3045" d="M145.479 321.359C146.641 321.493 147.395 321.589 148.379 322.24C148.406 322.258 148.435 322.274 148.463 322.291C147.713 325.835 146.434 328.584 143.274 330.623C140.938 332.13 138.067 332.838 135.328 332.217C132.881 331.663 129.978 330.226 128.632 328.057C128.128 327.245 128.227 326.754 128.475 325.882C128.484 325.853 128.497 325.825 128.507 325.796C131.853 327.254 136.302 328.05 139.846 326.888C142.752 325.934 144.206 323.981 145.479 321.359Z"/>
	<path fill="#81547F" d="M57.0591 248.174C59.4933 246.956 62.3203 245.381 65.1477 246.224C67.9504 247.059 69.731 250.619 72.5595 251.73L72.7792 252.179C72.4314 252.979 71.9161 253.52 71.3327 254.159C74.1758 256.425 81.3517 261.729 82.8515 264.515L82.8315 265.167L82.2602 265.517L82.9813 265.827C83.1721 267.129 81.1941 271.534 80.7859 273.146C79.7824 270.446 59.6939 256.739 55.9019 254.783C54.8338 254.233 54.2596 254.386 53.1682 254.733C52.9355 254.225 52.7349 253.698 52.5249 253.18C51.8715 251.568 50.1915 247.964 50.8871 246.317C52.5634 246.239 54.4341 248.166 56.7258 248.176C56.8369 248.177 56.948 248.175 57.0591 248.174Z"/>
	<path fill="#F4F4F4" d="M57.0591 248.174C59.4933 246.956 62.3203 245.381 65.1477 246.224C67.9504 247.059 69.731 250.619 72.5595 251.73L72.7792 252.179C72.4314 252.979 71.9161 253.52 71.3327 254.159C74.1758 256.425 81.3517 261.729 82.8515 264.515L82.8315 265.167L82.2602 265.517C79.2888 264.092 76.6161 261.582 73.7889 259.829C71.5989 258.47 63.6199 254.53 62.4159 253.116C61.8144 252.41 62.6628 250.875 62.2138 249.836C60.8523 248.267 58.9646 248.53 57.0591 248.174Z"/>
</svg>
