<svg xmlns="http://www.w3.org/2000/svg" xmlns:xlink="http://www.w3.org/1999/xlink" width="200" height="15" viewBox="0 0 100 15"><defs><clipPath id="c"><path d="M10.785 3.434h.41v.265h-.41Zm0 0"/></clipPath><clipPath id="b"><path d="M0 0h100v16H0z"/></clipPath><clipPath id="e"><path d="M9.941 3.145h.43v.238h-.43Zm0 0"/></clipPath><clipPath id="d"><path d="M0 0h100v16H0z"/></clipPath><clipPath id="g"><path d="M11.117 3.582h.176v.098h-.176Zm0 0"/></clipPath><clipPath id="f"><path d="M0 0h100v16H0z"/></clipPath><clipPath id="i"><path d="M10.422 3.324h.348v.153h-.348Zm0 0"/></clipPath><clipPath id="h"><path d="M0 0h100v16H0z"/></clipPath><clipPath id="k"><path d="M4.836 5.277h1.332v2.82H4.836Zm0 0"/></clipPath><clipPath id="j"><path d="M0 0h100v16H0z"/></clipPath><clipPath id="m"><path d="M7.668 3.48h.566v.375h-.566Zm0 0"/></clipPath><clipPath id="l"><path d="M0 0h100v16H0z"/></clipPath><clipPath id="o"><path d="M5.387 6.95h.742v.991h-.742Zm0 0"/></clipPath><clipPath id="n"><path d="M0 0h100v16H0z"/></clipPath><clipPath id="q"><path d="M3.91 6.09h.516v.457H3.91Zm0 0"/></clipPath><clipPath id="p"><path d="M0 0h100v16H0z"/></clipPath><clipPath id="s"><path d="M4.547 6.41H5.3v.695h-.754Zm0 0"/></clipPath><clipPath id="r"><path d="M0 0h100v16H0z"/></clipPath><clipPath id="u"><path d="M5.172 7.93h.441v.465h-.441Zm0 0"/></clipPath><clipPath id="t"><path d="M0 0h100v16H0z"/></clipPath><clipPath id="w"><path d="M4.406 7.293h.371v.559h-.37Zm0 0"/></clipPath><clipPath id="v"><path d="M0 0h100v16H0z"/></clipPath><clipPath id="y"><path d="M22 0h23.777v16H22Zm0 0"/></clipPath><clipPath id="x"><path d="M0 0h100v16H0z"/></clipPath><clipPath id="z"><path d="M0 0h100v16H0z"/></clipPath><mask id="B"><g filter="url(#a)"><path d="M0 0h100v15H0z" style="fill:#000;fill-opacity:.4;stroke:none"/></g></mask><mask id="D"><g filter="url(#a)"><path d="M0 0h100v15H0z" style="fill:#000;fill-opacity:.4;stroke:none"/></g></mask><mask id="F"><g filter="url(#a)"><path d="M0 0h100v15H0z" style="fill:#000;fill-opacity:.4;stroke:none"/></g></mask><mask id="H"><g filter="url(#a)"><path d="M0 0h100v15H0z" style="fill:#000;fill-opacity:.4;stroke:none"/></g></mask><mask id="J"><g filter="url(#a)"><path d="M0 0h100v15H0z" style="fill:#000;fill-opacity:.301961;stroke:none"/></g></mask><mask id="L"><g filter="url(#a)"><path d="M0 0h100v15H0z" style="fill:#000;fill-opacity:.301961;stroke:none"/></g></mask><mask id="N"><g filter="url(#a)"><path d="M0 0h100v15H0z" style="fill:#000;fill-opacity:.501961;stroke:none"/></g></mask><mask id="P"><g filter="url(#a)"><path d="M0 0h100v15H0z" style="fill:#000;fill-opacity:.501961;stroke:none"/></g></mask><mask id="R"><g filter="url(#a)"><path d="M0 0h100v15H0z" style="fill:#000;fill-opacity:.501961;stroke:none"/></g></mask><mask id="T"><g filter="url(#a)"><path d="M0 0h100v15H0z" style="fill:#000;fill-opacity:.501961;stroke:none"/></g></mask><mask id="V"><g filter="url(#a)"><path d="M0 0h100v15H0z" style="fill:#000;fill-opacity:.501961;stroke:none"/></g></mask><mask id="X"><g filter="url(#a)"><path d="M0 0h100v15H0z" style="fill:#000;fill-opacity:.45098;stroke:none"/></g></mask><mask id="Z"><g filter="url(#a)"><path d="M0 0h100v15H0z" style="fill:#000;fill-opacity:.45098;stroke:none"/></g></mask><g clip-path="url(#b)"><g id="A" clip-path="url(#c)"><path d="M11.195 3.7s-.203-.427-.41-.2c0 0 .203-.078.41.2" style="stroke:none;fill-rule:nonzero;fill:#fff;fill-opacity:1"/></g></g><g clip-path="url(#d)"><g id="C" clip-path="url(#e)"><path d="M10.371 3.352s-.203-.344-.43-.149c0 0 .114-.074.153.008 0 0 .094.066-.031.172 0 0 .152-.055.07-.2 0 0 .097.028.238.169" style="stroke:none;fill-rule:nonzero;fill:#fff;fill-opacity:1"/></g></g><g clip-path="url(#f)"><g id="E" clip-path="url(#g)"><path d="M11.293 3.68s-.027-.157-.176-.07c0 0 .121-.005.176.07" style="stroke:none;fill-rule:nonzero;fill:#fff;fill-opacity:1"/></g></g><g clip-path="url(#h)"><g id="G" clip-path="url(#i)"><path d="M10.77 3.469s-.094-.25-.348-.09c0 0 .195-.066.277.098 0 0 .028-.04.07-.008" style="stroke:none;fill-rule:nonzero;fill:#fff;fill-opacity:1"/></g></g><g clip-path="url(#j)"><g id="I" clip-path="url(#k)"><path d="m6.012 5.277-.63 1.012-.546 1.04.941.769s.375-2.422.391-2.395c.02.024-.852 1.668-.852 1.668Zm0 0" style="stroke:none;fill-rule:nonzero;fill:#fff;fill-opacity:1"/></g></g><g clip-path="url(#l)"><g id="K" clip-path="url(#m)"><path d="M7.973 3.48c.265.047.379.274.09.368-.102.035-.239-.035-.211-.168.097-.176-.11-.227-.184-.176.02.012.27-.024.305-.024" style="stroke:none;fill-rule:nonzero;fill:#fff;fill-opacity:1"/></g></g><g clip-path="url(#n)"><g id="M" clip-path="url(#o)"><path d="M6.129 7.941s.02-1.062-.742-.988c0 0 .55.098.742.988" style="stroke:none;fill-rule:nonzero;fill:#fff;fill-opacity:1"/></g></g><g clip-path="url(#p)"><g id="O" clip-path="url(#q)"><path d="m4.426 6.402-.098.145s-.086-.445-.418-.36c0 0 .336-.32.516.215" style="stroke:none;fill-rule:nonzero;fill:#fff;fill-opacity:1"/></g></g><g clip-path="url(#r)"><g id="Q" clip-path="url(#s)"><path d="m5.3 6.96-.081.145s-.219-.77-.672-.609c0 0 .492-.379.754.465" style="stroke:none;fill-rule:nonzero;fill:#fff;fill-opacity:1"/></g></g><g clip-path="url(#t)"><g id="S" clip-path="url(#u)"><path d="M5.613 7.93s-.035.617-.441.43c0 0 .308-.02.441-.43" style="stroke:none;fill-rule:nonzero;fill:#fff;fill-opacity:1"/></g></g><g clip-path="url(#v)"><g id="U" clip-path="url(#w)"><path d="M4.766 7.293s.109.617-.36.555c0 0 .246-.051.36-.555" style="stroke:none;fill-rule:nonzero;fill:#fff;fill-opacity:1"/></g></g><g clip-path="url(#x)"><g id="W" clip-path="url(#y)"><path d="M24.54 3.79c0-1.036.452-1.427 1.17-1.427.72 0 1.177.39 1.177 1.426v7.824c0 1.032-.457 1.426-1.176 1.426s-1.172-.394-1.172-1.426Zm-2.263 7.675c0 2.316 1.215 3.64 3.434 3.64 2.223 0 3.434-1.324 3.434-3.64V3.934c0-2.317-1.211-3.641-3.434-3.641-2.219 0-3.434 1.324-3.434 3.64ZM30.504.457v11.031c0 2.313 1.152 3.64 3.371 3.64 2.223 0 3.375-1.327 3.375-3.64V.457h-2.14v11.176c0 1.035-.454 1.406-1.172 1.406-.72 0-1.176-.371-1.176-1.406V.457Zm7.629 2.07H40.5v12.414h2.262V2.527h2.363V.457h-6.992Zm0 0" style="stroke:none;fill-rule:nonzero;fill:#1d1d1b;fill-opacity:1"/></g></g><g id="Y" clip-path="url(#z)"><path d="M64.016.48h-3.414v14.48h3.562c2.258 0 3.434-1.198 3.434-3.433v-1.18c0-1.53-.477-2.628-1.688-3.105 1.008-.476 1.457-1.426 1.457-2.918V3.81c0-2.235-1.008-3.329-3.351-3.329m-.145 7.965c1.031 0 1.461.414 1.461 1.758v1.262c0 1.078-.41 1.43-1.168 1.43h-1.3v-4.45Zm.082-5.898c.805 0 1.152.457 1.152 1.492v.805c0 1.16-.511 1.531-1.355 1.531h-.887V2.547Zm7.078 1.262c0-1.036.453-1.426 1.172-1.426s1.172.39 1.172 1.426v7.824c0 1.035-.453 1.426-1.172 1.426s-1.172-.391-1.172-1.426Zm-2.261 7.68c0 2.312 1.21 3.64 3.433 3.64 2.219 0 3.434-1.328 3.434-3.64V3.952c0-2.316-1.215-3.64-3.434-3.64-2.223 0-3.433 1.324-3.433 3.64Zm10.402-7.68c0-1.036.457-1.426 1.176-1.426s1.172.39 1.172 1.426v7.824c0 1.035-.454 1.426-1.172 1.426-.72 0-1.176-.391-1.176-1.426Zm-2.258 7.68c0 2.312 1.211 3.64 3.434 3.64 2.218 0 3.433-1.328 3.433-3.64V3.952c0-2.316-1.215-3.64-3.433-3.64-2.223 0-3.434 1.324-3.434 3.64Zm13.488 3.472h2.32l-3.144-8.027L92.723.48H90.46l-2.957 6.31V.48h-2.262v14.48h2.262v-4.448l.695-1.32Zm2.961-11.008c0 4.14 4.422 4.695 4.422 7.68 0 1.035-.453 1.406-1.172 1.406s-1.175-.371-1.175-1.406v-1.035H93.3v.89c0 2.313 1.148 3.64 3.37 3.64 2.224 0 3.376-1.327 3.376-3.64 0-4.14-4.422-4.699-4.422-7.68 0-1.035.414-1.425 1.133-1.425s1.133.39 1.133 1.426v.601h2.136v-.457c0-2.316-1.132-3.64-3.332-3.64-2.199 0-3.332 1.324-3.332 3.64m0 0" style="stroke:none;fill-rule:nonzero;fill:#1d1d1b;fill-opacity:1"/></g><filter id="a" width="100%" height="100%" x="0%" y="0%" filterUnits="objectBoundingBox"><feColorMatrix in="SourceGraphic" values="0 0 0 0 1 0 0 0 0 1 0 0 0 0 1 0 0 0 1 0"/></filter></defs><path d="M11.121 11.941c.117-.074.09-.175.063-.242-.024-.066-.098-.133-.121-.082-.004.051-.051.063-.028.102.012.015.035.027.078.023.094-.015.18-.168.239-.23l-1.036-.215c-.074.02-.02.187.016.223.027.043.086.02.14-.032l-.988-.625c.063-.164.106-.3.133-.37.012-.075.063-.056.04-.145a.8.8 0 0 0-.157-.25c-.086-.078-.29-.028-.504.047.024-.657.758-.86 1.277-.493.54.305.536 1.16.332 1.618l-.988-.622c.324-.332.801-.37 1.184-.183.394.156.66.762.449 1.144l-.91-.367a.7.7 0 0 1 .332-.308c.55-.258 1.219.355.851.875-.078.125-.277.234-.402.132" style="stroke:none;fill-rule:nonzero;fill:#e0f2fd;fill-opacity:1"/><path d="M6.137 3.672c-.508-.078-.77.015-.77.015a.8.8 0 0 0 .547.418c.844.207 1.211-.293 1.211-.293" style="stroke:none;fill-rule:nonzero;fill:#55685b;fill-opacity:1"/><path d="M5.625 3.613c.266.196.828.653 1.48.274l-.226-.274-1.074-.066Zm0 0" style="stroke:none;fill-rule:nonzero;fill:#3c5347;fill-opacity:1"/><path d="M7.012 3.707s-.344-.289-.703-.27c-.36.024-.832-.152-.907-.246 0 0 .055.594.817.657.761.058.8-.075.8-.075Zm0 0" style="stroke:none;fill-rule:nonzero;fill:#55685b;fill-opacity:1"/><path d="M6.258 3.824s-.567-.027-.758-.508c0 0 .273.309.758.508" style="stroke:none;fill-rule:nonzero;fill:#5a7b6b;fill-opacity:1"/><path d="M10.043 4.617c-.098-.039-.203-.074-.266-.164-.058-.082-.004-.183-.015-.277-.008-.082-.09-.082-.149-.114-.086-.042-.164-.132-.168-.234-.004-.078.024-.215.121-.207.082.008.125.082.141.156.02.086.055.114.148.118.055.003.114.003.165.027.066.035.101.098.14.156.024.035.223.172.219.192" style="stroke:none;fill-rule:nonzero;fill:#f9c3a6;fill-opacity:1"/><path d="M11.145 4.316s-.727 2.118-1.102 1.98c-.375-.14-.742-.507-.742-.507l.09-.695.535.465s.496.18.605-1.344Zm0 0" style="stroke:none;fill-rule:nonzero;fill:#f9c3a6;fill-opacity:1"/><path d="m10.262 3.797-.508-.188s-.102.051-.129.145c-.027.11-.004.168-.004.168l.527.176.114-.282" style="stroke:none;fill-rule:nonzero;fill:#f8b006;fill-opacity:1"/><path d="M11.273 3.86s-.183-.614-.48-.387c0 0-.04-.172-.215-.164-.14.003-.168.07-.168.07s-.156-.316-.394-.242c0 0-.168.074-.13.183 0 0 .052.121.173.098 0 0 .086.016.113.133.031.113.426.394.441.398.02.004.25.074.25.074s.38-.16.383-.144" style="stroke:none;fill-rule:nonzero;fill:#f9c3a6;fill-opacity:1"/><path d="M10.406 3.379s-.07.062-.105.2l-.121-.009s-.035-.183-.157-.156c0 0 .137 0 .13-.14 0 0 .05.214.253.105" style="stroke:none;fill-rule:nonzero;fill:#caa189;fill-opacity:1"/><path d="m9.563 5.137-.184.8-.234-.234.203-.777s.152.074.214.21" style="stroke:none;fill-rule:nonzero;fill:#ededed;fill-opacity:1"/><path d="M9.34 4.992s-.656-.613-.774-.543c-.113.067-.058.551-.058.551l.144.379.57.215Zm0 0" style="stroke:none;fill-rule:nonzero;fill:#ededed;fill-opacity:1"/><use xlink:href="#A" mask="url(#B)"/><path d="m9.34 4.992-.09.457-.402-.62.375.374Zm0 0" style="stroke:none;fill-rule:nonzero;fill:#dadada;fill-opacity:1"/><path d="m9.316 5.02-.488-.352.024-.07s.363.324.464.422M9.445 5.504l.07-.344L9.392 5l-.016.145.086.085Zm0 0" style="stroke:none;fill-rule:nonzero;fill:#fff;fill-opacity:1"/><path d="m13.469 4.422-2.031-.656s-.579.152-.352 1.125l2.086.8s.496.036.57-.554c.078-.586-.273-.715-.273-.715" style="stroke:none;fill-rule:nonzero;fill:#f8b006;fill-opacity:1"/><path d="m10.14 3.523 1.266.407c-.039-.024-.25.77-.25.77l-1.152-.395s-.098-.114-.059-.407c.035-.289.196-.375.196-.375" style="stroke:none;fill-rule:nonzero;fill:#f8b006;fill-opacity:1"/><path d="M11.098 3.832s-.188.262-.29.227c-.105-.036-.058-.274-.058-.274s-.258.14-.363.117c-.106-.02.066-.226.086-.246.015-.015.101-.039.101-.039l.25.094Zm0 0" style="stroke:none;fill-rule:nonzero;fill:#e29202;fill-opacity:1"/><path d="M11.008 3.758c-.028.133.023.254.117.273.09.02.188-.07.215-.199.027-.133-.024-.254-.117-.273-.09-.02-.188.07-.215.199" style="stroke:none;fill-rule:nonzero;fill:#f9c3a6;fill-opacity:1"/><path d="M9.953 4.363q.018.001.035-.004a.075.075 0 0 0 .043-.097c-.156-.422.211-.664.227-.676a.08.08 0 0 0 .023-.106.08.08 0 0 0-.105-.023c-.168.11-.446.43-.285.86a.08.08 0 0 0 .062.046M11.164 4.992a.09.09 0 0 0 .09-.043.094.094 0 0 0-.035-.125c-.004-.004-.164-.113-.098-.504.074-.406.324-.472.328-.472a.093.093 0 0 0 .067-.11.09.09 0 0 0-.11-.07c-.015.004-.37.098-.46.621-.094.527.171.688.183.691a.06.06 0 0 0 .035.012M12.77 4.93c-.086.414.09.797.398.863.305.066.625-.215.71-.629.087-.41-.093-.797-.398-.863-.308-.063-.625.219-.71.629" style="stroke:none;fill-rule:nonzero;fill:#e29202;fill-opacity:1"/><path d="M12.438 4.82c-.086.414.093.801.398.864.309.066.625-.215.71-.63.087-.41-.093-.796-.398-.863-.304-.062-.625.22-.71.63" style="stroke:none;fill-rule:nonzero;fill:#e29202;fill-opacity:1"/><path d="m13.586 4.34-.438-.149-.359 1.48.336.106Zm0 0" style="stroke:none;fill-rule:nonzero;fill:#e29202;fill-opacity:1"/><path d="M12.957 5.004c-.059.285.063.555.277.598.215.046.434-.149.493-.438.062-.285-.063-.555-.274-.598-.215-.046-.437.149-.496.438" style="stroke:none;fill-rule:nonzero;fill:#bce3fa;fill-opacity:1"/><path d="M13.594 5.207c.125-.36-.14-.64-.14-.64.21.042.335.312.276.597-.062.29-.285.484-.496.438-.015-.004-.035-.008-.05-.016.02 0 .289-.024.41-.379" style="stroke:none;fill-rule:nonzero;fill:#cc7512;fill-opacity:1"/><path d="M13.203 5.523s.309-.07.371-.414c0 0 .04-.332-.203-.5 0 0 .203.504.024.594 0 0 .066-.254-.036-.277-.101-.02-.285.074-.285.273 0 .317.13.324.13.324" style="stroke:none;fill-rule:nonzero;fill:#e0f2fd;fill-opacity:1"/><path d="M13.297 4.586s-.457.172-.293.785c0 0-.04-.445.293-.785" style="stroke:none;fill-rule:nonzero;fill:#5ec5f1;fill-opacity:1"/><path d="M13.316 4.852s-.234-.047-.304.23l.039-.227s.078-.175.265-.003" style="stroke:none;fill-rule:nonzero;fill:#5ec5f1;fill-opacity:1"/><path d="M13.277 4.336s-.46.023-.515.68c0 0-.102-.696.515-.68" style="stroke:none;fill-rule:nonzero;fill:#f8b006;fill-opacity:1"/><path d="m13.371 4.316-.293-.101s-.105.015-.144.066l.25.059ZM12.918 4.52l.035.117-.058-.051Zm0 0" style="stroke:none;fill-rule:nonzero;fill:#f8b006;fill-opacity:1"/><path d="M13.031 5.75s-.281-.14-.277-.496c0 0-.043.2-.004.309l-.195-.07s.043.136.476.257" style="stroke:none;fill-rule:nonzero;fill:#cc7512;fill-opacity:1"/><path d="M12.719 5.629s-.258-.07-.301-.625c0 0 .082.422.309.555" style="stroke:none;fill-rule:nonzero;fill:#cc7512;fill-opacity:1"/><path d="M12.555 5.082s-.004.422.191.563" style="stroke:none;fill-rule:nonzero;fill:#cc7512;fill-opacity:1"/><path d="M13.566 5.621q-.002.002-.027.016-.029.013-.074.031a.46.46 0 0 1-.235.027c-.023-.008-.043-.011-.062-.023a.4.4 0 0 1-.055-.027.4.4 0 0 1-.043-.04.428.428 0 0 1-.086-.102q-.018-.027-.02-.026l.013.027c.003.012.011.02.015.035l.028.04c.007.015.02.026.03.042a1 1 0 0 0 .048.043q.03.023.058.035.03.018.067.024.035.006.07.007a.428.428 0 0 0 .18-.047c.058-.03.093-.062.093-.062" style="stroke:none;fill-rule:nonzero;fill:#f8b006;fill-opacity:1"/><path d="m12.777 4.25-1.234-.398s-.219.027-.3.289c0 0 .167-.207.316-.223l.109.039s-.172.043-.23.184c0 0 .187-.11.421-.094Zm0 0" style="stroke:none;fill-rule:nonzero;fill:#fcc420;fill-opacity:1"/><path d="M11.617 3.824s-.015-.25-.25-.136l-.015.207s.164-.106.265-.07" style="stroke:none;fill-rule:nonzero;fill:#e29202;fill-opacity:1"/><path d="M11.52 3.738s-.258-.011-.457.477c0 0 .175-.668.457-.477" style="stroke:none;fill-rule:nonzero;fill:#f8b006;fill-opacity:1"/><path d="m12.375 5.363-1.187-.468s-.094-.438-.016-.668l.137.347 1.062.36s-.066.332.027.441M10.906 4.367c-.011-.015-.8-.219-.8-.219s-.07-.148-.055-.234c0 0-.153.3.035.39l.039.016.762.246Zm0 0" style="stroke:none;fill-rule:nonzero;fill:#f7a706;fill-opacity:1"/><path d="M10.977 3.738s-.051.367-.184.317c-.133-.051-.188-.262-.129-.41 0 0-.14.312-.312.25-.176-.063-.032-.352-.016-.415.02-.062.64.258.64.258" style="stroke:none;fill-rule:nonzero;fill:#f9c3a6;fill-opacity:1"/><path d="M9.781 3.617s-.094.016-.125.145c0 0-.039.11-.004.164l.063.023s-.016.059-.086.047c-.07-.016-.106-.086-.066-.254s.132-.258.242-.207c0 0 .074.059.035.106Zm0 0" style="stroke:none;fill-rule:nonzero;fill:#e29202;fill-opacity:1"/><path d="M10.79 3.492s-.122.078-.138.184c0 0-.015-.246.137-.184" style="stroke:none;fill-rule:nonzero;fill:#caa189;fill-opacity:1"/><use xlink:href="#C" mask="url(#D)"/><path d="M10.281 3.574s-.304.156-.3.535c0 0-.102-.382.3-.535M11.223 4.094s-.196.347-.086.597c0 0-.2-.066.086-.597M9.781 3.617s-.187.043-.105.317l-.024-.008s-.113-.219.13-.309" style="stroke:none;fill-rule:nonzero;fill:#cc7512;fill-opacity:1"/><path d="M9.855 3.969c-.023.004-.168-.047-.168-.047l-.015-.152.195.074Zm0 0" style="stroke:none;fill-rule:nonzero;fill:#f7a706;fill-opacity:1"/><path d="M11.7 5.125s-.282-.543-.595-.61l-.015.13.43.41Zm0 0" style="stroke:none;fill-rule:nonzero;fill:#e29202;fill-opacity:1"/><path d="m11.07 4.512-.156-.035.027.09.164.093Zm0 0" style="stroke:none;fill-rule:nonzero;fill:#cc7512;fill-opacity:1"/><path d="M11.066 3.629s-.062.113-.066.16l-.023-.012s.003-.082.09-.148" style="stroke:none;fill-rule:nonzero;fill:#caa189;fill-opacity:1"/><use xlink:href="#E" mask="url(#F)"/><use xlink:href="#G" mask="url(#H)"/><path d="m9.543 5.23-.14.653.074.066.078-.683" style="stroke:none;fill-rule:nonzero;fill:#caa189;fill-opacity:1"/><path d="M9.129 5.898s-.113-.16-.274.254c-.16.414-.168.102-.168.102l-.222-.598-.082-.453s-.051-.402-.043-.465a.18.18 0 0 1 .11-.14c.066-.032.179.148.218.16.039.008.473.976.473.976" style="stroke:none;fill-rule:nonzero;fill:#8c2c13;fill-opacity:1"/><path d="m8.594 4.73.492 2.528s-.309.613-2.14-.125l-.118-2.57 1.567-.079Zm0 0" style="stroke:none;fill-rule:nonzero;fill:#ededed;fill-opacity:1"/><path d="m7.39 5.16-.074 1.567-.293-.25.137.726-.215-.07-.07-.977Zm0 0" style="stroke:none;fill-rule:nonzero;fill:#dadada;fill-opacity:1"/><path d="M7.41 4.996 7.25 6.43s-.008.125-.098.062l-.656-.715.145-1.867s.004-.34.484-.098.285 1.184.285 1.184M8.488 4.258s.614.797.848 1.336l-.188.488s-.039.117-.093-.043c-.051-.16-.524-1.266-.524-1.266Zm0 0" style="stroke:none;fill-rule:nonzero;fill:#d53d15;fill-opacity:1"/><path d="M7.371 5.34s-.379-.465-.45-.809l.477.559Zm0 0" style="stroke:none;fill-rule:nonzero;fill:#8c2c13;fill-opacity:1"/><path d="M8.781 4.66s-.008.36-.105.45l-.043-.094zM6.777 5.367s.157.211.114.301c0 0-.051.144-.137.187l-.047.153-.039-.04.039-.226Zm0 0" style="stroke:none;fill-rule:nonzero;fill:#b13518;fill-opacity:1"/><path d="m6.922 5.059-.012.113.293.168.012-.13Zm-.043.128.02-.175.351.183-.023.196Zm0 0" style="stroke:none;fill-rule:nonzero;fill:#8c2c13;fill-opacity:1"/><path d="m7.402 5.703-.215-.113.02.191.176.086ZM7.36 6.082l-.215-.086-.024.188.215.101Zm0 0" style="stroke:none;fill-rule:nonzero;fill:#614a3f;fill-opacity:1"/><path d="m9.105 6.043.22-.473s-.395-.656-.524-.797l.426.778ZM7.324 5.379l-.011.055c-.004.02-.008.035-.008.054l-.02.114.02-.012q-.065-.034-.137-.063l-.023-.007.003.02q.001.05.008.097.008.051.016.097c.004-.03.004-.066.004-.097v-.098l-.02.012q.068.034.137.062l.02.008.003-.02q.001-.054.008-.109V5.38" style="stroke:none;fill-rule:nonzero;fill:#cb501b;fill-opacity:1"/><path d="m8.363 5.441-.144.102s-.106.633-.922 1.102l.156-.024.852-.668.168-.5Zm0 0" style="stroke:none;fill-rule:nonzero;fill:#b5b3b2;fill-opacity:1"/><path d="m7.273 5.855-.011.04q-.001.017-.008.035l-.012.078.02-.012-.14-.07-.02-.008v.02c-.004.03-.004.062-.008.093v.094l.011-.047q.007-.025.008-.043.011-.046.016-.094l-.02.012q.07.036.141.067l.016.007.004-.02q0-.037.003-.073v-.079M9.055 5.871 8.71 5.18l.027-.11ZM7.258 5.328l-.012.05-.012.056.016-.008c-.05-.035-.11-.07-.164-.098A1 1 0 0 0 7 5.285c-.016-.008-.027-.015-.043-.02a.2.2 0 0 0-.047-.019c.016.008.027.02.04.027q.021.017.042.028.037.029.078.05c.059.036.114.063.172.094l.016.004v-.121" style="stroke:none;fill-rule:nonzero;fill:#cb501b;fill-opacity:1"/><path d="M8.004 6.414s-.445.496-.969.543l-.117-.36.023-.187.247.125.18.14Zm0 0" style="stroke:none;fill-rule:nonzero;fill:#dadada;fill-opacity:1"/><path d="M7.227 6.273q-.01.044-.02.086-.005.044-.016.086v.004q.005.006.004.012-.002.005-.004.004l.004-.004c.008 0 0 0 0 0l-.011-.012c-.004-.008-.008-.011-.02-.023l-.02-.02c-.011-.015-.027-.031-.039-.047l-.046-.043q-.043-.04-.09-.082a2 2 0 0 0-.094-.078q.02.024.04.047c.015.016.026.031.042.043l.082.09.043.043a1 1 0 0 0 .043.047l.02.02q.008.01.02.023.004.006.015.011c.004.004.004.004.008.004q.004.005.015.004.011-.007.016-.015v-.028.004c0-.031.004-.058.004-.09 0-.027.004-.054.004-.086" style="stroke:none;fill-rule:nonzero;fill:#cb501b;fill-opacity:1"/><path d="M8.656 5.172s-.707.723-1.152.766c0 0 .203-.25-.133-.598l.027-.25 1.122-.227.109.012Zm0 0" style="stroke:none;fill-rule:nonzero;fill:#b5b3b2;fill-opacity:1"/><path d="M8.96 7.035 8.638 5.23l-.137.118.098 1.187.058-.71Zm0 0" style="stroke:none;fill-rule:nonzero;fill:#fff;fill-opacity:1"/><path d="M8.719 4.762s.027 1.617-1.442 2.035L7.27 6.66s1.132-.508 1.132-1.648" style="stroke:none;fill-rule:nonzero;fill:#c57e65;fill-opacity:1"/><path d="M8.703 5s-.195.313-.367.469l.047-.266.094-.183.214-.157.032-.023Zm0 0" style="stroke:none;fill-rule:nonzero;fill:#95604d;fill-opacity:1"/><path d="M8.64 5.188q0 0-.003.019a.3.3 0 0 1-.012.059 1 1 0 0 1-.023.086 1 1 0 0 1-.036.109c-.011.043-.03.086-.046.133a.4.4 0 0 0-.032.066l-.035.07-.039.075q-.019.035-.043.07a1 1 0 0 1-.094.14c-.007.012-.015.028-.023.036l-.027.035c-.016.023-.036.043-.051.066q-.024.035-.055.063a1 1 0 0 0-.055.058.4.4 0 0 1-.058.055c-.016.02-.035.035-.055.055-.031.035-.07.062-.105.09l-.047.035a.1.1 0 0 1-.024.02l-.02.015q-.043.029-.073.05c-.043.028-.067.048-.067.048s.028-.016.07-.043l.079-.047c.027-.016.058-.043.093-.067.036-.027.075-.05.11-.086s.078-.066.117-.105a1 1 0 0 1 .055-.059q.03-.029.058-.062.026-.036.051-.067l.027-.035q.017-.017.028-.035c.03-.047.066-.094.093-.144q.02-.034.04-.075l.039-.074a1 1 0 0 0 .03-.07c.013-.024.02-.047.032-.07q.024-.07.043-.133a.3.3 0 0 0 .02-.059l.011-.055q.013-.053.02-.09.01-.076.008-.077" style="stroke:none;fill-rule:nonzero;fill:#d98a6e;fill-opacity:1"/><path d="m6.422 4.531-.899.707.11.133.59-.363" style="stroke:none;fill-rule:nonzero;fill:#95604d;fill-opacity:1"/><path d="M8.223 7.383c-.391-.012 0 0 0 0l.222.129.22-.035.304-.141.11-.223" style="stroke:none;fill-rule:nonzero;fill:#00769b;fill-opacity:1"/><path d="M7.277 6.797s-.117-.016-.23.086-.567.828-1.613.52c0 0-.704-.114-.77-.4-.062-.284-.3-1.054-.3-1.054s.038-.015.093-.066c0 0-.137-.184.352-.149l-.082-.195s.21.125.402.082c.191-.039.062-.504.398-.45.336.06.399.532.817.794s.62.664.926.695Zm0 0" style="stroke:none;fill-rule:nonzero;fill:#c57e65;fill-opacity:1"/><path d="M7.098 6.723q-.001-.002-.02-.004-.023-.001-.062.004a.45.45 0 0 0-.348.254c-.008.011-.012.023-.02.035l-.007.02v.003c-.004.004 0-.004 0-.004v.004l-.004.004-.004.008a.1.1 0 0 1-.02.031c-.004.008-.015.016-.023.024a.2.2 0 0 1-.059.043.5.5 0 0 1-.152.046.8.8 0 0 1-.164.02q-.083.008-.164.004c-.051 0-.102-.004-.153-.004q-.07-.005-.136-.016c-.086-.008-.157-.02-.207-.027q-.035-.011-.059-.016-.019-.005-.02-.004l.02.012c.012.004.027.016.055.024.047.02.117.043.199.066.086.02.188.04.297.047.058.004.113.008.172.004q.088-.004.18-.02a.6.6 0 0 0 .175-.062c.028-.012.051-.035.074-.055.012-.016.024-.023.032-.039a.2.2 0 0 0 .023-.043l.012-.02.004-.019a.1.1 0 0 0 .015-.035q.016-.032.032-.063.009-.016.02-.03a.1.1 0 0 0 .019-.028c.011-.016.03-.032.043-.047q.046-.039.093-.067a.4.4 0 0 1 .079-.035.2.2 0 0 1 .058-.011q.019-.005.02-.004M4.809 5.734l.43.778.093.176-.137.113ZM4.457 5.883l.125.41-.164-.375" style="stroke:none;fill-rule:nonzero;fill:#95604d;fill-opacity:1"/><path d="m7.105 6.668-.027-.012a.2.2 0 0 0-.07-.02.3.3 0 0 0-.106-.003.1.1 0 0 0-.027.008q-.016.001-.031.007-.03.011-.059.028l-.027.015c-.008.008-.016.012-.024.02l-.011.012-.012.011a.1.1 0 0 1-.02.024c-.011.015-.02.035-.027.05q-.011.024-.016.047t-.007.04q-.005.017-.004.035v.027l.02-.023.015-.028c.004-.008.016-.015.023-.027q.011-.018.028-.035.016-.019.03-.032a.2.2 0 0 1 .04-.03q.007-.009.02-.016l.019-.012c.012-.012.031-.016.043-.024q.024-.01.047-.015.024-.011.047-.016l.043-.011.066-.012z" style="stroke:none;fill-rule:nonzero;fill:#ea9376;fill-opacity:1"/><path d="M5.64 5.3s-.011-.015-.035-.034l-.046-.032c-.02-.007-.047-.02-.075-.02-.015 0-.035 0-.05.009-.008.004-.02.007-.024.015a.1.1 0 0 0-.023.02.4.4 0 0 0-.047.094c-.02.062-.04.125-.067.18a1 1 0 0 1-.043.077c-.02.02-.039.04-.062.051a.3.3 0 0 1-.074.031q-.038.004-.074.008-.037.001-.067-.004-.032-.002-.05-.004-.048-.006-.048-.007s.012.011.04.023l.05.023.032.012c.011.004.023.004.039.008.027.004.054.012.09.008.03-.004.066-.008.097-.024a.3.3 0 0 0 .094-.07.4.4 0 0 0 .058-.094c.032-.066.047-.136.063-.195.008-.031.012-.059.023-.078q.016-.024.043-.031a.2.2 0 0 1 .063.004c.02 0 .035.007.047.011q.047.019.047.02" style="stroke:none;fill-rule:nonzero;fill:#d98a6e;fill-opacity:1"/><path d="M5.105 5.715s-.203-.024-.316-.102l.375.692-.234-.598Zm0 0" style="stroke:none;fill-rule:nonzero;fill:#d98a6e;fill-opacity:1"/><path d="m5.207 6.172-.031.035-.356.059-.054-.16Zm0 0" style="stroke:none;fill-rule:nonzero;fill:#a3a0a0;fill-opacity:1"/><path d="m5.133 6.035-.363.035.054.157.383-.055Zm0 0" style="stroke:none;fill-rule:nonzero;fill:#b5b3b2;fill-opacity:1"/><path d="m4.93 6.223.027-.008-.047-.16-.027.008Zm0 0" style="stroke:none;fill-rule:nonzero;fill:#a3a0a0;fill-opacity:1"/><path d="M5.117 6.05c-.008-.01-.18.013-.18.013l.036.12.004-.101ZM4.871 6.098l-.066.015-.016-.027.086-.016Zm0 0" style="stroke:none;fill-rule:nonzero;fill:#dadada;fill-opacity:1"/><path d="m5.176 6.207-.012.004-.074.031-.27.024" style="stroke:none;fill-rule:nonzero;fill:#95604d;fill-opacity:1"/><path d="M7.617 9.004s.227.629.086.629c0 0-.113.05-.223-.25-.109-.301-.199-.61-.007-.625.117-.008.172.23.172.23l.085-.047" style="stroke:none;fill-rule:nonzero;fill:#fff;fill-opacity:1"/><path d="M7.719 9.508s-.239-.102-.29-.528l.208.2.082.293" style="stroke:none;fill-rule:nonzero;fill:#dadada;fill-opacity:1"/><path d="M8.598 9.965s-.32.148-.762-.324c-.441-.47-.57-.97-.191-.79" style="stroke:none;fill-rule:nonzero;fill:#0090be;fill-opacity:1"/><path d="M12.371 8.492s.125-3.074-1.41-3.992c0 0-.629-.379-.953.063 0 0-.223.32-.485 1.507 0 0-.324 1.606-1.285 1.32 0 0-.894-.09-1.226-.238 0 0 .05 1.606 1.586 2.813 0 0 .527-.106-.371-1.762 0 0 .925.27 1.433-.09 0 0-.234.89.305 2.344Zm0 0" style="stroke:none;fill-rule:nonzero;fill:#0090be;fill-opacity:1"/><path d="M9.66 8.113s.13-1.015.192-1.336c0 0 .03-.578-.086-.484 0 0-.043 2.164-1.496 1.66 0 0 .043.164-.043.25 0 0 .855.274 1.433-.09M7.773 7.527s-.605-.097-.742-.203l.633.11.14.03.024.028" style="stroke:none;fill-rule:nonzero;fill:#00769b;fill-opacity:1"/><path d="M8.285 7.406s-.18.262-1.27-.086l-.019-.152s.547.254 1.172.203Zm0 0" style="stroke:none;fill-rule:nonzero;fill:#614a3f;fill-opacity:1"/><path d="M12.281 7.527c.004.02-.3-2.488-1.496-3.047 0 0-.523-.207-.73.13 0 0 .738-.32 1.11.98 0 0 .03-.418-.173-.832 0 0 .95.965 1.29 2.77" style="stroke:none;fill-rule:nonzero;fill:#05a4da;fill-opacity:1"/><path d="m7.652 7.332-.023.207-.106-.016-.007-.207" style="stroke:none;fill-rule:nonzero;fill:#0090be;fill-opacity:1"/><path d="m7.652 7.332-.011.05q-.007.029-.008.052a1 1 0 0 0-.016.101l.016-.012-.11-.011.012.011q-.001-.05-.008-.101.001-.029-.004-.05-.003-.028-.007-.056-.005.028-.004.055-.005.026-.004.05v.118h.012l.109.012.016.004v-.016c.003-.035.003-.066.007-.101v-.106" style="stroke:none;fill-rule:nonzero;fill:#009dd1;fill-opacity:1"/><path d="m8.332 7.398.016.16-.418-.007s.078-.121.113-.125c.039 0 .289-.028.289-.028" style="stroke:none;fill-rule:nonzero;fill:#00769b;fill-opacity:1"/><path d="M8.613 9.18s-.172-.637-.43-.977l-.433-.09.371.13-.316.269.343-.176s.395.582.465.844" style="stroke:none;fill-rule:nonzero;fill:#009dd1;fill-opacity:1"/><path d="M7.797 7.625c-.012.004-.117.094-.117.094l-.028.027-.093-.117s.02-.035.023-.031c.004.007.02.011.02.011l.125-.101s.074-.055.074-.051M9.785 6.145l-.02.023.024.02.02-.024ZM9.73 6.223l-.027.058.027.012.028-.059ZM9.684 6.34l-.02.058.027.008.02-.058ZM9.648 6.46l-.011.063.027.004.012-.062ZM9.629 6.582l-.008.063.027.003.008-.062ZM9.613 6.707l-.008.063h.024l.008-.06ZM9.594 6.828l-.012.063.023.004.012-.063ZM9.57 6.95l-.015.062.023.004.012-.063ZM9.54 7.07l-.017.059.02.004.016-.059ZM9.504 7.188l-.02.058.016.004.02-.055ZM9.46 7.305l-.023.054.012.008.028-.058ZM9.41 7.414l-.031.055.012.008.03-.055ZM9.348 7.52l-.036.054.012.008.035-.05ZM9.277 7.621l-.039.047.008.008.04-.047ZM9.195 7.71l-.047.044.008.008.047-.04ZM9.102 7.793l-.055.031.008.008.05-.031ZM8.996 7.855l-.059.028.004.008L9 7.863ZM8.883 7.902l-.059.016v.008l.059-.016ZM8.762 7.934l-.059.007v.004l.059-.008ZM8.64 7.945h-.062v.004h.063ZM8.516 7.941l-.059-.003.059.007ZM8.395 7.926l-.06-.012.06.016ZM8.27 7.898l-.028-.007ZM9.871 9.254a2 2 0 0 1 0-.223v-.226l.008-.227.012-.223.015-.226.012-.11.008-.113.011-.113.016-.11.027-.222v-.004c.016-.234.02-.469.02-.7q.001-.175-.016-.35-.009-.09-.03-.177c-.009-.027-.017-.058-.036-.085-.008-.012-.02-.028-.04-.032-.019-.008-.038 0-.054.008l.016.027q.034-.02.05.016c.016.02.024.047.032.074q.018.084.023.172.013.17.008.348c-.004.23-.015.465-.035.695l.004-.004-.035.223-.032.226-.011.114-.012.113-.02.223q-.009.116-.019.226l-.008.114-.004.113a4 4 0 0 0-.008.226q-.004.114-.003.227ZM8.227 9.64l-.02-.023ZM8.172 9.566l-.04-.046H8.13l.039.05ZM8.098 9.469l-.04-.051-.007.004.039.05ZM8.023 9.367l-.035-.05-.011.007.039.051ZM7.953 9.266l-.035-.051-.012.008.035.05ZM7.883 9.164l-.031-.05-.016.007.035.05ZM7.816 9.059l-.03-.051-.016.012.03.05ZM7.754 8.957l-.031-.055-.02.012.031.05ZM7.688 8.848l-.028-.051-.02.008.032.054ZM7.629 8.742l-.031-.055-.02.012.031.055ZM7.57 8.633l-.027-.055-.02.012.028.055ZM7.512 8.523l-.028-.054-.02.008.028.058ZM7.46 8.414l-.026-.059-.02.012.024.055ZM7.406 8.3l-.023-.058-.02.008.024.059ZM7.36 8.188l-.024-.06-.02.009.024.058ZM7.316 8.07l-.023-.058-.016.008.02.058ZM7.273 7.953l-.02-.058-.015.007.02.059ZM7.238 7.836l-.02-.059-.015.004.016.059ZM7.203 7.719l-.016-.063-.011.004.011.063ZM7.176 7.598l-.012-.063-.012.004.012.063ZM7.152 7.477l-.011-.063h-.008l.012.063ZM7.133 7.352l-.004-.059h-.004l.004.062Zm0 0" style="stroke:none;fill-rule:nonzero;fill:#00769b;fill-opacity:1"/><path d="m7.219 7.227.015.238-.109-.047-.02-.227" style="stroke:none;fill-rule:nonzero;fill:#0090be;fill-opacity:1"/><path d="M7.219 7.227q-.005.03-.004.058v.063q.002.058.004.117l.02-.012a.6.6 0 0 0-.106-.047l.008.012a1 1 0 0 0-.016-.113q-.001-.03-.008-.059l-.012-.055v.114c.004.039.004.078.008.113v.008l.008.004q.052.03.106.047l.023.011v-.023l-.012-.121-.011-.059q-.001-.03-.008-.058" style="stroke:none;fill-rule:nonzero;fill:#009dd1;fill-opacity:1"/><path d="M7.926 7.543s-.14.098-.2.195l-.109-.097s.176-.192.262-.227c.09-.039.047.129.047.129" style="stroke:none;fill-rule:nonzero;fill:#614a3f;fill-opacity:1"/><path d="M8.309 7.512s-.043-.215-.055-.207c-.008.008-.399.039-.399.039l.079.226Zm0 0" style="stroke:none;fill-rule:nonzero;fill:#b5b3b2;fill-opacity:1"/><path d="M7.988 7.55s-.047.009-.043.005-.074-.223-.074-.223l.399.012-.325.05Zm0 0" style="stroke:none;fill-rule:nonzero;fill:#a3a0a0;fill-opacity:1"/><path d="M8.281 7.363c.02-.082.086-.285.086-.285l-.16-.016s-.418.016-.437.02c-.024.008-.153.227.011.254.16.027.5.027.5.027" style="stroke:none;fill-rule:nonzero;fill:#ededed;fill-opacity:1"/><path d="m7.75 7.742-.129-.125-.023.031.125.125Zm0 0" style="stroke:none;fill-rule:nonzero;fill:#b5b3b2;fill-opacity:1"/><path d="m7.879 7.414-.11.078-.109-.015Zm0 0" style="stroke:none;fill-rule:nonzero;fill:#48352d;fill-opacity:1"/><path d="M12.406 8.492s-1.836-.847-2.867 1.04c0 0-.273.46.008.878l.16.18 1.309-.867Zm0 0" style="stroke:none;fill-rule:nonzero;fill:#009dd1;fill-opacity:1"/><path d="M11.516 8.305s-1.055-.172-1.852 1.03l-.039-.347s.688-.886 1.89-.683M7.582 8.828s.313.524.707.871c0 0-.7-.496-.758-.738 0 0-.066-.113.051-.133" style="stroke:none;fill-rule:nonzero;fill:#00769b;fill-opacity:1"/><path d="M12.242 8.531s-1.469-.64-2.555.93c0 0 1.126-1.227 2.36-.652Zm0 0" style="stroke:none;fill-rule:nonzero;fill:#05a4da;fill-opacity:1"/><path d="m10.559 8.277-.774.274-.012-.313.157.02.035-.301-.156-.02.023-.21.156.02.035-.317-.109-.012-.035-.102.164-.046.023-.211-.113-.016-.031-.098.16-.027-.004-.258-.191-.02.008-.062.23-.05-.062-.137-.153.054.008-.074.39-.277-.132-.016-.27.203-.031-.074.129-.082-.074-.074-.051.113-.035-.144s.11-.079.12-.082c.016-.004.247.027.247.027l.215.12-.012.345" style="stroke:none;fill-rule:nonzero;fill:#0090be;fill-opacity:1"/><path d="M8.266 7.988s.015.004-.028-.152l.395-.102-.266.172.246.028-.312.058" style="stroke:none;fill-rule:nonzero;fill:#00769b;fill-opacity:1"/><path d="M8.148 7.633c.016.043.032.082.043.125q.004.016.008.031.004.016.008.031l.004.032.008.03v.063c0 .012.004.02 0 .032l-.004.03-.004.028-.012.031c-.004.008-.004.016-.011.028l-.012.023.027-.012-.094-.011.028.031c0-.02-.004-.04-.004-.059q-.004-.03-.008-.058c-.004-.04-.016-.074-.023-.113a1 1 0 0 0-.043-.106l-.016-.027c-.004-.008-.012-.016-.016-.024q-.01-.011-.015-.023l-.02-.02.024.051c.007.016.011.035.02.05q.002.018.003.028a1.271 1.271 0 0 1 .035.191v.055q.005.025.004.051l-.004.027.028.004.093.012.024.004.008-.016.015-.035q.011-.013.016-.031c0-.012.008-.024.008-.035q.004-.018.007-.035v-.071q0-.017-.003-.035-.004-.018-.008-.035l-.008-.031-.012-.035c0-.012-.008-.02-.012-.032l-.011-.03a.7.7 0 0 0-.07-.114" style="stroke:none;fill-rule:nonzero;fill:#009dd1;fill-opacity:1"/><path d="M7.5 7.457c.008 0 .008.082.008.082l-.043-.086ZM7.105 7.36l.008.058-.039-.078Zm0 0" style="stroke:none;fill-rule:nonzero;fill:#00769b;fill-opacity:1"/><path d="M8.54 9.84s-.477-.356-.81-1.074c0 0 .68.996.899.918 0 0 .098-.04.059-.23 0 0 .101.523-.149.386M10.055 7.508s.133-1.535-.22-1.403c0 0 .52-.898.22 1.403M8.816 7.375s-.28.14-.421.11c-.016-.005.007.003 0 0l-.024.117-.223-.004s.18.148.559 0c0 0-.238.039-.293-.032 0 0 .297-.066.402-.191M7.414 7.527s.152.25-.043.387c0 0 .313-.133.043-.387" style="stroke:none;fill-rule:nonzero;fill:#009dd1;fill-opacity:1"/><path d="M7.25 7.918c.172-.078.148-.3.137-.379.031.063.164.352-.14.399Zm0 0" style="stroke:none;fill-rule:nonzero;fill:#00769b;fill-opacity:1"/><path d="m7.5 7.457.004-.125-.027-.008ZM7.105 7.21v.142l-.039-.145Zm0 0" style="stroke:none;fill-rule:nonzero;fill:#48352d;fill-opacity:1"/><path d="M7.613 8.879s-.187-.047-.168.203l-.03-.102s-.071-.218.136-.187.008 0 .008 0Zm0 0" style="stroke:none;fill-rule:nonzero;fill:#009dd1;fill-opacity:1"/><path d="M7.594 8.879s-.157-.02-.157.184c0 0 .024-.118.153-.133Zm0 0" style="stroke:none;fill-rule:nonzero;fill:#00769b;fill-opacity:1"/><path d="m7.613 8.879-.062-.086-.082.004.043.101s-.032-.039.101-.02" style="stroke:none;fill-rule:nonzero;fill:#0090be;fill-opacity:1"/><path d="m8.258 7.39.027.102-.277.047.242-.074Zm0 0" style="stroke:none;fill-rule:nonzero;fill:#dadada;fill-opacity:1"/><path d="m7.879 7.414-.02.02.043.117.024-.008Zm0 0" style="stroke:none;fill-rule:nonzero;fill:#48352d;fill-opacity:1"/><path d="m7.723 7.742.007-.008-.097-.101-.012.012Zm0 0" style="stroke:none;fill-rule:nonzero;fill:#dadada;fill-opacity:1"/><path d="m6.91 4.512-.664 4.015L4.812 7.38l1.614-3.297s.469-.465.617-.027c.152.437-.148.422-.148.422" style="stroke:none;fill-rule:nonzero;fill:#f9c3a6;fill-opacity:1"/><path d="m6.766 5.426-.805-.531.418-.81s.367-.628.68-.022c.222.433-.164.437-.164.437l.02.04Zm0 0" style="stroke:none;fill-rule:nonzero;fill:#ededed;fill-opacity:1"/><path d="M6.688 5.8s-.25-.87-.735-.75l-.09.18s-.144-.48.114-.52c.257-.034.761.427.835.786l.024.145s-.047.18-.149.16" style="stroke:none;fill-rule:nonzero;fill:#ededed;fill-opacity:1"/><path d="M6.723 5.277s-.25-.465-.653-.554c0 0 .246-.528.36-.641l-.172.613s.238-.011.465.582" style="stroke:none;fill-rule:nonzero;fill:#dadada;fill-opacity:1"/><path d="M6.906 3.867s-.226-.18-.449.16c0 0 .2-.191.45-.16M6.75 5.61s-.371-.755-.77-.618c0 0 .317-.293.77.617" style="stroke:none;fill-rule:nonzero;fill:#fff;fill-opacity:1"/><path d="M6.688 5.8s-.239-.808-.735-.75c0 0 .516-.171.734.75M6.941 3.902s-.375.36-.03.61c.347.25 0 0 0 0l.066-.367L7 3.96Zm0 0" style="stroke:none;fill-rule:nonzero;fill:#dadada;fill-opacity:1"/><path d="M6.668 5.836s-.215-.852-.727-.762l-.593 1.211.668-1.055s.351-.05.652.606" style="stroke:none;fill-rule:nonzero;fill:#caa189;fill-opacity:1"/><use xlink:href="#I" mask="url(#J)"/><path d="m8.469 4.043.054.004s.61.344-.003 1.152c-.348.453-.86.856-.86.856s.09-.453-.07-.633c-.55-.613-.68-.91-.68-.91s-.215-.348.137-.692c.348-.347 1.39.22 1.39.22" style="stroke:none;fill-rule:nonzero;fill:#55685b;fill-opacity:1"/><path d="M8.14 4.188s-.058.195-.382.128c-.324-.062-.332-.195-.332-.195s.527.149.715.066" style="stroke:none;fill-rule:nonzero;fill:#b6927d;fill-opacity:1"/><path d="M6.996 3.875s.078.754 1.047.809c0 0-.531-.325-.613-.543" style="stroke:none;fill-rule:nonzero;fill:#3c5347;fill-opacity:1"/><path d="M8.45 4.117s-.071.274-.493.332c0 0 .309-.18.258-.336" style="stroke:none;fill-rule:nonzero;fill:#32483d;fill-opacity:1"/><path d="M8.55 4.129s.645.473-.628 1.633c0 0 .8-.824.644-1.313 0 0-.296.25-.687.043 0 0 .55.047.672-.363" style="stroke:none;fill-rule:nonzero;fill:#5a7b6b;fill-opacity:1"/><path d="M8.379 4.723s-.793.32-1.316-.47c0 0 .648 1.419 1.316.47" style="stroke:none;fill-rule:nonzero;fill:#5a7b6b;fill-opacity:1"/><path d="M7.863 5.098S7.06 4.914 7 3.965c0 0-.156.195-.027.52.12.304.394.546.89.613" style="stroke:none;fill-rule:nonzero;fill:#3c5347;fill-opacity:1"/><path d="M8.316 4.977s-.367.492-.746.136c0 0 .485.782.746-.136" style="stroke:none;fill-rule:nonzero;fill:#5a7b6b;fill-opacity:1"/><path d="M9.508 2.938s-.54 1.402-1.719 1.269C6.41 4.051 6.25 2.324 6.25 2.324S5.477.738 7.285 1.09c.906.18 1.695.324 2.16.594.106.062-.172.382-.101.46.086.098.508-.042.523.086.031.208-.172.383-.36.708" style="stroke:none;fill-rule:nonzero;fill:#f9c3a6;fill-opacity:1"/><path d="M9.508 2.938s-.54 1.402-1.719 1.269C6.41 4.051 6.25 2.324 6.25 2.324S5.477.738 7.285 1.09c.906.18 1.695.324 2.16.594.106.062-.172.382-.101.46.086.098.508-.042.523.086.031.208-.172.383-.36.708" style="stroke:none;fill-rule:nonzero;fill:#f9c3a6;fill-opacity:1"/><path d="M9.68 2.453s-.117.086-.367.375c-.278.32-1.524 1.379-2.758-.543" style="stroke:none;fill-rule:nonzero;fill:#caa189;fill-opacity:1"/><path d="M6.656 3.484a.336.336 0 0 1 .465.48 1.8 1.8 0 0 1-.465-.48" style="stroke:none;fill-rule:nonzero;fill:#f6b19e;fill-opacity:1"/><path d="M9.684 3.441c-.13.149-.325.184-.446.082-.117-.101-.113-.304.012-.453.125-.148.324-.183.445-.082.117.102.114.305-.011.453M6.047 3.063c-.113-.153-.11-.356.02-.45.124-.097.32-.047.433.11.117.156.11.359-.016.453-.125.094-.32.043-.437-.114" style="stroke:none;fill-rule:nonzero;fill:#f9c3a6;fill-opacity:1"/><path d="M6.14 2.852V2.82a.1.1 0 0 1 .016-.023q.014-.005.028-.004c.011.004.023.016.03.023.005.008.009.012.013.024q.001.011.003.015 0 .006-.003.012-.007.005-.02.016a.2.2 0 0 0-.05.062.13.13 0 0 0 .007.086.14.14 0 0 0 .05.055q.031.023.067.023c.008 0 .024 0 .035-.007a.05.05 0 0 0 .028-.028c.008-.027-.004-.043-.012-.054a.1.1 0 0 0-.027-.024q-.012-.01-.024-.008-.007-.005-.008-.004s.004.004.008.004q.008.005.016.016a.1.1 0 0 1 .016.027c.003.008.003.024 0 .028q-.004.004-.008.003c-.008.004-.008.004-.02 0q-.02 0-.039-.019-.02-.016-.027-.04a.05.05 0 0 1-.004-.038q.006-.018.031-.035.012-.01.024-.032c.007-.011.015-.03.011-.046a.1.1 0 0 0-.011-.036.1.1 0 0 0-.02-.027.1.1 0 0 0-.059-.027.06.06 0 0 0-.05.02c-.012.015-.012.027-.012.038q.004.018.008.024.002.007.004.008M9.39 3.355h-.007q-.006.005-.024.016-.012.007-.02.031-.006.031.016.055c.016.016.04.027.063.031h.031a.1.1 0 0 0 .04-.015c.027-.016.038-.051.042-.075a.4.4 0 0 0-.008-.074q-.008-.04-.02-.062-.005-.03 0-.043a.1.1 0 0 1 .017-.012v-.004c-.004.004 0 0 0 0l.007-.004h.008c.008 0 .02.004.027.012q.029.036.028.066c0 .008-.004.016-.004.02q-.005.007-.004.008T9.59 3.3q.006-.007.012-.02a.06.06 0 0 0 .003-.039.1.1 0 0 0-.015-.05.08.08 0 0 0-.055-.04H9.52l-.004.004h-.012L9.5 3.16h-.008q-.018.011-.031.027-.011.025-.016.043-.001.022.004.043c.004.024.012.047.016.063q.007.03.008.059 0 .023-.012.035-.01.004-.02.007-.006-.001-.011.004h-.012q-.022 0-.04-.007c-.007-.008-.01-.02-.015-.028q.001-.018.008-.031l.012-.016q.007-.005.008-.004" style="stroke:none;fill-rule:nonzero;fill:#b6927d;fill-opacity:1"/><path d="M9.18 3.121s-.09-.207-.282-.152c-.191.058.395.285.282.152M6.926 2.691s-.172-.054-.223.09c-.047.145.36-.09.223-.09" style="stroke:none;fill-rule:nonzero;fill:#95604d;fill-opacity:1"/><path d="M8.754 3.645q.13.018.215.109a1.6 1.6 0 0 1-.567.379.32.32 0 0 1-.03-.184.347.347 0 0 1 .382-.304" style="stroke:none;fill-rule:nonzero;fill:#f6b19e;fill-opacity:1"/><path d="M8.383 3.586c0 .016.008.031.027.031.016 0 .027-.012.031-.027 0-.016-.011-.031-.027-.031-.016-.004-.031.007-.031.027" style="stroke:none;fill-rule:nonzero;fill:#c57e65;fill-opacity:1"/><path d="m9.11 3.023-.118.086c-.101-.046-.183-.109-.094-.14a.2.2 0 0 1 .211.054" style="stroke:none;fill-rule:nonzero;fill:#6a4435;fill-opacity:1"/><path d="M9.688 2.945s.734.176.777-.199c0 0 .156-.312-.258-.375-.41-.058-.59-.055-.59-.055Zm0 0" style="stroke:none;fill-rule:nonzero;fill:#8c2c13;fill-opacity:1"/><path d="M8.262 3.441c0 .008.011.02.023.02.016.004.027-.004.027-.016.004-.011-.007-.02-.023-.023a.03.03 0 0 0-.027.02M8.219 3.594c0 .015.008.031.015.031.012.004.024-.008.024-.027q.004-.025-.016-.032c-.012 0-.023.012-.023.028" style="stroke:none;fill-rule:nonzero;fill:#c57e65;fill-opacity:1"/><path d="M6.844 2.684c.043-.004.082.007.082.007.05 0 .027.032-.02.063Zm0 0" style="stroke:none;fill-rule:nonzero;fill:#6a4435;fill-opacity:1"/><path d="M7.305 3.191c0 .016.011.032.027.036.016 0 .027-.012.031-.028 0-.02-.011-.035-.027-.035s-.027.012-.031.027M7.438 3.375c0 .023.015.043.035.043.023.004.043-.012.043-.035.004-.02-.012-.04-.036-.043-.02 0-.039.015-.043.035M7.25 3.39c-.004.02.008.036.027.04.016 0 .032-.016.035-.035 0-.016-.011-.036-.027-.036-.015-.004-.035.012-.035.032" style="stroke:none;fill-rule:nonzero;fill:#c57e65;fill-opacity:1"/><path d="M9.672 2.434s.262.757-.25.867c0 0-.156-.035.062-.535 0 0-.207.226-.3.261 0 0 .03-.312.046-.398.012-.082.23-.34.23-.34s.15.043.18.023c.032-.019.032.122.032.122M6.504 2.234c.137.067.215.286.203.422-.016.211-.21-.047-.277-.09-.004.082.07.176.074.27.008.168-.133.074-.207-.004-.106-.113-.281-.328-.164-.535.137-.008.238-.04.383-.02" style="stroke:none;fill-rule:nonzero;fill:#95604d;fill-opacity:1"/><path d="M9.64 2.21s.255-.433.403-.636c.148-.207.387-.332-.055-.668C9.625.633 8.824.277 8.313.281c0 0-1.317-.488-2.196.203 0 0-.36.36-.262.649.235.68.23.965.25 1.207 0 0 .04-.012.45-.047.406-.035 1.34.277 1.34.277l.511-.039.442-.015.863-.305" style="stroke:none;fill-rule:nonzero;fill:#b13518;fill-opacity:1"/><path d="M9.59 2.152s.305-.574.418-.757c.113-.188.324-.633-1.63-.922-2.144-.325-1.702.707-1.683.855.04.328.008.965.008.965s2.129.258 2.149.215c.02-.04.738-.356.738-.356" style="stroke:none;fill-rule:nonzero;fill:#ededed;fill-opacity:1"/><path d="M8.922 1.46s-.203-.07-.258.048l-.039.34-.336-.059-.035.332s.273-.02.316 0c.047.02.035.152.035.152l.317-.015Zm0 0" style="stroke:none;fill-rule:nonzero;fill:#b5b3b2;fill-opacity:1"/><path d="M8.96 1.465s-.187.02-.241.09c-.031.039-.11.738.058.75.172.007.184-.84.184-.84" style="stroke:none;fill-rule:nonzero;fill:#614a3f;fill-opacity:1"/><path d="m9.61 1.977.37-.649s.446-.73-2.554-.879c0 0 1.98.36 2.297.7 0 0-1.207-.383-1.715-.254 0 0 1.285.273 1.586.503l-.239.625Zm0 0" style="stroke:none;fill-rule:nonzero;fill:#fff;fill-opacity:1"/><path d="m9.488 2.16.04-.082ZM9.57 2l.043-.082-.043.078ZM9.656 1.836l.043-.078-.004-.004-.043.082ZM9.746 1.676l.043-.078-.008-.004-.043.078ZM9.832 1.516l.047-.079-.012-.003-.043.078ZM9.922 1.355s.004-.02.012-.042l.007-.047H9.93l-.008.043c-.008.023-.012.043-.012.043ZM9.934 1.172q.001 0-.004-.012c-.004-.004-.004-.012-.008-.015 0-.004 0-.012-.004-.016l-.023-.04-.012.009s.008.02.02.039q.003.005.007.015c0 .004.004.008.004.012l.008.012ZM9.832 1.02l-.07-.06-.008.013.07.058ZM9.684.91 9.605.867l-.007.016.078.043ZM9.52.832 9.434.797l-.004.02.082.03ZM9.348.766 9.262.738l-.004.02.086.027ZM9.176.715 9.086.69l-.004.02.09.023ZM9 .668l-.09-.02-.004.02.09.02ZM8.82.629 8.73.613l-.003.02.09.02ZM8.64.594 8.556.578 8.55.602l.086.015ZM8.465.566 8.37.551v.023l.09.012ZM8.281.54l-.09-.013-.004.024.094.011ZM8.102.516l-.09-.008-.004.023.09.008ZM7.918.5l-.09-.004V.52l.09.003ZM7.738.492h-.093V.52h.093ZM7.555.496l-.09.008V.53l.09-.008ZM7.371.516l-.09.015.008.031.09-.019ZM7.191.555l-.086.03.012.028.086-.031ZM7.023.629l-.039.023-.039.028.02.023S6.98.688 7 .676l.04-.024ZM6.875.742l-.027.035C6.832.797 6.82.82 6.82.82l.028.016.023-.04.027-.034ZM6.781.906S6.777.93 6.77.95l-.008.047.027.004.008-.043c.008-.02.012-.043.012-.043ZM6.754 1.09l.004.094.031-.004-.008-.09ZM6.773 1.273l.02.09.027-.004-.02-.09ZM6.805 1.453l.008.09h.027l-.008-.094ZM6.816 1.633l.004.094h.024v-.094ZM6.82 1.816v.09h.024v-.09ZM6.816 2v.09h.024L6.844 2ZM6.813 2.184l-.004.09h.023l.004-.09ZM6.875 2.324l.094.012v-.023l-.09-.012ZM7.059 2.348l.09.007v-.02l-.09-.01ZM7.238 2.367l.09.012.004-.024-.09-.007ZM7.418 2.387l.09.011.004-.02-.09-.01ZM7.602 2.406l.09.012v-.02l-.09-.011ZM7.781 2.43l.09.007v-.019l-.09-.008ZM7.96 2.45l.09.007.005-.016-.09-.011ZM8.14 2.465l.094.012v-.02l-.09-.008ZM8.324 2.484l.09.008v-.015l-.09-.008ZM8.504 2.5l.09.008.004-.012-.094-.012ZM8.688 2.512l.09.004v-.012l-.09-.004ZM8.86 2.473l.078-.043-.004-.008-.082.043ZM9.02 2.387l.078-.04V2.34l-.082.039ZM9.18 2.305l.082-.04v-.003L9.18 2.3ZM9.344 2.227l.082-.04Zm0 0" style="stroke:none;fill-rule:nonzero;fill:#dadada;fill-opacity:1"/><path d="M9.8 2.195s.192-.175.212-.304c.02-.13-.188-.305-.563-.426-.37-.121-.594-.059-.62.097-.028.16-.075.668-.075.668s.012.086.101.106c.09.023.649-.035.649-.035Zm0 0" style="stroke:none;fill-rule:nonzero;fill:#c57e65;fill-opacity:1"/><path d="M8.848 1.508s-.063.062-.07.183l-.055.48s0 .095.09.15c.09.05.109-.048.109-.048s-.102.024-.094-.109l-.02-.121Zm0 0" style="stroke:none;fill-rule:nonzero;fill:#95604d;fill-opacity:1"/><path d="M9.191 2.941c.012-.097.028-.257.04-.312.011-.082.23-.34.23-.34s.148.043.18.023c.03-.019.03.122.03.122s.056.152.067.332c-.054-.028-.254-.106-.543.18Zm0 0" style="stroke:none;fill-rule:nonzero;fill:#6a4435;fill-opacity:1"/><path d="M9.777 1.984s.118-.117.02-.18c-.102-.058-.442-.195-.582-.163 0 0-.176.004-.2.203l-.035.34s.024.105.176.128c.156.02.434-.042.434-.042Zm0 0" style="stroke:none;fill-rule:nonzero;fill:#bce3fa;fill-opacity:1"/><path d="M9.309 1.637c.164.02.406.12.488.168.098.062-.02.18-.02.18l-.172.257-.035-.015.164-.305s.118-.106-.425-.285" style="stroke:none;fill-rule:nonzero;fill:#95604d;fill-opacity:1"/><path d="M9.242 1.977s-.113-.004-.156.011l-.035-.226-.047.414.344-.028s-.207.012-.23-.054c-.02-.067.105-.102.105-.102" style="stroke:none;fill-rule:nonzero;fill:#5ec5f1;fill-opacity:1"/><path d="M9.828 2.96s.492.126.531-.14c.036-.27-.28-.39-.43-.39-.152 0-.406-.004-.628.297 0 0-.36.488-1.031.476-.672-.008-1.54-.437-1.715-.918 0 0 .14-.07.777.05.64.126 1.18-.124 1.984-.237.805-.11 1.18.148 1.235.382.054.239-.028.618-.723.48" style="stroke:none;fill-rule:nonzero;fill:#d53d15;fill-opacity:1"/><path d="M8.684 2.215s-.332.172-.54.27c-.394.183-1.105.464-1.578-.184l-.011-.016c.11-.02.32-.043.777.05.414.083.938-.01 1.352-.12" style="stroke:none;fill-rule:nonzero;fill:#b13518;fill-opacity:1"/><path d="M6.605 2.39s-.421-.027-.5-.058l.45-.047s.035.078.05.106" style="stroke:none;fill-rule:nonzero;fill:#6a4435;fill-opacity:1"/><path d="M7.629 3.047q.097.051.207.086.104.036.215.054c.074.012.148.024.226.02q.055.001.114-.004a1 1 0 0 0 .222-.05 1.233 1.233 0 0 0 .652-.457l-.003.003.039-.047q.023-.02.047-.043.045-.04.097-.082.052-.036.106-.066c.02-.008.039-.02.058-.027l.059-.024q.03-.011.059-.015l.062-.012c.012 0 .024-.004.031-.004h.098l.062.012a.3.3 0 0 1 .063.015q.034.007.062.02c.024.008.043.02.063.027-.02-.012-.035-.027-.055-.039q-.03-.018-.058-.031-.031-.017-.063-.028-.033-.012-.066-.02l-.07-.015c-.024 0-.047-.004-.07-.004s-.048.004-.071.004q-.037.005-.067.016a1 1 0 0 0-.07.016c-.023.007-.043.02-.066.027a1 1 0 0 0-.239.148c-.015.016-.035.032-.05.047l-.051.051-.004.008a.6.6 0 0 1-.063.078q-.033.036-.074.074a1.415 1.415 0 0 1-.355.223q-.046.02-.098.039a1 1 0 0 1-.098.031.6.6 0 0 1-.105.024q-.047.01-.102.015a2 2 0 0 1-.644-.07" style="stroke:none;fill-rule:nonzero;fill:#cb501b;fill-opacity:1"/><path d="m6.71 2.168.095.012.011-.121-.105.035Zm0 0" style="stroke:none;fill-rule:nonzero;fill:#b5b3b2;fill-opacity:1"/><path d="m6.664 2.266.016.043-.008-.02zM6.727 2.39s.011.02.027.036c.012.02.027.039.027.039l.004-.004-.031-.035a.2.2 0 0 0-.027-.035M6.844 2.531s.02.016.035.031l.035.032V2.59l-.031-.031c-.02-.016-.035-.032-.035-.032ZM6.984 2.652l.075.055.003-.004-.074-.055ZM7.137 2.758l.078.047.004-.008-.078-.047ZM7.297 2.848l.082.043.004-.008L7.3 2.84ZM7.465 2.93l.086.03.004-.007-.086-.035ZM7.637 2.996l.09.027.003-.011-.09-.028ZM7.816 3.047l.09.023.004-.015-.094-.02ZM7.996 3.086l.09.012.004-.016L8 3.07ZM8.18 3.105h.093V3.09H8.18ZM8.367 3.102l.043-.008.047-.008-.004-.02-.043.008-.047.008ZM8.55 3.066s.02-.007.044-.011l.043-.016-.008-.02s-.02.008-.043.012l-.043.016ZM8.723 3.004s.023-.012.043-.02l.043-.023-.012-.02-.04.024c-.023.008-.042.02-.042.02ZM8.887 2.914l.039-.023c.02-.016.039-.028.039-.028l-.016-.023-.035.027c-.02.016-.039.028-.039.028ZM9.04 2.805l.065-.063-.015-.02-.07.063ZM9.172 2.676l.062-.07-.023-.02-.059.07ZM9.293 2.535s.016-.02.031-.035l.031-.031-.015-.02s-.02.016-.035.031c-.016.016-.032.036-.032.036ZM9.426 2.414s.02-.012.039-.027c.02-.008.039-.02.039-.02l-.012-.027s-.02.012-.043.023c-.02.016-.039.028-.039.028ZM9.586 2.328s.023-.008.043-.012c.023-.007.047-.011.047-.011l-.008-.032s-.023.008-.047.012l-.043.016ZM9.762 2.29s.023-.005.047-.005h.043l.003-.031h-.05c-.02.004-.043.004-.043.004ZM9.941 2.293l.047.008c.02.008.043.011.043.011l.008-.027s-.023-.008-.047-.012l-.043-.007ZM10.117 2.344s.02.008.04.02c.023.007.042.019.042.019l.012-.024-.043-.023c-.02-.008-.04-.02-.04-.02ZM10.273 2.43s.02.015.04.027l.023.023.008.008.02-.02s-.02-.015-.036-.03l-.035-.028ZM10.402 2.555l.008.015q.006.011.012.028c0 .004.004.007.004.015q.005.006.004.012l.004.016.02-.004s-.005-.004-.005-.016c0-.004-.004-.008-.004-.016q-.002-.004-.004-.015-.008-.02-.015-.031-.005-.012-.004-.012ZM10.43 2.727q.001.002-.004.015-.001.013-.008.031l-.02.04.004.003s.016-.02.024-.039q.01-.018.015-.03c0-.009.004-.017.004-.017ZM10.344 2.887l-.016.015c-.008.008-.02.016-.02.016s.012-.008.02-.016zm0 0" style="stroke:none;fill-rule:nonzero;fill:#b13518;fill-opacity:1"/><path d="M8.113 2.453s-.543.207-.875.133c0 0-.5-.078-.484-.32 0 0 .07.02.117.004.277-.086 1.203.093 1.203.093Zm0 0" style="stroke:none;fill-rule:nonzero;fill:#8c2c13;fill-opacity:1"/><path d="M8.277.297 8.187.28ZM8.098.266 8.008.25v.008l.09.012ZM7.918.238l-.09-.011v.015l.09.008ZM7.738.219 7.645.21v.02l.09.003ZM7.555.207l-.09-.004v.024h.09ZM7.371.207h-.09V.23l.094-.003ZM7.191.215l-.09.008V.25l.09-.012ZM7.008.234l-.09.02.008.027.09-.02ZM6.828.273l-.086.028.008.027.086-.027ZM6.656.336l-.082.039.012.027.082-.039ZM6.492.426l-.07.054.02.024.07-.055ZM6.355.55l-.027.036-.023.039.023.016s.012-.02.024-.036l.027-.039ZM6.262.71 6.23.798l.028.008.027-.086ZM6.21.887s-.003.008-.003.015q-.002.013-.004.032C6.2.957 6.2.98 6.2.98h.028s0-.023.003-.042q.002-.019.004-.032c0-.008.004-.015.004-.015ZM6.203 1.074l.02.09.023-.008-.008-.043-.008-.043ZM6.246 1.25l.016.09.023-.004-.015-.09ZM6.277 1.43l.012.093.02-.003-.012-.09ZM6.3 1.613l.009.09h.02L6.32 1.61ZM6.316 1.793l.008.094.012-.004-.004-.09ZM6.328 1.977l.004.09h.008v-.09ZM6.328 2.16l-.008.09h.004l.012-.09Zm0 0" style="stroke:none;fill-rule:nonzero;fill:#d53d15;fill-opacity:1"/><path d="M7.059 1.258s-.063-.113-.18-.051c0 0-.059.027-.086.09-.027.062-.156.8.07 1.039 0 0 .047.055.067.066.117.075.168.043.168.043l-.043-.136Zm0 0" style="stroke:none;fill-rule:nonzero;fill:#614a3f;fill-opacity:1"/><path d="M8.172.21c-.008.06.039.11.101.118a.11.11 0 0 0 .125-.094C8.406.176 8.36.125 8.297.117s-.121.035-.125.094" style="stroke:none;fill-rule:nonzero;fill:#b13518;fill-opacity:1"/><path d="m6.59 2.11.09-.012.004.03-.09.013Zm-.18.027.09-.016.004.031-.09.012Zm-.18.023.09-.012.004.032-.09.011Zm-.113.016h.024l.004.027-.024.004Zm0 0" style="stroke:none;fill-rule:nonzero;fill:#d53d15;fill-opacity:1"/><path d="M10.516 2.754q.001-.001.007-.031a.3.3 0 0 0 .008-.078.48.48 0 0 0-.086-.281.5.5 0 0 0-.144-.145.7.7 0 0 0-.203-.094 1 1 0 0 0-.23-.047q-.059-.007-.122-.008H9.63q-.122.007-.238.02c-.075.008-.153.023-.223.035-.074.012-.145.031-.211.047-.066.015-.125.035-.184.05q-.081.028-.152.055a1 1 0 0 0-.113.047 1 1 0 0 0-.098.047l.106-.023c.03-.008.074-.016.12-.028q.067-.01.157-.027c.027-.008.059-.012.086-.016a1 1 0 0 1 .098-.015c.066-.012.132-.02.207-.032l.218-.023c.078-.004.153-.012.23-.012q.06-.005.114-.004c.04 0 .074 0 .113.004a.95.95 0 0 1 .395.102.48.48 0 0 1 .215.234q.029.065.039.114c.012.066.008.109.008.109" style="stroke:none;fill-rule:nonzero;fill:#cb501b;fill-opacity:1"/><path d="m8.352.293-.18-.059.035-.093Zm0 0" style="stroke:none;fill-rule:nonzero;fill:#8c2c13;fill-opacity:1"/><path d="m8.324 1.906.04-.351s.042-.114-.134-.196c-.175-.086-.695-.32-1.097-.261 0 0-.207.004-.219.21 0 0-.121.876.063 1.04 0 0 .136.168.43.191.296.023.683-.066.777-.113s.117-.313.14-.52" style="stroke:none;fill-rule:nonzero;fill:#c57e65;fill-opacity:1"/><path d="M8.793 1.793s-.254-.203-.453-.012l-.027.223s.316-.07.457.027ZM6.762 1.598s-.676.3-.75.64l.07.301s.27-.336.691-.473Zm0 0" style="stroke:none;fill-rule:nonzero;fill:#614a3f;fill-opacity:1"/><path d="m8.098 2.168.03-.52s.032-.113-.124-.168c-.191-.066-.465-.156-.625-.152-.121 0-.191.035-.211.211l.016.504s-.012.195.191.219c.203.027.598-.004.598-.004s.09-.016.125-.09" style="stroke:none;fill-rule:nonzero;fill:#bce3fa;fill-opacity:1"/><path d="m7.414 2.266.219.007c-.074 0-.153 0-.219-.007" style="stroke:none;fill-rule:nonzero;fill:#c57e65;fill-opacity:1"/><path d="m8.098 2.168.03-.52s.032-.113-.124-.168a3.5 3.5 0 0 0-.488-.14s.425.09.547.12c.117.036.136.157.136.157s-.058.418-.058.535c0 .121-.13.133-.13.133l-.378-.012c.172 0 .34-.015.34-.015s.09-.016.125-.09M6.89 1.559c.012-.051.024-.079.024-.079l.04.567.058-.524-.024.395c0 .316.137.45.137.45.098.179.531.167.559.167a1.7 1.7 0 0 1-.278.004c-.293-.023-.43-.191-.43-.191-.12-.11-.109-.52-.085-.79" style="stroke:none;fill-rule:nonzero;fill:#95604d;fill-opacity:1"/><path d="M8.215 1.879q.01-.06.02-.117.01-.06.015-.117.005-.03.004-.06a.164.164 0 0 0-.047-.117.1.1 0 0 0-.055-.03h-.004c-.09-.024-.18-.04-.27-.06l-.136-.023-.137-.023q.067.022.133.04l.137.03q.135.034.27.063H8.14a.1.1 0 0 1 .074.07q.011.026.015.05v.06a1 1 0 0 0-.007.117 1 1 0 0 0-.008.117M7.715 2.3l-.348-.019s-.148-.031-.176-.113c-.035-.102-.027-.461-.027-.461l-.023.492s.015.133.156.137Zm0 0" style="stroke:none;fill-rule:nonzero;fill:#d98a6e;fill-opacity:1"/><path d="m8.008 2.117.047-.414s.023-.11-.11-.168a4 4 0 0 0-.472-.117s-.11-.02-.207.035c0 0 .113.008.199.035 0 0 .351.086.437.192 0 0 .082.203-.109.164 0 0-.152-.082-.121-.196 0 0-.184.18.078.325l.168.039Zm0 0" style="stroke:none;fill-rule:nonzero;fill:#e0f2fd;fill-opacity:1"/><path d="m7.773 2.223-.359-.028s-.168-.02-.18-.117c-.011-.098.004-.426.004-.426s.02.43.168.477c.153.043.367.094.367.094" style="stroke:none;fill-rule:nonzero;fill:#5ec5f1;fill-opacity:1"/><path d="M7.402 1.617c0 .031.016.055.04.059.027 0 .046-.02.05-.047s-.015-.055-.039-.055c-.023-.004-.047.016-.05.043" style="stroke:none;fill-rule:nonzero;fill:#e0f2fd;fill-opacity:1"/><path d="M8.832 1.734s-.012-.011-.023-.035l.02-.137c.019-.097.108-.156.265-.16-.008 0-.239.043-.262.332" style="stroke:none;fill-rule:nonzero;fill:#95604d;fill-opacity:1"/><path d="m9.785 2.012.067-.106s.039-.101-.125-.152l-.329-.125s.47.066.497.187c0 0 .05.075-.11.196" style="stroke:none;fill-rule:nonzero;fill:#d98a6e;fill-opacity:1"/><path d="m9.621 2.05.063-.12s.043-.168-.485-.227c0 0 .235.102.324.188 0 0-.226-.04-.402.023 0 0 .379.027.406.078l-.058.082Zm0 0" style="stroke:none;fill-rule:nonzero;fill:#e0f2fd;fill-opacity:1"/><path d="M8.742 1.992V1.82s-.152-.16-.34-.039c0 0 .196-.031.278.051l-.008.129Zm0 0" style="stroke:none;fill-rule:nonzero;fill:#775c50;fill-opacity:1"/><path d="m8.406 1.734-.027.258-.066.012.027-.223ZM8.723 2.016l-.047-.024.027.203Zm0 0" style="stroke:none;fill-rule:nonzero;fill:#48352d;fill-opacity:1"/><path d="m8.648 1.793-.007.148-.024-.004.004-.144-.035-.016-.012.114-.02-.004-.007-.114-.035-.003-.004.113-.024-.016-.007-.101s.082-.012.093-.016c.012 0 .078.043.078.043" style="stroke:none;fill-rule:nonzero;fill:#775c50;fill-opacity:1"/><path d="M6.738 1.61s-.015.347.012.464l-.102.035s0-.43.09-.5M6.617 1.707l.031.402-.066.024.012-.406ZM6.57 2.133 6.516 1.8l-.036.015.04.348ZM6.496 2.164l-.047-.25-.047.024.055.253ZM6.426 2.21l-.043-.19-.055.039.04.187ZM6.348 2.262l-.047-.13-.07.04.046.137Zm0 0" style="stroke:none;fill-rule:nonzero;fill:#48352d;fill-opacity:1"/><path d="M6.297 1.926q-.041.03-.082.066a1 1 0 0 0-.07.07 1 1 0 0 0-.067.079l-.023.046-.012.024c0 .012-.004.02-.004.027v.004l.024.121q.01.03.015.059c.008.02.012.039.02.058-.004-.02-.004-.039-.008-.062q-.001-.03-.008-.059c-.004-.039-.008-.082-.016-.12v.003a.04.04 0 0 0 .004-.02l.012-.023q.012-.02.023-.043.006-.006.012-.02.008-.006.016-.019.016-.02.031-.039l.063-.074Zm0 0" style="stroke:none;fill-rule:nonzero;fill:#775c50;fill-opacity:1"/><path d="m6.129 2.352.031-.008-.062-.23-.04.058Zm0 0" style="stroke:none;fill-rule:nonzero;fill:#775c50;fill-opacity:1"/><path d="M6.71 2.094v.074s-.253.035-.362.125c0 0 .226-.156.363-.2" style="stroke:none;fill-rule:nonzero;fill:#8c2c13;fill-opacity:1"/><path d="M7.754 3.598s-.012.109-.004.132c0 0-.047-.02.004-.132" style="stroke:none;fill-rule:nonzero;fill:#f9c3a6;fill-opacity:1"/><path d="M8.2 3.977s-.567-.051-.938-.395c0 0-.051.3.261.414.317.113.32-.031.32-.031" style="stroke:none;fill-rule:nonzero;fill:#ededed;fill-opacity:1"/><path d="M8.254 3.988c-.41 0-.828-.078-1.152-.37l.23-.192c.176.281.55.469.922.562" style="stroke:none;fill-rule:nonzero;fill:#b6927d;fill-opacity:1"/><path d="M8.031 3.52c.07-.043.149.054.16.128.02.09-.082.184-.175.137-.07-.035-.086-.055-.114-.086l.235-.074c.02.383-.586.332-.477-.043l.23.129c-.12.09-.257.082-.343-.04-.07-.136.062-.23.183-.163-.023.015-.097.113-.046.082.011-.016.007-.027.011-.031-.004-.024-.004-.024.008-.032.004-.007.016-.023-.008-.007l.23.128c.024.012-.023-.086-.05-.043-.004.012-.004.028.004.024l.226-.098c0 .012.032.067.004.055-.023-.008-.078.004-.09.035-.011.067.07-.074.012-.101" style="stroke:none;fill-rule:nonzero;fill:#b6927d;fill-opacity:1"/><use xlink:href="#K" mask="url(#L)"/><path d="M6.887 3.203c-.012-.027-.016-.078-.012-.129.008-.086.043-.148.074-.144.028.004.047.074.035.156a.4.4 0 0 1-.027.11ZM8.758 3.512a.3.3 0 0 1-.012-.133c.008-.082.04-.149.07-.145.032.004.051.075.04.157a.24.24 0 0 1-.032.109Zm0 0" style="stroke:none;fill-rule:nonzero;fill:#614a3f;fill-opacity:1"/><path d="M8.965 3.512s-.02-.012-.05-.016q-.028-.007-.056-.008a.2.2 0 0 0-.066 0c-.008 0-.02.004-.031.004q-.014.004-.028.008l-.054.023c-.028.016-.043.032-.043.032s.023.004.054 0h.051c.02-.004.04-.004.059-.008q.03-.001.058-.008a.2.2 0 0 0 .055-.008c.027-.008.05-.02.05-.02M7.11 3.203s-.02-.012-.055-.02Q7.033 3.178 7 3.177c-.02-.004-.04 0-.062 0-.008 0-.02.004-.032.004q-.013.004-.031.007-.029.012-.05.024c-.028.016-.044.035-.044.035s.024 0 .055-.004h.05q.03-.001.06-.008.028-.001.058-.007.029-.001.05-.008c.032-.008.055-.016.055-.016" style="stroke:none;fill-rule:nonzero;fill:#caa189;fill-opacity:1"/><path d="M6.152 7.977a.23.23 0 0 0 .11.195c.11.062.125-.027.187-.09.106-.113.332-.137.473-.078a.43.43 0 0 1 .25.406c-.024.184-.188.168-.32.223-.11.043-.168.156-.278.21-.152.079-.34.04-.504.005-.34-.078-.738-.309-.605-.715M3.906 6.164c.024-.035-.035-.176-.047-.215-.023-.078-.05-.133-.117-.176-.074-.05-.222-.058-.281.024-.113.156-.02.492.18.531" style="stroke:none;fill-rule:nonzero;fill:#f9c3a6;fill-opacity:1"/><path d="m3.86 6.156-.067.09-.406-.316.09-.067s.191.235.382.293" style="stroke:none;fill-rule:nonzero;fill:#caa189;fill-opacity:1"/><path d="M10.41 9.148s-.383.887-.683.922c0 0-.184.114-.223-.234 0 0-.156.402.184.59l.601-.227Zm0 0" style="stroke:none;fill-rule:nonzero;fill:#0090be;fill-opacity:1"/><path d="M9.781 10.39s-.02.294.164.383c.184.086.422-.332.422-.332l.258-.234s-.312-.867-.234-.887" style="stroke:none;fill-rule:nonzero;fill:#00769b;fill-opacity:1"/><path d="M13.441 9.07s-.105-1.027-1.668-1.03c-1.406-.005-1.37 1.374-1.507 1.8s-.203.566-.203.566l.851.098 1.508-.418" style="stroke:none;fill-rule:nonzero;fill:#ededed;fill-opacity:1"/><path d="M12.898 9.582s0-.297-.98-.352c-.742-.043-1.137.645-1.36 1.25-.222.602 2.11-.77 2.11-.77" style="stroke:none;fill-rule:nonzero;fill:#b5b3b2;fill-opacity:1"/><path d="M12.926 9.348s-.04-.028-.11-.07a2.2 2.2 0 0 0-.53-.22 1.6 1.6 0 0 0-.536-.042 1 1 0 0 0-.281.066l-.035.012-.032.015q-.033.013-.066.032a1.56 1.56 0 0 0-.34.25 2 2 0 0 0-.305.382 2.3 2.3 0 0 0-.203.426s.02-.043.063-.113a3 3 0 0 1 .324-.461q.076-.088.176-.176.094-.088.21-.16a1 1 0 0 1 .177-.098l.035-.015.027-.012q.128-.045.262-.062.134-.013.261-.008.129.012.247.035.118.02.218.05c.133.04.242.083.32.114.075.031.118.055.118.055" style="stroke:none;fill-rule:nonzero;fill:#b5b3b2;fill-opacity:1"/><path d="M13.168 8.895q-.001 0-.02-.036-.022-.037-.074-.097a.4.4 0 0 0-.058-.063q-.032-.035-.075-.07-.02-.018-.043-.035l-.046-.035c-.02-.012-.036-.028-.055-.04l-.055-.035a1.5 1.5 0 0 0-.265-.12q-.017-.009-.04-.016-.017-.004-.035-.008l-.078-.024q-.02-.007-.043-.007a.1.1 0 0 0-.039-.008c-.027-.004-.055-.012-.086-.016-.011 0-.027-.004-.039-.004q-.024-.005-.043-.004c-.031-.004-.058-.004-.09-.007l-.043-.004c-.015 0-.027.004-.043.004h-.09c-.03.003-.058 0-.09.003l-.09.012-.089.012-.012.004h-.011q-.012.001-.024.008l-.047.011q-.043.013-.09.032l-.085.035c-.028.011-.055.027-.082.039l-.079.047a.5.5 0 0 0-.074.05.5.5 0 0 0-.074.051l-.066.055-.067.059-.058.058q-.031.034-.055.063-.031.034-.055.062c-.015.024-.031.043-.043.066L10.57 9l-.035.063-.039.062c-.004.012-.012.02-.016.031-.003.008-.011.02-.015.031q-.029.06-.05.118c-.005.008-.009.02-.013.027-.004.008-.007.02-.011.027-.004.02-.012.036-.016.055q-.018.052-.031.094c-.012.031-.016.058-.024.086-.011.05-.015.09-.023.117q-.007.042-.008.043l.02-.04c.007-.027.027-.062.046-.109.02-.046.051-.101.082-.164q.05-.093.122-.203.005-.01.015-.027.01-.012.02-.024c.011-.019.027-.039.039-.054q.02-.03.043-.059.023-.024.047-.054.022-.025.047-.055l.054-.05q.025-.028.055-.056a1.57 1.57 0 0 1 .32-.234q.036-.016.07-.04.04-.016.075-.034c.027-.012.05-.02.078-.031.023-.008.05-.02.074-.024l.04-.012c.003 0 .007-.004.015-.004h.004s.004-.003 0 0l.004-.003h.011l.082-.012.082-.012q.047-.005.086-.004a2 2 0 0 1 .32-.004c.028.004.051.008.079.008l.074.012.074.012a.1.1 0 0 0 .035.007q.018.007.036.008c.046.016.093.024.132.043a.7.7 0 0 1 .125.047l.055.023c.02.008.035.02.055.028l.05.023q.024.016.047.031c.028.016.055.036.078.051.028.016.047.035.07.051a1 1 0 0 1 .118.106" style="stroke:none;fill-rule:nonzero;fill:#fff;fill-opacity:1"/><path d="m12.848 8.605-.059.52-.059-.586-.117-.055-.062.555-.078-.605-.153-.043-.004.574-.191-.043.063-.559-.204-.008.012.551s-.152.035-.148.004l-.008-.574-.195.035.039.52-.102.039-.137-.516-.136.106.078.445-.13.035-.12-.441-.121.132.117.461-.09.102-.117-.465-.074.09.113.441-.074.09-.125-.469-.082.094.144.43-.05.086-.169-.426-.07.102.152.375-.011.105-.188-.375.375-.602s.488-.289.508-.324c.023-.031.52-.094.543-.097.027 0 .5.078.5.078Zm0 0" style="stroke:none;fill-rule:nonzero;fill:#fff;fill-opacity:1"/><path d="M10.96 9.883c.11-.215.388-.406.392-.406.277-.215.945-.11.953-.106l.004-.031c-.028-.004-.688-.113-.973.11-.012.007-.29.195-.402.417Zm0 0" style="stroke:none;fill-rule:nonzero;fill:#a3a0a0;fill-opacity:1"/><path d="m11.953 9.672.238-.059-.074-.281-.027.008.066.25-.18.043-.05-.309-.028.004ZM11.57 9.79l.223-.056-.102-.394-.027.004.09.367-.164.039-.098-.363-.027.008ZM11.234 9.879l.215-.031-.125-.368-.027.012.11.332-.15.02-.066-.25-.03.008ZM11.086 9.938l.031-.004-.039-.227-.031.008Zm0 0" style="stroke:none;fill-rule:nonzero;fill:#a3a0a0;fill-opacity:1"/><path d="m10.43 9.402.156.43s-.027.086-.031.07c0-.011-.153-.406-.153-.406l-.05.066.12.438-.042.04-.121-.352.046.374-.02.004-.062-.254.098-.343Zm0 0" style="stroke:none;fill-rule:nonzero;fill:#fff;fill-opacity:1"/><path d="m8.004 10.16.387.383s1.593-.656 2.441-.668l2.555-1.004s.468-.312.394-.648c0 0 .309.343.211.57l-4.758 1.742s-.02.324-.203.348-.863-.078-.863-.078l-.29-.227-.151-.05.023-.223.098-.18Zm0 0" style="stroke:none;fill-rule:nonzero;fill:#ededed;fill-opacity:1"/><path d="m14.188 8.668.03-.266-.808.536Zm0 0" style="stroke:none;fill-rule:nonzero;fill:#ededed;fill-opacity:1"/><path d="m9.117 10.523-.203.079s.266.187-.535.046c0 0-.547-.062-.387-.316l-.23-.238s-.028.5-.008.511l.14.079s.204-.008.254.027.258.07.258.07l.254.082.16.016.13-.035.136-.031c.062-.028.172-.16.172-.16Zm0 0" style="stroke:none;fill-rule:nonzero;fill:#dadada;fill-opacity:1"/><path d="M14.418 8.543s-4.258 1.676-5.3 1.98c0 0 .284.391-.68.22 0 0-.813-.114-.637-.372l.086-.152S4.719 6.867 2.762 5.445l.965 5.887 2.804 2.957s-.015.285.387.41c.398.13.516.04.574-.136l3.613-1.329Zm0 0" style="stroke:none;fill-rule:nonzero;fill:#80537c;fill-opacity:1"/><path d="M7.672 10.68s-.27-.063-.117-.356l.136-.125-4.808-4.52.836 5.614 2.808 2.832s-.054.129.086.207Zm0 0" style="stroke:none;fill-rule:nonzero;fill:#5e3c5a;fill-opacity:1"/><path d="M5.688 8.316s-.172.348-.438.274c-.266-.07-.469-.438-.316-.797s.687.457.753.523M4.926 7.617s-.031.399-.508.281c-.473-.117.187-.597.187-.597ZM4.219 7.23s-.176.262-.477.102c-.281-.152-.023-.539-.023-.539Zm0 0" style="stroke:none;fill-rule:nonzero;fill:#43293f;fill-opacity:1"/><path d="m5.688 8.316.113-.199-1.235-1.16.125.457Zm0 0" style="stroke:none;fill-rule:nonzero;fill:#5e3c5a;fill-opacity:1"/><path d="M7.66 10.195s-.152.078-.195.192l-.938 3.738-1.87-1.89L6 13.343l.988-2.356-.687 2.543 1.097-3.222s.047-.106.262-.114" style="stroke:none;fill-rule:nonzero;fill:#43293f;fill-opacity:1"/><path d="m8.469 13.992.554-1.613-.988 1.687 1.207-2.992s.344-.164.09-.476c0 0 .113.347-.27.41l-1.539 3.426 1.403-.528" style="stroke:none;fill-rule:nonzero;fill:#5e3c5a;fill-opacity:1"/><path d="M13.387 8.871 10.832 9.88l-.156-.004s2.52-.922 2.71-1.004" style="stroke:none;fill-rule:nonzero;fill:#a3a0a0;fill-opacity:1"/><path d="M8.223 10.914s-.024-.012-.063-.023c-.133-.055-.441-.176-.57-.25l-.012.097M7.086 12.71l.14.114-.218-.023Zm0 0" style="stroke:none;fill-rule:nonzero;fill:#5e3c5a;fill-opacity:1"/><path d="m6.34 8.89.02.215-.188-.445" style="stroke:none;fill-rule:nonzero;fill:#80537c;fill-opacity:1"/><path d="M9.238 10.828s-.226.223-.851.106c0 0-.473-.086-.676-.278 0 0 .809.426 1.527.172M8.922 11.086l-1.57 3.594s-.415 0-.653-.2l.383.047.875-2.347-.66 2.23 1.316-3.36s.11.044.309.036M11.215 12.91l2.765-4.015-4.425 1.73 3.968-1.418-2.691 1.902 2.285-1.48-2.164 2.539 1.813-1.961Zm0 0" style="stroke:none;fill-rule:nonzero;fill:#966091;fill-opacity:1"/><path d="M8.695 11.832s-.652.434-1.511-.328l-.055.223s.68.671 1.469.316Zm0 0" style="stroke:none;fill-rule:nonzero;fill:#5e3c5a;fill-opacity:1"/><path d="M8.254 12.172s-.352.039-.656-.113c0 0 .25.222.586.226M7.262 12.785l-.13-.098.126-.488-.051.434Zm0 0" style="stroke:none;fill-rule:nonzero;fill:#966091;fill-opacity:1"/><path d="M8.004 10.16S6.313 8.195 5.727 7.98l-.032.051 2.188 2.188ZM3.785 6.262s.082.047.016-.028c-.164-.168-.582-.578-.715-.843l-.098.222Zm0 0" style="stroke:none;fill-rule:nonzero;fill:#ededed;fill-opacity:1"/><path d="M3.594 6.066s-.25-.406-.285-.605l-.09.148-.012.11Zm0 0" style="stroke:none;fill-rule:nonzero;fill:#ededed;fill-opacity:1"/><path d="m3.504 5.926-.285-.317.031-.05ZM7.746 10.027l-.504-.511-.508-.512-1.02-1.02-.015.028q.1.059.192.129.095.07.183.148.182.147.352.313c.23.214.449.437.672.66q.326.338.648.683c.106.117.215.23.32.348l.157.176c.05.058.105.117.156.18l-.152-.18-.157-.18-.312-.351c-.215-.235-.426-.465-.645-.692q-.327-.341-.668-.664a7 7 0 0 0-.535-.465 2 2 0 0 0-.195-.133l-.106-.058.086.082L6.72 9.02l.511.503Zm0 0" style="stroke:none;fill-rule:nonzero;fill:#dadada;fill-opacity:1"/><path d="M6.852 9.07s-.016-.02-.043-.047c-.028-.03-.07-.074-.118-.128l-.171-.172-.2-.2-.203-.191a5 5 0 0 0-.183-.164l-.075-.063a.4.4 0 0 1-.058-.046c-.035-.024-.055-.04-.055-.04s.02.016.05.047a1 1 0 0 1 .056.047c.02.024.046.043.07.07q.041.036.082.079.046.041.094.09.099.094.199.195l.203.191q.1.095.176.172c.105.098.176.16.176.16M10.832 9.875s-1.926-.043-2.441.668Zm0 0" style="stroke:none;fill-rule:nonzero;fill:#dadada;fill-opacity:1"/><path d="M8.508 10.566c.426-.507 2.234-.652 2.25-.652v-.031c-.074.004-1.84.144-2.274.664Zm0 0" style="stroke:none;fill-rule:nonzero;fill:#ededed;fill-opacity:1"/><path d="M8.39 10.613c.4-.316 2.426-.718 2.446-.722l.125-.024-.125-.004c-.02-.004-1.777-.07-2.457.668l.023.024c.555-.61 1.856-.664 2.29-.664-.473.097-1.973.422-2.317.699Zm0 0" style="stroke:none;fill-rule:nonzero;fill:#ededed;fill-opacity:1"/><path d="M10.09 10.156s-.024.004-.063.016q-.065.014-.172.039-.112.029-.242.062-.136.043-.277.079l-.274.085a7 7 0 0 0-.332.122 1 1 0 0 0-.07.035c-.02.008-.031.02-.043.023q-.012.007-.012.008-.001.002.016-.008l.043-.02c.02-.007.043-.019.07-.027q.047-.013.098-.03.051-.019.11-.036.063-.02.128-.04.131-.04.274-.081.142-.042.273-.082.136-.04.242-.074c.07-.02.13-.04.168-.051zM13.98 8.543l-.515.355.473-.453Zm0 0" style="stroke:none;fill-rule:nonzero;fill:#dadada;fill-opacity:1"/><path d="M6.148 8.137s.082-.934-.464-1.176c-.547-.242-.778.828-.778.828s-.164.582.34.621c0 0 .309.106.387-.332 0 0 .156-.223.258-.105Zm0 0" style="stroke:none;fill-rule:nonzero;fill:#f9c3a6;fill-opacity:1"/><path d="M5.324 6.992s-.015-.492-.488-.625c-.473-.137-.695.625-.703.774-.004.148-.102.687.265.75 0 0 .5.164.438-.563 0 0 .098-.101.207.055l.219-.34" style="stroke:none;fill-rule:nonzero;fill:#f9c3a6;fill-opacity:1"/><path d="M4.512 6.523s-.121-.507-.465-.476c-.34.027-.59 1-.399 1.117.188.121.352.191.586-.152l.22-.285Zm0 0" style="stroke:none;fill-rule:nonzero;fill:#f9c3a6;fill-opacity:1"/><use xlink:href="#M" mask="url(#N)"/><use xlink:href="#O" mask="url(#P)"/><use xlink:href="#Q" mask="url(#R)"/><path d="M4.277 6.695s-.132.313-.144.446c0 0-.223.261-.516-.008 0 0 .145.054.309-.016.16-.07.351-.422.351-.422M5.727 7.977s.05-.184.207-.188l-.11.149.242.253s-.242-.199-.34-.214" style="stroke:none;fill-rule:nonzero;fill:#caa189;fill-opacity:1"/><path d="m5.074 7.332-.039.063-.137-.098s.079-.024.176.035" style="stroke:none;fill-rule:nonzero;fill:#ededed;fill-opacity:1"/><path d="m5.152 7.195-.078.137s-.136-.086-.238-.004c0 0 .187-.258.316-.133" style="stroke:none;fill-rule:nonzero;fill:#caa189;fill-opacity:1"/><use xlink:href="#S" mask="url(#T)"/><use xlink:href="#U" mask="url(#V)"/><path d="m3.57 1.422-.015.164-.442.746-.117.016-.601-.801.593.723.09-.016.473-.84Zm0 0" style="stroke:none;fill-rule:nonzero;fill:#4b7687;fill-opacity:1"/><path d="m3.336 1.39-.016.196.082-.188-.05.243.12-.227-.062.227-.312.578-.059-.047Zm0 0" style="stroke:none;fill-rule:nonzero;fill:#dadada;fill-opacity:1"/><path d="m3.55 1.395-.452.835-.09.012-.598-.734-.015.039.601.73.117-.015.457-.84Zm0 0" style="stroke:none;fill-rule:nonzero;fill:#558599;fill-opacity:1"/><path d="m3.527 1.445-.43.785-.09.012-.57-.699.54.633-.489-.68.52.676-.406-.692.425.692.309-.781-.27.777.336-.77-.3.766" style="stroke:none;fill-rule:nonzero;fill:#ededed;fill-opacity:1"/><path d="M14.18 1.738v.239l-.22-.305v.226l-.12-.16-.043.39 1.129.837.058-.016" style="stroke:none;fill-rule:nonzero;fill:#dadada;fill-opacity:1"/><path d="m16.797 1.848-1.465 1.117h-.387l-1.187-1.227-.055.395 1.195.894h.395l1.516-1.12Zm0 0" style="stroke:none;fill-rule:nonzero;fill:#a1be4e;fill-opacity:1"/><path d="m15.816 1.656-.304.364-.43.867" style="stroke:none;fill-rule:nonzero;fill:#fff;fill-opacity:1"/><path d="M13.96 1.898v-.05l.966 1.086Zm0 0" style="stroke:none;fill-rule:nonzero;fill:#b5b3b2;fill-opacity:1"/><path d="m16.086 1.7-.324.296-.61.899" style="stroke:none;fill-rule:nonzero;fill:#fff;fill-opacity:1"/><path d="m16.797 1.848-.672.226-.89.89h.097Zm0 0" style="stroke:none;fill-rule:nonzero;fill:#87a042;fill-opacity:1"/><path d="m15.32 2.875.97-1.094-1.036 1.086.832-1.168-.934 1.196.664-1.239-.738 1.239.461-1.293-.555 1.304-.804-1.168.765 1.227h.309L16.55 1.87l.027-.02" style="stroke:none;fill-rule:nonzero;fill:#ededed;fill-opacity:1"/><path d="m15.54 1.602-.255.476-.3.828M16.29 1.781l-.356.223-.68.863" style="stroke:none;fill-rule:nonzero;fill:#fff;fill-opacity:1"/><path d="m16.18 1.969-.89.945 1.241-1.027Zm0 0" style="stroke:none;fill-rule:nonzero;fill:#ededed;fill-opacity:1"/><path d="m16.383 2.016.148-.024-1.277.973Zm0 0" style="stroke:none;fill-rule:nonzero;fill:#697e34;fill-opacity:1"/><path d="M14.926 2.984 13.773 1.81l-.058.332 1.176.879Zm0 0" style="stroke:none;fill-rule:nonzero;fill:#87a042;fill-opacity:1"/><path d="m14.926 2.906-.746-.93v-.054Zm0 0" style="stroke:none;fill-rule:nonzero;fill:#b5b3b2;fill-opacity:1"/><path d="m.363 11.371.008.188-.183-.235.007.18-.101-.125-.02.309.906.62.047-.011" style="stroke:none;fill-rule:nonzero;fill:#dadada;fill-opacity:1"/><path d="m2.418 11.383-1.117.914-.301.012-.969-.926-.031.312.965.664.308-.011 1.157-.922Zm0 0" style="stroke:none;fill-rule:nonzero;fill:#a1be4e;fill-opacity:1"/><path d="m1.645 11.258-.23.297-.313.687" style="stroke:none;fill-rule:nonzero;fill:#fff;fill-opacity:1"/><path d="M.195 11.504v-.04l.785.821Zm0 0" style="stroke:none;fill-rule:nonzero;fill:#b5b3b2;fill-opacity:1"/><path d="m1.855 11.285-.246.242-.453.723" style="stroke:none;fill-rule:nonzero;fill:#fff;fill-opacity:1"/><path d="m2.418 11.383-.52.195-.671.723.074-.004Zm0 0" style="stroke:none;fill-rule:nonzero;fill:#87a042;fill-opacity:1"/><path d="m1.29 12.227.726-.883-.778.879.617-.938-.699.965.489-.992-.547.992.324-1.023-.395 1.035-.664-.89.633.937.246-.008.985-.895.02-.02" style="stroke:none;fill-rule:nonzero;fill:#ededed;fill-opacity:1"/><path d="m1.422 11.227-.184.378-.21.657M2.016 11.344l-.27.183-.508.696" style="stroke:none;fill-rule:nonzero;fill:#fff;fill-opacity:1"/><path d="m1.938 11.492-.672.77.945-.844Zm0 0" style="stroke:none;fill-rule:nonzero;fill:#ededed;fill-opacity:1"/><path d="m2.098 11.523.117-.023-.973.8Zm0 0" style="stroke:none;fill-rule:nonzero;fill:#697e34;fill-opacity:1"/><path d="m.98 12.328-.933-.89-.035.261.945.656Zm0 0" style="stroke:none;fill-rule:nonzero;fill:#87a042;fill-opacity:1"/><path d="m.98 12.262-.609-.703-.004-.043Zm0 0" style="stroke:none;fill-rule:nonzero;fill:#b5b3b2;fill-opacity:1"/><use xlink:href="#W" mask="url(#X)"/><path d="M24.25 3.496c0-1.035.453-1.426 1.172-1.426s1.172.39 1.172 1.426v7.824c0 1.032-.453 1.426-1.172 1.426s-1.172-.394-1.172-1.426Zm-2.262 7.676c0 2.316 1.211 3.64 3.434 3.64 2.219 0 3.433-1.324 3.433-3.64V3.64C28.855 1.324 27.641 0 25.422 0c-2.223 0-3.434 1.324-3.434 3.64ZM30.211.164v11.031c0 2.313 1.152 3.64 3.375 3.64 2.219 0 3.371-1.327 3.371-3.64V.165h-2.14V11.34c0 1.035-.454 1.406-1.172 1.406-.72 0-1.172-.371-1.172-1.406V.164Zm7.629 2.07h2.367v12.414h2.262V2.234h2.367V.164H37.84ZM50.426 1.66c0-.43.187-.594.484-.594.3 0 .492.164.492.594v3.262c0 .426-.191.594-.492.594-.297 0-.484-.168-.484-.594Zm-.946 3.2c0 .964.508 1.515 1.43 1.515.93 0 1.434-.55 1.434-1.516V1.72c0-.965-.504-1.516-1.434-1.516-.922 0-1.43.55-1.43 1.516Zm4.415-3.727h1.55v-.86h-2.492V6.31h.942V3.816h1.218v-.863h-1.218ZM47.52 9.41h.984v5.172h.941V9.41h.985v-.86h-2.91Zm4.265 2.586h1.074v2.586h.957V8.551h-.957v2.586h-1.074V8.55h-.941v6.031h.941Zm3.66-2.586h1.63v-.86H54.5v6.032h2.574v-.86h-1.629v-1.769h1.293v-.863h-1.293Zm0 0" style="stroke:none;fill-rule:nonzero;fill:#69b29e;fill-opacity:1"/><use xlink:href="#Y" mask="url(#Z)"/><path d="M63.727.184h-3.414v14.484h3.558c2.262 0 3.434-1.2 3.434-3.434v-1.18c0-1.534-.473-2.628-1.688-3.105 1.008-.476 1.461-1.426 1.461-2.918v-.515c0-2.235-1.012-3.332-3.351-3.332m-.145 7.964c1.027 0 1.457.418 1.457 1.758v1.266c0 1.074-.41 1.426-1.168 1.426h-1.297v-4.45Zm.078-5.894c.805 0 1.156.457 1.156 1.492v.805c0 1.156-.515 1.531-1.359 1.531h-.883V2.254Zm7.078 1.262c0-1.036.453-1.426 1.172-1.426s1.176.39 1.176 1.426v7.824c0 1.031-.457 1.426-1.176 1.426s-1.172-.395-1.172-1.426Zm-2.261 7.675c0 2.317 1.214 3.641 3.433 3.641 2.223 0 3.434-1.324 3.434-3.64V3.66c0-2.316-1.211-3.64-3.434-3.64-2.219 0-3.433 1.324-3.433 3.64Zm10.406-7.675c0-1.036.453-1.426 1.172-1.426s1.172.39 1.172 1.426v7.824c0 1.031-.454 1.426-1.172 1.426-.72 0-1.172-.395-1.172-1.426ZM76.62 11.19c0 2.317 1.215 3.641 3.434 3.641 2.222 0 3.433-1.324 3.433-3.64V3.66c0-2.316-1.21-3.64-3.433-3.64-2.22 0-3.434 1.324-3.434 3.64Zm13.488 3.477h2.325l-3.145-8.031L92.434.184h-2.262L87.21 6.496V.184h-2.262v14.484h2.262v-4.45l.7-1.32ZM93.07 3.66c0 4.137 4.422 4.695 4.422 7.68 0 1.031-.453 1.402-1.172 1.402s-1.172-.37-1.172-1.402v-1.035h-2.136v.886c0 2.317 1.148 3.641 3.37 3.641 2.22 0 3.372-1.324 3.372-3.64 0-4.137-4.422-4.696-4.422-7.676 0-1.036.414-1.426 1.133-1.426s1.133.39 1.133 1.426v.601h2.136V3.66c0-2.316-1.132-3.64-3.328-3.64-2.203 0-3.336 1.324-3.336 3.64m0 0" style="stroke:none;fill-rule:nonzero;fill:#69b29e;fill-opacity:1"/></svg>